<svg xmlns="http://www.w3.org/2000/svg" xmlns:xlink="http://www.w3.org/1999/xlink" width="70.083" height="109.636">
  <defs>
    <clipPath id="clip-path">
      <rect x="24.894" y="45.863" width="3.635" height="3.91" transform="translate(-10.016 7.183) rotate(-12.92)" style="fill: none"/>
    </clipPath>
    <clipPath id="clip-path-2">
      <rect x="36.325" y="73.12" width="3.92" height="3.669" transform="translate(-45.866 73.374) rotate(-61.867)" style="fill: none"/>
    </clipPath>
    <clipPath id="clip-path-3">
      <rect x="44.101" y="58.857" width="3.92" height="3.669" transform="matrix(0.472, -0.882, 0.882, 0.472, -29.179, 72.694)" style="fill: none"/>
    </clipPath>
    <clipPath id="clip-path-4">
      <rect x="35.403" y="80.343" width="2.791" height="2.791" transform="translate(-52.532 74.295) rotate(-61)" style="fill: none"/>
    </clipPath>
  </defs>
  <title>5</title>
  <g id="Stairs_Outline" data-name="Stairs Outline">
    <path d="M35.772,43.775l17.6-3.905a4.293,4.293,0,0,1-.127.692,12.171,12.171,0,0,1-.812,1.687L43.846,58,38.7,61.282l.8,1.53c.052.074.623-.435,1.011-.56a1.812,1.812,0,0,1,.977.1l-4.521,8.327-.252-.14.948-1.725-1.494-.611-.887,1.52-.471-.27-4.272-19.17s-.2-.76-.035-1.048a3.48,3.48,0,0,1,.687-.7l4.187-3.45a1.727,1.727,0,0,0,.436-.534A1.92,1.92,0,0,0,35.772,43.775Z" style="fill: #77827a;stroke: #b4897d;stroke-width: 0.08px"/>
    <path d="M36.721,70.542l-1.9-1.086-4.272-19.17s-.2-.76-.035-1.048a3.48,3.48,0,0,1,.687-.7l4.187-3.45a1.727,1.727,0,0,0,.436-.534,2.237,2.237,0,0,0-.069-.854" style="fill: none;stroke: #b4897d;stroke-miterlimit: 10;stroke-width: 0.08px"/>
    <path d="M53.368,39.846a4.438,4.438,0,0,1-.127.716,12.171,12.171,0,0,1-.812,1.687L43.846,58,38.7,61.282l.8,1.53c.052.074.623-.435,1.011-.56a1.812,1.812,0,0,1,.977.1l-4.521,8.327-.252-.14" style="fill: none;stroke: #b4897d;stroke-miterlimit: 10;stroke-width: 0.08px"/>
  </g>
  <g id="Stairs">
    <g>
      <path d="M43.978,57.828l-8.933,5.746a2.376,2.376,0,0,0-.8.689,1.5,1.5,0,0,0-.178.876l.969,4.443L36.852,70.6l-.767-4.532a1.421,1.421,0,0,1,.061-.6,1.541,1.541,0,0,1,.527-.631L40.1,62.483a1.689,1.689,0,0,1,.832-.246,1.284,1.284,0,0,1,.573.138Z" style="fill: #fff;stroke: #b4897d;stroke-linecap: square;stroke-width: 0.08px"/>
      <line x1="35.444" y1="63.369" x2="36.425" y2="64.97" style="fill: none;stroke: #b4897d;stroke-linecap: square;stroke-width: 0.08px"/>
      <line x1="35.936" y1="63.06" x2="36.916" y2="64.661" style="fill: none;stroke: #b4897d;stroke-linecap: square;stroke-width: 0.08px"/>
      <line x1="36.427" y1="62.752" x2="37.385" y2="64.315" style="fill: none;stroke: #b4897d;stroke-linecap: square;stroke-width: 0.08px"/>
      <line x1="36.919" y1="62.443" x2="37.899" y2="64.044" style="fill: none;stroke: #b4897d;stroke-linecap: square;stroke-width: 0.08px"/>
      <line x1="37.41" y1="62.134" x2="38.391" y2="63.735" style="fill: none;stroke: #b4897d;stroke-linecap: square;stroke-width: 0.08px"/>
      <line x1="37.865" y1="61.765" x2="38.848" y2="63.369" style="fill: none;stroke: #b4897d;stroke-linecap: square;stroke-width: 0.08px"/>
      <line x1="38.356" y1="61.456" x2="39.311" y2="63.014" style="fill: none;stroke: #b4897d;stroke-linecap: square;stroke-width: 0.08px"/>
      <line x1="38.848" y1="61.147" x2="39.792" y2="62.689" style="fill: none;stroke: #b4897d;stroke-linecap: square;stroke-width: 0.08px"/>
      <line x1="39.335" y1="60.834" x2="40.27" y2="62.358" style="fill: none;stroke: #b4897d;stroke-linecap: square;stroke-width: 0.08px"/>
      <line x1="39.834" y1="60.522" x2="40.875" y2="62.222" style="fill: none;stroke: #b4897d;stroke-linecap: square;stroke-width: 0.08px"/>
      <line x1="40.322" y1="60.22" x2="41.543" y2="62.212" style="fill: none;stroke: #b4897d;stroke-linecap: square;stroke-width: 0.08px"/>
      <line x1="40.793" y1="59.877" x2="41.864" y2="61.626" style="fill: none;stroke: #b4897d;stroke-linecap: square;stroke-width: 0.08px"/>
      <line x1="41.283" y1="59.566" x2="42.189" y2="61.045" style="fill: none;stroke: #b4897d;stroke-linecap: square;stroke-width: 0.08px"/>
      <line x1="41.771" y1="59.252" x2="42.512" y2="60.462" style="fill: none;stroke: #b4897d;stroke-linecap: square;stroke-width: 0.08px"/>
      <line x1="42.258" y1="58.935" x2="42.851" y2="59.904" style="fill: none;stroke: #b4897d;stroke-linecap: square;stroke-width: 0.08px"/>
      <line x1="42.746" y1="58.62" x2="43.154" y2="59.287" style="fill: none;stroke: #b4897d;stroke-linecap: square;stroke-width: 0.08px"/>
      <line x1="34.413" y1="66.72" x2="36.129" y2="66.447" style="fill: none;stroke: #b4897d;stroke-linecap: square;stroke-width: 0.08px"/>
      <line x1="34.326" y1="66.129" x2="36.042" y2="65.856" style="fill: none;stroke: #b4897d;stroke-linecap: square;stroke-width: 0.08px"/>
      <line x1="34.072" y1="64.97" x2="36.146" y2="65.476" style="fill: none;stroke: #b4897d;stroke-linecap: square;stroke-width: 0.08px"/>
      <line x1="34.536" y1="63.928" x2="36.297" y2="65.193" style="fill: none;stroke: #b4897d;stroke-linecap: square;stroke-width: 0.08px"/>
      <line x1="34.536" y1="67.242" x2="36.207" y2="66.976" style="fill: none;stroke: #b4897d;stroke-linecap: square;stroke-width: 0.08px"/>
      <line x1="34.659" y1="67.764" x2="36.307" y2="67.502" style="fill: none;stroke: #b4897d;stroke-linecap: square;stroke-width: 0.08px"/>
      <line x1="34.782" y1="68.286" x2="36.425" y2="68.025" style="fill: none;stroke: #b4897d;stroke-linecap: square;stroke-width: 0.08px"/>
      <line x1="34.905" y1="68.808" x2="36.499" y2="68.555" style="fill: none;stroke: #b4897d;stroke-linecap: square;stroke-width: 0.08px"/>
      <line x1="35.028" y1="69.331" x2="36.567" y2="69.085" style="fill: none;stroke: #b4897d;stroke-linecap: square;stroke-width: 0.08px"/>
      <line x1="35.395" y1="69.814" x2="36.665" y2="69.611" style="fill: none;stroke: #b4897d;stroke-linecap: square;stroke-width: 0.08px"/>
    </g>
    <path d="M32.3,57.971,38.959,63.2s.65.532.745.88a1.016,1.016,0,0,1-.06.894c-.184.406-2.87,5.584-2.87,5.584L35.4,69.814l2.3-4.05a3.076,3.076,0,0,0,.23-.8.863.863,0,0,0-.4-.664c-.225-.179-2.283-1.871-2.872-2.289a1.636,1.636,0,0,0-.946-.352,1.276,1.276,0,0,0-.572.138Z" style="fill: #fff;stroke: #b4897d;stroke-linecap: square;stroke-width: 0.08px"/>
    <line x1="38.652" y1="62.962" x2="37.634" y2="64.352" style="fill: none;stroke: #b4897d;stroke-linecap: square;stroke-width: 0.08px"/>
    <line x1="38.166" y1="62.58" x2="37.143" y2="63.989" style="fill: none;stroke: #b4897d;stroke-linecap: square;stroke-width: 0.08px"/>
    <line x1="37.708" y1="62.222" x2="36.721" y2="63.583" style="fill: none;stroke: #b4897d;stroke-linecap: square;stroke-width: 0.08px"/>
    <line x1="37.221" y1="61.906" x2="36.251" y2="63.242" style="fill: none;stroke: #b4897d;stroke-linecap: square;stroke-width: 0.08px"/>
    <line x1="36.779" y1="61.526" x2="35.787" y2="62.892" style="fill: none;stroke: #b4897d;stroke-linecap: square;stroke-width: 0.08px"/>
    <line x1="36.318" y1="61.174" x2="35.355" y2="62.5" style="fill: none;stroke: #b4897d;stroke-linecap: square;stroke-width: 0.08px"/>
    <line x1="35.871" y1="60.801" x2="34.874" y2="62.174" style="fill: none;stroke: #b4897d;stroke-linecap: square;stroke-width: 0.08px"/>
    <line x1="35.405" y1="60.455" x2="34.404" y2="61.834" style="fill: none;stroke: #b4897d;stroke-linecap: square;stroke-width: 0.08px"/>
    <line x1="34.97" y1="60.069" x2="33.837" y2="61.626" style="fill: none;stroke: #b4897d;stroke-linecap: square;stroke-width: 0.08px"/>
    <line x1="34.501" y1="59.714" x2="33.112" y2="61.626" style="fill: none;stroke: #b4897d;stroke-linecap: square;stroke-width: 0.08px"/>
    <line x1="34.05" y1="59.358" x2="32.937" y2="60.889" style="fill: none;stroke: #b4897d;stroke-linecap: square;stroke-width: 0.08px"/>
    <line x1="33.59" y1="59.003" x2="32.786" y2="60.109" style="fill: none;stroke: #b4897d;stroke-linecap: square;stroke-width: 0.08px"/>
    <line x1="33.112" y1="58.673" x2="32.603" y2="59.374" style="fill: none;stroke: #b4897d;stroke-linecap: square;stroke-width: 0.08px"/>
    <line x1="38.983" y1="66.268" x2="37.735" y2="65.706" style="fill: none;stroke: #b4897d;stroke-linecap: square;stroke-width: 0.08px"/>
    <line x1="39.418" y1="65.351" x2="37.904" y2="65.122" style="fill: none;stroke: #b4897d;stroke-linecap: square;stroke-width: 0.08px"/>
    <line x1="39.758" y1="64.421" x2="37.914" y2="64.674" style="fill: none;stroke: #b4897d;stroke-linecap: square;stroke-width: 0.08px"/>
    <line x1="39.399" y1="63.657" x2="37.778" y2="64.499" style="fill: none;stroke: #b4897d;stroke-linecap: square;stroke-width: 0.08px"/>
    <line x1="38.72" y1="66.72" x2="37.556" y2="66.093" style="fill: none;stroke: #b4897d;stroke-linecap: square;stroke-width: 0.08px"/>
    <line x1="38.466" y1="67.209" x2="37.268" y2="66.564" style="fill: none;stroke: #b4897d;stroke-linecap: square;stroke-width: 0.08px"/>
    <line x1="38.208" y1="67.764" x2="36.948" y2="67.085" style="fill: none;stroke: #b4897d;stroke-linecap: square;stroke-width: 0.08px"/>
    <line x1="37.904" y1="68.275" x2="36.665" y2="67.607" style="fill: none;stroke: #b4897d;stroke-linecap: square;stroke-width: 0.08px"/>
    <line x1="37.634" y1="68.76" x2="36.378" y2="68.083" style="fill: none;stroke: #b4897d;stroke-linecap: square;stroke-width: 0.08px"/>
    <line x1="37.397" y1="69.267" x2="36.129" y2="68.588" style="fill: none;stroke: #b4897d;stroke-linecap: square;stroke-width: 0.08px"/>
    <line x1="37.132" y1="69.713" x2="35.871" y2="69.021" style="fill: none;stroke: #b4897d;stroke-linecap: square;stroke-width: 0.08px"/>
    <line x1="36.909" y1="70.155" x2="35.605" y2="69.444" style="fill: none;stroke: #b4897d;stroke-linecap: square;stroke-width: 0.08px"/>
    <g style="clip-path: url(#clip-path)">
      <path d="M24.643,46.409l3.313-.753.015.065-3.313.753Zm3.432-.255-3.3.749.015.065,3.3-.749Zm-1.193,3.507L26.325,47.2l.468-.106.553,2.443,1.386-.312-.015-.064-1.278.29-.1-.433L28.6,48.73l-.015-.064-1.258.286-.1-.435,1.3-.3-.014-.065-1.3.3-.1-.435,1.27-.289-.015-.064-1.27.288-.1-.434,1.306-.293-.015-.064-1.306.292-.1-.437,1.3-.3-.015-.064L24.9,47.4l.015.065,1.29-.293.1.431-1.281.291.015.065,1.281-.291.1.434-1.28.291.014.065,1.281-.291.1.435-1.293.3.015.065,1.292-.3.1.435-1.28.29.015.065,1.279-.291.1.455-1.3.294.015.065Z" style="fill: #b4897d"/>
    </g>
    <g style="clip-path: url(#clip-path-2)">
      <path d="M37.638,72.523l3.021,1.623-.031.058-3.021-1.623ZM40.421,74.6l-3.006-1.616-.031.059,3.006,1.615ZM37.2,76.46l1.2-2.229.427.23-1.191,2.211,1.262.681.032-.058-1.165-.626.211-.392,1.147.617.032-.059-1.148-.617.212-.393,1.189.639.031-.058-1.189-.639.212-.393L39.618,76l.032-.059-1.158-.622.212-.393,1.17.629.032-.059-1.171-.629.213-.4,1.188.64.032-.059-3-1.615-.031.058,1.189.641-.21.39L36.947,73.9l-.032.059,1.168.627-.212.393L36.7,74.347l-.032.058,1.168.628-.212.393-1.151-.618-.031.058,1.15.619-.211.393-1.167-.627-.031.058,1.166.627-.221.412-1.182-.635-.032.058Z" style="fill: #b4897d"/>
    </g>
    <g style="clip-path: url(#clip-path-3)">
      <path d="M45.414,58.259l3.021,1.624-.031.058-3.021-1.623ZM48.2,60.337l-3.006-1.615-.032.059L48.166,60.4ZM44.974,62.2l1.2-2.229.426.23-1.19,2.211,1.262.681.031-.059-1.165-.626.211-.391,1.148.616.031-.058-1.147-.617.211-.393,1.189.639.032-.059L46.025,61.5l.212-.394,1.158.622.031-.058-1.158-.622.212-.394,1.165.621.031-.058L46.512,60.6l.213-.4,1.188.639.031-.058-3.036-1.632-.032.059,1.225.657-.21.39L44.68,59.6l-.031.059,1.211.655-.212.393-1.207-.646-.031.058,1.206.646-.212.394-1.22-.649-.031.058,1.22.649-.212.393-1.208-.647-.032.058,1.209.648-.222.411-1.225-.661-.032.059Z" style="fill: #b4897d"/>
    </g>
  </g>
  <g id="NEW_Inner" data-name="NEW Inner">
    <polyline points="21.435 50.855 21.74 52.239 19.193 52.803 18.025 47.532 20.573 46.968 20.889 48.398" style="fill: none;stroke: #b4897d;stroke-width: 0.08px"/>
    <polyline points="21.239 49.972 21.158 49.603 21.067 49.195" style="fill: none;stroke: #b4897d;stroke-width: 0.08px"/>
    <line x1="18.608" y1="50.167" x2="21.158" y2="49.603" style="fill: none;stroke: #b4897d;stroke-width: 0.08px"/>
    <polyline points="23.413 51.062 23.625 52.006 27.729 51.112" style="fill: none;stroke: #b4897d;stroke-width: 0.08px"/>
    <polyline points="28.594 50.906 29.092 50.795 27.846 45.171 22.38 46.383 23.205 50.127" style="fill: none;stroke: #b4897d;stroke-width: 0.08px"/>
    <line x1="25.821" y1="51.534" x2="24.568" y2="45.878" style="fill: none;stroke: #b4897d;stroke-width: 0.08px"/>
    <line x1="22.988" y1="49.129" x2="25.174" y2="48.644" style="fill: none;stroke: #b4897d;stroke-width: 0.08px"/>
    <polyline points="25.995 53.206 23.989 53.649 24.652 56.644 30.119 55.434 29.456 52.439 27.028 52.985" style="fill: none;stroke: #b4897d;stroke-width: 0.08px"/>
    <polyline points="23.168 58.843 22.908 57.512 20.359 58.075 21.527 63.349 24.064 62.744 23.763 61.372" style="fill: none;stroke: #b4897d;stroke-width: 0.08px"/>
    <line x1="23.582" y1="60.551" x2="23.413" y2="59.787" style="fill: none;stroke: #b4897d;stroke-width: 0.08px"/>
    <line x1="20.944" y1="60.717" x2="23.474" y2="60.152" style="fill: none;stroke: #b4897d;stroke-width: 0.08px"/>
    <polyline points="31.144 67.508 30.946 66.608 27.049 67.472 28.295 73.096 32.191 72.233 32.005 71.393" style="fill: none;stroke: #b4897d;stroke-width: 0.08px"/>
    <line x1="31.465" y1="68.951" x2="31.685" y2="69.949" style="fill: none;stroke: #b4897d;stroke-width: 0.08px"/>
    <line x1="27.726" y1="70.527" x2="31.633" y2="69.656" style="fill: none;stroke: #b4897d;stroke-width: 0.08px"/>
    <line x1="29.783" y1="72.762" x2="29.215" y2="70.195" style="fill: none;stroke: #b4897d;stroke-width: 0.08px"/>
    <polyline points="28.295 73.096 29.425 78.192 33.331 77.375 33.23 76.921" style="fill: none;stroke: #b4897d;stroke-width: 0.08px"/>
    <line x1="33.018" y1="75.965" x2="32.44" y2="73.373" style="fill: none;stroke: #b4897d;stroke-width: 0.08px"/>
    <line x1="28.841" y1="75.538" x2="32.702" y2="74.694" style="fill: none;stroke: #b4897d;stroke-width: 0.08px"/>
    <line x1="32.191" y1="72.233" x2="32.247" y2="72.49" style="fill: none;stroke: #b4897d;stroke-width: 0.08px"/>
    <path d="M27.9,80.005a12.137,12.137,0,0,0-.321-1.4l-2.547.564.58,2.622.586,2.65,2.549-.564L28.433,82.4" style="fill: none;stroke: #b4897d;stroke-width: 0.08px"/>
    <polyline points="25.611 81.787 28.162 81.236 28.083 80.876" style="fill: none;stroke: #b4897d;stroke-width: 0.08px"/>
    <line x1="28.245" y1="81.608" x2="28.162" y2="81.236" style="fill: none;stroke: #b4897d;stroke-width: 0.08px"/>
    <polyline points="30.768 92.952 31.082 94.417 28.534 94.981 27.365 89.709 29.914 89.145 30.225 90.553" style="fill: none;stroke: #b4897d;stroke-width: 0.08px"/>
    <line x1="30.415" y1="91.406" x2="30.586" y2="92.184" style="fill: none;stroke: #b4897d;stroke-width: 0.08px"/>
    <line x1="27.954" y1="92.345" x2="30.493" y2="91.782" style="fill: none;stroke: #b4897d;stroke-width: 0.08px"/>
    <polyline points="34.756 93.543 34.057 94.832 36.429 96.12 39.007 91.374 36.634 90.085 35.944 91.336" style="fill: none;stroke: #b4897d;stroke-width: 0.08px"/>
    <line x1="35.145" y1="92.829" x2="35.53" y2="92.118" style="fill: none;stroke: #b4897d;stroke-width: 0.08px"/>
    <line x1="37.711" y1="93.743" x2="35.338" y2="92.454" style="fill: none;stroke: #b4897d;stroke-width: 0.08px"/>
    <polyline points="38.085 80.671 39.266 81.313 37.793 84.022 34.331 82.156 35.845 79.454 36.209 79.652" style="fill: none;stroke: #b4897d;stroke-width: 0.08px"/>
    <line x1="36.977" y1="80.069" x2="37.318" y2="80.253" style="fill: none;stroke: #b4897d;stroke-width: 0.08px"/>
    <line x1="35.653" y1="82.869" x2="37.148" y2="80.144" style="fill: none;stroke: #b4897d;stroke-width: 0.08px"/>
    <line x1="35.234" y1="80.544" x2="35.794" y2="80.861" style="fill: none;stroke: #b4897d;stroke-width: 0.08px"/>
    <line x1="36.565" y1="81.271" x2="36.351" y2="81.157" style="fill: none;stroke: #b4897d;stroke-width: 0.08px"/>
    <polyline points="40.72 78.636 42.806 74.797 37.884 72.124 35.134 77.186 35.583 77.429" style="fill: none;stroke: #b4897d;stroke-width: 0.08px"/>
    <polyline points="36.364 77.854 40.055 79.859 40.283 79.439" style="fill: none;stroke: #b4897d;stroke-width: 0.08px"/>
    <polyline points="41.118 66.382 42.104 64.566 46.849 67.143 42.707 74.766" style="fill: none;stroke: #b4897d;stroke-width: 0.08px"/>
    <line x1="38.518" y1="71.166" x2="40.662" y2="67.221" style="fill: none;stroke: #b4897d;stroke-width: 0.08px"/>
    <line x1="45.187" y1="70.15" x2="40.45" y2="67.578" style="fill: none;stroke: #b4897d;stroke-width: 0.08px"/>
    <line x1="37.969" y1="72.169" x2="38.104" y2="71.93" style="fill: none;stroke: #b4897d;stroke-width: 0.08px"/>
    <line x1="45.483" y1="73.795" x2="45.868" y2="73.087" style="fill: none;stroke: #b4897d;stroke-width: 0.08px"/>
    <polyline points="46.256 72.375 46.946 71.106 49.317 72.395 46.739 77.14 44.367 75.851 45.067 74.564" style="fill: none;stroke: #b4897d;stroke-width: 0.08px"/>
    <line x1="45.659" y1="73.479" x2="48.02" y2="74.763" style="fill: none;stroke: #b4897d;stroke-width: 0.08px"/>
    <polyline points="44.098 63.619 47.788 65.624 49.456 62.555" style="fill: none;stroke: #b4897d;stroke-width: 0.08px"/>
    <polyline points="49.915 61.709 50.538 60.562 45.617 57.889 42.869 62.95 43.349 63.211" style="fill: none;stroke: #b4897d;stroke-width: 0.08px"/>
    <polyline points="49.536 58.102 51.341 59.084 52.807 56.388 47.884 53.716 46.421 56.411 48.61 57.591" style="fill: none;stroke: #b4897d;stroke-width: 0.08px"/>
    <polyline points="50.231 65.055 49.523 66.361 51.895 67.65 54.473 62.904 52.1 61.615 51.435 62.84" style="fill: none;stroke: #b4897d;stroke-width: 0.08px"/>
    <path d="M50.616,64.346l.4-.73" style="fill: none;stroke: #b4897d;stroke-width: 0.08px"/>
    <line x1="53.183" y1="65.279" x2="50.83" y2="63.989" style="fill: none;stroke: #b4897d;stroke-width: 0.08px"/>
    <line x1="46.674" y1="63.094" x2="48.603" y2="59.511" style="fill: none;stroke: #b4897d;stroke-width: 0.08px"/>
    <line x1="40.873" y1="73.747" x2="38.879" y2="77.35" style="fill: none;stroke: #b4897d;stroke-width: 0.08px"/>
  </g>
  <g id="NEW_Outer" data-name="NEW Outer">
    <polygon points="31.634 27.212 8.693 19.339 28.431 108.962 32.601 109.549 69.51 41.607 69.979 40.374 55.482 35.398 53.356 39.312 35.189 43.345 31.634 27.212" style="fill: none;stroke: #b4897d;stroke-width: 0.16px"/>
    <polygon points="31.082 27.585 34.688 44.002 35.772 43.775 53.687 39.812 55.841 35.993 69.426 40.616 69.031 41.459 32.234 109.089 28.811 108.59 9.533 20.293 31.082 27.585" style="fill: none;stroke: #b4897d;stroke-width: 0.08px"/>
  </g>
  <g id="Signs">
    <g id="toalett">
      <circle cx="27.054" cy="54.542" r="1.243" style="fill: #f8cdc3"/>
      <g id="toilet">
        <rect x="26.445" y="54.326" width="0.45" height="0.078" transform="translate(-33.809 51.334) rotate(-61)" style="fill: #b4897d"/>
        <rect x="26.471" y="54.232" width="0.818" height="0.078" transform="translate(-33.618 51.47) rotate(-61)" style="fill: #b4897d"/>
        <rect x="26.686" y="54.46" width="0.45" height="0.078" transform="translate(-33.802 51.614) rotate(-61)" style="fill: #b4897d"/>
        <path d="M26.534,54.9a.108.108,0,1,1,.147-.042.108.108,0,0,1-.147.042m.067-.121a.031.031,0,0,0-.041.012.03.03,0,0,0,.012.04.029.029,0,0,0,.04-.011.03.03,0,0,0-.011-.041" style="fill: #b4897d"/>
        <path d="M27.17,55a.108.108,0,1,1-.147.042A.108.108,0,0,1,27.17,55m-.067.121a.03.03,0,0,0,.04-.012.029.029,0,0,0-.011-.04.03.03,0,0,0-.041.011.031.031,0,0,0,.012.041" style="fill: #b4897d"/>
        <path d="M27.247,54.942l-.035-.019-.034-.019a.171.171,0,0,0-.061-.254l.038-.068a.188.188,0,0,1,.109.168v0a.172.172,0,0,0-.061-.254l.038-.069a.192.192,0,0,1,.109.168l.224-.4.068.038-.224.4a.192.192,0,0,1,.2,0l-.038.069a.172.172,0,0,0-.248.083v0a.189.189,0,0,1,.2,0l-.038.068a.172.172,0,0,0-.248.083" style="fill: #b4897d"/>
      </g>
    </g>
    <g id="heis">
      <circle cx="29.679" cy="69.949" r="1.243" style="fill: #f8cdc3"/>
      <g id="heis-2" data-name="heis">
        <path d="M29.565,69.1l.874.484-.485.875-.874-.485Zm.744.522-.707-.392-.392.707.707.392Z" style="fill: #b4897d"/>
        <rect x="29.551" y="69.557" width="0.409" height="0.096" transform="translate(-45.548 61.885) rotate(-61)" style="fill: #b4897d"/>
        <rect x="29.699" y="69.639" width="0.409" height="0.096" transform="translate(-45.544 62.056) rotate(-61)" style="fill: #b4897d"/>
        <polygon points="29.209 70.317 29.437 70.252 29.464 70.344 29.143 70.435 29.117 70.343 29.051 70.115 29.143 70.089 29.209 70.317" style="fill: #b4897d"/>
        <polygon points="29.678 70.385 29.704 70.477 29.769 70.705 29.677 70.732 29.612 70.503 29.384 70.569 29.357 70.477 29.586 70.411 29.678 70.385" style="fill: #b4897d"/>
        <path d="M29.721,69.859a.132.132,0,0,1-.129.231.132.132,0,1,1,.129-.231m-.082.147a.036.036,0,1,0-.014-.049.035.035,0,0,0,.014.049" style="fill: #b4897d"/>
      </g>
    </g>
    <g id="toalett-2" data-name="toalett">
      <circle cx="49.614" cy="56.4" r="1.243" style="fill: #f8cdc3"/>
      <g id="toilet-2" data-name="toilet">
        <rect x="49.004" y="56.184" width="0.45" height="0.078" transform="translate(-23.812 72.023) rotate(-61)" style="fill: #b4897d"/>
        <rect x="49.03" y="56.09" width="0.818" height="0.078" transform="translate(-23.621 72.158) rotate(-61)" style="fill: #b4897d"/>
        <rect x="49.246" y="56.318" width="0.45" height="0.078" transform="translate(-23.804 72.303) rotate(-61)" style="fill: #b4897d"/>
        <path d="M49.094,56.753a.108.108,0,1,1,.147-.042.108.108,0,0,1-.147.042m.066-.121a.031.031,0,0,0-.04.012.03.03,0,0,0,.012.041.031.031,0,0,0,.04-.012.03.03,0,0,0-.012-.041" style="fill: #b4897d"/>
        <path d="M49.729,56.858a.108.108,0,1,1-.147.042.108.108,0,0,1,.147-.042m-.066.121a.03.03,0,1,0,.028-.052.029.029,0,0,0-.04.011.03.03,0,0,0,.012.041" style="fill: #b4897d"/>
        <path d="M49.806,56.8l-.034-.019-.034-.019a.172.172,0,0,0-.061-.254l.038-.068a.191.191,0,0,1,.109.168v0a.173.173,0,0,0-.061-.254l.037-.069a.189.189,0,0,1,.109.168l.224-.4.069.038-.224.4a.192.192,0,0,1,.2,0l-.038.069a.172.172,0,0,0-.248.083v0a.188.188,0,0,1,.2,0l-.038.068a.173.173,0,0,0-.248.083" style="fill: #b4897d"/>
      </g>
    </g>
    <g style="clip-path: url(#clip-path-4)">
      <path d="M37.918,82.359a1.28,1.28,0,1,0-1.74.5,1.279,1.279,0,0,0,1.74-.5" style="fill: #f8cdc3"/>
      <rect x="36.417" y="81.628" width="0.428" height="0.082" transform="translate(-52.551 74.039) rotate(-60.952)" style="fill: #b4897d"/>
      <rect x="36.433" y="81.511" width="0.856" height="0.082" transform="translate(-52.33 74.182) rotate(-60.954)" style="fill: #b4897d"/>
      <rect x="36.67" y="81.768" width="0.428" height="0.082" transform="translate(-52.544 74.337) rotate(-60.955)" style="fill: #b4897d"/>
      <path d="M36.5,82.205a.115.115,0,0,1-.044-.154.113.113,0,1,1,.2.11.114.114,0,0,1-.154.044m.07-.127a.031.031,0,1,0,.012.043A.031.031,0,0,0,36.569,82.078Z" style="fill: #b4897d"/>
      <path d="M36.063,81.7a.113.113,0,0,1,.043.154.112.112,0,0,1-.154.043.113.113,0,0,1,.111-.2m-.071.126a.032.032,0,0,0,.031-.055.032.032,0,1,0-.031.055Z" style="fill: #b4897d"/>
      <path d="M36.533,81.33l-.041.071a.173.173,0,0,0-.241.058.262.262,0,0,1,.193.028l-.04.072a.18.18,0,0,0-.26.085h0l-.072-.04a.18.18,0,0,0-.062-.267l.04-.071a.26.26,0,0,1,.125.15.173.173,0,0,0-.076-.236l.04-.071a.262.262,0,0,1,.126.153l.227-.405.072.041-.228.4a.262.262,0,0,1,.2.028" style="fill: #b4897d"/>
      <path d="M37.486,81.851h0l.14.076.3-.161.038.072-.343.182-.178-.1-.1.175a.2.2,0,0,1,.21,0l-.039.072a.18.18,0,0,0-.258.089l0,.006-.072-.039.1-.18a.326.326,0,0,1,.345-.551.329.329,0,0,1,.168.248l-.079.042a.245.245,0,1,0-.4.189l.087-.161Z" style="fill: #b4897d"/>
      <path d="M37.183,82.325a.114.114,0,0,1,.045.153.113.113,0,0,1-.2-.107.114.114,0,0,1,.154-.046m-.069.127a.031.031,0,1,0-.013-.043A.032.032,0,0,0,37.114,82.452Z" style="fill: #b4897d"/>
    </g>
  </g>
  <g id="Anchor">
    <line x2="7.5" style="fill: none"/>
  </g>
</svg>
