<svg xmlns="http://www.w3.org/2000/svg" xmlns:xlink="http://www.w3.org/1999/xlink" viewBox="0 -85 90 90">
 
<defs>
<style>
.cls-1,.cls-4,.cls-5,.cls-7{fill:none;}.cls-2{fill:#889196;}.cls-2,.cls-3,.cls-4,.cls-5,.cls-6,.cls-7{stroke:white;}.cls-2,.cls-6{stroke-miterlimit:10;}.cls-2,.cls-3,.cls-4,.cls-5,.cls-6{stroke-width:0.08px;}.cls-3{fill:#fff;}.cls-3,.cls-4,.cls-7{stroke-linecap:square;}.cls-6{fill:#f8cdc3;}.cls-7{stroke-width:0.16px;}.cls-8{clip-path:url(#clip-path);}.cls-9{fill:white;}.cls-3{fill:black;}.cls-2{fill:black;}</style>
<clipPath id="clip-path">
<rect class="cls-1" x="36.3008" y="73.1292" width="3.9196" height="3.6694" transform="translate(-45.8873 73.3578) rotate(-61.8673)"/>
</clipPath>
</defs>

<g id = 'wrapper' transform = 'rotate(28), scale(1, -1)'>
<title>
7</title>
<g id="Stairs_Outline" data-name="Stairs Outline">
<polyline class="cls-2" points="43.06 62.6 30.764 58.419 33.182 69.269 35.016 68.816 38.619 70.748 43.06 62.6"/>
</g>
<g id="Stairs">
<path class="cls-3" d="M35.0372,68.7977a5.2574,5.2574,0,0,1-.1209-1.4148,1.5292,1.5292,0,0,1,.5268-.6306l3.4316-2.3629a1.6915,1.6915,0,0,1,.8325-.2459,1.2909,1.2909,0,0,1,.5723.1381l1.2158-2.2393-1.5274-.5193-6.1528,3.958a2.3829,2.3829,0,0,0-.8017.6893,1.5065,1.5065,0,0,0-.1775.8751l.4738,2.1719"/>
<line class="cls-4" x1="34.2139" y1="65.2762" x2="35.1946" y2="66.877"/>
<line class="cls-4" x1="34.7054" y1="64.9673" x2="35.6861" y2="66.5681"/>
<line class="cls-4" x1="35.1969" y1="64.6584" x2="36.1546" y2="66.2217"/>
<line class="cls-4" x1="35.6884" y1="64.3495" x2="36.6691" y2="65.9503"/>
<line class="cls-4" x1="36.1799" y1="64.0406" x2="37.1606" y2="65.6414"/>
<line class="cls-4" x1="36.6348" y1="63.6719" x2="37.6177" y2="65.2762"/>
<line class="cls-4" x1="37.1262" y1="63.3629" x2="38.0807" y2="64.9209"/>
<line class="cls-4" x1="37.6177" y1="63.0539" x2="38.5623" y2="64.5957"/>
<line class="cls-4" x1="38.1049" y1="62.7411" x2="39.04" y2="64.2643"/>
<line class="cls-4" x1="38.6036" y1="62.429" x2="39.6452" y2="64.1293"/>
<line class="cls-4" x1="39.0917" y1="62.1265" x2="40.3126" y2="64.1193"/>
<line class="cls-4" x1="39.5625" y1="61.7838" x2="40.6341" y2="63.5328"/>
<path class="cls-4" d="M40.9587,62.9515"/>
<path class="cls-4" d="M40.0529,61.4731"/>
<path class="cls-4" d="M41.2823,62.3685"/>
<path class="cls-4" d="M40.5413,61.159"/>
<path class="cls-4" d="M41.6211,61.81"/>
<path class="cls-4" d="M41.0275,60.8414"/>
<path class="cls-4" d="M41.9239,61.1934"/>
<path class="cls-4" d="M41.5158,60.5273"/>
<line class="cls-4" x1="33.183" y1="68.6269" x2="34.8985" y2="68.3536"/>
<line class="cls-4" x1="33.096" y1="68.0362" x2="34.8115" y2="67.7629"/>
<line class="cls-4" x1="32.8421" y1="66.877" x2="34.9163" y2="67.3829"/>
<line class="cls-4" x1="33.3059" y1="65.8352" x2="35.0666" y2="67.0996"/>
<line class="cls-4" x1="33.3025" y1="69.1846" x2="34.9769" y2="68.7977"/>
<path class="cls-4" d="M35.0771,69.4085"/>
<path class="cls-4" d="M33.4288,69.6711"/>
<path class="cls-4" d="M35.1946,69.9315"/>
<path class="cls-4" d="M33.5517,70.1932"/>
<path class="cls-4" d="M35.2684,70.4614"/>
<path class="cls-4" d="M33.6746,70.7153"/>
<path class="cls-4" d="M35.3365,70.9922"/>
</g>
<g id="NEW_Inner" data-name="NEW Inner">
<polyline class="cls-5" points="38.498 80.895 39.239 81.298 37.537 84.432 34.26 82.652 34.787 78.88 36.226 79.663"/>
<line class="cls-5" x1="36.9279" y1="80.0324" x2="37.6944" y2="80.459"/>
<polyline class="cls-5" points="39.239 81.298 42.805 74.798 37.883 72.126 35.134 77.186 35.583 77.429"/>
<line class="cls-5" x1="36.3645" y1="77.8543" x2="38.8249" y2="79.1909"/>
<line class="cls-5" x1="39.607" y1="79.6157" x2="40.0341" y2="79.849"/>
<line class="cls-5" x1="40.5623" y1="72.3767" x2="40.8027" y2="71.9623"/>
<line class="cls-5" x1="40.067" y1="73.3192" x2="40.137" y2="73.1878"/>
<polyline class="cls-5" points="41.961 72.576 38.611 70.785 40.375 67.537 42.867 62.952 44.866 64.036 43.069 67.344 44.16 67.907"/>
<polyline class="cls-5" points="42.756 73.007 42.966 73.138 43.897 71.426 44.13 71.552 45.062 69.838 42.712 68.558 40.803 71.962"/>
<polyline class="cls-5" points="28.839 75.556 28.905 75.855 32.779 74.984 32.095 71.802"/>
<line class="cls-5" x1="27.6289" y1="70.0887" x2="28.6759" y2="74.724"/>
<polyline class="cls-5" points="27.726 70.55 31.62 69.665 30.945 66.61 27.049 67.473 27.087 67.648 26.478 67.783"/>
<line class="cls-5" x1="32.0631" y1="69.5168" x2="31.6204" y2="69.616"/>
<line class="cls-5" x1="28.2978" y1="73.0915" x2="32.1905" y2="72.2457"/>
<line class="cls-5" x1="29.2285" y1="70.1958" x2="29.794" y2="72.7639"/>
<line class="cls-5" x1="31.6204" y1="69.665" x2="31.6844" y2="69.9475"/>
<line class="cls-5" x1="30.0938" y1="66.8033" x2="27.9868" y2="57.4499"/>
<line class="cls-5" x1="30.873" y1="58.8473" x2="28.4166" y2="59.4001"/>
<polyline class="cls-5" points="30.785 58.401 32.515 66.252 33.182 69.269 32.735 69.368"/>
<line class="cls-5" x1="30.9448" y1="66.6098" x2="32.5148" y2="66.2515"/>
<polyline class="cls-5" points="24.733 90.293 29.805 89.169 28.887 85.106"/>
<polyline class="cls-5" points="23.579 85.018 28.638 83.898 28.694 84.145"/>
<polyline class="cls-5" points="22.861 79.646 27.47 78.624 27.526 78.873"/>
<line class="cls-5" x1="27.733" y1="79.8081" x2="28.6378" y2="83.8979"/>
<line class="cls-5" x1="27.4699" y1="78.6244" x2="26.5723" y2="74.5671"/>
<path class="cls-5" d="M26.3582,73.6005c-.0069-.0312-.0559-.2484-.0559-.2484l-3.9767.8807"/>
<line class="cls-5" x1="25.3642" y1="69.2508" x2="26.3023" y2="73.3521"/>
<polyline class="cls-5" points="25.197 68.362 25.135 68.081 21.791 68.821"/>
<line class="cls-5" x1="25.6378" y1="67.9685" x2="25.1349" y2="68.0809"/>
<polyline class="cls-5" points="38.64 70.747 35.069 68.801 34.486 68.929"/>
<line class="cls-5" x1="33.1815" y1="69.2173" x2="33.603" y2="69.125"/>
<line class="cls-5" x1="29.8052" y1="89.1691" x2="30.2078" y2="89.0809"/>
<path class="cls-5" d="M31.074,88.8888l2.4108-.5233,1.0658.579,6.7845,3.6965"/>
<line class="cls-5" x1="43.2705" y1="75.2705" x2="42.7333" y2="74.9639"/>
<line class="cls-5" x1="44.0789" y1="75.7097" x2="47.4748" y2="77.5422"/>
<path class="cls-6" d="M38.8915,67.0943"/>
<line class="cls-5" x1="38.8706" y1="77.3353" x2="40.894" y2="73.7492"/>
<line class="cls-5" x1="33.4452" y1="88.3741" x2="33.6151" y2="87.2578"/>
<line class="cls-5" x1="33.7385" y1="86.2776" x2="34.2604" y2="82.6518"/>
</g>
<g id="NEW_Outer" data-name="NEW Outer">
<polygon class="cls-7" points="32.599 109.55 28.43 108.963 22.809 83.58 19.852 54.132 52.479 65.35 43.265 89.916 32.599 109.55"/>
<polygon class="cls-4" points="20.412 54.875 23.237 83.45 28.749 108.665 32.349 109.146 42.971 89.636 51.926 65.588 20.412 54.875"/>
</g>
<g id="Anchor">
<g class="cls-8">
<path class="cls-9" d="M37.614,72.5319l3.0209,1.6233-.0314.0585L37.5825,72.59Zm2.7831,2.078-3.0058-1.6152-.0316.0585,3.0059,1.6153Zm-3.2232,1.8592,1.2-2.2286.4266.23L37.61,76.6811l1.2857.6931.0316-.0585-1.1888-.6378.211-.3917,1.1474.6166.0314-.0585-1.1472-.6166.2116-.393,1.1887.6387.0315-.0586-1.1887-.6386.212-.3933,1.1578.6221.0315-.0586-1.1579-.6221.2118-.3934,1.1978.6424.0314-.0586-1.1976-.6423.213-.3957,1.188.6393.0316-.0585-2.983-1.6046-.0315.0586,1.1716.63-.21.3905-1.1678-.6276-.0315.0587,1.1677.6274-.2117.3932L36.68,74.3562l-.0314.0586,1.1674.6272-.2119.3933-1.1509-.6184-.0315.0586,1.1509.6184-.2118.3931L36.1941,75.26l-.0315.0586,1.1665.6268-.2216.4114-1.1816-.635-.0314.0586Z"/>
</g>
<line class="cls-1" x2="7.5"/>
</g>
<g class = "rooms">

    <g id="storey-07L">

        <g id="product-07-Y06-I">

            <path style="stroke:none; fill:none;"  pointer-events="visible" d="M38.0339,72.5817 L35.5994,77.0631 L38.1037,78.4235 L40.5382,73.9421 L38.0339,72.5817"/>

        </g>

        <g id="product-07-Y06-G">

            <path style="stroke:none; fill:none;"  pointer-events="visible" d="M42.3396,74.9207 L40.8018,74.0853 L39.656,76.1946 L41.1937,77.03 L42.3396,74.9207"/>

        </g>

        <g id="product-07-Y06-H">

            <path style="stroke:none; fill:none;"  pointer-events="visible" d="M39.9051,79.4021 L41.1159,77.1732 L39.5782,76.3378 L38.3673,78.5667 L39.9051,79.4021"/>

        </g>

        <g id="product-07-X07-G">

            <path style="stroke:none; fill:none;"  pointer-events="visible" d="M27.4625,67.7186 L27.6089,68.3795 L27.6577,68.3687 L27.7991,69.007 L27.7503,69.0178 L27.7513,69.0227 L27.8002,69.0119 L27.9415,69.6502 L27.8927,69.661 L28.0463,70.3547 L31.2585,69.6434 L30.6747,67.0072 L27.4625,67.7186"/>

        </g>

        <g id="product-07-X07-J">

            <path style="stroke:none; fill:none;"  pointer-events="visible" d="M29.8248,72.419 L31.7775,71.9866 L31.6442,71.385 L31.5954,71.3958 L31.454,70.7574 L31.5028,70.7466 L31.5018,70.7417 L31.453,70.7526 L31.3116,70.1142 L31.3604,70.1034 L31.3018,69.8386 L29.3491,70.2711 L29.8248,72.419"/>

        </g>

        <g id="product-07-X07-H">

            <path style="stroke:none; fill:none;"  pointer-events="visible" d="M28.0896,70.55 L28.5653,72.698 L29.6295,72.4623 L29.1538,70.3143 L28.0896,70.55"/>

        </g>

        <g id="product-07-X06-A">

            <path style="stroke:none; fill:none;"  pointer-events="visible" d="M22.9028,79.5463 L27.4245,78.5449 L26.5449,74.5731 L26.4991,74.5833 L26.2711,73.5541 L26.317,73.5439 L26.295,73.4445 L22.386,74.3102 L22.9028,79.5463"/>

        </g>

        <g id="product-07-X05-I">

            <path style="stroke:none; fill:none;"  pointer-events="visible" d="M35.3696,80.5697 L35.7765,80.7907 L36.4707,81.1678 L36.526,81.1979 L37.0544,80.2252 L35.8981,79.597 L35.3696,80.5697"/>

        </g>

        <g id="product-07-Y04-A">

            <path style="stroke:none; fill:none;"  pointer-events="visible" d="M43.6238,87.992 L43.6425,87.942 L43.3871,87.8032 L43.4263,87.7312 L37.5213,84.5234 L37.4727,84.6129 L37.0333,84.3743 L37.0877,84.2742 L34.2677,82.7422 L33.7662,86.2816 L33.7818,86.2838 L33.6446,87.254 L33.6287,87.2518 L33.498,88.1745 L34.6344,88.7897 L34.6364,88.7859 L35.0762,89.024 L35.0739,89.0283 L41.4006,92.4656 L43.1147,89.3103 L43.6238,87.992"/>

        </g>

        <g id="product-07-Y00-A">

            <path style="stroke:none; fill:none;"  pointer-events="visible" d="M24.7702,90.4792 L28.78,108.586 L32.3691,109.091 L41.2312,92.7774 L40.8094,92.5483 L40.8542,92.4658 L34.9494,89.2577 L34.8949,89.358 L34.4556,89.1194 L34.5396,88.9647 L33.4581,88.3511 L33.4806,88.1948 L29.7438,89.0172 L29.7758,89.1617 L29.5591,89.2099 L29.559,89.2097 L25.2143,90.1719 L25.2584,90.3711 L24.7702,90.4792"/>

        </g>

        <g id="product-07-X06-Ha">

            <path style="stroke:none; fill:none;"  pointer-events="visible" d="M30.5204,73.9683 L32.0745,73.6241 L31.8051,72.4076 L30.251,72.7518 L30.5204,73.9683"/>

        </g>

        <g id="product-07-X06-Hc">

            <path style="stroke:none; fill:none;"  pointer-events="visible" d="M32.1035,73.7549 L30.5494,74.0991 L30.8188,75.3156 L32.3729,74.9715 L32.1035,73.7549"/>

        </g>

        <g id="product-07-Y05-J">

            <path style="stroke:none; fill:none;"  pointer-events="visible" d="M34.655,81.8851 L35.8114,82.5133 L36.4764,81.2893 L35.32,80.6611 L34.655,81.8851"/>

        </g>

        <g id="product-07-Y05-K">

            <path style="stroke:none; fill:none;"  pointer-events="visible" d="M34.8861,79.0769 L34.5018,81.7883 L34.5729,81.8269 L35.7978,79.5721 L34.8861,79.0769"/>

        </g>

        <g id="product-07-Y07-C">

            <path style="stroke:none; fill:none;"  pointer-events="visible" d="M47.5883,77.385 L49.3632,72.6364 L48.6735,72.2617 L48.7577,72.0368 L48.808,71.9023 L49.4975,72.2769 L49.5917,72.0248 L45.5143,69.8098 L43.5384,73.4472 L40.9379,72.0345 L40.2042,73.3851 L42.8047,74.7978 L42.7481,74.9019 L42.7188,74.956 L44.1159,75.7149 L44.1116,75.7229 L46.8255,77.1971 L46.896,77.0089 L47.5883,77.385"/>

        </g>

        <g id="product-07-X08-C">

            <path style="stroke:none; fill:none;"  pointer-events="visible" d="M21.8242,68.6192 L25.0947,67.895 L25.0968,67.9045 L30.0742,66.8022 L28.8586,61.3133 L21.2691,62.9959 L21.8242,68.6192"/>

        </g>

        <g id="product-07-X05-A">

            <path style="stroke:none; fill:none;"  pointer-events="visible" d="M23.5425,84.9357 L28.5922,83.8174 L27.7126,79.8454 L27.6667,79.8556 L27.4387,78.8263 L27.4846,78.8162 L27.4626,78.7168 L22.9203,79.7227 L23.3483,84.0589 L23.5425,84.9357"/>

        </g>

        <g id="product-07-Y05-H">

            <path style="stroke:none; fill:none;"  pointer-events="visible" d="M39.0544,81.3116 L37.1458,80.2748 L35.9028,82.563 L37.8114,83.5998 L39.0544,81.3116"/>

        </g>

        <g id="product-07-Y07-H">

            <path style="stroke:none; fill:none;"  pointer-events="visible" d="M40.9031,71.887 L42.9227,72.9842 L43.8026,71.3645 L41.7829,70.2673 L40.9031,71.887"/>

        </g>

        <g id="product-07-Y07-I">

            <path style="stroke:none; fill:none;"  pointer-events="visible" d="M42.8923,70.7516 L43.77,69.1359 L42.7103,68.5602 L41.8326,70.1759 L42.8923,70.7516"/>

        </g>

        <g id="product-07-Y07-G">

            <path style="stroke:none; fill:none;"  pointer-events="visible" d="M43.0048,70.8127 L44.0856,71.3999 L44.9585,69.793 L43.8777,69.2058 L43.0048,70.8127"/>

        </g>

        <g id="product-07-X06-G">

            <path style="stroke:none; fill:none;"  pointer-events="visible" d="M30.7173,75.3381 L30.1495,72.7742 L28.4308,73.1548 L28.9986,75.7187 L30.7173,75.3381"/>

        </g>

        <g id="product-07-X04-E">

            <path style="stroke:none; fill:none;"  pointer-events="visible" d="M35.1343,77.186 L37.8839,72.1246 L40.0706,73.3125 L40.8043,71.962 L38.6175,70.774 L38.6156,70.7776 L34.9415,68.7816 L33.1624,69.1756 L33.1894,69.2977 L31.6175,69.6458 L32.1905,72.2331 L32.1711,72.2374 L32.7821,74.9966 L28.9254,75.8507 L28.3144,73.0915 L28.2949,73.0958 L27.0657,67.5453 L25.113,67.9778 L29.7661,88.9887 L33.4653,88.1695 L33.4701,88.1354 L33.4751,88.1361 L33.5996,87.2578 L33.601,87.2479 L33.6011,87.2479 L33.7371,86.2875 L33.7385,86.2776 L34.2205,82.8753 L34.2158,82.8746 L34.2367,82.7272 L34.2414,82.7279 L34.7849,78.8933 L36.1698,79.6456 L36.1698,79.6456 L38.8984,81.1279 L39.6942,79.6631 L35.1343,77.186"/>

        </g>

        <g id="product-07-X04-A">

            <path style="stroke:none; fill:none;"  pointer-events="visible" d="M24.71,90.2078 L29.7598,89.0895 L28.8802,85.1179 L28.8343,85.1281 L28.6064,84.099 L28.6523,84.0888 L28.6303,83.9892 L23.5805,85.1076 L24.71,90.2078"/>

        </g>

        <g id="product-07-Y08-J">

            <path style="stroke:none; fill:none;"  pointer-events="visible" d="M45.6793,64.4786 L46.7099,62.5814 L43.9635,61.6665 L43.3325,62.8281 L45.046,63.7589 L43.1041,67.3334 L44.0707,67.8585 L45.8549,64.574 L45.6793,64.4786"/>

        </g>

        <g id="product-07-Y05-A">

            <path style="stroke:none; fill:none;"  pointer-events="visible" d="M46.818,77.217 L46.8219,77.2066 L42.7097,74.9727 L40.0551,79.8592 L40.0288,79.8449 L39.2392,81.2982 L37.579,84.3544 L43.7337,87.6979 L47.454,77.7445 L46.7614,77.3682 L46.818,77.217"/>

        </g>

        <g id="product-07-X07-K">

            <path style="stroke:none; fill:none;"  pointer-events="visible" d="M30.9762,66.75 L31.5847,69.4974 L33.0082,69.1821 L32.4486,66.6554 L32.1088,66.7306 L32.06,66.5099 L30.9762,66.75"/>

        </g>

        <g id="product-07-X07-A">

            <path style="stroke:none; fill:none;"  pointer-events="visible" d="M22.3686,74.1338 L26.2569,73.2727 L25.3774,69.3011 L25.3315,69.3113 L25.1036,68.2822 L25.1495,68.272 L25.1002,68.0495 L21.8393,68.7716 L22.3686,74.1338"/>

        </g>

        <g id="product-XX-XX">

            <path style="stroke:none; fill:none;"  pointer-events="visible" d="M38.6514,70.7116 L42.916,62.8615 L35.5677,58.8696 L30.5066,57.1835 L33.1494,69.117 L34.9728,68.7133 L38.6514,70.7116"/>

        </g>

    </g>

    </g>
<g class = "zones">

    <g id="storey-07L">

        <g id="product-07-Y08-E">

            <path style="stroke:none; fill:none;" pointer-events="visible" d="M48.2332,68.733 L49.5216,66.3614 L47.8749,65.4669 L46.5866,67.8385 L48.2332,68.733"/>

        </g>

        <g id="product-07-X04-B">

            <path style="stroke:none; fill:none;" pointer-events="visible" d="M24.3166,90.3847 L27.3647,89.7097 L26.7811,87.0746 L23.7331,87.7496 L24.3166,90.3847"/>

        </g>

        <g id="product-07-Y04-D">

            <path style="stroke:none; fill:none;" pointer-events="visible" d="M39.0065,91.3748 L40.2948,89.0032 L37.9232,87.7148 L36.6349,90.0865 L39.0065,91.3748"/>

        </g>

        <g id="product-07-X04-C">

            <path style="stroke:none; fill:none;" pointer-events="visible" d="M26.7819,87.0734 L29.2223,86.5329 L28.6387,83.8978 L26.1983,84.4382 L26.7819,87.0734"/>

        </g>

        <g id="product-07-X10-D">

            <path style="stroke:none; fill:none;" pointer-events="visible" d="M20.7229,57.9954 L22.9073,57.5116 L22.3486,54.9889 L22.1397,54.9172 L20.456,55.2901 L20.7229,57.9954"/>

        </g>

        <g id="product-07-Y06-J">

            <path style="stroke:none; fill:none;" pointer-events="visible" d="M36.5093,74.6548 L37.7976,72.2831 L35.8684,71.2351 L35.4667,74.0885 L36.5093,74.6548"/>

        </g>

        <g id="product-07-Y03-C">

            <path style="stroke:none; fill:none;" pointer-events="visible" d="M37.7177,93.7474 L39.006,91.3757 L36.6344,90.0873 L35.3461,92.459 L37.7177,93.7474"/>

        </g>

        <g id="product-07-Y03-A">

            <path style="stroke:none; fill:none;" pointer-events="visible" d="M40.3948,95.2017 L41.6832,92.8301 L39.0069,91.3762 L37.7186,93.7479 L40.3948,95.2017"/>

        </g>

        <g id="product-07-Y06-H">

            <path style="stroke:none; fill:none;" pointer-events="visible" d="M40.0553,79.8587 L41.4627,77.2677 L39.4862,76.194 L38.0787,78.7849 L40.0553,79.8587"/>

        </g>

        <g id="product-07-Y05-Hb">

            <path style="stroke:none; fill:none;" pointer-events="visible" d="M37.5636,84.4456 L37.9569,83.7215 L34.5374,81.8639 L34.3144,82.2744 L34.2613,82.6517 L37.5636,84.4456"/>

        </g>

        <g id="product-07-Y02-D">

            <path style="stroke:none; fill:none;" pointer-events="visible" d="M33.8513,100.865 L35.1396,98.4933 L32.2522,96.9248 L31.8505,99.7781 L33.8513,100.865"/>

        </g>

        <g id="product-07-Y05-Ia">

            <path style="stroke:none; fill:none;" pointer-events="visible" d="M36.806,79.9758 L37.595,78.5233 L35.038,77.1342 L34.9943,77.4448 L34.9944,77.4454 L34.9942,77.4455 L34.792,78.8817 L36.806,79.9758"/>

        </g>

        <g id="product-07-X05-B">

            <path style="stroke:none; fill:none;" pointer-events="visible" d="M23.149,85.1125 L26.1971,84.4375 L25.6135,81.8023 L22.696,82.4485 L22.8096,83.5797 L23.149,85.1125"/>

        </g>

        <g id="product-07-Y06-I">

            <path style="stroke:none; fill:none;" pointer-events="visible" d="M38.0778,78.7845 L40.8269,73.724 L37.8844,72.1255 L37.799,72.2827 L37.799,72.2828 L37.7986,72.2837 L37.7985,72.2836 L35.1354,77.186 L38.0778,78.7845"/>

        </g>

        <g id="product-07-Y04-E">

            <path style="stroke:none; fill:none;" pointer-events="visible" d="M37.9228,87.7134 L39.2116,85.3409 L37.5645,84.4461 L36.2757,86.8186 L37.9228,87.7134"/>

        </g>

        <g id="product-07-X07-Ha">

            <path style="stroke:none; fill:none;" pointer-events="visible" d="M28.2953,73.0952 L29.7979,72.7625 L29.2294,70.1957 L27.7268,70.5284 L28.2953,73.0952"/>

        </g>

        <g id="product-07-X06-I">

            <path style="stroke:none; fill:none;" pointer-events="visible" d="M32.7354,74.6931 L34.3067,74.3451 L33.7231,71.7098 L32.1518,72.0578 L32.7354,74.6931"/>

        </g>

        <g id="product-07-X06-D">

            <path style="stroke:none; fill:none;" pointer-events="visible" d="M24.4469,76.5297 L25.0304,79.1648 L27.4708,78.6243 L26.8872,75.9892 L24.4469,76.5297"/>

        </g>

        <g id="product-07-Y08-L">

            <path style="stroke:none; fill:none;" pointer-events="visible" d="M40.3757,67.5372 L41.664,65.1655 L37.0738,62.6719 L36.6721,65.5252 L40.3757,67.5372"/>

        </g>

        <g id="product-07-Y06-E">

            <path style="stroke:none; fill:none;" pointer-events="visible" d="M43.078,78.2232 L44.3663,75.8516 L42.7192,74.9568 L41.4309,77.3284 L43.078,78.2232"/>

        </g>

        <g id="product-07-Y07-I">

            <path style="stroke:none; fill:none;" pointer-events="visible" d="M40.8401,71.9808 L42.5977,68.7454 L40.3761,67.5385 L38.6185,70.774 L40.8401,71.9808"/>

        </g>

        <g id="product-07-X06-Hc">

            <path style="stroke:none; fill:none;" pointer-events="visible" d="M30.7915,75.4374 L32.8016,74.9922 L32.4962,73.6131 L30.486,74.0582 L30.7915,75.4374"/>

        </g>

        <g id="product-07-X10-Cb">

            <path style="stroke:none; fill:none;" pointer-events="visible" d="M20.4559,55.2891 L22.1379,54.9166 L20.359,54.306 L20.4559,55.2891"/>

        </g>

        <g id="product-07-Y09-L">

            <path style="stroke:none; fill:none;" pointer-events="visible" d="M42.9533,62.7921 L43.2881,62.1758 L39.2976,60.8061 L42.9533,62.7921"/>

        </g>

        <g id="product-07-Y08-F">

            <path style="stroke:none; fill:none;" pointer-events="visible" d="M47.1148,70.7919 L48.2328,68.7339 L46.5861,67.8394 L45.4682,69.8974 L47.1148,70.7919"/>

        </g>

        <g id="product-07-X10-Fb">

            <path style="stroke:none; fill:none;" pointer-events="visible" d="M22.9083,57.5114 L24.7526,57.1029 L24.4436,55.708 L22.3497,54.9893 L22.9083,57.5114"/>

        </g>

        <g id="product-07-X05-C">

            <path style="stroke:none; fill:none;" pointer-events="visible" d="M25.6143,81.8011 L28.0547,81.2607 L27.471,78.6253 L25.0307,79.1657 L25.6143,81.8011"/>

        </g>

        <g id="product-07-Y05-A">

            <path style="stroke:none; fill:none;" pointer-events="visible" d="M44.9628,85.3925 L45.9198,82.8408 L44.1625,81.8862 L42.8741,84.2578 L44.9628,85.3925"/>

        </g>

        <g id="product-07-X08-Kb">

            <path style="stroke:none; fill:none;" pointer-events="visible" d="M31.9725,63.8003 L34.6076,63.2167 L34.0241,60.5815 L31.3889,61.1651 L31.9725,63.8003"/>

        </g>

        <g id="product-07-Y06-C">

            <path style="stroke:none; fill:none;" pointer-events="visible" d="M45.4505,79.5121 L46.7389,77.1404 L44.3672,75.852 L43.0789,78.2237 L45.4505,79.5121"/>

        </g>

        <g id="product-07-X07-C">

            <path style="stroke:none; fill:none;" pointer-events="visible" d="M23.279,71.2564 L25.7194,70.7159 L25.1358,68.0808 L22.6954,68.6212 L23.279,71.2564"/>

        </g>

        <g id="product-07-X04-A">

            <path style="stroke:none; fill:none;" pointer-events="visible" d="M23.7328,87.7487 L26.7809,87.0736 L26.1973,84.4384 L23.1492,85.1135 L23.7328,87.7487"/>

        </g>

        <g id="product-07-Y04-C">

            <path style="stroke:none; fill:none;" pointer-events="visible" d="M40.2953,89.0023 L41.5841,86.6297 L39.2125,85.3414 L37.9237,87.7139 L40.2953,89.0023"/>

        </g>

        <g id="product-07-X10-Hb">

            <path style="stroke:none; fill:none;" pointer-events="visible" d="M24.7536,57.1027 L27.0352,56.5974 L24.4447,55.7083 L24.7536,57.1027"/>

        </g>

        <g id="product-07-X06-H">

            <path style="stroke:none; fill:none;" pointer-events="visible" d="M29.4235,78.1919 L33.3192,77.3291 L32.8016,74.9922 L28.906,75.855 L29.4235,78.1919"/>

        </g>

        <g id="product-07-Y08-D">

            <path style="stroke:none; fill:none;" pointer-events="visible" d="M50.7064,70.0777 L48.2336,68.7344 L47.1157,70.7924 L49.8757,72.2926 L50.7064,70.0777"/>

        </g>

        <g id="product-07-Y06-K">

            <path style="stroke:none; fill:none;" pointer-events="visible" d="M35.1345,77.1855 L36.5088,74.6557 L35.4666,74.0895 L35.0381,77.1332 L35.1345,77.1855"/>

        </g>

        <g id="product-07-X07-K">

            <path style="stroke:none; fill:none;" pointer-events="visible" d="M36.1305,69.366 L36.671,65.5262 L32.5565,66.4374 L33.1726,69.2194 L35.0822,68.7965 L36.1305,69.366"/>

        </g>

        <g id="product-07-Y06-G">

            <path style="stroke:none; fill:none;" pointer-events="visible" d="M41.4632,77.2668 L42.8043,74.7981 L40.8278,73.7244 L39.4867,76.1931 L41.4632,77.2668"/>

        </g>

        <g id="product-07-Y07-HB">

            <path style="stroke:none; fill:none;" pointer-events="visible" d="M42.2342,74.4873 L42.9674,73.1376 L40.8045,71.9626 L40.0713,73.3123 L42.2342,74.4873"/>

        </g>

        <g id="product-07-Y08-K">

            <path style="stroke:none; fill:none;" pointer-events="visible" d="M41.6645,65.1646 L42.9528,62.793 L39.2919,60.8042 L39.2606,60.7935 L37.9749,63.1603 L41.6645,65.1646"/>

        </g>

        <g id="product-07-Y04-B">

            <path style="stroke:none; fill:none;" pointer-events="visible" d="M41.6837,92.8292 L42.9719,90.458 L40.2958,89.0041 L39.0076,91.3753 L41.6837,92.8292"/>

        </g>

        <g id="product-07-Y08-I">

            <path style="stroke:none; fill:none;" pointer-events="visible" d="M43.6854,66.2625 L44.8878,64.049 L42.8678,62.9516 L41.6654,65.1651 L43.6854,66.2625"/>

        </g>

        <g id="product-07-Y07-B">

            <path style="stroke:none; fill:none;" pointer-events="visible" d="M47.8346,77.7351 L48.7918,75.183 L48.029,74.7686 L46.7406,77.1402 L47.8346,77.7351"/>

        </g>

        <g id="product-07-X07-D">

            <path style="stroke:none; fill:none;" pointer-events="visible" d="M23.8628,73.8925 L26.3032,73.352 L25.7196,70.7169 L23.2792,71.2574 L23.8628,73.8925"/>

        </g>

        <g id="product-07-Y01-B">

            <path style="stroke:none; fill:none;" pointer-events="visible" d="M33.9506,107.064 L35.2389,104.693 L32.5629,103.239 L31.2746,105.611 L33.9506,107.064"/>

        </g>

        <g id="product-07-Y05-D">

            <path style="stroke:none; fill:none;" pointer-events="visible" d="M41.5841,86.6297 L42.8724,84.2581 L40.5008,82.9697 L39.2125,85.3414 L41.5841,86.6297"/>

        </g>

        <g id="product-07-X07-Hb">

            <path style="stroke:none; fill:none;" pointer-events="visible" d="M29.7989,72.7623 L32.1905,72.2326 L31.622,69.6658 L29.2304,70.1954 L29.7989,72.7623"/>

        </g>

        <g id="product-07-Y07-F">

            <path style="stroke:none; fill:none;" pointer-events="visible" d="M45.6551,73.479 L43.4375,72.2743 L42.2351,74.4878 L42.8056,74.7977 L42.7197,74.9559 L44.3668,75.8507 L45.6551,73.479"/>

        </g>

        <g id="product-07-Y05-E">

            <path style="stroke:none; fill:none;" pointer-events="visible" d="M40.5004,82.9683 L41.7887,80.5967 L40.1416,79.7019 L39.2666,81.3126 L39.2667,81.3126 L39.2662,81.3135 L39.2662,81.3134 L38.8533,82.0735 L40.5004,82.9683"/>

        </g>

        <g id="product-07-Y04-F">

            <path style="stroke:none; fill:none;" pointer-events="visible" d="M36.634,90.086 L37.9223,87.7143 L36.2752,86.8195 L34.9869,89.1912 L36.634,90.086"/>

        </g>

        <g id="product-07-Y05-F">

            <path style="stroke:none; fill:none;" pointer-events="visible" d="M39.2116,85.3409 L40.4999,82.9692 L38.8528,82.0744 L37.9583,83.7211 L37.9583,83.7212 L37.9579,83.7221 L37.9578,83.722 L37.5645,84.4461 L39.2116,85.3409"/>

        </g>

        <g id="product-07-Y05-C">

            <path style="stroke:none; fill:none;" pointer-events="visible" d="M42.8729,84.2572 L44.1612,81.8855 L41.7896,80.5971 L40.5013,82.9688 L42.8729,84.2572"/>

        </g>

        <g id="product-07-Y05-Jb">

            <path style="stroke:none; fill:none;" pointer-events="visible" d="M35.8384,82.5695 L36.5468,81.2655 L35.2463,80.559 L34.5379,81.863 L35.8384,82.5695"/>

        </g>

        <g id="product-07-X09-G">

            <path style="stroke:none; fill:none;" pointer-events="visible" d="M25.3374,59.7389 L28.345,59.0728 L27.8594,56.8803 L27.037,56.598 L24.7538,57.1037 L25.3374,59.7389"/>

        </g>

        <g id="product-07-X02-A">

            <path style="stroke:none; fill:none;" pointer-events="visible" d="M26.068,98.2931 L29.1161,97.6181 L28.5325,94.9829 L25.4845,95.658 L26.068,98.2931"/>

        </g>

        <g id="product-07-Y07-C">

            <path style="stroke:none; fill:none;" pointer-events="visible" d="M49.4869,72.0817 L47.1152,70.7933 L45.6565,73.4786 L48.0281,74.767 L49.4869,72.0817"/>

        </g>

        <g id="product-07-Y05-B">

            <path style="stroke:none; fill:none;" pointer-events="visible" d="M44.0055,87.9451 L44.9625,85.3935 L42.8736,84.2587 L41.5853,86.6304 L44.0055,87.9451"/>

        </g>

        <g id="product-07-Y08-H">

            <path style="stroke:none; fill:none;" pointer-events="visible" d="M45.4673,69.8969 L46.5852,67.8389 L44.9623,66.9573 L43.7743,69.1377 L45.0624,69.8374 L45.1297,69.7135 L45.4673,69.8969"/>

        </g>

        <g id="product-07-X08-B">

            <path style="stroke:none; fill:none;" pointer-events="visible" d="M21.3377,68.9209 L22.6942,68.6205 L22.1107,65.9853 L21.0662,66.2166 L21.3377,68.9209"/>

        </g>

        <g id="product-07-X08-E">

            <path style="stroke:none; fill:none;" pointer-events="visible" d="M24.6597,65.4198 L26.504,65.0113 L25.8215,61.9295 L23.9772,62.3382 L24.6597,65.4198"/>

        </g>

        <g id="product-07-X08-D">

            <path style="stroke:none; fill:none;" pointer-events="visible" d="M25.2425,68.0561 L24.6589,65.421 L22.1116,65.9851 L22.6952,68.6202 L25.2425,68.0561"/>

        </g>

        <g id="product-07-X10-B">

            <path style="stroke:none; fill:none;" pointer-events="visible" d="M19.9797,55.3956 L20.2513,58.0998 L20.7219,57.9956 L20.455,55.2903 L19.9797,55.3956"/>

        </g>

        <g id="product-07-X10-A">

            <path style="stroke:none; fill:none;" pointer-events="visible" d="M19.9796,55.3946 L20.4549,55.2893 L20.3579,54.3056 L19.8529,54.1323 L19.9796,55.3946"/>

        </g>

        <g id="product-07-X09-B">

            <path style="stroke:none; fill:none;" pointer-events="visible" d="M20.7486,63.0528 L21.2106,62.9504 L20.9889,60.7029 L20.523,60.8061 L20.7486,63.0528"/>

        </g>

        <g id="product-07-X09-A">

            <path style="stroke:none; fill:none;" pointer-events="visible" d="M20.5229,60.8051 L20.9888,60.7019 L20.722,57.9966 L20.2514,58.1008 L20.5229,60.8051"/>

        </g>

        <g id="product-07-Y07-A">

            <path style="stroke:none; fill:none;" pointer-events="visible" d="M48.029,74.7675 L48.792,75.1824 L49.8756,72.2929 L49.4877,72.0821 L48.029,74.7675"/>

        </g>

        <g id="product-07-X09-I">

            <path style="stroke:none; fill:none;" pointer-events="visible" d="M28.4187,59.4011 L30.8767,58.8568 L30.6512,57.8385 L27.8606,56.8807 L28.4187,59.4011"/>

        </g>

        <g id="product-07-X03-B">

            <path style="stroke:none; fill:none;" pointer-events="visible" d="M25.4842,95.657 L28.5323,94.982 L27.9487,92.3469 L24.9007,93.0219 L25.4842,95.657"/>

        </g>

        <g id="product-07-X02-E">

            <path style="stroke:none; fill:none;" pointer-events="visible" d="M32.2513,96.9238 L32.6529,94.0704 L31.0818,94.4184 L31.6654,97.0535 L32.2513,96.9238"/>

        </g>

        <g id="product-07-X04-Ha">

            <path style="stroke:none; fill:none;" pointer-events="visible" d="M33.4567,88.3606 L33.8583,85.5073 L31.1757,86.1014 L31.7592,88.7365 L33.4567,88.3606"/>

        </g>

        <g id="product-07-X05-G">

            <path style="stroke:none; fill:none;" pointer-events="visible" d="M33.8589,85.5066 L33.8791,85.3635 L33.3248,82.8607 L30.592,83.466 L31.1757,86.1014 L33.8589,85.5066"/>

        </g>

        <g id="product-07-X05-E">

            <path style="stroke:none; fill:none;" pointer-events="visible" d="M28.0547,81.2607 L30.0069,80.8284 L29.4232,78.1929 L27.471,78.6253 L28.0547,81.2607"/>

        </g>

        <g id="product-07-X05-J">

            <path style="stroke:none; fill:none;" pointer-events="visible" d="M34.2603,82.6518 L34.6619,79.7985 L32.7412,80.2233 L33.3243,82.8583 L34.2603,82.6518"/>

        </g>

        <g id="product-07-X09-K">

            <path style="stroke:none; fill:none;" pointer-events="visible" d="M30.8049,58.528 L31.9325,58.2783 L30.6523,57.8389 L30.8049,58.528"/>

        </g>

        <g id="product-07-X08-A">

            <path style="stroke:none; fill:none;" pointer-events="visible" d="M21.0661,66.2156 L22.1104,65.9843 L21.4281,62.9032 L20.7487,63.0538 L21.0661,66.2156"/>

        </g>

        <g id="product-07-X06-Ia">

            <path style="stroke:none; fill:none;" pointer-events="visible" d="M35.4657,74.0884 L35.8674,71.235 L33.7241,71.7096 L34.3077,74.3449 L35.4657,74.0884"/>

        </g>

        <g id="product-07-X09-F">

            <path style="stroke:none; fill:none;" pointer-events="visible" d="M23.977,62.3373 L25.8213,61.9285 L25.3366,59.74 L23.4923,60.1485 L23.977,62.3373"/>

        </g>

        <g id="product-07-X06-Ja">

            <path style="stroke:none; fill:none;" pointer-events="visible" d="M34.9936,77.4421 L35.4656,74.0895 L34.3079,74.3458 L34.9936,77.4421"/>

        </g>

        <g id="product-07-X08-G">

            <path style="stroke:none; fill:none;" pointer-events="visible" d="M26.505,65.0111 L29.5287,64.3415 L28.8461,61.2591 L25.8225,61.9293 L26.505,65.0111"/>

        </g>

        <g id="product-07-X09-H">

            <path style="stroke:none; fill:none;" pointer-events="visible" d="M25.8222,61.9283 L28.8298,61.2617 L28.3452,59.0738 L25.3376,59.7398 L25.8222,61.9283"/>

        </g>

        <g id="product-07-Y08-C">

            <path style="stroke:none; fill:none;" pointer-events="visible" d="M51.6637,67.525 L49.5224,66.3619 L48.2341,68.7335 L50.7068,70.0767 L51.6637,67.525"/>

        </g>

        <g id="product-07-Y07-K">

            <path style="stroke:none; fill:none;" pointer-events="visible" d="M38.6413,70.73 L40.3752,67.5381 L36.672,65.5263 L36.1314,69.3665 L38.6413,70.73"/>

        </g>

        <g id="product-07-Y07-Ga">

            <path style="stroke:none; fill:none;" pointer-events="visible" d="M44.1308,71.5524 L45.0619,69.8383 L43.8265,69.1672 L42.9244,70.8277 L43.9274,71.3725 L43.8983,71.4261 L44.1308,71.5524"/>

        </g>

        <g id="product-07-X09-L">

            <path style="stroke:none; fill:none;" pointer-events="visible" d="M31.3887,61.1641 L34.0238,60.5805 L33.6441,58.8657 L31.9343,58.2789 L30.8051,58.529 L31.3887,61.1641"/>

        </g>

        <g id="product-07-X04-F">

            <path style="stroke:none; fill:none;" pointer-events="visible" d="M29.8061,89.169 L31.7583,88.7367 L31.5174,87.649 L31.1757,86.1014 L29.2225,86.5339 L29.8061,89.169"/>

        </g>

        <g id="product-07-X07-B">

            <path style="stroke:none; fill:none;" pointer-events="visible" d="M21.881,74.3314 L23.8619,73.8927 L23.2783,71.2576 L21.6095,71.6272 L21.881,74.3314"/>

        </g>

        <g id="product-07-X03-D">

            <path style="stroke:none; fill:none;" pointer-events="visible" d="M28.5333,94.9817 L31.0806,94.4176 L30.497,91.7825 L27.9497,92.3466 L28.5333,94.9817"/>

        </g>

        <g id="product-07-X05-G">

            <path style="stroke:none; fill:none;" pointer-events="visible" d="M33.5863,80.0356 L33.9031,79.9662 L33.3193,77.3301 L32.158,77.5873 L32.7416,80.2227 L33.5863,80.0356"/>

        </g>

        <g id="product-07-X07-L">

            <path style="stroke:none; fill:none;" pointer-events="visible" d="M35.8675,71.2339 L36.1303,69.367 L35.0821,68.7976 L33.1728,69.2204 L33.7239,71.7086 L35.8675,71.2339"/>

        </g>

        <g id="product-07-Y09-Fb">

            <path style="stroke:none; fill:none;" pointer-events="visible" d="M49.522,66.3605 L50.4584,64.6368 L48.661,64.0198 L47.8754,65.466 L49.522,66.3605"/>

        </g>

        <g id="product-07-X02-C">

            <path style="stroke:none; fill:none;" pointer-events="visible" d="M29.1171,97.6179 L31.6644,97.0537 L31.0808,94.4186 L28.5335,94.9827 L29.1171,97.6179"/>

        </g>

        <g id="product-07-X09-E">

            <path style="stroke:none; fill:none;" pointer-events="visible" d="M23.4921,60.1475 L25.3364,59.7391 L24.7528,57.1039 L22.9085,57.5124 L23.4921,60.1475"/>

        </g>

        <g id="product-07-X05-Ga">

            <path style="stroke:none; fill:none;" pointer-events="visible" d="M33.8788,85.3621 L34.2601,82.6528 L33.3246,82.86 L33.8788,85.3621"/>

        </g>

        <g id="product-07-Y08-G">

            <path style="stroke:none; fill:none;" pointer-events="visible" d="M46.5857,67.838 L47.874,65.4664 L46.2541,64.5864 L44.9628,66.9564 L46.5857,67.838"/>

        </g>

        <g id="product-07-Y07-J">

            <path style="stroke:none; fill:none;" pointer-events="visible" d="M40.0704,73.3119 L40.8036,71.9622 L38.6181,70.7749 L37.8849,72.1246 L40.0704,73.3119"/>

        </g>

        <g id="product-07-X04-E">

            <path style="stroke:none; fill:none;" pointer-events="visible" d="M29.2207,86.5332 L31.1747,86.1016 L30.5909,83.4654 L28.6371,83.8981 L29.2207,86.5332"/>

        </g>

        <g id="product-07-Y09-Db">

            <path style="stroke:none; fill:none;" pointer-events="visible" d="M52.4796,65.3497 L52.4904,65.3342 L50.4593,64.6371 L49.5229,66.361 L51.6641,67.5241 L52.4796,65.3497"/>

        </g>

        <g id="product-07-X08-F">

            <path style="stroke:none; fill:none;" pointer-events="visible" d="M27.0878,67.6475 L26.5042,65.0123 L24.6599,65.4207 L25.2435,68.0559 L27.0878,67.6475"/>

        </g>

        <g id="product-07-X09-D">

            <path style="stroke:none; fill:none;" pointer-events="visible" d="M21.2116,62.9502 L23.976,62.3375 L23.4913,60.1487 L20.9899,60.7027 L21.2116,62.9502"/>

        </g>

        <g id="product-07-X06-B">

            <path style="stroke:none; fill:none;" pointer-events="visible" d="M22.4242,79.7419 L25.0295,79.165 L24.4459,76.5299 L22.1527,77.0378 L22.4242,79.7419"/>

        </g>

        <g id="product-07-X06-F">

            <path style="stroke:none; fill:none;" pointer-events="visible" d="M27.4708,78.6243 L29.424,78.1918 L28.8404,75.5567 L26.8872,75.9892 L27.4708,78.6243"/>

        </g>

        <g id="product-07-Y08-J">

            <path style="stroke:none; fill:none;" pointer-events="visible" d="M43.7734,69.1372 L44.3787,68.0264 L43.1039,67.3339 L43.1041,67.3334 L43.1037,67.3332 L43.6849,66.2633 L41.6649,65.166 L40.3766,67.5376 L42.5982,68.7446 L42.7013,68.5548 L43.7734,69.1372"/>

        </g>

        <g id="product-07-X08-C">

            <path style="stroke:none; fill:none;" pointer-events="visible" d="M22.1114,65.9841 L24.6587,65.42 L23.9763,62.3385 L21.4291,62.903 L22.1114,65.9841"/>

        </g>

        <g id="product-07-X06-E">

            <path style="stroke:none; fill:none;" pointer-events="visible" d="M26.887,75.9883 L28.8402,75.5557 L28.2955,73.0962 L28.2945,73.0964 L28.2556,72.9207 L26.3034,73.353 L26.887,75.9883"/>

        </g>

        <g id="product-07-X08-Lb">

            <path style="stroke:none; fill:none;" pointer-events="visible" d="M32.5563,66.4364 L35.1914,65.8528 L34.6079,63.2176 L31.9727,63.8012 L32.5563,66.4364"/>

        </g>

        <g id="product-07-Y07-E">

            <path style="stroke:none; fill:none;" pointer-events="visible" d="M45.6556,73.4781 L47.1143,70.7928 L45.1301,69.7149 L44.1312,71.5538 L43.8978,71.427 L43.438,72.2734 L45.6556,73.4781"/>

        </g>

        <g id="product-07-Y05-Ib">

            <path style="stroke:none; fill:none;" pointer-events="visible" d="M36.5472,81.2646 L37.1463,80.1618 L35.8458,79.4554 L35.2468,80.5582 L36.5472,81.2646"/>

        </g>

        <g id="product-07-Y02-B">

            <path style="stroke:none; fill:none;" pointer-events="visible" d="M36.5283,102.319 L37.8166,99.9476 L35.1405,98.4938 L33.8522,100.865 L36.5283,102.319"/>

        </g>

        <g id="product-07-X07-J">

            <path style="stroke:none; fill:none;" pointer-events="visible" d="M32.152,72.0568 L33.7229,71.7089 L33.1826,69.269 L31.6116,69.6169 L32.152,72.0568"/>

        </g>

        <g id="product-07-X01-A">

            <path style="stroke:none; fill:none;" pointer-events="visible" d="M27.2356,103.565 L30.2837,102.89 L29.7001,100.255 L26.6521,100.93 L27.2356,103.565"/>

        </g>

        <g id="product-07-X09-P">

            <path style="stroke:none; fill:none;" pointer-events="visible" d="M36.8298,59.9591 L36.6381,59.8933 L36.6609,59.9965 L36.8298,59.9591"/>

        </g>

        <g id="product-07-Y06-B">

            <path style="stroke:none; fill:none;" pointer-events="visible" d="M45.9201,82.8399 L46.8771,80.2882 L45.4513,79.5136 L44.1629,81.8853 L45.9201,82.8399"/>

        </g>

        <g id="product-07-X05-D">

            <path style="stroke:none; fill:none;" pointer-events="visible" d="M26.1981,84.4372 L28.6385,83.8968 L28.0549,81.2617 L25.6145,81.8021 L26.1981,84.4372"/>

        </g>

        <g id="product-07-Y05-Ja">

            <path style="stroke:none; fill:none;" pointer-events="visible" d="M34.3148,82.2716 L35.845,79.4549 L34.7918,78.8828 L34.3148,82.2716"/>

        </g>

        <g id="product-07-Y05-Ha">

            <path style="stroke:none; fill:none;" pointer-events="visible" d="M28.9055,75.855 L30.7915,75.4374 L30.1803,72.6778 L28.2943,73.0954 L28.9055,75.855"/>

        </g>

        <g id="product-07-Y07-Ha">

            <path style="stroke:none; fill:none;" pointer-events="visible" d="M42.9679,73.1367 L43.926,71.3729 L41.7992,70.2175 L40.841,71.9813 L42.9679,73.1367"/>

        </g>

        <g id="product-07-Y02-A">

            <path style="stroke:none; fill:none;" pointer-events="visible" d="M37.8171,99.9467 L39.1055,97.5751 L36.4293,96.1213 L35.141,98.4929 L37.8171,99.9467"/>

        </g>

        <g id="product-07-Y07-Gb">

            <path style="stroke:none; fill:none;" pointer-events="visible" d="M42.9235,70.8272 L43.8256,69.1667 L42.7017,68.5561 L41.7997,70.2167 L42.9235,70.8272"/>

        </g>

        <g id="product-07-X01-B">

            <path style="stroke:none; fill:none;" pointer-events="visible" d="M27.2358,103.566 L27.8194,106.201 L30.8675,105.526 L30.2839,102.891 L27.2358,103.566"/>

        </g>

        <g id="product-07-Y01-D">

            <path style="stroke:none; fill:none;" pointer-events="visible" d="M31.2737,105.61 L32.562,103.238 L31.4486,102.634 L31.0469,105.487 L31.2737,105.61"/>

        </g>

        <g id="product-07-X01-C">

            <path style="stroke:none; fill:none;" pointer-events="visible" d="M31.4477,102.632 L31.8493,99.7792 L29.7011,100.255 L30.2847,102.89 L31.4477,102.632"/>

        </g>

        <g id="product-07-Y01-C">

            <path style="stroke:none; fill:none;" pointer-events="visible" d="M32.5625,103.238 L33.8508,100.866 L31.8504,99.7792 L31.4487,102.633 L32.5625,103.238"/>

        </g>

        <g id="product-07-X00-A">

            <path style="stroke:none; fill:none;" pointer-events="visible" d="M30.5153,109.257 L31.0458,105.488 L27.8196,106.202 L28.4311,108.963 L30.5153,109.257"/>

        </g>

        <g id="product-07-X05-H">

            <path style="stroke:none; fill:none;" pointer-events="visible" d="M30.5915,83.4636 L33.3243,82.8583 L32.7406,80.2229 L30.0078,80.8281 L30.5915,83.4636"/>

        </g>

        <g id="product-07-Y00-A">

            <path style="stroke:none; fill:none;" pointer-events="visible" d="M32.6002,109.55 L33.9501,107.065 L31.0468,105.488 L30.5163,109.257 L32.6002,109.55"/>

        </g>

        <g id="product-07-X05-F">

            <path style="stroke:none; fill:none;" pointer-events="visible" d="M28.6385,83.8968 L30.5907,83.4644 L30.0071,80.8293 L28.0549,81.2617 L28.6385,83.8968"/>

        </g>

        <g id="product-07-X06-Ha">

            <path style="stroke:none; fill:none;" pointer-events="visible" d="M30.4829,74.059 L32.4962,73.6132 L32.1907,72.2336 L30.1774,72.6794 L30.4829,74.059"/>

        </g>

        <g id="product-07-Y01-A">

            <path style="stroke:none; fill:none;" pointer-events="visible" d="M35.2394,104.692 L36.5278,102.32 L33.8517,100.866 L32.5634,103.238 L35.2394,104.692"/>

        </g>

        <g id="product-07-X01-D">

            <path style="stroke:none; fill:none;" pointer-events="visible" d="M31.0459,105.487 L31.4476,102.633 L30.2849,102.891 L30.8685,105.526 L31.0459,105.487"/>

        </g>

        <g id="product-07-Y02-C">

            <path style="stroke:none; fill:none;" pointer-events="visible" d="M35.1401,98.4925 L36.4284,96.1208 L34.0568,94.8324 L32.7685,97.2041 L35.1401,98.4925"/>

        </g>

        <g id="product-07-X08-M">

            <path style="stroke:none; fill:none;" pointer-events="visible" d="M37.0729,62.6707 L37.4258,60.1637 L36.8316,59.9598 L34.025,60.5813 L34.6086,63.2165 L37.0729,62.6707"/>

        </g>

        <g id="product-07-Y03-F">

            <path style="stroke:none; fill:none;" pointer-events="visible" d="M34.0564,94.8311 L35.3447,92.4594 L33.0558,91.216 L32.6541,94.0693 L34.0564,94.8311"/>

        </g>

        <g id="product-07-X07-A">

            <path style="stroke:none; fill:none;" pointer-events="visible" d="M21.6094,71.6261 L23.2781,71.2566 L22.6945,68.6214 L21.3378,68.9219 L21.6094,71.6261"/>

        </g>

        <g id="product-07-X08-N">

            <path style="stroke:none; fill:none;" pointer-events="visible" d="M36.6711,65.5251 L37.0728,62.6718 L34.6088,63.2174 L35.1924,65.8526 L36.6711,65.5251"/>

        </g>

        <g id="product-07-Y04-H">

            <path style="stroke:none; fill:none;" pointer-events="visible" d="M34.9869,89.1912 L36.2742,86.819 L33.8584,85.5067 L33.4567,88.3605 L34.9869,89.1912"/>

        </g>

        <g id="product-07-Y08-M">

            <path style="stroke:none; fill:none;" pointer-events="visible" d="M37.974,63.1598 L39.2597,60.7931 L37.4268,60.164 L37.0739,62.6708 L37.974,63.1598"/>

        </g>

        <g id="product-07-Y02-E">

            <path style="stroke:none; fill:none;" pointer-events="visible" d="M32.7676,97.2036 L34.0559,94.8319 L32.654,94.0704 L32.2523,96.9237 L32.7676,97.2036"/>

        </g>

        <g id="product-07-Y07-D">

            <path style="stroke:none; fill:none;" pointer-events="visible" d="M46.7393,77.1395 L48.0277,74.7679 L45.656,73.4795 L44.3677,75.8512 L46.7393,77.1395"/>

        </g>

        <g id="product-07-X03-E">

            <path style="stroke:none; fill:none;" pointer-events="visible" d="M33.0549,91.215 L33.4567,88.3605 L29.9142,89.1461 L30.4978,91.7813 L33.0549,91.215"/>

        </g>

        <g id="product-07-X09-N">

            <path style="stroke:none; fill:none;" pointer-events="visible" d="M34.0248,60.5803 L36.66,59.9967 L36.637,59.893 L33.6452,58.8661 L34.0248,60.5803"/>

        </g>

        <g id="product-07-X02-D">

            <path style="stroke:none; fill:none;" pointer-events="visible" d="M31.8495,99.7782 L32.2511,96.9248 L29.1173,97.6189 L29.7009,100.254 L31.8495,99.7782"/>

        </g>

        <g id="product-07-X03-C">

            <path style="stroke:none; fill:none;" pointer-events="visible" d="M27.9495,92.3457 L30.4968,91.7815 L29.9132,89.1463 L27.3659,89.7105 L27.9495,92.3457"/>

        </g>

        <g id="product-07-X05-G">

            <path style="stroke:none; fill:none;" pointer-events="visible" d="M30.0078,80.8281 L32.7406,80.2229 L32.157,77.5875 L29.4242,78.1927 L30.0078,80.8281"/>

        </g>

        <g id="product-07-X08-J">

            <path style="stroke:none; fill:none;" pointer-events="visible" d="M30.0746,66.8016 L32.5164,66.2609 L31.9717,63.8015 L29.5299,64.3422 L30.0746,66.8016"/>

        </g>

        <g id="product-07-Y07-L">

            <path style="stroke:none; fill:none;" pointer-events="visible" d="M38.6405,70.7307 L36.1313,69.3675 L35.8685,71.2341 L37.7981,72.2823 L38.6172,70.7744 L38.6168,70.7742 L38.6405,70.7307"/>

        </g>

        <g id="product-07-Y06-A">

            <path style="stroke:none; fill:none;" pointer-events="visible" d="M46.8773,80.2878 L47.8344,77.7356 L46.7401,77.1411 L45.4518,79.5128 L46.8773,80.2878"/>

        </g>

        <g id="product-07-X05-Ia">

            <path style="stroke:none; fill:none;" pointer-events="visible" d="M34.791,78.8812 L34.9932,77.4449 L34.8907,76.9821 L33.3193,77.3301 L33.9031,79.966 L34.6625,79.7978 L34.791,78.8812"/>

        </g>

        <g id="product-07-Y03-E">

            <path style="stroke:none; fill:none;" pointer-events="visible" d="M35.3452,92.4585 L36.6335,90.0869 L34.9864,89.1921 L33.4567,88.3605 L33.0559,91.2149 L35.3452,92.4585"/>

        </g>

        <g id="product-07-X08-H">

            <path style="stroke:none; fill:none;" pointer-events="visible" d="M27.0498,67.4715 L30.0736,66.8019 L29.5289,64.3424 L26.5052,65.0121 L27.0498,67.4715"/>

        </g>

        <g id="product-07-Y04-A">

            <path style="stroke:none; fill:none;" pointer-events="visible" d="M42.9723,90.4571 L43.2664,89.9158 L44.0051,87.9461 L41.5848,86.6312 L40.2963,89.0032 L42.9723,90.4571"/>

        </g>

        <g id="product-07-Y04-G">

            <path style="stroke:none; fill:none;" pointer-events="visible" d="M36.2742,86.819 L37.5631,84.4465 L34.2612,82.6527 L33.8585,85.5067 L36.2742,86.819"/>

        </g>

        <g id="product-07-X03-A">

            <path style="stroke:none; fill:none;" pointer-events="visible" d="M24.9004,93.0209 L27.9485,92.3459 L27.3649,89.7107 L24.3168,90.3857 L24.9004,93.0209"/>

        </g>

        <g id="product-07-X06-C">

            <path style="stroke:none; fill:none;" pointer-events="visible" d="M24.4467,76.5287 L26.887,75.9883 L26.3034,73.353 L23.863,73.8935 L24.4467,76.5287"/>

        </g>

        <g id="product-07-X07-G">

            <path style="stroke:none; fill:none;" pointer-events="visible" d="M31.6213,69.6649 L30.9447,66.61 L27.0501,67.4725 L27.7266,70.5275 L31.6213,69.6649"/>

        </g>

        <g id="product-07-Y09-I">

            <path style="stroke:none; fill:none;" pointer-events="visible" d="M44.3792,68.0255 L46.8862,63.4107 L43.289,62.1761 L42.8683,62.9507 L44.8887,64.0483 L44.8885,64.0488 L44.8889,64.049 L43.1048,67.3332 L44.3792,68.0255"/>

        </g>

        <g id="product-07-X07-E">

            <path style="stroke:none; fill:none;" pointer-events="visible" d="M25.7194,70.7159 L27.6716,70.2836 L27.088,67.6484 L25.1358,68.0808 L25.7194,70.7159"/>

        </g>

        <g id="product-07-Y05-Ha">

            <path style="stroke:none; fill:none;" pointer-events="visible" d="M37.9574,83.7207 L39.2653,81.313 L37.1472,80.1623 L35.8393,82.57 L37.9574,83.7207"/>

        </g>

        <g id="product-07-X09-J">

            <path style="stroke:none; fill:none;" pointer-events="visible" d="M28.9459,61.7051 L31.3877,61.1643 L30.8769,58.8577 L28.4189,59.4021 L28.8307,61.2615 L28.8468,61.258 L28.9459,61.7051"/>

        </g>

        <g id="product-07-Y09-Hb">

            <path style="stroke:none; fill:none;" pointer-events="visible" d="M47.8745,65.4655 L48.66,64.0195 L46.8933,63.4132 L46.2546,64.5855 L47.8745,65.4655"/>

        </g>

        <g id="product-07-Y03-D">

            <path style="stroke:none; fill:none;" pointer-events="visible" d="M36.4289,96.1199 L37.7172,93.7483 L35.3456,92.4599 L34.0573,94.8315 L36.4289,96.1199"/>

        </g>

        <g id="product-07-Y03-B">

            <path style="stroke:none; fill:none;" pointer-events="visible" d="M39.106,97.5742 L40.3944,95.2026 L37.7181,93.7487 L36.4298,96.1204 L39.106,97.5742"/>

        </g>

        <g id="product-07-X03-F">

            <path style="stroke:none; fill:none;" pointer-events="visible" d="M32.6531,94.0694 L33.0547,91.2161 L30.498,91.7823 L31.0816,94.4174 L32.6531,94.0694"/>

        </g>

        <g id="product-07-Y06-D">

            <path style="stroke:none; fill:none;" pointer-events="visible" d="M44.1617,81.8846 L45.4501,79.513 L43.0784,78.2246 L41.7901,80.5963 L44.1617,81.8846"/>

        </g>

        <g id="product-07-X04-D">

            <path style="stroke:none; fill:none;" pointer-events="visible" d="M27.3657,89.7095 L29.8061,89.169 L29.2225,86.5339 L26.7821,87.0744 L27.3657,89.7095"/>

        </g>

        <g id="product-07-X02-B">

            <path style="stroke:none; fill:none;" pointer-events="visible" d="M26.6518,100.929 L29.6999,100.254 L29.1163,97.6191 L26.0683,98.2941 L26.6518,100.929"/>

        </g>

        <g id="product-07-X05-A">

            <path style="stroke:none; fill:none;" pointer-events="visible" d="M22.6959,82.4475 L25.6133,81.8014 L25.0297,79.1659 L22.4243,79.7429 L22.6959,82.4475"/>

        </g>

        <g id="product-07-X09-C">

            <path style="stroke:none; fill:none;" pointer-events="visible" d="M20.9898,60.7017 L23.4911,60.1477 L22.9075,57.5126 L20.723,57.9964 L20.9898,60.7017"/>

        </g>

        <g id="product-07-X07-I">

            <path style="stroke:none; fill:none;" pointer-events="visible" d="M33.1824,69.268 L32.5166,66.2618 L30.9457,66.6097 L31.6114,69.6159 L33.1824,69.268"/>

        </g>

        <g id="product-07-X06-J">

            <path style="stroke:none; fill:none;" pointer-events="visible" d="M33.3192,77.3291 L34.8905,76.9811 L34.307,74.3461 L32.7356,74.6941 L33.3192,77.3291"/>

        </g>

        <g id="product-07-Y05-G">

            <path style="stroke:none; fill:none;" pointer-events="visible" d="M39.2658,81.3121 L40.0548,79.8596 L37.5959,78.5238 L36.8068,79.9763 L39.2658,81.3121"/>

        </g>

        <g id="product-07-X07-F">

            <path style="stroke:none; fill:none;" pointer-events="visible" d="M26.3032,73.352 L28.2554,72.9197 L27.6718,70.2846 L25.7196,70.7169 L26.3032,73.352"/>

        </g>

        <g id="product-07-Y06-F">

            <path style="stroke:none; fill:none;" pointer-events="visible" d="M41.7892,80.5958 L43.0775,78.2241 L41.4304,77.3293 L40.1421,79.701 L41.7892,80.5958"/>

        </g>

        <g id="product-07-X08-I">

            <path style="stroke:none; fill:none;" pointer-events="visible" d="M29.5297,64.3412 L31.9715,63.8005 L31.3879,61.1653 L28.9461,61.7061 L29.5297,64.3412"/>

        </g>

        <g id="product-07-X06-A">

            <path style="stroke:none; fill:none;" pointer-events="visible" d="M22.1526,77.0368 L24.4457,76.5289 L23.8621,73.8937 L21.8811,74.3324 L22.1526,77.0368"/>

        </g>

    </g>


</g>
</g></svg>