<svg xmlns="http://www.w3.org/2000/svg" xmlns:xlink="http://www.w3.org/1999/xlink" viewBox="0 -85 90 90">
 
<defs>
<style>
.cls-1,.cls-10,.cls-11,.cls-3,.cls-5{fill:none;}.cls-2{fill:#898d87;}.cls-10,.cls-11,.cls-2,.cls-3,.cls-4,.cls-5{stroke:#b4897d;}.cls-2,.cls-3{stroke-miterlimit:10;}.cls-10,.cls-2,.cls-3,.cls-4,.cls-5{stroke-width:0.08px;}.cls-4{fill:#fff;}.cls-4,.cls-5{stroke-linecap:square;}.cls-6{clip-path:url(#clip-path);}.cls-7{fill:#b4897d;}.cls-8{clip-path:url(#clip-path-2);}.cls-9{clip-path:url(#clip-path-3);}.cls-11{stroke-width:0.16px;}</style>
<clipPath id="clip-path">
<rect class="cls-1" x="24.8992" y="45.8555" width="3.6351" height="3.9096" transform="translate(-10.0139 7.1843) rotate(-12.9204)"/>
</clipPath>
<clipPath id="clip-path-2">
<rect class="cls-1" x="36.3013" y="73.1344" width="3.9196" height="3.6694" transform="matrix(0.4715, -0.8819, 0.8819, 0.4715, -45.8917, 73.361)"/>
</clipPath>
<clipPath id="clip-path-3">
<rect class="cls-1" x="44.0154" y="58.8937" width="3.9196" height="3.6694" transform="translate(-29.2566 72.6377) rotate(-61.8673)"/>
</clipPath>
</defs>

<g id = 'wrapper' transform = 'rotate(28), scale(1, -1)'>
<title>
6</title>
<g id="Stairs_Outline" data-name="Stairs Outline">
<path class="cls-2" d="M35.7328,44.4735a1.7275,1.7275,0,0,1-.4357.5349l-4.1347,3.38a3.4862,3.4862,0,0,0-.6864.7015c-.16.2881.0349,1.0483.0349,1.0483l4.2724,19.17.47.27.8875-1.5206,1.4938.6109-.9482,1.7251.2526.14,4.52-8.3265a1.8076,1.8076,0,0,0-.977-.1035c-.3879.1251-.9591.634-1.011.56l-.8029-1.53,5.1429-3.287,4.8742-8.9Z"/>
<path class="cls-3" d="M35.7328,44.4735a1.7275,1.7275,0,0,1-.4357.5349l-4.1347,3.38a3.4862,3.4862,0,0,0-.6864.7015c-.16.2881.0349,1.0483.0349,1.0483l4.2724,19.17.47.27.8875-1.5206,1.4938.6109-.9482,1.7251.2526.14,4.52-8.3265a1.8076,1.8076,0,0,0-.977-.1035c-.3879.1251-.9591.634-1.011.56l-.8029-1.53,5.1429-3.287,4.8742-8.9Z"/>
</g>
<g id="Stairs">
<path class="cls-4" d="M43.9176,57.6843l-8.933,5.7465a2.3816,2.3816,0,0,0-.8017.6893,1.5064,1.5064,0,0,0-.1775.8751l.9693,4.4437L36.7913,70.46l-.7667-4.5312a1.424,1.424,0,0,1,.0612-.5963,1.5291,1.5291,0,0,1,.5268-.6307l3.4316-2.3629a1.6907,1.6907,0,0,1,.8325-.2458,1.2909,1.2909,0,0,1,.5723.1381Z"/>
<line class="cls-5" x1="35.3834" y1="63.226" x2="36.3641" y2="64.8268"/>
<line class="cls-5" x1="35.8749" y1="62.9171" x2="36.8556" y2="64.5179"/>
<line class="cls-5" x1="36.3664" y1="62.6082" x2="37.3241" y2="64.1714"/>
<line class="cls-5" x1="36.8579" y1="62.2993" x2="37.8386" y2="63.9001"/>
<line class="cls-5" x1="37.3494" y1="61.9904" x2="38.3301" y2="63.5912"/>
<line class="cls-5" x1="37.8043" y1="61.6217" x2="38.7871" y2="63.226"/>
<line class="cls-5" x1="38.2957" y1="61.3127" x2="39.2502" y2="62.8707"/>
<line class="cls-5" x1="38.7871" y1="61.0036" x2="39.7318" y2="62.5455"/>
<line class="cls-5" x1="39.2744" y1="60.6908" x2="40.2095" y2="62.2141"/>
<line class="cls-5" x1="39.7731" y1="60.3788" x2="40.8147" y2="62.079"/>
<line class="cls-5" x1="40.2612" y1="60.0762" x2="41.4821" y2="62.069"/>
<line class="cls-5" x1="40.732" y1="59.7335" x2="41.8036" y2="61.4826"/>
<line class="cls-5" x1="41.2224" y1="59.4228" x2="42.1282" y2="60.9012"/>
<line class="cls-5" x1="41.7107" y1="59.1087" x2="42.4518" y2="60.3183"/>
<line class="cls-5" x1="42.197" y1="58.7912" x2="42.7906" y2="59.7602"/>
<line class="cls-5" x1="42.6853" y1="58.477" x2="43.0934" y2="59.1432"/>
<line class="cls-5" x1="34.3525" y1="66.5767" x2="36.068" y2="66.3034"/>
<line class="cls-5" x1="34.2655" y1="65.9859" x2="35.981" y2="65.7126"/>
<line class="cls-5" x1="34.0116" y1="64.8268" x2="36.0858" y2="65.3327"/>
<line class="cls-5" x1="34.4754" y1="63.7849" x2="36.2361" y2="65.0494"/>
<line class="cls-5" x1="34.4754" y1="67.0988" x2="36.1464" y2="66.8325"/>
<line class="cls-5" x1="34.5983" y1="67.6209" x2="36.2466" y2="67.3583"/>
<line class="cls-5" x1="34.7212" y1="68.143" x2="36.3641" y2="67.8812"/>
<line class="cls-5" x1="34.8441" y1="68.665" x2="36.4379" y2="68.4111"/>
<line class="cls-5" x1="34.967" y1="69.1871" x2="36.506" y2="68.942"/>
<line class="cls-5" x1="35.3346" y1="69.6703" x2="36.6043" y2="69.468"/>
<path class="cls-4" d="M32.24,57.828,38.8988,63.06s.65.5311.7442.88a1.0139,1.0139,0,0,1-.06.8935c-.1835.4061-2.87,5.5845-2.87,5.5845L35.3346,69.67l2.3-4.0495a3.064,3.064,0,0,0,.2294-.8021.862.862,0,0,0-.4018-.6644c-.2253-.1786-2.2832-1.8707-2.8717-2.2891a1.6377,1.6377,0,0,0-.9459-.3521,1.2917,1.2917,0,0,0-.5724.1381Z"/>
<line class="cls-5" x1="38.5918" y1="62.8188" x2="37.573" y2="64.209"/>
<line class="cls-5" x1="38.1055" y1="62.4367" x2="37.0822" y2="63.8458"/>
<line class="cls-5" x1="37.6479" y1="62.079" x2="36.6599" y2="63.4394"/>
<line class="cls-5" x1="37.1599" y1="61.7631" x2="36.1904" y2="63.0981"/>
<line class="cls-5" x1="36.7188" y1="61.3827" x2="35.7267" y2="62.7488"/>
<line class="cls-5" x1="36.257" y1="61.0306" x2="35.2944" y2="62.3562"/>
<line class="cls-5" x1="35.8104" y1="60.6578" x2="34.8136" y2="62.0304"/>
<line class="cls-5" x1="35.3446" y1="60.3114" x2="34.3429" y2="61.6907"/>
<line class="cls-5" x1="34.9093" y1="59.9255" x2="33.7764" y2="61.4826"/>
<line class="cls-5" x1="34.44" y1="59.5708" x2="33.0516" y2="61.4826"/>
<line class="cls-5" x1="33.9891" y1="59.2143" x2="32.8769" y2="60.7458"/>
<line class="cls-5" x1="33.5296" y1="58.8592" x2="32.7258" y2="59.9659"/>
<line class="cls-5" x1="33.0516" y1="58.5296" x2="32.5423" y2="59.2307"/>
<line class="cls-5" x1="38.9223" y1="66.1243" x2="37.6748" y2="65.5624"/>
<line class="cls-5" x1="39.3574" y1="65.2078" x2="37.8435" y2="64.9783"/>
<line class="cls-5" x1="39.6973" y1="64.2773" x2="37.8537" y2="64.5307"/>
<line class="cls-5" x1="39.3384" y1="63.5139" x2="37.717" y2="64.356"/>
<line class="cls-5" x1="38.659" y1="66.5767" x2="37.4958" y2="65.9496"/>
<line class="cls-5" x1="38.4054" y1="67.066" x2="37.2078" y2="66.4204"/>
<line class="cls-5" x1="38.1469" y1="67.6205" x2="36.8871" y2="66.9413"/>
<line class="cls-5" x1="37.8435" y1="68.132" x2="36.6043" y2="67.464"/>
<line class="cls-5" x1="37.573" y1="68.6161" x2="36.3178" y2="67.9394"/>
<line class="cls-5" x1="37.3363" y1="69.1239" x2="36.068" y2="68.4444"/>
<line class="cls-5" x1="37.0712" y1="69.5691" x2="35.8104" y2="68.8776"/>
<line class="cls-5" x1="36.8485" y1="70.0115" x2="35.5446" y2="69.3005"/>
<g class="cls-6">
<path class="cls-7" d="M24.6485,46.402l3.313-.7527.0147.0646-3.3129.7528Zm3.4319-.2548-3.2963.7489.0146.0647,3.2964-.749ZM26.887,49.654l-.557-2.4627.4681-.1059.5527,2.443,1.3862-.3121-.0146-.0647-1.2778.29-.0978-.4327,1.2583-.2859-.0148-.0646-1.2581.2858-.0983-.4343,1.3036-.2962-.0147-.0647-1.3035.2962-.0983-.4346,1.27-.2886-.0148-.0647-1.27.2886-.0984-.4346L28.3,47.22l-.0147-.0647-1.292.292-.099-.4371,1.3035-.2954-.0147-.0647-3.2919.7483.0147.0647,1.3045-.298.0977.4314-1.2807.291.0148.0648,1.2805-.2911.0983.4345-1.28.2909.0148.0647,1.28-.2909.0983.4345-1.2621.2869.0147.0646,1.2621-.2867.0983.4344-1.2793.2906.0147.0647,1.2792-.2906.1028.4546-1.2957.2944.0147.0647Z"/>
</g>
<g class="cls-8">
<path class="cls-7" d="M37.6145,72.5371,40.6354,74.16l-.0314.0586-3.021-1.6233Zm2.7831,2.078L37.3918,73l-.0316.0586,3.0059,1.6152Zm-3.3211,1.8057,0,.0006.0982.053,1.2-2.2287.4266.23-.1882.3494L38.61,74.823l-.0314.0586.0032.0017-.9711,1.803.0472.0256-.0012.0023,1.2161.6536.0316-.0586-1.1652-.6261.211-.3916,1.1474.6166.0314-.0586-1.1472-.6165.2116-.3931,1.1887.6387.0315-.0585-1.1887-.6387.212-.3933,1.1578.6221.0315-.0586L38.4683,75.33l.2118-.3934,1.1147.5989.0314-.0586-1.1146-.5988.2131-.3957,1.188.6393.0316-.0585-2.9359-1.58-.0315.0586,1.1245.6051-.21.3905L36.9233,73.91l-.0315.0587,1.1677.6273-.2117.3933L36.68,74.3614l-.0314.0586,1.1674.6273-.2119.3932-1.1509-.6184-.0315.0586,1.1509.6185-.2118.393-1.1665-.6268-.0315.0586,1.1665.6268-.2216.4114-1.1816-.6349-.0314.0586Z"/>
</g>
<g class="cls-9">
<path class="cls-7" d="M45.3285,58.2964,48.35,59.92l-.0314.0586-3.021-1.6233Zm2.7831,2.078-3.0058-1.6152-.0315.0586L48.08,60.433ZM44.7906,62.18l0,.0006.0982.0529,1.2-2.2286.4266.23-.1881.3494-.0033-.0018-.0315.0586.0032.0017-.9711,1.803.0473.0256-.0013.0023,1.2162.6536.0316-.0586-1.1652-.6261.211-.3916,1.1473.6166.0315-.0586-1.1473-.6165.2116-.3931,1.1888.6387.0314-.0585-1.1886-.6387.2119-.3933,1.1579.6221.0315-.0586-1.158-.6221.2118-.3934,1.1147.5989.0315-.0586-1.1146-.5988.213-.3957,1.1881.6393.0315-.0585-2.9359-1.58-.0315.0586,1.1245.6051-.21.3905-1.1678-.6275-.0316.0587,1.1678.6273-.2117.3933-1.1675-.6274-.0315.0586,1.1674.6273-.2118.3932-1.151-.6184-.0314.0586,1.1508.6185-.2117.393-1.1665-.6268-.0315.0586,1.1664.6268-.2215.4114-1.1816-.6349-.0315.0586Z"/>
</g>
</g>
<g id="NEW_Inner" data-name="NEW Inner">
<polyline class="cls-10" points="28.433 82.442 28.745 83.872 26.198 84.437 25.03 79.164 27.577 78.6 27.899 80.019"/>
<line class="cls-10" x1="28.0823" y1="80.8757" x2="28.2576" y2="81.639"/>
<line class="cls-10" x1="25.609" y1="81.7785" x2="28.1937" y2="81.2289"/>
<polyline class="cls-10" points="30.222 90.541 29.913 89.144 27.364 89.71 28.533 94.982 31.081 94.416 30.772 92.987"/>
<line class="cls-10" x1="30.5795" y1="92.1516" x2="30.4133" y2="91.3739"/>
<line class="cls-10" x1="27.9525" y1="92.346" x2="30.5049" y2="91.7855"/>
<polyline class="cls-10" points="34.742 93.549 34.055 94.831 36.428 96.12 39.006 91.374 36.634 90.086 35.939 91.365"/>
<line class="cls-10" x1="35.1391" y1="92.8027" x2="35.5155" y2="92.1158"/>
<line class="cls-10" x1="37.7088" y1="93.7431" x2="35.3009" y2="92.4338"/>
<polyline class="cls-10" points="41.088 81.885 41.789 80.595 44.161 81.884 41.584 86.629 39.211 85.34 39.905 84.042"/>
<line class="cls-10" x1="40.2943" y1="83.3126" x2="40.6877" y2="82.6237"/>
<line class="cls-10" x1="42.8642" y1="84.253" x2="40.4638" y2="82.9478"/>
<polyline class="cls-10" points="38.085 80.671 39.265 81.311 37.786 84.034 34.385 82.171 35.814 79.43 36.209 79.652"/>
<line class="cls-10" x1="36.9493" y1="80.0359" x2="37.3375" y2="80.264"/>
<path class="cls-10" d="M35.6352,82.8648c-.0077-.0295,1.4924-2.7149,1.4924-2.7149"/>
<line class="cls-10" x1="35.2107" y1="80.5444" x2="35.7837" y2="80.855"/>
<line class="cls-10" x1="36.3545" y1="81.1571" x2="36.5033" y2="81.2402"/>
<polyline class="cls-10" points="40.743 78.594 42.804 74.797 37.883 72.123 35.134 77.186 35.583 77.429"/>
<polyline class="cls-10" points="36.364 77.854 40.055 79.859 40.283 79.439"/>
<line class="cls-10" x1="40.8264" y1="73.7177" x2="38.0864" y2="78.7897"/>
<line class="cls-10" x1="41.4639" y1="77.2659" x2="39.4906" y2="76.1946"/>
<polyline class="cls-10" points="47.653 69.801 46.943 71.106 49.317 72.394 51.894 67.648 49.521 66.36 48.862 67.575"/>
<line class="cls-10" x1="48.0454" y1="69.0791" x2="48.4354" y2="68.3611"/>
<line class="cls-10" x1="50.6061" y1="70.0228" x2="48.23" y2="68.7306"/>
<polyline class="cls-10" points="41.101 66.412 42.061 64.645 46.804 67.222 45.184 70.148 40.464 67.585 40.645 67.252"/>
<polyline class="cls-10" points="49.915 61.709 50.538 60.563 45.617 57.889 42.867 62.951 43.315 63.194"/>
<polyline class="cls-10" points="44.097 63.619 47.788 65.623 49.479 62.513"/>
<line class="cls-10" x1="48.5349" y1="59.4884" x2="45.8113" y2="64.5662"/>
<line class="cls-10" x1="49.108" y1="63.1397" x2="47.142" y2="62.0852"/>
<path class="cls-10" d="M48.647,57.6058s-2.24-1.191-2.2267-1.195,1.4628-2.6958,1.4628-2.6958l4.9226,2.673-1.4646,2.6959-1.8056-.982"/>
<polyline class="cls-10" points="33.139 76.98 33.221 77.35 29.521 78.169 28.392 73.074 32.092 72.254 32.142 72.475"/>
<line class="cls-10" x1="32.3405" y1="73.3728" x2="32.9329" y2="76.0478"/>
<line class="cls-10" x1="28.9314" y1="75.5089" x2="32.6175" y2="74.7182"/>
<polyline class="cls-10" points="31.144 67.508 30.945 66.608 27.049 67.471 28.295 73.094 28.413 73.068"/>
<polyline class="cls-10" points="32.092 72.254 32.189 72.232 32.005 71.393"/>
<line class="cls-10" x1="31.6846" y1="69.9485" x2="31.464" y2="68.9526"/>
<line class="cls-10" x1="27.7251" y1="70.5266" x2="31.622" y2="69.665"/>
<polyline class="cls-10" points="26.087 53.185 23.988 53.65 24.651 56.644 30.118 55.432 29.455 52.438 27.028 52.985"/>
<polyline class="cls-10" points="28.594 50.906 29.091 50.795 27.846 45.171 22.379 46.383 23.205 50.113"/>
<polyline class="cls-10" points="23.413 51.052 23.625 52.007 27.667 51.112"/>
<path class="cls-10" d="M22.975,49.0741c.065.0411,2.208-.4324,2.208-.4324L24.56,45.8962"/>
<path class="cls-10" d="M25.8453,51.515c.0018-.0209-.6623-2.8733-.6623-2.8733"/>
<polyline class="cls-10" points="24.336 64.116 24.075 62.783 21.526 63.347 22.694 68.62 25.242 68.056 24.942 66.626"/>
<line class="cls-10" x1="24.5731" y1="65.0301" x2="24.7275" y2="65.8089"/>
<path class="cls-10" d="M22.1063,65.9853c.0388-.0079,2.5435-.5685,2.5435-.5685"/>
<polyline class="cls-10" points="31.587 62.524 32.012 64.446 26.74 65.614 24.766 56.606"/>
<polyline class="cls-10" points="31.38 61.591 31.29 61.186 26.034 62.353"/>
<line class="cls-10" x1="31.2903" y1="61.1859" x2="30.3985" y2="57.246"/>
<line class="cls-10" x1="30.2128" y1="56.3193" x2="29.9941" y2="55.448"/>
</g>
<g id="NEW_Outer" data-name="NEW Outer">
<polygon class="cls-11" points="32.6 109.549 28.431 108.962 15.706 51.503 14.2 36.509 61.352 52.693 56.558 65.447 32.6 109.549"/>
<polygon class="cls-10" points="60.582 53.054 14.796 37.271 16.262 51.338 28.867 108.515 32.344 109.021 55.978 65.235 60.582 53.054"/>
</g>
<g id="Anchor">
<line class="cls-1" x2="7.5"/>
</g>
<g class = "rooms">

    <g id="storey-06">

        <g id="product-06-Y10-G">

            <path style="stroke:none; fill:none;"  pointer-events="visible" d="M52.2407,56.2109 L51.0017,55.5378 L50.3697,56.7012 L51.6087,57.3743 L52.2407,56.2109"/>

        </g>

        <g id="product-06-Y10-L">

            <path style="stroke:none; fill:none;"  pointer-events="visible" d="M48.7276,55.9617 L47.4798,55.2838 L46.903,56.3455 L48.1508,57.0233 L48.7276,55.9617"/>

        </g>

        <g id="product-06-X06-A">

            <path style="stroke:none; fill:none;"  pointer-events="visible" d="M25.232,68.0157 L22.689,68.5791 L21.5398,63.3896 L24.0828,62.8264 L25.232,68.0157"/>

            <path style="stroke:none; fill:none;"  pointer-events="visible" d="M32.4057,66.2859 L32.0182,64.5363 L26.7596,65.7009 L24.7464,56.6101 L24.6487,56.6318 L24.5524,56.1968 L24.5827,56.1901 L24.1308,54.1495 L24.1005,54.1562 L22.3931,46.4465 L15.8606,47.8932 L16.2788,52.1297 L20.0593,69.2045 L27.0884,67.6478 L27.0495,67.4721 L32.4057,66.2859"/>

        </g>

        <g id="product-06-Y10-K">

            <path style="stroke:none; fill:none;"  pointer-events="visible" d="M49.4235,54.6805 L48.1758,54.0027 L47.5437,55.1661 L48.7915,55.8439 L49.4235,54.6805"/>

        </g>

        <g id="product-06-Y07-M">

            <path style="stroke:none; fill:none;"  pointer-events="visible" d="M48.1429,53.1157 L50.6865,48.5576 L34.1906,43.757 L27.8466,45.1722 L30.234,49.2217 L30.2701,49.2846 L30.3334,49.4152 L30.3874,49.5499 L30.4319,49.688 L30.4708,49.8554 L34.8191,69.4898 L36.9322,70.6355 L44.6766,56.3804 L44.7105,56.3174 L44.7871,56.1965 L44.8718,56.0811 L44.9644,55.972 L45.0644,55.8696 L45.1144,55.8251 L48.1429,53.1157"/>

        </g>

        <g id="product-06-X07-G">

            <path style="stroke:none; fill:none;"  pointer-events="visible" d="M27.4625,67.7186 L28.0463,70.3547 L31.2585,69.6434 L30.6747,67.0072 L27.4625,67.7186"/>

        </g>

        <g id="product-06-X11-H">

            <path style="stroke:none; fill:none;"  pointer-events="visible" d="M25.6035,51.2305 L25.055,48.7535 L23.3463,49.1319 L23.8949,51.6089 L25.6035,51.2305"/>

        </g>

        <g id="product-06-X11-G">

            <path style="stroke:none; fill:none;"  pointer-events="visible" d="M23.3111,48.9728 L25.0197,48.5944 L24.5008,46.2512 L22.7921,46.6296 L23.3111,48.9728"/>

        </g>

        <g id="product-06-Y03-C">

            <path style="stroke:none; fill:none;"  pointer-events="visible" d="M37.6001,93.6413 L38.815,91.405 L36.6581,90.2333 L35.4432,92.4696 L37.6001,93.6413"/>

        </g>

        <g id="product-06-Y03-D">

            <path style="stroke:none; fill:none;"  pointer-events="visible" d="M35.4074,92.5355 L34.1925,94.7719 L35.6366,95.5563 L35.6487,95.5629 L36.3495,95.9436 L37.5643,93.7072 L35.4074,92.5355"/>

        </g>

        <g id="product-06-Y08-C">

            <path style="stroke:none; fill:none;"  pointer-events="visible" d="M50.4887,69.9161 L51.7035,67.6798 L49.5466,66.5081 L48.3317,68.7444 L50.4887,69.9161"/>

        </g>

        <g id="product-06-Y06-H">

            <path style="stroke:none; fill:none;"  pointer-events="visible" d="M39.9051,79.4021 L41.1159,77.1732 L39.5782,76.3379 L38.3674,78.5668 L39.9051,79.4021"/>

        </g>

        <g id="product-06-Y06-G">

            <path style="stroke:none; fill:none;"  pointer-events="visible" d="M42.3396,74.9207 L40.8019,74.0853 L39.656,76.1946 L41.1937,77.03 L42.3396,74.9207"/>

        </g>

        <g id="product-06-Y09-G">

            <path style="stroke:none; fill:none;"  pointer-events="visible" d="M48.8616,62.915 L50.0726,60.6857 L48.5349,59.8504 L47.3239,62.0797 L48.8616,62.915"/>

        </g>

        <g id="product-06-Y09-H">

            <path style="stroke:none; fill:none;"  pointer-events="visible" d="M46.1003,64.3317 L47.6381,65.1672 L48.7838,63.0583 L47.2459,62.2228 L46.1003,64.3317"/>

        </g>

        <g id="product-06-X09-G">

            <path style="stroke:none; fill:none;"  pointer-events="visible" d="M24.8196,56.5939 L26.0726,62.2518 L26.3899,62.1815 L30.8811,61.1869 L30.8591,61.0873 L31.2223,61.0069 L30.3919,57.2578 L30.346,57.2679 L30.132,56.3013 L30.1779,56.2912 L30.1368,56.1056 L29.7736,56.1861 L29.6914,55.8151 L30.0547,55.7346 L29.9913,55.4486 L29.8175,55.4871 L25.1994,56.5098 L24.8196,56.5939"/>

        </g>

        <g id="product-06-X06-G">

            <path style="stroke:none; fill:none;"  pointer-events="visible" d="M32.3423,73.5105 L32.0656,72.2608 L28.5078,73.0487 L29.0362,75.4349 L32.594,74.647 L32.5564,74.4771 L32.5105,74.4873 L32.2964,73.5207 L32.3423,73.5105"/>

        </g>

        <g id="product-06-Y09-A">

            <path style="stroke:none; fill:none;"  pointer-events="visible" d="M58.4894,58.7824 L58.4957,58.7707 L53.1029,55.841 L53.0965,55.8528 L53.0964,55.8528 L52.7989,56.4004 L52.7717,56.3856 L51.3487,59.005 L51.376,59.0198 L47.8742,65.4659 L54.2009,68.9028 L56.3666,64.9162 L58.4894,58.7824"/>

        </g>

        <g id="product-06-X08-D">

            <path style="stroke:none; fill:none;"  pointer-events="visible" d="M24.5923,65.4739 L22.1957,66.0046 L22.746,68.4894 L25.1426,67.9586 L24.5923,65.4739"/>

        </g>

        <g id="product-06-X10-I">

            <path style="stroke:none; fill:none;"  pointer-events="visible" d="M27.6217,53.0225 L26.083,53.3633 L26.6722,56.0239 L28.2109,55.6831 L27.6217,53.0225"/>

        </g>

        <g id="product-06-X10-H">

            <path style="stroke:none; fill:none;"  pointer-events="visible" d="M25.1823,56.3538 L26.5706,56.0463 L26.2965,54.8083 L24.9081,55.1158 L25.1823,56.3538"/>

        </g>

        <g id="product-06-X10-G">

            <path style="stroke:none; fill:none;"  pointer-events="visible" d="M24.8791,54.985 L26.2675,54.6775 L25.9814,53.3858 L24.5931,53.6933 L24.8791,54.985"/>

        </g>

        <g id="product-06-X03-A">

            <path style="stroke:none; fill:none;"  pointer-events="visible" d="M38.755,97.3355 L54.2009,68.9028 L47.8742,65.4659 L47.7882,65.6242 L42.8674,62.951 L42.0158,64.5184 L42.1038,64.5662 L46.8489,67.144 L45.2993,69.9962 L45.3872,70.044 L32.7648,93.2792 L27.0884,67.6477 L20.0589,69.2054 L25.8876,95.5244 L28.527,94.9399 L27.3777,89.7506 L29.9208,89.1875 L31.0792,94.4185 L32.6531,94.0695 L32.979,94.2464 L34.0705,94.8393 L36.628,90.1316 L38.9167,91.3749 L36.3796,96.0453 L37.6629,96.7423 L38.755,97.3355"/>

            <path style="stroke:none; fill:none;"  pointer-events="visible" d="M25.0425,79.2059 L27.5855,78.6427 L28.7347,83.832 L26.1917,84.3952 L25.0425,79.2059"/>

            <path style="stroke:none; fill:none;"  pointer-events="visible" d="M41.7834,80.6415 L44.0721,81.8848 L41.535,86.5552 L39.2462,85.3119 L41.7834,80.6415"/>

            <path style="stroke:none; fill:none;"  pointer-events="visible" d="M46.9794,71.0767 L49.5165,66.4064 L51.8052,67.6497 L49.2681,72.3201 L46.9794,71.0767"/>

        </g>

        <g id="product-06-X07-H">

            <path style="stroke:none; fill:none;"  pointer-events="visible" d="M28.0896,70.55 L28.5653,72.698 L29.5319,72.4839 L29.6295,72.4623 L29.1538,70.3143 L29.0562,70.3359 L28.0896,70.55"/>

        </g>

        <g id="product-06-X07-J">

            <path style="stroke:none; fill:none;"  pointer-events="visible" d="M29.8248,72.419 L31.7775,71.9866 L31.3018,69.8386 L29.3491,70.2711 L29.8248,72.419"/>

        </g>

        <g id="product-06-Y10-I">

            <path style="stroke:none; fill:none;"  pointer-events="visible" d="M49.5828,57.9319 L50.9103,55.4882 L49.5149,54.7301 L48.2007,57.1494 L48.1874,57.1738 L49.5828,57.9319"/>

        </g>

        <g id="product-06-X11-I">

            <path style="stroke:none; fill:none;"  pointer-events="visible" d="M25.8964,51.1657 L28.679,50.5494 L27.5763,45.5701 L24.7937,46.1863 L25.8964,51.1657"/>

        </g>

        <g id="product-06-Y06-I">

            <path style="stroke:none; fill:none;"  pointer-events="visible" d="M35.5994,77.0631 L38.1037,78.4235 L40.5382,73.9421 L38.0339,72.5817 L35.5994,77.0631"/>

        </g>

        <g id="product-06-Y00-A">

            <path style="stroke:none; fill:none;"  pointer-events="visible" d="M32.3682,109.092 L36.1566,102.119 L27.0645,100.839 L28.7805,108.587 L32.3682,109.092"/>

        </g>

        <g id="product-06-Y02-A">

            <path style="stroke:none; fill:none;"  pointer-events="visible" d="M38.7549,97.3357 L34.0908,94.8019 L34.0705,94.8393 L32.6538,94.0697 L32.6535,94.0698 L31.6106,101.479 L36.1566,102.119 L38.7549,97.3357"/>

        </g>

        <g id="product-06-Y09-I">

            <path style="stroke:none; fill:none;"  pointer-events="visible" d="M43.3323,62.8281 L45.8367,64.1885 L48.2712,59.7071 L45.7669,58.3466 L43.3323,62.8281"/>

        </g>

        <g id="product-06-X06-H">

            <path style="stroke:none; fill:none;"  pointer-events="visible" d="M32.6645,74.9652 L32.6269,74.7954 L29.0691,75.5833 L29.6174,78.0593 L33.1752,77.2714 L32.8785,75.9318 L32.8327,75.942 L32.6186,74.9754 L32.6645,74.9652"/>

        </g>

        <g id="product-06-X07-G">

            <path style="stroke:none; fill:none;"  pointer-events="visible" d="M42.8046,74.7979 L45.2603,70.2777 L40.7787,67.8431 L40.7242,67.9433 L40.2847,67.7046 L37.8835,72.1244 L42.8046,74.7979"/>

        </g>

        <g id="product-06-X03-C">

            <path style="stroke:none; fill:none;"  pointer-events="visible" d="M28.0175,92.2924 L30.414,91.7617 L29.8638,89.2769 L27.4672,89.8076 L28.0175,92.2924"/>

        </g>

        <g id="product-06-X08-G">

            <path style="stroke:none; fill:none;"  pointer-events="visible" d="M30.9192,61.3588 L26.1107,62.4237 L26.7948,65.5128 L31.9665,64.3675 L31.5596,62.53 L31.5136,62.5402 L31.5087,62.5177 L31.3045,61.596 L31.2996,61.5736 L31.3455,61.5634 L31.3045,61.3779 L30.9412,61.4583 L30.9192,61.3588"/>

        </g>

        <g id="product-06-X03-D">

            <path style="stroke:none; fill:none;"  pointer-events="visible" d="M30.9805,94.3197 L30.4303,91.8349 L28.0337,92.3657 L28.584,94.8505 L30.9805,94.3197"/>

        </g>

        <g id="product-06-Y05-D">

            <path style="stroke:none; fill:none;"  pointer-events="visible" d="M41.8135,80.7432 L40.5986,82.9796 L42.7555,84.1513 L43.9704,81.9149 L41.8135,80.7432"/>

        </g>

        <g id="product-06-Y05-D">

            <path style="stroke:none; fill:none;"  pointer-events="visible" d="M41.5049,86.4535 L42.7197,84.2172 L40.5628,83.0455 L39.348,85.2818 L41.5049,86.4535"/>

        </g>

        <g id="product-06-X08-C">

            <path style="stroke:none; fill:none;"  pointer-events="visible" d="M21.6294,63.4476 L22.1795,65.9314 L24.5761,65.4006 L24.026,62.9169 L21.6294,63.4476"/>

        </g>

        <g id="product-06-Y08-D">

            <path style="stroke:none; fill:none;"  pointer-events="visible" d="M49.238,72.2184 L50.4529,69.982 L48.2959,68.8103 L47.0811,71.0466 L49.238,72.2184"/>

        </g>

        <g id="product-06-Y05-H">

            <path style="stroke:none; fill:none;"  pointer-events="visible" d="M37.1555,80.2801 L35.9125,82.5682 L37.887,83.6409 L39.13,81.3527 L37.1555,80.2801"/>

        </g>

        <g id="product-06-Y05-J">

            <path style="stroke:none; fill:none;"  pointer-events="visible" d="M36.0726,79.6918 L35.5398,80.6724 L36.5314,81.2111 L37.0641,80.2304 L36.0726,79.6918"/>

        </g>

        <g id="product-06-Y05-G">

            <path style="stroke:none; fill:none;"  pointer-events="visible" d="M27.0639,52.9689 L27.0736,52.9667 L27.0866,53.0253 L29.4103,52.5107 L29.3973,52.4521 L29.4559,52.4391 L29.4689,52.4977 L29.4103,52.5107 L30.0571,55.4314 L30.1157,55.4184 L30.1191,55.4336 L30.0214,55.4552 L30.082,55.7286 L30.1796,55.707 L30.2618,56.078 L30.1642,56.0996 L31.2496,61.0008 L31.3472,60.9792 L31.4294,61.3502 L31.3318,61.3718 L32.4194,66.2828 L30.9451,66.6094 L32.1905,72.2331 L32.0929,72.2547 L33.3923,78.1219 L39.2656,81.3126 L40.0551,79.8592 L35.1343,77.186 L37.8839,72.1246 L37.8837,72.1245 L40.412,67.4709 L40.4999,67.5186 L42.1035,64.5661 L42.0158,64.5184 L42.8674,62.951 L45.6169,57.8897 L50.5377,60.5628 L51.3411,59.0839 L49.4519,58.0576 L49.4867,57.9935 L48.5992,57.5114 L48.5644,57.5755 L46.421,56.4093 L47.8844,53.7158 L47.6727,53.6008 L45.0368,55.9611 L45.0008,55.9976 L44.9089,56.1054 L44.8248,56.2194 L44.749,56.3391 L44.7154,56.4014 L36.9758,70.659 L34.7614,69.4584 L30.4103,49.8114 L30.385,49.705 L30.3417,49.5691 L30.2888,49.4366 L30.2267,49.3082 L30.1911,49.2464 L27.8466,45.1722 L29.0921,50.7959 L23.6245,52.0068 L23.9884,53.65 L26.0875,53.1851 L26.1033,53.2564 L27.0894,53.038 L27.0866,53.0253 L27.0768,53.0275 L27.0639,52.9689"/>

        </g>

        <g id="product-06-Y05-J">

            <path style="stroke:none; fill:none;"  pointer-events="visible" d="M36.4818,81.3025 L35.3412,80.6829 L34.6805,81.899 L35.8211,82.5186 L36.4818,81.3025"/>

        </g>

        <g id="product-06-X05-C">

            <path style="stroke:none; fill:none;"  pointer-events="visible" d="M25.6822,81.7477 L28.0788,81.217 L27.5285,78.7322 L25.1319,79.2629 L25.6822,81.7477"/>

        </g>

        <g id="product-06-X05-D">

            <path style="stroke:none; fill:none;"  pointer-events="visible" d="M28.6453,83.775 L28.095,81.2902 L25.6984,81.8209 L26.2487,84.3057 L28.6453,83.775"/>

        </g>

        <g id="product-06-Y04-G">

            <path style="stroke:none; fill:none;"  pointer-events="visible" d="M29.4401,78.2668 L32.7647,93.2791 L37.7876,84.033 L34.382,82.183 L35.8599,79.4625 L33.3923,78.1219 L33.2381,77.4257 L29.4401,78.2668"/>

        </g>

        <g id="product-06-X10-K">

            <path style="stroke:none; fill:none;"  pointer-events="visible" d="M28.0125,54.3064 L29.3989,53.9994 L29.1344,52.8051 L27.748,53.1122 L28.0125,54.3064"/>

        </g>

        <g id="product-06-X10-L">

            <path style="stroke:none; fill:none;"  pointer-events="visible" d="M28.3124,55.6606 L29.6988,55.3536 L29.4214,54.1009 L28.035,54.4079 L28.3124,55.6606"/>

        </g>

        <g id="product-06-X02-A">

            <path style="stroke:none; fill:none;"  pointer-events="visible" d="M25.8876,95.5247 L27.0645,100.839 L31.6106,101.479 L32.6535,94.0698 L31.0792,94.4184 L31.07,94.3769 L28.527,94.9401 L25.8876,95.5247"/>

        </g>

        <g id="product-06-Y10-H">

            <path style="stroke:none; fill:none;"  pointer-events="visible" d="M51.5447,57.4921 L50.3057,56.819 L49.6742,57.9815 L50.9132,58.6546 L51.5447,57.4921"/>

        </g>

        <g id="product-06-Y08-H">

            <path style="stroke:none; fill:none;"  pointer-events="visible" d="M40.6698,67.2651 L40.5791,67.432 L40.9056,67.6094 L40.8512,67.7095 L44.8934,69.9054 L44.9478,69.8053 L45.1957,69.9399 L46.6611,67.2423 L42.0446,64.7343 L41.1424,66.3951 L41.1837,66.4175 L40.7111,67.2875 L40.6698,67.2651"/>

        </g>

    </g>

    </g>
<g class = "zones">

    <g id="storey-04">

        <g id="product-04-X14-B">

            <path style="stroke:none; fill:none;" pointer-events="visible" d="M14.2797,37.299 L15.629,37.0002 L14.2005,36.5099 L14.2797,37.299"/>

        </g>

        </g>

    <g id="storey-05">

        <g id="product-05-Y11-L">

            <path style="stroke:none; fill:none;" pointer-events="visible" d="M48.1088,53.3021 L49.3972,50.9304 L48.08,50.2149 L46.7916,52.5865 L48.1088,53.3021"/>

        </g>

        <g id="product-05-Y11-G">

            <path style="stroke:none; fill:none;" pointer-events="visible" d="M54.23,53.5546 L55.5183,51.183 L53.1474,49.895 L51.8591,52.2667 L54.23,53.5546"/>

        </g>

        <g id="product-05-X12-B">

            <path style="stroke:none; fill:none;" pointer-events="visible" d="M18.0238,47.5314 L17.4402,44.8963 L15.0947,45.4157 L15.3662,48.12 L18.0238,47.5314"/>

        </g>

        <g id="product-05-X13-E">

            <path style="stroke:none; fill:none;" pointer-events="visible" d="M18.8216,39.0585 L20.5262,38.681 L18.5909,38.0168 L18.8216,39.0585"/>

        </g>

        <g id="product-05-X13-D">

            <path style="stroke:none; fill:none;" pointer-events="visible" d="M16.8572,42.259 L19.4045,41.6948 L18.8209,39.0597 L16.2736,39.6238 L16.8572,42.259"/>

        </g>

        <g id="product-05-X13-C">

            <path style="stroke:none; fill:none;" pointer-events="visible" d="M16.2734,39.6228 L18.8207,39.0587 L18.5898,38.0164 L15.6978,37.0238 L16.2734,39.6228"/>

        </g>

        <g id="product-05-X13-H">

            <path style="stroke:none; fill:none;" pointer-events="visible" d="M21.2507,41.286 L23.9835,40.6807 L23.7886,39.8007 L20.686,38.7359 L21.2507,41.286"/>

        </g>

        <g id="product-05-X13-J">

            <path style="stroke:none; fill:none;" pointer-events="visible" d="M23.9845,40.6805 L25.4235,40.3619 L23.7897,39.8011 L23.9845,40.6805"/>

        </g>

        <g id="product-05-Y11-J">

            <path style="stroke:none; fill:none;" pointer-events="visible" d="M50.345,55.0519 L51.8578,52.2671 L49.398,50.9309 L47.8853,53.7157 L50.345,55.0519"/>

        </g>

        <g id="product-05-Y11-I">

            <path style="stroke:none; fill:none;" pointer-events="visible" d="M51.8582,52.2662 L53.1466,49.8945 L53.0589,49.8469 L50.4693,48.9581 L49.3982,50.9298 L51.8582,52.2662"/>

        </g>

        <g id="product-05-Y12-F">

            <path style="stroke:none; fill:none;" pointer-events="visible" d="M57.2549,52.1252 L57.6386,51.4188 L55.7445,50.7687 L55.5197,51.1826 L57.2549,52.1252"/>

        </g>

        <g id="product-05-Y12-B">

            <path style="stroke:none; fill:none;" pointer-events="visible" d="M61.3289,52.7278 L61.3528,52.6936 L60.2294,52.308 L59.6283,53.4145 L60.8271,54.0658 L61.3289,52.7278"/>

        </g>

        <g id="product-05-Y11-F">

            <path style="stroke:none; fill:none;" pointer-events="visible" d="M54.6773,56.8703 L55.9656,54.4986 L54.2304,53.556 L52.942,55.9276 L54.6773,56.8703"/>

        </g>

        <g id="product-05-Y11-E">

            <path style="stroke:none; fill:none;" pointer-events="visible" d="M55.9661,54.4978 L57.2544,52.1261 L55.5192,51.1835 L54.2308,53.5551 L55.9661,54.4978"/>

        </g>

        <g id="product-05-Y11-D">

            <path style="stroke:none; fill:none;" pointer-events="visible" d="M57.0498,58.1592 L58.3381,55.7875 L55.9665,54.4991 L54.6781,56.8708 L57.0498,58.1592"/>

        </g>

        <g id="product-05-Y11-C">

            <path style="stroke:none; fill:none;" pointer-events="visible" d="M58.3386,55.7866 L59.6269,53.4149 L57.2553,52.1266 L55.9669,54.4982 L58.3386,55.7866"/>

        </g>

        <g id="product-05-Y11-B">

            <path style="stroke:none; fill:none;" pointer-events="visible" d="M59.8694,56.6193 L58.339,55.788 L57.0507,58.1596 L58.9124,59.171 L59.8694,56.6193"/>

        </g>

        <g id="product-05-Y11-A">

            <path style="stroke:none; fill:none;" pointer-events="visible" d="M60.8267,54.0667 L59.6278,53.4154 L58.3395,55.7871 L59.8697,56.6184 L60.8267,54.0667"/>

        </g>

        <g id="product-04-Y11-H">

            <path style="stroke:none; fill:none;" pointer-events="visible" d="M52.7167,56.3403 L54.2295,53.5555 L51.8586,52.2676 L50.3459,55.0524 L52.7167,56.3403"/>

        </g>

        <g id="product-05-Y11-K">

            <path style="stroke:none; fill:none;" pointer-events="visible" d="M49.3976,50.9295 L50.4687,48.9579 L49.0309,48.4644 L48.0805,50.214 L49.3976,50.9295"/>

        </g>

        <g id="product-05-X12-H">

            <path style="stroke:none; fill:none;" pointer-events="visible" d="M22.3794,46.3825 L25.1122,45.7773 L24.5675,43.3178 L21.8348,43.9231 L22.3794,46.3825"/>

        </g>

        <g id="product-05-X12-I">

            <path style="stroke:none; fill:none;" pointer-events="visible" d="M24.5683,43.3167 L27.3011,42.7114 L26.8924,40.866 L25.4253,40.3625 L23.9847,40.6815 L24.5683,43.3167"/>

        </g>

        <g id="product-05-X12-F">

            <path style="stroke:none; fill:none;" pointer-events="visible" d="M20.5731,46.9669 L22.4174,46.5584 L21.8338,43.9233 L19.9895,44.3317 L20.5731,46.9669"/>

        </g>

        <g id="product-05-X12-D">

            <path style="stroke:none; fill:none;" pointer-events="visible" d="M18.0248,47.5312 L20.5721,46.9671 L19.9885,44.3319 L17.4412,44.8961 L18.0248,47.5312"/>

        </g>

        <g id="product-05-X12-E">

            <path style="stroke:none; fill:none;" pointer-events="visible" d="M19.9892,44.3307 L21.8336,43.9223 L21.25,41.2871 L19.4057,41.6956 L19.9892,44.3307"/>

        </g>

        <g id="product-05-X12-C">

            <path style="stroke:none; fill:none;" pointer-events="visible" d="M17.441,44.8951 L19.9883,44.331 L19.4047,41.6958 L16.8574,42.2599 L17.441,44.8951"/>

        </g>

        <g id="product-05-Y12-J">

            <path style="stroke:none; fill:none;" pointer-events="visible" d="M53.147,49.8937 L53.1546,49.8798 L53.0646,49.8489 L53.147,49.8937"/>

        </g>

        <g id="product-05-X13-F">

            <path style="stroke:none; fill:none;" pointer-events="visible" d="M19.4054,41.6946 L21.3474,41.2645 L20.7958,38.7735 L20.528,38.6816 L18.8219,39.0595 L19.4054,41.6946"/>

        </g>

        <g id="product-05-X12-A">

            <path style="stroke:none; fill:none;" pointer-events="visible" d="M15.0946,45.4147 L17.44,44.8953 L16.8564,42.2602 L14.8231,42.7105 L15.0946,45.4147"/>

        </g>

        <g id="product-05-X12-J">

            <path style="stroke:none; fill:none;" pointer-events="visible" d="M25.1132,45.777 L27.846,45.1718 L27.3013,42.7124 L24.5685,43.3176 L25.1132,45.777"/>

        </g>

        <g id="product-05-X12-K">

            <path style="stroke:none; fill:none;" pointer-events="visible" d="M27.3021,42.7112 L29.9372,42.1276 L29.8853,41.8933 L26.8935,40.8664 L27.3021,42.7112"/>

        </g>

        <g id="product-05-X12-L">

            <path style="stroke:none; fill:none;" pointer-events="visible" d="M27.8859,45.3474 L30.521,44.7638 L29.9374,42.1286 L27.3023,42.7122 L27.8859,45.3474"/>

        </g>

        <g id="product-05-X13-A">

            <path style="stroke:none; fill:none;" pointer-events="visible" d="M14.5513,40.0042 L16.2724,39.623 L15.6967,37.0234 L15.6308,37.0008 L14.2798,37.3 L14.5513,40.0042"/>

        </g>

        <g id="product-05-X13-B">

            <path style="stroke:none; fill:none;" pointer-events="visible" d="M14.823,42.7095 L16.8562,42.2592 L16.2726,39.624 L14.5514,40.0052 L14.823,42.7095"/>

        </g>

        <g id="product-05-X12-P">

            <path style="stroke:none; fill:none;" pointer-events="visible" d="M33.1581,44.1798 L35.218,43.7236 L32.8793,42.9209 L33.1581,44.1798"/>

        </g>

        <g id="product-05-X12-M">

            <path style="stroke:none; fill:none;" pointer-events="visible" d="M29.9382,42.1274 L30.3207,42.0427 L29.8864,41.8936 L29.9382,42.1274"/>

        </g>

        <g id="product-05-X12-N">

            <path style="stroke:none; fill:none;" pointer-events="visible" d="M30.522,44.7636 L33.1571,44.18 L32.8782,42.9205 L30.3226,42.0433 L29.9384,42.1284 L30.522,44.7636"/>

        </g>

        <g id="product-05-Y12-H">

            <path style="stroke:none; fill:none;" pointer-events="visible" d="M55.5188,51.1821 L55.7436,50.7684 L53.1556,49.8801 L53.1479,49.8941 L55.5188,51.1821"/>

        </g>

        <g id="product-05-X12-G">

            <path style="stroke:none; fill:none;" pointer-events="visible" d="M21.8345,43.9221 L24.5673,43.3169 L23.9837,40.6817 L21.251,41.2869 L21.8345,43.9221"/>

        </g>

        <g id="product-05-Y12-D">

            <path style="stroke:none; fill:none;" pointer-events="visible" d="M59.6274,53.4141 L60.2284,52.3076 L57.6396,51.4191 L57.2557,52.1257 L59.6274,53.4141"/>

        </g>

        </g>

    <g id="storey-06">

        <g id="product-06-Y05-Ia">

            <path style="stroke:none; fill:none;" pointer-events="visible" d="M37.595,78.5233 L35.038,77.1342 L34.9943,77.4448 L34.9944,77.4454 L34.9942,77.4455 L34.792,78.8817 L36.806,79.9758 L37.595,78.5233"/>

        </g>

        <g id="product-06-Y08-A">

            <path style="stroke:none; fill:none;" pointer-events="visible" d="M53.2834,71.4765 L54.5718,69.1049 L51.895,67.6507 L50.6066,70.0224 L53.2834,71.4765"/>

        </g>

        <g id="product-06-Y05-Jb">

            <path style="stroke:none; fill:none;" pointer-events="visible" d="M36.5468,81.2655 L35.2463,80.559 L34.5379,81.863 L35.8384,82.5695 L36.5468,81.2655"/>

        </g>

        <g id="product-06-Y08-G">

            <path style="stroke:none; fill:none;" pointer-events="visible" d="M44.4356,65.9325 L46.8951,67.2685 L47.7881,65.6245 L45.3287,64.2885 L44.4356,65.9325"/>

        </g>

        <g id="product-06-X10-Ha">

            <path style="stroke:none; fill:none;" pointer-events="visible" d="M23.989,53.6504 L24.6519,56.6438 L25.1821,56.5264 L24.5191,53.533 L23.989,53.6504"/>

        </g>

        <g id="product-06-X04-G">

            <path style="stroke:none; fill:none;" pointer-events="visible" d="M31.3036,84.2375 L31.88,83.1789 L30.5909,83.4654 L30.9199,84.9464 L31.1754,86.1004 L33.7026,85.5407 L31.3036,84.2375"/>

        </g>

        <g id="product-06-Y10-Id">

            <path style="stroke:none; fill:none;" pointer-events="visible" d="M46.7321,56.5796 L48.1956,53.8854 L47.8845,53.7164 L46.421,56.4106 L46.7321,56.5796"/>

        </g>

        <g id="product-06-X10-Hb">

            <path style="stroke:none; fill:none;" pointer-events="visible" d="M24.8581,55.0588 L25.1831,56.5262 L26.6573,56.1997 L26.3324,54.7323 L24.8581,55.0588"/>

        </g>

        <g id="product-06-Y06-J">

            <path style="stroke:none; fill:none;" pointer-events="visible" d="M36.5093,74.6548 L37.7976,72.2831 L35.8684,71.2351 L35.4667,74.0885 L36.5093,74.6548"/>

        </g>

        <g id="product-06-Y08-L">

            <path style="stroke:none; fill:none;" pointer-events="visible" d="M40.4647,67.5855 L41.753,65.2139 L40.3469,64.45 L39.0586,66.8217 L40.4647,67.5855"/>

        </g>

        <g id="product-06-X10-Q">

            <path style="stroke:none; fill:none;" pointer-events="visible" d="M38.6801,51.2531 L39.0818,48.3997 L36.431,48.9868 L37.0116,51.6226 L38.6801,51.2531"/>

        </g>

        <g id="product-06-X10-R">

            <path style="stroke:none; fill:none;" pointer-events="visible" d="M38.2783,54.1075 L38.68,51.2542 L37.0118,51.6236 L37.5924,54.2594 L38.2783,54.1075"/>

        </g>

        <g id="product-06-X09-C">

            <path style="stroke:none; fill:none;" pointer-events="visible" d="M20.3602,58.0767 L20.9438,60.7119 L23.4911,60.1477 L22.9075,57.5126 L20.3602,58.0767"/>

        </g>

        <g id="product-06-X03-C">

            <path style="stroke:none; fill:none;" pointer-events="visible" d="M29.9132,89.1463 L27.3659,89.7105 L27.9495,92.3457 L30.4968,91.7815 L29.9132,89.1463"/>

        </g>

        <g id="product-06-Y10-E">

            <path style="stroke:none; fill:none;" pointer-events="visible" d="M53.3884,59.2429 L54.6768,56.8712 L52.9415,55.9285 L52.7175,56.3408 L52.8062,56.3889 L51.7418,58.3483 L53.3884,59.2429"/>

        </g>

        <g id="product-06-Y10-C">

            <path style="stroke:none; fill:none;" pointer-events="visible" d="M55.761,60.5317 L57.0493,58.16 L54.6777,56.8717 L53.3893,59.2433 L55.761,60.5317"/>

        </g>

        <g id="product-06-Y10-A">

            <path style="stroke:none; fill:none;" pointer-events="visible" d="M58.9121,59.172 L57.0502,58.1605 L55.7618,60.5322 L57.9551,61.7236 L58.9121,59.172"/>

        </g>

        <g id="product-06-X10-E">

            <path style="stroke:none; fill:none;" pointer-events="visible" d="M24.1688,54.4668 L23.5852,51.8317 L21.7409,52.2401 L22.3245,54.8753 L24.1688,54.4668"/>

        </g>

        <g id="product-06-X10-C">

            <path style="stroke:none; fill:none;" pointer-events="visible" d="M22.3235,54.8755 L21.7399,52.2403 L19.1926,52.8044 L19.7762,55.4396 L22.3235,54.8755"/>

        </g>

        <g id="product-06-X03-F">

            <path style="stroke:none; fill:none;" pointer-events="visible" d="M30.498,91.7823 L31.0816,94.4174 L32.6531,94.0694 L33.0547,91.2161 L30.498,91.7823"/>

        </g>

        <g id="product-06-Y08-B">

            <path style="stroke:none; fill:none;" pointer-events="visible" d="M51.9945,73.849 L53.2829,71.4774 L50.6062,70.0233 L49.3178,72.3949 L51.9945,73.849"/>

        </g>

        <g id="product-06-Y08-C">

            <path style="stroke:none; fill:none;" pointer-events="visible" d="M49.5224,66.3619 L48.2341,68.7335 L50.6057,70.0219 L51.8941,67.6502 L49.5224,66.3619"/>

        </g>

        <g id="product-06-Y08-D">

            <path style="stroke:none; fill:none;" pointer-events="visible" d="M49.3169,72.3944 L50.6053,70.0228 L48.2336,68.7344 L46.9453,71.1061 L49.3169,72.3944"/>

        </g>

        <g id="product-06-Y06-A">

            <path style="stroke:none; fill:none;" pointer-events="visible" d="M48.128,80.9666 L49.4163,78.5949 L46.7397,77.1409 L45.4514,79.5126 L48.128,80.9666"/>

        </g>

        <g id="product-06-Y06-B">

            <path style="stroke:none; fill:none;" pointer-events="visible" d="M46.8391,83.3391 L48.1275,80.9675 L45.4509,79.5134 L44.1626,81.8851 L46.8391,83.3391"/>

        </g>

        <g id="product-06-Y08-O">

            <path style="stroke:none; fill:none;" pointer-events="visible" d="M37.974,63.1598 L39.2624,60.7882 L37.4756,59.8175 L37.0739,62.6708 L37.974,63.1598"/>

        </g>

        <g id="product-06-X09-N">

            <path style="stroke:none; fill:none;" pointer-events="visible" d="M34.0248,60.5803 L36.66,59.9967 L36.0764,57.3616 L33.4412,57.9452 L34.0248,60.5803"/>

        </g>

        <g id="product-06-X03-E">

            <path style="stroke:none; fill:none;" pointer-events="visible" d="M29.9142,89.1461 L30.4978,91.7813 L33.0549,91.215 L33.412,88.6782 L33.4567,88.3605 L29.9142,89.1461"/>

        </g>

        <g id="product-06-X05-J">

            <path style="stroke:none; fill:none;" pointer-events="visible" d="M33.587,80.0365 L31.88,83.1789 L34.2603,82.6518 L34.2604,82.6512 L34.6619,79.7985 L33.587,80.0365"/>

        </g>

        <g id="product-06-X10-D">

            <path style="stroke:none; fill:none;" pointer-events="visible" d="M22.9073,57.5116 L22.3237,54.8764 L19.7764,55.4406 L20.36,58.0757 L22.9073,57.5116"/>

        </g>

        <g id="product-06-Y09-F">

            <path style="stroke:none; fill:none;" pointer-events="visible" d="M49.522,66.3605 L50.8104,63.9888 L49.1637,63.0943 L47.8754,65.466 L49.522,66.3605"/>

        </g>

        <g id="product-06-X03-D">

            <path style="stroke:none; fill:none;" pointer-events="visible" d="M30.497,91.7825 L27.9497,92.3466 L28.5333,94.9817 L31.0806,94.4176 L30.497,91.7825"/>

        </g>

        <g id="product-06-Y10-Hb">

            <path style="stroke:none; fill:none;" pointer-events="visible" d="M50.5381,60.5622 L51.3409,59.0844 L48.8814,57.7483 L48.0786,59.2262 L50.5381,60.5622"/>

        </g>

        <g id="product-06-Y09-A">

            <path style="stroke:none; fill:none;" pointer-events="visible" d="M55.8611,66.7315 L56.5583,65.448 L56.9974,64.2772 L54.4726,62.9056 L53.1842,65.2773 L55.8611,66.7315"/>

        </g>

        <g id="product-06-Y09-B">

            <path style="stroke:none; fill:none;" pointer-events="visible" d="M54.5722,69.104 L55.8606,66.7323 L53.1838,65.2782 L51.8954,67.6498 L54.5722,69.104"/>

        </g>

        <g id="product-06-Y09-C">

            <path style="stroke:none; fill:none;" pointer-events="visible" d="M52.1,61.6168 L50.8117,63.9884 L53.1834,65.2768 L54.4717,62.9051 L52.1,61.6168"/>

        </g>

        <g id="product-06-Y09-D">

            <path style="stroke:none; fill:none;" pointer-events="visible" d="M50.8112,63.9893 L49.5229,66.361 L51.8946,67.6493 L53.1829,65.2777 L50.8112,63.9893"/>

        </g>

        <g id="product-06-Y09-E">

            <path style="stroke:none; fill:none;" pointer-events="visible" d="M50.8108,63.9879 L52.0992,61.6163 L50.4525,60.7218 L49.1642,63.0934 L50.8108,63.9879"/>

        </g>

        <g id="product-06-X10-Jb">

            <path style="stroke:none; fill:none;" pointer-events="visible" d="M30.1185,55.4332 L29.4555,52.4397 L29.1099,52.5163 L29.7729,55.5097 L30.1185,55.4332"/>

        </g>

        <g id="product-06-X10-Ka">

            <path style="stroke:none; fill:none;" pointer-events="visible" d="M29.6373,53.2557 L31.1007,52.9317 L30.5172,50.2965 L29.0537,50.6206 L29.6373,53.2557"/>

        </g>

        <g id="product-06-Y10-B">

            <path style="stroke:none; fill:none;" pointer-events="visible" d="M57.955,61.7238 L55.7614,60.5331 L54.473,62.9047 L56.9974,64.2772 L57.955,61.7238"/>

        </g>

        <g id="product-06-Y11-S">

            <path style="stroke:none; fill:none;" pointer-events="visible" d="M40.9621,46.3469 L41.2608,45.7976 L39.5326,45.2044 L39.4847,45.5444 L40.9621,46.3469"/>

        </g>

        <g id="product-06-X05-G">

            <path style="stroke:none; fill:none;" pointer-events="visible" d="M32.158,77.5873 L32.7416,80.2227 L33.5863,80.0356 L34.3446,78.6398 L33.3923,78.1223 L33.2217,77.3517 L32.158,77.5873"/>

        </g>

        <g id="product-06-X11-A">

            <path style="stroke:none; fill:none;" pointer-events="visible" d="M18.6076,50.1676 L18.024,47.5324 L15.3662,48.1201 L15.6378,50.8253 L18.6076,50.1676"/>

        </g>

        <g id="product-06-X10-B">

            <path style="stroke:none; fill:none;" pointer-events="visible" d="M17.3109,58.751 L20.359,58.0759 L19.7754,55.4408 L16.7274,56.1158 L17.3109,58.751"/>

        </g>

        <g id="product-06-X04-F">

            <path style="stroke:none; fill:none;" pointer-events="visible" d="M31.5174,87.649 L31.1757,86.1014 L30.1704,86.324 L29.3304,86.51 L29.914,89.1451 L31.7583,88.7367 L31.5174,87.649"/>

        </g>

        <g id="product-06-X11-B">

            <path style="stroke:none; fill:none;" pointer-events="visible" d="M16.1433,53.4787 L19.1914,52.8037 L18.6078,50.1685 L15.6378,50.8253 L15.706,51.5038 L16.1433,53.4787"/>

        </g>

        <g id="product-06-X11-Lb">

            <path style="stroke:none; fill:none;" pointer-events="visible" d="M30.5179,50.2953 L31.6886,50.036 L31.1058,47.3997 L29.3524,47.789 L30.1418,49.1586 L30.1805,49.2207 L30.2492,49.3499 L30.3088,49.4835 L30.359,49.6209 L30.3997,49.7614 L30.4182,49.8472 L30.5179,50.2953"/>

        </g>

        <g id="product-06-X11-Nb">

            <path style="stroke:none; fill:none;" pointer-events="visible" d="M31.6896,50.0358 L34.3248,49.4522 L33.7421,46.8169 L32.5952,47.0698 L31.1058,47.3997 L31.6896,50.0358"/>

        </g>

        <g id="product-06-X11-M">

            <path style="stroke:none; fill:none;" pointer-events="visible" d="M31.1058,47.3997 L33.7421,46.8169 L33.6671,46.4827 L33.1574,44.1809 L30.5222,44.7645 L31.1058,47.3997"/>

        </g>

        <g id="product-06-X11-P">

            <path style="stroke:none; fill:none;" pointer-events="visible" d="M34.3257,49.452 L36.4298,48.986 L35.8491,46.3502 L33.7421,46.8169 L34.3257,49.452"/>

        </g>

        <g id="product-06-X10-Kb">

            <path style="stroke:none; fill:none;" pointer-events="visible" d="M31.1016,52.9314 L32.2724,52.6722 L31.6888,50.037 L30.5181,50.2963 L31.1016,52.9314"/>

        </g>

        <g id="product-06-X10-Lb">

            <path style="stroke:none; fill:none;" pointer-events="visible" d="M32.8562,55.3083 L32.2726,52.6731 L31.1018,52.9324 L31.6853,55.5676 L32.8562,55.3083"/>

        </g>

        <g id="product-06-X10-Ga">

            <path style="stroke:none; fill:none;" pointer-events="visible" d="M26.7216,53.0442 L26.3579,51.402 L23.6251,52.0072 L23.9888,53.6494 L26.7216,53.0442"/>

        </g>

        <g id="product-06-X10-M">

            <path style="stroke:none; fill:none;" pointer-events="visible" d="M32.2734,52.6719 L34.9086,52.0884 L34.325,49.4532 L31.6898,50.0368 L32.2734,52.6719"/>

        </g>

        <g id="product-06-X10-N">

            <path style="stroke:none; fill:none;" pointer-events="visible" d="M32.8572,55.3081 L35.4924,54.7245 L34.9088,52.0893 L32.2736,52.6729 L32.8572,55.3081"/>

        </g>

        <g id="product-06-X10-O">

            <path style="stroke:none; fill:none;" pointer-events="visible" d="M34.9095,52.0881 L37.0106,51.6228 L36.43,48.987 L34.3259,49.453 L34.9095,52.0881"/>

        </g>

        <g id="product-06-X10-P">

            <path style="stroke:none; fill:none;" pointer-events="visible" d="M35.4933,54.7243 L37.5915,54.2596 L37.0108,51.6238 L34.9098,52.0891 L35.4933,54.7243"/>

        </g>

        <g id="product-06-X11-Q">

            <path style="stroke:none; fill:none;" pointer-events="visible" d="M39.4837,45.5443 L39.5317,45.2041 L35.2759,43.7434 L35.8499,46.349 L39.4837,45.5443"/>

        </g>

        <g id="product-06-X11-R">

            <path style="stroke:none; fill:none;" pointer-events="visible" d="M39.0819,48.3987 L39.4836,45.5453 L35.8501,46.35 L36.4307,48.9858 L39.0819,48.3987"/>

        </g>

        <g id="product-06-X09-D">

            <path style="stroke:none; fill:none;" pointer-events="visible" d="M23.4913,60.1487 L20.944,60.7128 L21.5276,63.348 L24.0749,62.7839 L23.4913,60.1487"/>

        </g>

        <g id="product-06-X09-E">

            <path style="stroke:none; fill:none;" pointer-events="visible" d="M25.4345,59.7173 L24.8509,57.0822 L22.9085,57.5124 L23.4921,60.1475 L25.4345,59.7173"/>

        </g>

        <g id="product-06-X09-F">

            <path style="stroke:none; fill:none;" pointer-events="visible" d="M26.0183,62.3535 L25.4347,59.7183 L23.4923,60.1485 L24.0759,62.7836 L26.0183,62.3535"/>

        </g>

        <g id="product-06-X09-H">

            <path style="stroke:none; fill:none;" pointer-events="visible" d="M28.0704,59.1346 L25.4347,59.7183 L26.0183,62.3535 L28.6539,61.7698 L28.0704,59.1346"/>

        </g>

        <g id="product-06-X09-I">

            <path style="stroke:none; fill:none;" pointer-events="visible" d="M29.9942,55.4618 L27.3859,56.0394 L28.0711,59.1334 L30.6794,58.5558 L29.9942,55.4618"/>

        </g>

        <g id="product-06-X09-G">

            <path style="stroke:none; fill:none;" pointer-events="visible" d="M24.7493,56.6233 L25.4345,59.7173 L28.0701,59.1336 L27.3849,56.0396 L24.7493,56.6233"/>

        </g>

        <g id="product-06-X08-D">

            <path style="stroke:none; fill:none;" pointer-events="visible" d="M24.6589,65.421 L22.1116,65.9851 L22.6952,68.6202 L25.2425,68.0561 L24.6589,65.421"/>

        </g>

        <g id="product-06-X08-E">

            <path style="stroke:none; fill:none;" pointer-events="visible" d="M24.0761,62.7846 L24.6597,65.4198 L26.6021,64.9896 L26.0185,62.3544 L24.0761,62.7846"/>

        </g>

        <g id="product-06-X08-F">

            <path style="stroke:none; fill:none;" pointer-events="visible" d="M26.7407,65.6149 L26.6026,64.9905 L24.6599,65.4207 L25.2435,68.0559 L27.0889,67.6472 L26.6435,65.6365 L26.7407,65.6149"/>

        </g>

        <g id="product-06-X06-Ja">

            <path style="stroke:none; fill:none;" pointer-events="visible" d="M34.3079,74.3458 L34.9936,77.4421 L35.4656,74.0895 L34.3079,74.3458"/>

        </g>

        <g id="product-06-X06-Ia">

            <path style="stroke:none; fill:none;" pointer-events="visible" d="M33.7241,71.7096 L34.3077,74.3449 L35.4657,74.0884 L35.8674,71.235 L33.7241,71.7096"/>

        </g>

        <g id="product-06-X10-Ja">

            <path style="stroke:none; fill:none;" pointer-events="visible" d="M29.7719,55.51 L29.4469,54.0425 L27.9736,54.3688 L28.2986,55.8362 L29.7719,55.51"/>

        </g>

        <g id="product-06-X09-Lb">

            <path style="stroke:none; fill:none;" pointer-events="visible" d="M32.2693,58.2047 L32.8528,60.8399 L34.0238,60.5805 L33.4403,57.9454 L32.2693,58.2047"/>

        </g>

        <g id="product-06-X09-M">

            <path style="stroke:none; fill:none;" pointer-events="visible" d="M36.0762,57.3606 L35.4926,54.7255 L32.8574,55.309 L33.441,57.9442 L36.0762,57.3606"/>

        </g>

        <g id="product-06-X09-Kb">

            <path style="stroke:none; fill:none;" pointer-events="visible" d="M31.6856,55.5686 L32.269,58.2037 L33.44,57.9444 L32.8564,55.3093 L31.6856,55.5686"/>

        </g>

        <g id="product-06-X08-A">

            <path style="stroke:none; fill:none;" pointer-events="visible" d="M19.0624,66.6594 L22.1104,65.9843 L21.5269,63.3492 L18.4788,64.0242 L19.0624,66.6594"/>

        </g>

        <g id="product-06-X08-B">

            <path style="stroke:none; fill:none;" pointer-events="visible" d="M19.6462,69.2955 L22.6942,68.6205 L22.1107,65.9853 L19.0626,66.6603 L19.6462,69.2955"/>

        </g>

        <g id="product-06-X08-C">

            <path style="stroke:none; fill:none;" pointer-events="visible" d="M24.0751,62.7848 L21.5278,63.349 L22.1114,65.9841 L24.6587,65.42 L24.0751,62.7848"/>

        </g>

        <g id="product-06-Y10-D">

            <path style="stroke:none; fill:none;" pointer-events="visible" d="M54.4722,62.9043 L55.7605,60.5326 L53.3888,59.2442 L52.1005,61.6159 L54.4722,62.9043"/>

        </g>

        <g id="product-06-X10-Gb">

            <path style="stroke:none; fill:none;" pointer-events="visible" d="M25.9944,53.2062 L24.5201,53.5327 L24.8579,55.0578 L26.3321,54.7313 L25.9944,53.2062"/>

        </g>

        <g id="product-06-X09-J">

            <path style="stroke:none; fill:none;" pointer-events="visible" d="M31.2911,61.1858 L30.7075,58.5506 L28.0713,59.1344 L28.6549,61.7696 L31.2911,61.1858"/>

        </g>

        <g id="product-06-X09-Ka">

            <path style="stroke:none; fill:none;" pointer-events="visible" d="M32.2681,58.204 L31.6846,55.5688 L30.1232,55.9146 L30.7068,58.5497 L32.2681,58.204"/>

        </g>

        <g id="product-06-X09-La">

            <path style="stroke:none; fill:none;" pointer-events="visible" d="M32.8518,60.8401 L32.2683,58.2049 L30.707,58.5507 L31.2906,61.1859 L32.8518,60.8401"/>

        </g>

        <g id="product-06-X11-D">

            <path style="stroke:none; fill:none;" pointer-events="visible" d="M21.7397,52.2393 L21.1561,49.6042 L18.6088,50.1683 L19.1924,52.8035 L21.7397,52.2393"/>

        </g>

        <g id="product-06-X11-E">

            <path style="stroke:none; fill:none;" pointer-events="visible" d="M21.1569,49.603 L23.0012,49.1946 L22.4176,46.5594 L20.5733,46.9678 L21.1569,49.603"/>

        </g>

        <g id="product-06-X11-C">

            <path style="stroke:none; fill:none;" pointer-events="visible" d="M18.6086,50.1673 L21.1559,49.6032 L20.5723,46.9681 L18.025,47.5322 L18.6086,50.1673"/>

        </g>

        <g id="product-06-X08-G">

            <path style="stroke:none; fill:none;" pointer-events="visible" d="M26.0185,62.3544 L26.7406,65.6149 L29.3762,65.0312 L28.6542,61.7707 L26.0185,62.3544"/>

        </g>

        <g id="product-06-X08-H">

            <path style="stroke:none; fill:none;" pointer-events="visible" d="M29.3762,65.0312 L26.6435,65.6365 L27.0498,67.4715 L29.7826,66.8663 L29.3762,65.0312"/>

        </g>

        <g id="product-06-X08-I">

            <path style="stroke:none; fill:none;" pointer-events="visible" d="M31.2908,61.1868 L28.6551,61.7705 L29.3772,65.031 L32.0129,64.4473 L31.2908,61.1868"/>

        </g>

        <g id="product-06-X08-J">

            <path style="stroke:none; fill:none;" pointer-events="visible" d="M29.3772,65.031 L29.7836,66.8661 L30.9455,66.6088 L30.9844,66.7845 L32.5558,66.4365 L32.1105,64.4257 L29.3772,65.031"/>

        </g>

        <g id="product-06-X08-Ka">

            <path style="stroke:none; fill:none;" pointer-events="visible" d="M31.2913,61.1867 L31.8749,63.8219 L33.4355,63.4763 L32.852,60.8411 L31.2913,61.1867"/>

        </g>

        <g id="product-06-X08-La">

            <path style="stroke:none; fill:none;" pointer-events="visible" d="M31.8751,63.8229 L32.0128,64.4473 L32.1105,64.4257 L32.5563,66.4364 L34.0192,66.1124 L33.4357,63.4772 L31.8751,63.8229"/>

        </g>

        <g id="product-06-X08-Kb">

            <path style="stroke:none; fill:none;" pointer-events="visible" d="M34.6076,63.2167 L34.0241,60.5815 L32.853,60.8409 L33.4365,63.476 L34.6076,63.2167"/>

        </g>

        <g id="product-06-X08-Lb">

            <path style="stroke:none; fill:none;" pointer-events="visible" d="M33.4367,63.477 L34.0202,66.1122 L35.1914,65.8528 L34.6079,63.2176 L33.4367,63.477"/>

        </g>

        <g id="product-06-X08-M">

            <path style="stroke:none; fill:none;" pointer-events="visible" d="M37.4746,59.8174 L34.025,60.5813 L34.6086,63.2165 L37.0729,62.6707 L37.4746,59.8174"/>

        </g>

        <g id="product-06-X08-N">

            <path style="stroke:none; fill:none;" pointer-events="visible" d="M36.6711,65.5251 L37.0728,62.6718 L34.6088,63.2174 L35.1924,65.8526 L36.6711,65.5251"/>

        </g>

        <g id="product-06-X07-A">

            <path style="stroke:none; fill:none;" pointer-events="visible" d="M20.23,71.9316 L23.2781,71.2566 L22.6945,68.6214 L19.6464,69.2965 L20.23,71.9316"/>

        </g>

        <g id="product-06-X07-B">

            <path style="stroke:none; fill:none;" pointer-events="visible" d="M20.2302,71.9326 L20.8138,74.5678 L23.8619,73.8927 L23.2783,71.2576 L20.2302,71.9326"/>

        </g>

        <g id="product-06-X07-C">

            <path style="stroke:none; fill:none;" pointer-events="visible" d="M25.2427,68.0571 L22.6954,68.6212 L23.279,71.2564 L25.8263,70.6923 L25.2427,68.0571"/>

        </g>

        <g id="product-06-X07-D">

            <path style="stroke:none; fill:none;" pointer-events="visible" d="M25.8265,70.6932 L23.2792,71.2574 L23.8628,73.8925 L26.4101,73.3284 L25.8265,70.6932"/>

        </g>

        <g id="product-06-X07-E">

            <path style="stroke:none; fill:none;" pointer-events="visible" d="M25.2437,68.0569 L25.8273,70.692 L27.6716,70.2836 L27.088,67.6484 L25.2437,68.0569"/>

        </g>

        <g id="product-06-X07-F">

            <path style="stroke:none; fill:none;" pointer-events="visible" d="M28.2554,72.9197 L27.6718,70.2846 L25.8275,70.693 L26.4111,73.3282 L28.2554,72.9197"/>

        </g>

        <g id="product-06-X07-G">

            <path style="stroke:none; fill:none;" pointer-events="visible" d="M27.7266,70.5275 L31.6213,69.6649 L30.9447,66.61 L27.0501,67.4725 L27.7266,70.5275"/>

        </g>

        <g id="product-06-X07-Ha">

            <path style="stroke:none; fill:none;" pointer-events="visible" d="M29.2294,70.1957 L27.7268,70.5284 L28.2953,73.0952 L29.7979,72.7625 L29.2294,70.1957"/>

        </g>

        <g id="product-06-X07-Hb">

            <path style="stroke:none; fill:none;" pointer-events="visible" d="M29.2304,70.1954 L29.7989,72.7623 L32.1899,72.2327 L31.6215,69.6659 L29.2304,70.1954"/>

        </g>

        <g id="product-06-X07-I">

            <path style="stroke:none; fill:none;" pointer-events="visible" d="M33.1391,69.0727 L32.5555,66.4376 L30.9846,66.7855 L31.5682,69.4206 L33.1391,69.0727"/>

        </g>

        <g id="product-06-X07-J">

            <path style="stroke:none; fill:none;" pointer-events="visible" d="M33.7229,71.7089 L33.1393,69.0737 L31.5684,69.4216 L32.152,72.0568 L33.7229,71.7089"/>

        </g>

        <g id="product-06-X07-Ka">

            <path style="stroke:none; fill:none;" pointer-events="visible" d="M34.6029,68.7486 L34.0194,66.1134 L32.5565,66.4374 L33.1401,69.0725 L34.6029,68.7486"/>

        </g>

        <g id="product-06-X07-La">

            <path style="stroke:none; fill:none;" pointer-events="visible" d="M34.6031,68.7495 L33.1403,69.0735 L33.7239,71.7086 L35.8675,71.2339 L35.9849,70.4054 L34.9376,70.258 L34.6031,68.7495"/>

        </g>

        <g id="product-06-X07-Kb">

            <path style="stroke:none; fill:none;" pointer-events="visible" d="M34.0204,66.1132 L34.6039,68.7484 L35.7753,68.4889 L35.1917,65.8538 L34.0204,66.1132"/>

        </g>

        <g id="product-06-X07-M">

            <path style="stroke:none; fill:none;" pointer-events="visible" d="M36.2693,68.3795 L36.671,65.5262 L35.1926,65.8536 L35.7762,68.4887 L36.2693,68.3795"/>

        </g>

        <g id="product-06-X07-Lb">

            <path style="stroke:none; fill:none;" pointer-events="visible" d="M35.9849,70.4054 L36.2692,68.3806 L34.6041,68.7493 L34.9376,70.258 L35.9849,70.4054"/>

        </g>

        <g id="product-06-X06-C">

            <path style="stroke:none; fill:none;" pointer-events="visible" d="M23.863,73.8935 L24.4467,76.5287 L26.9939,75.9646 L26.4103,73.3293 L23.863,73.8935"/>

        </g>

        <g id="product-06-X06-D">

            <path style="stroke:none; fill:none;" pointer-events="visible" d="M27.5777,78.6006 L26.9941,75.9656 L24.4469,76.5297 L25.0304,79.1648 L27.5777,78.6006"/>

        </g>

        <g id="product-06-X06-E">

            <path style="stroke:none; fill:none;" pointer-events="visible" d="M26.4113,73.3291 L26.9949,75.9644 L28.9373,75.5342 L28.3927,73.0747 L28.2945,73.0964 L28.2556,72.9207 L26.4113,73.3291"/>

        </g>

        <g id="product-06-X06-F">

            <path style="stroke:none; fill:none;" pointer-events="visible" d="M26.9951,75.9654 L27.5787,78.6004 L29.5211,78.1702 L28.9376,75.5352 L26.9951,75.9654"/>

        </g>

        <g id="product-06-X06-G">

            <path style="stroke:none; fill:none;" pointer-events="visible" d="M28.9373,75.5342 L32.6377,74.7147 L32.093,72.2552 L28.3927,73.0747 L28.9373,75.5342"/>

        </g>

        <g id="product-06-X10-La">

            <path style="stroke:none; fill:none;" pointer-events="visible" d="M31.6844,55.5678 L31.1009,52.9326 L29.6375,53.2567 L30.1185,55.4332 L30.0214,55.4549 L30.1239,55.9134 L31.6844,55.5678"/>

        </g>

        <g id="product-06-X06-H">

            <path style="stroke:none; fill:none;" pointer-events="visible" d="M32.6379,74.7157 L28.9376,75.5352 L29.5211,78.1702 L33.2215,77.3508 L32.6379,74.7157"/>

        </g>

        <g id="product-06-X06-I">

            <path style="stroke:none; fill:none;" pointer-events="visible" d="M34.3067,74.3451 L33.7231,71.7098 L32.1522,72.0577 L32.1911,72.2335 L32.093,72.2552 L32.6377,74.7147 L34.3067,74.3451"/>

        </g>

        <g id="product-06-X06-J">

            <path style="stroke:none; fill:none;" pointer-events="visible" d="M34.8905,76.9811 L34.307,74.3461 L32.6379,74.7157 L33.2215,77.3508 L34.8905,76.9811"/>

        </g>

        <g id="product-06-X05-A">

            <path style="stroke:none; fill:none;" pointer-events="visible" d="M22.5652,82.4764 L25.6133,81.8014 L25.0297,79.1659 L21.9816,79.841 L22.5652,82.4764"/>

        </g>

        <g id="product-06-X05-B">

            <path style="stroke:none; fill:none;" pointer-events="visible" d="M26.1971,84.4375 L25.6135,81.8023 L22.5654,82.4774 L23.149,85.1125 L26.1971,84.4375"/>

        </g>

        <g id="product-06-X05-C">

            <path style="stroke:none; fill:none;" pointer-events="visible" d="M28.1616,81.237 L27.5779,78.6016 L25.0307,79.1657 L25.6143,81.8011 L28.1616,81.237"/>

        </g>

        <g id="product-06-X05-D">

            <path style="stroke:none; fill:none;" pointer-events="visible" d="M28.7454,83.8731 L28.1618,81.238 L25.6145,81.8021 L26.1981,84.4372 L28.7454,83.8731"/>

        </g>

        <g id="product-06-X05-E">

            <path style="stroke:none; fill:none;" pointer-events="visible" d="M30.0069,80.8284 L29.4232,78.1929 L27.5789,78.6014 L28.1626,81.2368 L30.0069,80.8284"/>

        </g>

        <g id="product-06-X05-F">

            <path style="stroke:none; fill:none;" pointer-events="visible" d="M30.5907,83.4644 L30.0071,80.8293 L28.1628,81.2378 L28.7463,83.8729 L30.5907,83.4644"/>

        </g>

        <g id="product-06-X05-G">

            <path style="stroke:none; fill:none;" pointer-events="visible" d="M32.7406,80.2229 L32.157,77.5875 L29.4242,78.1927 L30.0078,80.8281 L32.7406,80.2229"/>

        </g>

        <g id="product-06-X10-A">

            <path style="stroke:none; fill:none;" pointer-events="visible" d="M16.7271,56.1149 L19.7752,55.4398 L19.1916,52.8047 L16.1436,53.4797 L16.7271,56.1149"/>

        </g>

        <g id="product-06-Y10-K">

            <path style="stroke:none; fill:none;" pointer-events="visible" d="M46.8197,55.6744 L47.8836,53.7159 L47.6281,53.5771 L45.8949,55.1721 L46.8197,55.6744"/>

        </g>

        <g id="product-06-X11-O">

            <path style="stroke:none; fill:none;" pointer-events="visible" d="M33.7421,46.8169 L35.8501,46.35 L35.2748,43.7431 L35.2198,43.7242 L33.1583,44.1807 L33.7421,46.8169"/>

        </g>

        <g id="product-06-Y01-B">

            <path style="stroke:none; fill:none;" pointer-events="visible" d="M35.2389,104.693 L32.5629,103.239 L31.2746,105.611 L33.9506,107.064 L35.2389,104.693"/>

        </g>

        <g id="product-06-X11-La">

            <path style="stroke:none; fill:none;" pointer-events="visible" d="M29.0535,50.6196 L30.5169,50.2955 L30.4219,49.8664 L30.3996,49.7614 L30.3589,49.6209 L30.3087,49.4835 L30.2491,49.3499 L30.1804,49.2208 L30.1417,49.1587 L29.3529,47.7889 L28.4699,47.9845 L29.0535,50.6196"/>

        </g>

        <g id="product-06-X11-K">

            <path style="stroke:none; fill:none;" pointer-events="visible" d="M28.4697,47.9835 L29.3523,47.788 L27.8478,45.1753 L28.4697,47.9835"/>

        </g>

        <g id="product-06-X11-F">

            <path style="stroke:none; fill:none;" pointer-events="visible" d="M23.585,51.8307 L23.0014,49.1955 L21.1571,49.604 L21.7407,52.2391 L23.585,51.8307"/>

        </g>

        <g id="product-06-X05-H">

            <path style="stroke:none; fill:none;" pointer-events="visible" d="M31.8787,83.1792 L33.5857,80.0368 L30.0081,80.8291 L30.5916,83.4642 L31.8787,83.1792"/>

        </g>

        <g id="product-06-X05-Ia">

            <path style="stroke:none; fill:none;" pointer-events="visible" d="M34.8907,76.9821 L33.2217,77.3517 L33.3921,78.121 L34.345,78.6389 L34.791,78.8812 L34.9932,77.4449 L34.8907,76.9821"/>

        </g>

        <g id="product-06-X04-Ha">

            <path style="stroke:none; fill:none;" pointer-events="visible" d="M33.7026,85.5407 L31.1757,86.1014 L31.5183,87.6483 L31.7592,88.7365 L33.4567,88.3605 L33.8429,85.617 L33.7026,85.5407"/>

        </g>

        <g id="product-06-Y10-F">

            <path style="stroke:none; fill:none;" pointer-events="visible" d="M52.0996,61.6154 L53.388,59.2437 L51.7413,58.3492 L50.453,60.7209 L52.0996,61.6154"/>

        </g>

        <g id="product-06-X10-Ia">

            <path style="stroke:none; fill:none;" pointer-events="visible" d="M26.7225,53.044 L29.4553,52.4388 L29.0916,50.7965 L26.3588,51.4018 L26.7225,53.044"/>

        </g>

        <g id="product-06-Y03-E">

            <path style="stroke:none; fill:none;" pointer-events="visible" d="M33.0559,91.2149 L35.3452,92.4585 L36.6335,90.0869 L34.9864,89.1921 L33.4567,88.3605 L33.0559,91.2149"/>

        </g>

        <g id="product-06-Y08-J">

            <path style="stroke:none; fill:none;" pointer-events="visible" d="M42.8366,68.874 L44.4335,65.9343 L42.0616,64.6458 L40.4647,67.5855 L42.8366,68.874"/>

        </g>

        <g id="product-06-X11-G">

            <path style="stroke:none; fill:none;" pointer-events="visible" d="M22.9874,49.1279 L25.1833,48.6416 L24.5755,45.8971 L22.3796,46.3834 L22.9874,49.1279"/>

        </g>

        <g id="product-06-Y05-A">

            <path style="stroke:none; fill:none;" pointer-events="visible" d="M42.8738,84.2577 L45.5503,85.7116 L46.8386,83.34 L44.1621,81.886 L42.8738,84.2577"/>

        </g>

        <g id="product-06-Y04-E">

            <path style="stroke:none; fill:none;" pointer-events="visible" d="M37.9228,87.7134 L39.2111,85.3418 L37.564,84.447 L36.2757,86.8186 L37.9228,87.7134"/>

        </g>

        <g id="product-06-X04-C">

            <path style="stroke:none; fill:none;" pointer-events="visible" d="M29.3292,86.5093 L28.7456,83.8741 L26.1983,84.4382 L26.7819,87.0734 L29.3292,86.5093"/>

        </g>

        <g id="product-06-Y06-F">

            <path style="stroke:none; fill:none;" pointer-events="visible" d="M41.7892,80.5958 L43.0775,78.2241 L41.4304,77.3293 L40.1421,79.701 L41.7892,80.5958"/>

        </g>

        <g id="product-06-Y04-F">

            <path style="stroke:none; fill:none;" pointer-events="visible" d="M36.634,90.086 L37.9223,87.7143 L36.2752,86.8195 L34.9869,89.1912 L36.634,90.086"/>

        </g>

        <g id="product-06-Y04-D">

            <path style="stroke:none; fill:none;" pointer-events="visible" d="M37.9232,87.7148 L36.6349,90.0865 L39.0065,91.3748 L40.2948,89.0032 L37.9232,87.7148"/>

        </g>

        <g id="product-06-Y08-K">

            <path style="stroke:none; fill:none;" pointer-events="visible" d="M41.9325,64.6734 L42.9528,62.793 L41.6358,62.0775 L40.3474,64.4491 L41.7518,65.212 L42.0197,64.721 L41.9325,64.6734"/>

        </g>

        <g id="product-06-X05-Ib">

            <path style="stroke:none; fill:none;" pointer-events="visible" d="M34.6621,79.7974 L34.7909,78.8823 L34.3454,78.6403 L33.5876,80.0354 L34.6621,79.7974"/>

        </g>

        <g id="product-06-Y07-J">

            <path style="stroke:none; fill:none;" pointer-events="visible" d="M40.3449,73.461 L41.5473,71.2475 L39.0868,69.9108 L37.8843,72.1243 L40.3449,73.461"/>

        </g>

        <g id="product-06-Y07-G">

            <path style="stroke:none; fill:none;" pointer-events="visible" d="M44.0089,72.5836 L45.2973,70.212 L42.837,68.8754 L41.5487,71.2471 L44.0089,72.5836"/>

        </g>

        <g id="product-06-X04-B">

            <path style="stroke:none; fill:none;" pointer-events="visible" d="M27.3647,89.7097 L26.7811,87.0746 L23.7331,87.7496 L24.3166,90.3847 L27.3647,89.7097"/>

        </g>

        <g id="product-06-Y08-H">

            <path style="stroke:none; fill:none;" pointer-events="visible" d="M45.208,70.1623 L46.8049,67.2225 L44.4344,65.9348 L42.8375,68.8745 L45.208,70.1623"/>

        </g>

        <g id="product-06-Y05-B">

            <path style="stroke:none; fill:none;" pointer-events="visible" d="M45.5498,85.7125 L42.8733,84.2585 L41.585,86.6302 L44.2614,88.0841 L45.5498,85.7125"/>

        </g>

        <g id="product-06-Y07-C">

            <path style="stroke:none; fill:none;" pointer-events="visible" d="M46.9448,71.1069 L45.6565,73.4786 L48.0281,74.767 L49.3165,72.3953 L46.9448,71.1069"/>

        </g>

        <g id="product-06-X-11-I">

            <path style="stroke:none; fill:none;" pointer-events="visible" d="M25.8217,51.5197 L29.0914,50.7956 L27.8462,45.1728 L24.5765,45.8969 L25.8217,51.5197"/>

        </g>

        <g id="product-06-Y09-G">

            <path style="stroke:none; fill:none;" pointer-events="visible" d="M49.1309,63.1527 L50.5376,60.5631 L48.5609,59.4893 L47.1541,62.0789 L49.1309,63.1527"/>

        </g>

        <g id="product-06-Y09-K">

            <path style="stroke:none; fill:none;" pointer-events="visible" d="M44.2421,60.4195 L45.5304,58.0479 L44.2135,57.3324 L42.9251,59.7041 L44.2421,60.4195"/>

        </g>

        <g id="product-06-Y11-P">

            <path style="stroke:none; fill:none;" pointer-events="visible" d="M44.4182,51.2972 L45.7066,48.9255 L43.335,47.6372 L42.0466,50.0088 L44.4182,51.2972"/>

        </g>

        <g id="product-06-Y11-Q">

            <path style="stroke:none; fill:none;" pointer-events="visible" d="M43.3346,47.6358 L43.8507,46.6865 L41.2615,45.7978 L40.9629,46.3474 L43.3346,47.6358"/>

        </g>

        <g id="product-06-Y11-R">

            <path style="stroke:none; fill:none;" pointer-events="visible" d="M42.0457,50.0083 L43.3341,47.6367 L40.9625,46.3483 L39.6741,48.7199 L42.0457,50.0083"/>

        </g>

        <g id="product-06-Y07-D">

            <path style="stroke:none; fill:none;" pointer-events="visible" d="M45.656,73.4795 L44.3677,75.8512 L46.7393,77.1395 L48.0277,74.7679 L45.656,73.4795"/>

        </g>

        <g id="product-06-Y02-E">

            <path style="stroke:none; fill:none;" pointer-events="visible" d="M32.7676,97.2036 L34.0559,94.8319 L32.654,94.0704 L32.2523,96.9237 L32.7676,97.2036"/>

        </g>

        <g id="product-06-X09-O">

            <path style="stroke:none; fill:none;" pointer-events="visible" d="M37.8765,56.9619 L38.2782,54.1086 L35.4936,54.7252 L36.0771,57.3604 L37.8765,56.9619"/>

        </g>

        <g id="product-06-Y04-H">

            <path style="stroke:none; fill:none;" pointer-events="visible" d="M33.8429,85.617 L33.4567,88.3605 L34.987,89.1913 L36.2246,86.9107 L33.8429,85.617"/>

        </g>

        <g id="product-06-Y11-N">

            <path style="stroke:none; fill:none;" pointer-events="visible" d="M46.7908,52.586 L48.0791,50.2144 L45.7075,48.926 L44.4191,51.2977 L46.7908,52.586"/>

        </g>

        <g id="product-06-Y03-F">

            <path style="stroke:none; fill:none;" pointer-events="visible" d="M34.0564,94.8311 L35.3447,92.4594 L33.0558,91.216 L32.6541,94.0693 L34.0564,94.8311"/>

        </g>

        <g id="product-06-Y11-M">

            <path style="stroke:none; fill:none;" pointer-events="visible" d="M48.0796,50.2135 L49.03,48.4641 L46.4411,47.5756 L45.708,48.9251 L48.0796,50.2135"/>

        </g>

        <g id="product-06-Y11-O">

            <path style="stroke:none; fill:none;" pointer-events="visible" d="M45.7071,48.9247 L46.4407,47.5754 L43.8513,46.6867 L43.3355,47.6363 L45.7071,48.9247"/>

        </g>

        <g id="product-06-Y02-C">

            <path style="stroke:none; fill:none;" pointer-events="visible" d="M35.1401,98.4925 L36.4284,96.1208 L34.0568,94.8324 L32.7685,97.2041 L35.1401,98.4925"/>

        </g>

        <g id="product-06-Y10-L">

            <path style="stroke:none; fill:none;" pointer-events="visible" d="M45.5309,58.047 L46.8192,55.6753 L45.8942,55.1728 L45.0372,55.9615 L45.0372,55.9615 L44.9763,56.0256 L44.8865,56.135 L44.8045,56.2506 L44.7678,56.311 L44.7678,56.3111 L44.214,57.3316 L45.5309,58.047"/>

        </g>

        <g id="product-06-X11-Ka">

            <path style="stroke:none; fill:none;" pointer-events="visible" d="M29.3521,47.7874 L31.1058,47.3997 L31.0308,47.0655 L30.521,44.7638 L27.9401,45.3359 L29.3521,47.7874"/>

        </g>

        <g id="product-06-Y00-A">

            <path style="stroke:none; fill:none;" pointer-events="visible" d="M31.0468,105.488 L30.5163,109.257 L32.6002,109.55 L33.2751,108.308 L33.9501,107.065 L31.0468,105.488"/>

        </g>

        <g id="product-06-Y01-A">

            <path style="stroke:none; fill:none;" pointer-events="visible" d="M32.5634,103.238 L35.2394,104.692 L36.5278,102.32 L33.8517,100.866 L32.5634,103.238"/>

        </g>

        <g id="product-06-X00-A">

            <path style="stroke:none; fill:none;" pointer-events="visible" d="M30.5153,109.257 L31.0458,105.488 L27.8196,106.202 L28.4311,108.963 L30.5153,109.257"/>

        </g>

        <g id="product-06-Y11-T">

            <path style="stroke:none; fill:none;" pointer-events="visible" d="M39.6732,48.7195 L40.9616,46.3478 L39.4846,45.5455 L39.0829,48.3988 L39.6732,48.7195"/>

        </g>

        <g id="product-06-X01-D">

            <path style="stroke:none; fill:none;" pointer-events="visible" d="M30.2849,102.891 L30.8685,105.526 L31.0459,105.487 L31.4476,102.633 L30.2849,102.891"/>

        </g>

        <g id="product-06-Y01-C">

            <path style="stroke:none; fill:none;" pointer-events="visible" d="M33.8508,100.866 L31.8504,99.7792 L31.4487,102.633 L32.5625,103.238 L33.8508,100.866"/>

        </g>

        <g id="product-06-X01-C">

            <path style="stroke:none; fill:none;" pointer-events="visible" d="M31.4477,102.632 L31.8493,99.7792 L29.7011,100.255 L30.2847,102.89 L31.4477,102.632"/>

        </g>

        <g id="product-06-Y01-D">

            <path style="stroke:none; fill:none;" pointer-events="visible" d="M31.2737,105.61 L32.562,103.238 L31.4486,102.634 L31.0469,105.487 L31.2737,105.61"/>

        </g>

        <g id="product-06-X01-B">

            <path style="stroke:none; fill:none;" pointer-events="visible" d="M30.8675,105.526 L30.2839,102.891 L27.2358,103.566 L27.8194,106.201 L30.8675,105.526"/>

        </g>

        <g id="product-06-Y02-A">

            <path style="stroke:none; fill:none;" pointer-events="visible" d="M35.141,98.4929 L37.8171,99.9467 L39.1055,97.5751 L36.4293,96.1213 L35.141,98.4929"/>

        </g>

        <g id="product-06-Y04-G">

            <path style="stroke:none; fill:none;" pointer-events="visible" d="M33.8429,85.617 L36.2245,86.9107 L37.5632,84.4465 L37.5631,84.4465 L37.5636,84.4456 L37.787,84.0344 L34.331,82.1569 L34.2613,82.652 L34.2611,82.652 L34.2609,82.6523 L34.2612,82.6527 L33.8429,85.617"/>

        </g>

        <g id="product-06-X09-P">

            <path style="stroke:none; fill:none;" pointer-events="visible" d="M37.4747,59.8163 L37.8764,56.963 L36.0774,57.3614 L36.6609,59.9965 L37.4747,59.8163"/>

        </g>

        <g id="product-06-X01-A">

            <path style="stroke:none; fill:none;" pointer-events="visible" d="M29.7001,100.255 L26.6521,100.93 L27.2356,103.565 L30.2837,102.89 L29.7001,100.255"/>

        </g>

        <g id="product-06-Y02-B">

            <path style="stroke:none; fill:none;" pointer-events="visible" d="M33.8522,100.865 L36.5283,102.319 L37.8166,99.9476 L35.1405,98.4938 L33.8522,100.865"/>

        </g>

        <g id="product-06-X02-C">

            <path style="stroke:none; fill:none;" pointer-events="visible" d="M31.6644,97.0537 L31.0808,94.4186 L28.5335,94.9827 L29.1171,97.6179 L31.6644,97.0537"/>

        </g>

        <g id="product-06-Y04-B">

            <path style="stroke:none; fill:none;" pointer-events="visible" d="M42.9721,90.4575 L40.2957,89.0036 L39.0074,91.3753 L41.6837,92.8292 L42.9721,90.4575"/>

        </g>

        <g id="product-06-X02-B">

            <path style="stroke:none; fill:none;" pointer-events="visible" d="M29.6999,100.254 L29.1163,97.6191 L26.0683,98.2941 L26.6518,100.929 L29.6999,100.254"/>

        </g>

        <g id="product-06-X03-A">

            <path style="stroke:none; fill:none;" pointer-events="visible" d="M27.3649,89.7107 L24.3168,90.3857 L24.9004,93.0209 L27.9485,92.3459 L27.3649,89.7107"/>

        </g>

        <g id="product-06-X02-A">

            <path style="stroke:none; fill:none;" pointer-events="visible" d="M28.5325,94.9829 L25.4845,95.658 L26.068,98.2931 L29.1161,97.6181 L28.5325,94.9829"/>

        </g>

        <g id="product-06-X03-B">

            <path style="stroke:none; fill:none;" pointer-events="visible" d="M27.9487,92.3469 L24.9007,93.0219 L25.4842,95.657 L28.5323,94.982 L27.9487,92.3469"/>

        </g>

        <g id="product-06-Y09-L">

            <path style="stroke:none; fill:none;" pointer-events="visible" d="M42.9533,62.7921 L44.2416,60.4204 L42.9246,59.705 L41.6363,62.0766 L42.9533,62.7921"/>

        </g>

        <g id="product-06-Y09-M">

            <path style="stroke:none; fill:none;" pointer-events="visible" d="M42.9242,59.7036 L44.2126,57.332 L41.841,56.0436 L40.5526,58.4152 L42.9242,59.7036"/>

        </g>

        <g id="product-06-Y09-N">

            <path style="stroke:none; fill:none;" pointer-events="visible" d="M42.9238,59.7045 L40.5521,58.4161 L39.2637,60.7878 L41.6354,62.0761 L42.9238,59.7045"/>

        </g>

        <g id="product-06-Y04-A">

            <path style="stroke:none; fill:none;" pointer-events="visible" d="M44.2609,88.085 L41.5845,86.6311 L40.2962,89.0028 L42.9725,90.4567 L44.2609,88.085"/>

        </g>

        <g id="product-06-X06-B">

            <path style="stroke:none; fill:none;" pointer-events="visible" d="M24.4459,76.5299 L21.3978,77.2049 L21.9814,79.84 L25.0295,79.165 L24.4459,76.5299"/>

        </g>

        <g id="product-06-Y06-C">

            <path style="stroke:none; fill:none;" pointer-events="visible" d="M44.3672,75.852 L43.0789,78.2237 L45.4505,79.5121 L46.7389,77.1404 L44.3672,75.852"/>

        </g>

        <g id="product-06-Y06-K">

            <path style="stroke:none; fill:none;" pointer-events="visible" d="M36.5088,74.6557 L35.4666,74.0895 L35.0381,77.1332 L35.1345,77.1855 L36.5088,74.6557"/>

        </g>

        <g id="product-06-X06-A">

            <path style="stroke:none; fill:none;" pointer-events="visible" d="M23.8621,73.8937 L20.814,74.5687 L21.3976,77.204 L24.4457,76.5289 L23.8621,73.8937"/>

        </g>

        <g id="product-06-X02-D">

            <path style="stroke:none; fill:none;" pointer-events="visible" d="M32.2511,96.9248 L29.1173,97.6189 L29.7009,100.254 L31.8495,99.7782 L32.2511,96.9248"/>

        </g>

        <g id="product-06-Y09-O">

            <path style="stroke:none; fill:none;" pointer-events="visible" d="M40.5517,58.4148 L41.8401,56.0431 L38.2792,54.1087 L37.8775,56.962 L40.5517,58.4148"/>

        </g>

        <g id="product-06-X02-E">

            <path style="stroke:none; fill:none;" pointer-events="visible" d="M31.0818,94.4184 L31.6654,97.0535 L32.2513,96.9238 L32.6529,94.0704 L31.0818,94.4184"/>

        </g>

        <g id="product-06-Y09-P">

            <path style="stroke:none; fill:none;" pointer-events="visible" d="M40.5512,58.4156 L37.8774,56.9631 L37.4757,59.8164 L39.2629,60.7873 L40.5512,58.4156"/>

        </g>

        <g id="product-06-X10-Ic">

            <path style="stroke:none; fill:none;" pointer-events="visible" d="M29.4467,54.0415 L29.1089,52.5165 L27.6356,52.8428 L27.9734,54.3678 L29.4467,54.0415"/>

        </g>

        <g id="product-06-Y07-K">

            <path style="stroke:none; fill:none;" pointer-events="visible" d="M39.0581,66.8225 L37.7697,69.1942 L39.0873,69.9099 L40.3756,67.5383 L39.0581,66.8225"/>

        </g>

        <g id="product-06-Y08-I">

            <path style="stroke:none; fill:none;" pointer-events="visible" d="M45.3278,64.288 L42.8678,62.9516 L41.9325,64.6734 L44.3925,66.0098 L45.3278,64.288"/>

        </g>

        <g id="product-06-X04-E">

            <path style="stroke:none; fill:none;" pointer-events="visible" d="M28.7466,83.8739 L29.3302,86.5091 L31.1747,86.1016 L30.9188,84.9462 L30.5909,83.4654 L28.7466,83.8739"/>

        </g>

        <g id="product-06-Y07-E">

            <path style="stroke:none; fill:none;" pointer-events="visible" d="M45.6556,73.4781 L46.9439,71.1065 L45.2084,70.1636 L43.92,72.5353 L45.6556,73.4781"/>

        </g>

        <g id="product-06-Y07-B">

            <path style="stroke:none; fill:none;" pointer-events="visible" d="M49.4168,78.5941 L50.7052,76.2224 L48.0285,74.7683 L46.7402,77.14 L49.4168,78.5941"/>

        </g>

        <g id="product-06-Y08-M">

            <path style="stroke:none; fill:none;" pointer-events="visible" d="M37.9749,63.1603 L40.3465,64.4487 L41.6349,62.077 L39.2633,60.7886 L37.9749,63.1603"/>

        </g>

        <g id="product-06-Y07-L">

            <path style="stroke:none; fill:none;" pointer-events="visible" d="M37.8843,72.1243 L39.0868,69.9108 L37.7692,69.1951 L37.0316,70.5529 L37.0312,70.5527 L37.0311,70.5532 L35.9849,70.4054 L35.8685,71.2341 L37.7981,72.2823 L37.884,72.1241 L37.8843,72.1243"/>

        </g>

        <g id="product-06-Y10-Gb">

            <path style="stroke:none; fill:none;" pointer-events="visible" d="M51.6107,57.4471 L52.3265,56.1295 L50.9996,55.4087 L50.2838,56.7263 L51.6107,57.4471"/>

        </g>

        <g id="product-06-Y10-M">

            <path style="stroke:none; fill:none;" pointer-events="visible" d="M45.5019,54.9586 L46.7903,52.5869 L44.4186,51.2985 L43.1303,53.6702 L45.5019,54.9586"/>

        </g>

        <g id="product-06-Y10-N">

            <path style="stroke:none; fill:none;" pointer-events="visible" d="M45.0365,55.9607 L45.8932,55.1723 L43.1298,53.6711 L41.8414,56.0427 L44.2131,57.3311 L44.7669,56.3106 L44.8037,56.25 L44.8856,56.1345 L44.9755,56.025 L45.0365,55.9607"/>

        </g>

        <g id="product-06-Y10-O">

            <path style="stroke:none; fill:none;" pointer-events="visible" d="M43.1294,53.6697 L44.4178,51.2981 L42.0461,50.0097 L40.7578,52.3813 L43.1294,53.6697"/>

        </g>

        <g id="product-06-Y10-P">

            <path style="stroke:none; fill:none;" pointer-events="visible" d="M41.8406,56.0422 L43.1289,53.6706 L40.7573,52.3822 L39.4689,54.7539 L41.8406,56.0422"/>

        </g>

        <g id="product-06-Y05-Ja">

            <path style="stroke:none; fill:none;" pointer-events="visible" d="M34.3671,82.1754 L35.845,79.4549 L34.7918,78.8828 L34.3311,82.1559 L34.3671,82.1754"/>

        </g>

        <g id="product-06-Y07-I">

            <path style="stroke:none; fill:none;" pointer-events="visible" d="M41.5478,71.2466 L42.8361,68.8749 L40.3756,67.5383 L39.0873,69.9099 L41.5478,71.2466"/>

        </g>

        <g id="product-06-Y05-Ib">

            <path style="stroke:none; fill:none;" pointer-events="visible" d="M36.5472,81.2646 L37.1463,80.1618 L35.8458,79.4554 L35.2468,80.5582 L36.5472,81.2646"/>

        </g>

        <g id="product-06-Y10-Ic">

            <path style="stroke:none; fill:none;" pointer-events="visible" d="M48.0589,57.3004 L48.8062,55.9247 L47.4802,55.2044 L46.7329,56.58 L48.0589,57.3004"/>

        </g>

        <g id="product-06-Y10-Ib">

            <path style="stroke:none; fill:none;" pointer-events="visible" d="M48.8067,55.9239 L49.5225,54.6062 L48.1965,53.8859 L47.4807,55.2035 L48.8067,55.9239"/>

        </g>

        <g id="product-06-X10-F">

            <path style="stroke:none; fill:none;" pointer-events="visible" d="M24.6516,56.6444 L24.169,54.4678 L22.3247,54.8762 L22.9083,57.5114 L24.8502,57.0813 L24.7492,56.6229 L24.6516,56.6444"/>

        </g>

        <g id="product-06-Y10-Ga">

            <path style="stroke:none; fill:none;" pointer-events="visible" d="M51.3413,59.0835 L52.8048,56.3893 L52.3273,56.1299 L50.8638,58.8241 L51.3413,59.0835"/>

        </g>

        <g id="product-06-X04-Ga">

            <path style="stroke:none; fill:none;" pointer-events="visible" d="M31.3036,84.2375 L33.8429,85.617 L34.2604,82.6512 L31.88,83.1789 L31.3036,84.2375"/>

        </g>

        <g id="product-06-Y04-C">

            <path style="stroke:none; fill:none;" pointer-events="visible" d="M39.212,85.3422 L37.9237,87.7139 L40.2953,89.0023 L41.5836,86.6306 L39.212,85.3422"/>

        </g>

        <g id="product-06-Y03-C">

            <path style="stroke:none; fill:none;" pointer-events="visible" d="M36.6344,90.0873 L35.3461,92.459 L37.7177,93.7474 L39.006,91.3757 L36.6344,90.0873"/>

        </g>

        <g id="product-06-Y08-E">

            <path style="stroke:none; fill:none;" pointer-events="visible" d="M48.2332,68.733 L49.5216,66.3614 L47.8749,65.4669 L46.8955,67.2688 L46.8061,67.2203 L46.4972,67.79 L48.2332,68.733"/>

        </g>

        <g id="product-06-X04-A">

            <path style="stroke:none; fill:none;" pointer-events="visible" d="M26.7809,87.0736 L26.1973,84.4384 L23.1492,85.1135 L23.7328,87.7487 L26.7809,87.0736"/>

        </g>

        <g id="product-06-Y03-A">

            <path style="stroke:none; fill:none;" pointer-events="visible" d="M41.6832,92.8301 L39.0069,91.3762 L37.7186,93.7479 L40.3948,95.2017 L41.6832,92.8301"/>

        </g>

        <g id="product-06-X04-D">

            <path style="stroke:none; fill:none;" pointer-events="visible" d="M29.913,89.1454 L29.3294,86.5102 L26.7821,87.0744 L27.3657,89.7095 L29.913,89.1454"/>

        </g>

        <g id="product-06-Y08-F">

            <path style="stroke:none; fill:none;" pointer-events="visible" d="M46.9444,71.1056 L48.2328,68.7339 L46.4726,67.7777 L45.1842,70.1494 L46.9444,71.1056"/>

        </g>

        <g id="product-06-Y07-F">

            <path style="stroke:none; fill:none;" pointer-events="visible" d="M44.3668,75.8507 L45.6551,73.479 L43.9195,72.5362 L42.7171,74.7496 L42.8056,74.7977 L42.7197,74.9559 L44.3668,75.8507"/>

        </g>

        <g id="product-06-Y07-M">

            <path style="stroke:none; fill:none;" pointer-events="visible" d="M37.7688,69.1937 L39.0572,66.8221 L36.672,65.5263 L36.2703,68.3796 L37.7688,69.1937"/>

        </g>

        <g id="product-06-Y05-D">

            <path style="stroke:none; fill:none;" pointer-events="visible" d="M41.5841,86.6297 L42.8724,84.2581 L40.5008,82.9697 L39.2125,85.3414 L41.5841,86.6297"/>

        </g>

        <g id="product-06-Y05-C">

            <path style="stroke:none; fill:none;" pointer-events="visible" d="M41.7896,80.5971 L40.5013,82.9688 L42.8729,84.2572 L44.1612,81.8855 L41.7896,80.5971"/>

        </g>

        <g id="product-06-Y05-F">

            <path style="stroke:none; fill:none;" pointer-events="visible" d="M38.8528,82.0744 L37.9583,83.7211 L37.9583,83.7212 L37.9579,83.7221 L37.9578,83.722 L37.5645,84.4461 L39.2116,85.3409 L40.4999,82.9692 L38.8528,82.0744"/>

        </g>

        <g id="product-06-Y05-E">

            <path style="stroke:none; fill:none;" pointer-events="visible" d="M40.1416,79.7019 L39.2666,81.3126 L39.2667,81.3126 L39.2662,81.3135 L39.2662,81.3134 L38.8533,82.0735 L40.5004,82.9683 L41.7887,80.5967 L40.1416,79.7019"/>

        </g>

        <g id="product-06-Y03-D">

            <path style="stroke:none; fill:none;" pointer-events="visible" d="M35.3456,92.4599 L34.0573,94.8315 L36.4289,96.1199 L37.7172,93.7483 L35.3456,92.4599"/>

        </g>

        <g id="product-06-Y03-B">

            <path style="stroke:none; fill:none;" pointer-events="visible" d="M36.4298,96.1204 L39.106,97.5742 L40.3944,95.2026 L37.7181,93.7487 L36.4298,96.1204"/>

        </g>

        <g id="product-06-Y10-Q">

            <path style="stroke:none; fill:none;" pointer-events="visible" d="M40.7569,52.3808 L42.0452,50.0092 L39.0828,48.3999 L38.6811,51.2532 L40.7569,52.3808"/>

        </g>

        <g id="product-06-Y08-N">

            <path style="stroke:none; fill:none;" pointer-events="visible" d="M39.0577,66.8212 L40.3461,64.4495 L37.0738,62.6719 L36.6721,65.5252 L39.0577,66.8212"/>

        </g>

        <g id="product-06-X09-A">

            <path style="stroke:none; fill:none;" pointer-events="visible" d="M17.8947,61.3871 L20.9428,60.7121 L20.3592,58.0769 L17.3112,58.752 L17.8947,61.3871"/>

        </g>

        <g id="product-06-X09-B">

            <path style="stroke:none; fill:none;" pointer-events="visible" d="M18.4786,64.0232 L21.5266,63.3482 L20.9431,60.713 L17.895,61.3881 L18.4786,64.0232"/>

        </g>

        <g id="product-06-Y06-D">

            <path style="stroke:none; fill:none;" pointer-events="visible" d="M45.4501,79.513 L43.0784,78.2246 L41.7901,80.5963 L44.1617,81.8846 L45.4501,79.513"/>

        </g>

        <g id="product-06-Y06-E">

            <path style="stroke:none; fill:none;" pointer-events="visible" d="M43.078,78.2232 L44.3663,75.8516 L42.7192,74.9568 L41.4309,77.3284 L43.078,78.2232"/>

        </g>

        <g id="product-06-Y10-R">

            <path style="stroke:none; fill:none;" pointer-events="visible" d="M39.468,54.7534 L40.7564,52.3817 L38.681,51.2543 L38.2793,54.1076 L39.468,54.7534"/>

        </g>

        <g id="product-06-Y10-Ha">

            <path style="stroke:none; fill:none;" pointer-events="visible" d="M50.8629,58.8236 L51.6102,57.448 L50.2833,56.7272 L49.536,58.1028 L50.8629,58.8236"/>

        </g>

        <g id="product-06-Y09-H">

            <path style="stroke:none; fill:none;" pointer-events="visible" d="M47.1537,62.0797 L45.8118,64.5498 L47.7886,65.6237 L47.874,65.4664 L47.8739,65.4663 L47.8744,65.4654 L47.8745,65.4655 L49.1304,63.1536 L47.1537,62.0797"/>

        </g>

        <g id="product-06-X-11-H">

            <path style="stroke:none; fill:none;" pointer-events="visible" d="M25.8207,51.5199 L25.1835,48.6426 L22.9877,49.1289 L23.6249,52.0062 L25.8207,51.5199"/>

        </g>

        <g id="product-06-Y09-I">

            <path style="stroke:none; fill:none;" pointer-events="visible" d="M48.56,59.4888 L45.6172,57.8902 L42.8683,62.9507 L45.811,64.5493 L48.56,59.4888"/>

        </g>

        <g id="product-06-Y07-N">

            <path style="stroke:none; fill:none;" pointer-events="visible" d="M37.0311,70.5532 L37.7684,69.1946 L36.2702,68.3807 L35.9849,70.4054 L37.0311,70.5532"/>

        </g>

        <g id="product-06-Y05-Ha">

            <path style="stroke:none; fill:none;" pointer-events="visible" d="M37.9574,83.7207 L39.2653,81.313 L37.1472,80.1623 L35.8393,82.57 L37.9574,83.7207"/>

        </g>

        <g id="product-06-Y10-Ia">

            <path style="stroke:none; fill:none;" pointer-events="visible" d="M49.5352,58.1023 L50.9987,55.4082 L49.5234,54.6067 L48.8076,55.9243 L48.808,55.9246 L48.8075,55.9254 L48.8071,55.9252 L48.0598,57.3008 L49.5352,58.1023"/>

        </g>

        <g id="product-06-Y10-J">

            <path style="stroke:none; fill:none;" pointer-events="visible" d="M48.0777,59.2257 L48.8805,57.7478 L46.4205,56.4114 L45.6177,57.8893 L48.0777,59.2257"/>

        </g>

        <g id="product-06-Y05-Hb">

            <path style="stroke:none; fill:none;" pointer-events="visible" d="M34.368,82.1759 L37.7875,84.0335 L37.9569,83.7215 L34.5374,81.8639 L34.368,82.1759"/>

        </g>

        <g id="product-06-Y07-H">

            <path style="stroke:none; fill:none;" pointer-events="visible" d="M42.806,74.7979 L44.0085,72.5845 L41.5482,71.248 L40.3458,73.4615 L42.806,74.7979"/>

        </g>

        <g id="product-06-Y06-H">

            <path style="stroke:none; fill:none;" pointer-events="visible" d="M39.4862,76.194 L38.0787,78.7849 L40.0553,79.8587 L41.4627,77.2677 L39.4862,76.194"/>

        </g>

        <g id="product-06-Y06-G">

            <path style="stroke:none; fill:none;" pointer-events="visible" d="M39.4867,76.1931 L41.4632,77.2668 L42.8043,74.7981 L40.8278,73.7244 L39.4867,76.1931"/>

        </g>

        <g id="product-06-X10-Ib">

            <path style="stroke:none; fill:none;" pointer-events="visible" d="M25.9954,53.206 L26.6583,56.1995 L28.2976,55.8365 L27.9726,54.369 L27.9721,54.3691 L27.9719,54.3682 L27.9724,54.368 L27.6347,52.843 L25.9954,53.206"/>

        </g>

        <g id="product-06-Y05-G">

            <path style="stroke:none; fill:none;" pointer-events="visible" d="M40.0548,79.8596 L37.5959,78.5238 L36.8068,79.9763 L39.2658,81.3121 L40.0548,79.8596"/>

        </g>

        <g id="product-06-Y10-Ka">

            <path style="stroke:none; fill:none;" pointer-events="visible" d="M47.9723,53.7629 L48.1962,53.3507 L46.7912,52.5874 L45.5028,54.959 L45.894,55.1716 L47.6279,53.5759 L47.9723,53.7629"/>

        </g>

        <g id="product-06-Y06-I">

            <path style="stroke:none; fill:none;" pointer-events="visible" d="M38.0778,78.7845 L40.8269,73.724 L37.8844,72.1255 L37.799,72.2827 L37.799,72.2828 L37.7986,72.2837 L37.7985,72.2836 L35.1354,77.186 L38.0778,78.7845"/>

        </g>

        <g id="product-06-Y07-A">

            <path style="stroke:none; fill:none;" pointer-events="visible" d="M50.7057,76.2215 L51.9941,73.8499 L49.3173,72.3958 L48.029,74.7675 L50.7057,76.2215"/>

        </g>

        <g id="product-06-Y02-D">

            <path style="stroke:none; fill:none;" pointer-events="visible" d="M32.2522,96.9248 L31.8505,99.7781 L33.8513,100.865 L35.1396,98.4933 L32.2522,96.9248"/>

        </g>

    </g>

    </g>
</g></svg>