<svg xmlns="http://www.w3.org/2000/svg" xmlns:xlink="http://www.w3.org/1999/xlink" ><defs><style>.cls-1,.cls-10,.cls-11,.cls-6,.cls-7,.cls-8,.cls-9{fill:none;}.cls-2{clip-path:url(#clip-path);}.cls-3{fill:#b4897d;}.cls-4{clip-path:url(#clip-path-2);}.cls-5{clip-path:url(#clip-path-3);}.cls-10,.cls-11,.cls-6,.cls-7,.cls-8,.cls-9{stroke:#b4897d;}.cls-6{stroke-miterlimit:10;}.cls-11,.cls-6,.cls-7,.cls-8,.cls-9{stroke-width:0.08px;}.cls-10,.cls-8{stroke-linecap:square;}.cls-11,.cls-9{stroke-linecap:round;}.cls-9{stroke-miterlimit:3;}.cls-10{stroke-width:0.16px;}.cls-11{stroke-linejoin:round;}</style><clipPath id="clip-path"><rect class="cls-1" x="36.3177" y="73.0491" width="3.9196" height="3.6694" transform="matrix(0.4715, -0.8819, 0.8819, 0.4715, -45.8078, 73.3303)"/></clipPath><clipPath id="clip-path-2"><rect class="cls-1" x="43.4348" y="59.9585" width="3.9096" height="3.6351" transform="translate(-30.623 71.7045) rotate(-61.1352)"/></clipPath><clipPath id="clip-path-3"><rect class="cls-1" x="24.9419" y="46.0085" width="3.6351" height="3.9096" transform="translate(-9.6224 6.8183) rotate(-12.3264)"/></clipPath></defs><title>1</title><g id="map"><g id="escape"><g class="cls-2"><path class="cls-3" d="M37.6308,72.4518l3.021,1.6233-.0315.0586L37.5994,72.51Zm2.7831,2.078-3.0058-1.6152-.0316.0586,3.006,1.6152Zm-3.321,1.8057,0,.0006.0983.053,1.2-2.2287.4266.23L38.63,74.74l-.0034-.0018-.0314.0586.0032.0017-.9711,1.803.0473.0256-.0013.0023,1.2162.6536.0315-.0586-1.1651-.6261.2109-.3916,1.1474.6166.0314-.0586-1.1472-.6165.2116-.3931,1.1887.6387.0315-.0585-1.1886-.6387.2119-.3933,1.1579.6221.0314-.0586-1.1579-.6221.2118-.3934,1.176.6316.0315-.0587-1.1759-.6314.213-.3957,1.188.6394.0316-.0586L37.194,73.38l-.0315.0586,1.1552.6222-.21.3905L36.94,73.8242l-.0316.0587,1.1678.6273-.2118.3933-1.1674-.6274-.0315.0586,1.1674.6273-.2118.3932-1.151-.6184-.0314.0586,1.1508.6185-.2117.3931L36.2109,75.18l-.0315.0586,1.1665.6268-.2216.4114-1.1815-.6349-.0315.0586Z"/></g></g><g id="escape-2" data-name="escape"><g class="cls-4"><path class="cls-3" d="M45.9934,64.2042,43.0215,62.558l.0321-.058,2.9718,1.6462Zm-2.7289-2.0967,2.957,1.638.0322-.0579L43.2967,62.05Zm3.3229-1.7654,0-.0006-.0967-.0537-1.2256,2.2075-.42-.2329.1921-.3461.0032.0018.0321-.058-.0031-.0018.9915-1.7859-.0465-.0259.0012-.0023L44.82,59.3814l-.0322.058,1.1463.635-.2154.3879L44.59,59.837l-.0321.058,1.1286.6253-.216.3893-1.1694-.6478-.0322.058,1.1694.6477-.2164.39-1.1391-.6309-.0321.058,1.1391.6309-.2162.39-1.1316-.6256-.0322.0581,1.1315.6254-.2175.3919-1.1687-.6483-.0322.058,2.9459,1.6349.0322-.058-1.164-.6464.2147-.3868,1.1488.6364.0322-.0581L45.5838,62.15l.2162-.39,1.1485.6362.0321-.058-1.1484-.6362.2163-.3895,1.1322.6272.0321-.0581-1.1321-.6272.2162-.3893,1.1475.6357.0322-.0581-1.1475-.6356.2262-.4075,1.1624.6439.0321-.0581Z"/></g></g><g id="escape-3" data-name="escape"><g class="cls-5"><path class="cls-3" d="M24.7059,46.5336l3.3206-.7184.014.0648-3.3205.7184Zm3.4344-.2193-3.304.7147.0139.0649,3.3041-.7148Zm-1.338,3.5168,0,.0007.1081-.0232L26.3791,47.34l.4692-.1011.0833.3869-.0036.0008.0141.0648.0035-.0008.43,1.9969.0521-.0111,0,.0026L28.765,49.39l-.0139-.0648-1.2808.277-.0933-.4337,1.2612-.2728-.0141-.0648-1.2611.2727-.0938-.4352,1.3066-.2827-.014-.0648-1.3065.2826-.0937-.4356,1.2726-.2754-.014-.0648-1.2727.2754-.0939-.4356,1.2816-.2754-.0141-.0649-1.2814.2754-.0944-.4381,1.3064-.2818-.0139-.0649-3.2814.7055.0141.0648,1.2893-.2758.0932.4324-1.2836.2777.0141.065,1.2834-.2778.0939.4355-1.2833.2776.0141.0648,1.2831-.2776.0937.4355-1.265.2738.0141.0648,1.265-.2736.0937.4353-1.2822.2774.014.0648,1.2821-.2773.0982.4556-1.2988.281.0141.0648Z"/></g></g><polyline class="cls-6" points="18.427 36.381 19.098 39.415 18.057 39.651"/><polyline class="cls-6" points="11.863 32.296 17.132 31.137 18.301 36.408 18.427 36.381"/><polyline class="cls-6" points="19.411 31.922 19.749 33.321 24.967 32.167 24.382 29.53 22.055 18.985 16.581 20.197 18.618 29.4"/><line class="cls-6" x1="19.1656" y1="30.6863" x2="24.3825" y2="29.5302"/><polyline class="cls-6" points="18.819 30.285 18.914 30.741 19.166 30.686 19.241 31.029"/><polyline class="cls-6" points="21.723 35.634 22.817 35.408 22.232 32.767"/><polyline class="cls-6" points="20.793 35.885 20.082 36.015 19.498 33.378 19.749 33.321"/><path class="cls-6" d="M23.51,35.2388"/><line class="cls-6" x1="23.5096" y1="35.2388" x2="22.8169" y2="35.408"/><path class="cls-6" d="M24.9666,32.1673"/><polyline class="cls-6" points="21.19 37.918 20.51 38.068 21.25 41.285 23.23 40.847 22.516 37.623 22.117 37.712"/><polyline class="cls-6" points="23.23 40.847 28.451 39.691 27.737 36.467 27.567 36.505"/><line class="cls-6" x1="26.5538" y1="36.7292" x2="24.8942" y2="37.0973"/><line class="cls-6" x1="24.0252" y1="37.2898" x2="22.5158" y2="37.6235"/><line class="cls-6" x1="21.2497" y1="41.2854" x2="21.3995" y2="42.0829"/><polyline class="cls-6" points="21.592 42.952 21.997 44.654 29.197 43.059 28.451 39.691"/><polyline class="cls-6" points="28.863 41.717 31.583 41.123 31.274 39.719 33.695 39.182"/><path class="cls-6" d="M22.0551,18.9853"/><line class="cls-6" x1="33.5634" y1="19.5282" x2="32.5999" y2="21.2795"/><line class="cls-6" x1="33.184" y1="25.1971" x2="35.8685" y2="26.6882"/><polyline class="cls-6" points="35.649 20.661 33.184 25.197 31.076 24.085 32.137 22.131"/><polyline class="cls-6" points="14.261 43.17 16.523 42.668 16.162 41.177"/><polyline class="cls-6" points="15.986 40.324 15.947 40.113 13.695 40.612"/><path class="cls-6" d="M16.667,42.634"/><line class="cls-6" x1="16.5226" y1="42.668" x2="16.667" y2="42.634"/><line class="cls-6" x1="17.5359" y1="42.4415" x2="18.5149" y2="42.2247"/><line class="cls-6" x1="19.1268" y1="39.6087" x2="19.0983" y2="39.4148"/><path class="cls-6" d="M19.3192,40.4777"/><polyline class="cls-6" points="19.396 42.03 19.664 41.973 19.319 40.478"/><polyline class="cls-6" points="14.756 45.355 18.511 44.525 18.027 42.333"/><polyline class="cls-6" points="19.664 41.973 20.149 44.161 18.511 44.525"/><line class="cls-6" x1="17.8841" y1="48.7354" x2="17.5436" y2="47.3002"/><line class="cls-6" x1="18.5633" y1="47.0806" x2="19.554" y2="46.8612"/><line class="cls-6" x1="18.5687" y1="44.7802" x2="19.0515" y2="46.965"/><line class="cls-6" x1="15.326" y1="47.793" x2="17.6944" y2="47.273"/><polyline class="cls-6" points="20.423 46.669 20.69 46.603 20.206 44.417 14.816 45.611"/><line class="cls-6" x1="19.1822" y1="49.5709" x2="18.1047" y2="49.8096"/><polyline class="cls-6" points="20.197 49.346 21.246 49.114 21.194 48.879"/><line class="cls-6" x1="21.2463" y1="49.1138" x2="22.3014" y2="53.9554"/><path class="cls-6" d="M24.8454,53.3765S25.99,58.3047,25.9607,58.37l.4947-.1085"/><polyline class="cls-6" points="28.377 56.786 27.517 52.798 22.301 53.955"/><line class="cls-6" x1="25.0779" y1="58.5667" x2="25.9607" y2="58.3701"/><polyline class="cls-6" points="27.426 58.064 28.634 57.779 29.115 59.952"/><polyline class="cls-6" points="27.699 51.104 25.822 51.519 24.615 46.071 27.886 45.347 29.092 50.795 28.568 50.912"/><polyline class="cls-6" points="23.497 51.411 23.625 52.005 25.822 51.519"/><path class="cls-6" d="M23.3188,50.5461c-.0211-.02-.331-1.4191-.331-1.4191l2.1848-.4828"/><line class="cls-6" x1="27.7373" y1="36.4671" x2="32.8423" y2="35.3365"/><polyline class="cls-6" points="30.671 38.049 30.741 38.364 28.281 38.923"/><line class="cls-6" x1="30.2608" y1="36.1839" x2="30.2026" y2="35.9268"/><polyline class="cls-6" points="24.425 35.068 25.55 34.804 24.967 32.167"/><line class="cls-6" x1="26.0632" y1="62.9117" x2="26.9454" y2="62.7173"/><polyline class="cls-6" points="28.383 62.377 29.582 62.122 29.115 59.952 25.558 60.739"/><polyline class="cls-6" points="29.818 63.187 30.607 66.683 30.946 66.608 31.118 67.513"/><polyline class="cls-6" points="33.058 68.703 31.487 69.051 31.622 69.664 29.23 70.195 29.798 72.763"/><line class="cls-6" x1="27.7265" y1="70.5267" x2="29.2298" y2="70.1948"/><polyline class="cls-6" points="30.607 66.683 27.05 67.472 26.04 62.913 26.538 62.802"/><polyline class="cls-6" points="32.001 71.372 32.191 72.233 28.295 73.095 29.424 78.191 33.465 77.297 35.569 73.36 34.386 68.41 34.318 68.1 37.277 67.445 37.24 67.235"/><polyline class="cls-6" points="38.078 78.784 40.828 73.723 37.858 72.13 36.838 74.049 35.569 73.36"/><polyline class="cls-6" points="37.858 72.13 38.722 70.582 43.643 73.256 41.465 77.266 39.487 76.208"/><line class="cls-6" x1="40.8267" y1="78.457" x2="41.4647" y2="77.2659"/><path class="cls-6" d="M40.5706,81.557c.02-.0523.5761-1.0979.5761-1.0979l-1.1032-.6208"/><polyline class="cls-6" points="40.131 82.365 39.956 82.673 35.403 80.199 36.619 77.991 38.078 78.784 40.056 79.877 40.359 79.302"/><line class="cls-6" x1="39.7548" y1="83.0427" x2="39.9559" y2="82.6726"/><polyline class="cls-6" points="39.319 83.845 38.666 85.043 34.261 82.65 34.115 82.571 35.403 80.199"/><line class="cls-6" x1="37.994" y1="86.3025" x2="38.6663" y2="85.0435"/><path class="cls-6" d="M34.7981,79.256"/><polyline class="cls-6" points="37.566 87.087 37.378 87.418 32.825 84.944 34.115 82.571"/><line class="cls-6" x1="37.2" y1="87.7642" x2="37.3783" y2="87.4177"/><polyline class="cls-6" points="36.761 88.573 35.957 90.034 33.67 88.816 33.502 88.046 32.825 84.944 32.888 84.829"/><polyline class="cls-6" points="34.977 90.712 34.358 91.92 33.67 88.816"/><line class="cls-6" x1="35.4186" y1="89.9688" x2="35.5082" y2="89.7951"/><polyline class="cls-6" points="29.23 98.179 31.195 97.744 34.358 91.92"/><polyline class="cls-6" points="32.793 79.802 31.168 80.16 33.664 91.43 30.441 97.362 28.223 97.853"/><line class="cls-6" x1="33.8174" y1="79.5742" x2="35.9581" y2="79.1007"/><line class="cls-6" x1="35.5125" y1="77.3897" x2="35.0385" y2="77.1323"/><line class="cls-6" x1="35.1084" y1="77.1914" x2="36.8381" y2="74.0493"/><line class="cls-6" x1="41.249" y1="71.9758" x2="41.7654" y2="71.0251"/><polyline class="cls-6" points="42.622 69.477 42.826 69.073 42.739 69.025 40.29 67.695 41.666 65.165 44.126 66.502 43.74 67.211"/><line class="cls-6" x1="43.0952" y1="68.3978" x2="42.7386" y2="69.0251"/><path class="cls-6" d="M45.8114,64.5484"/><polyline class="cls-6" points="41.666 65.165 42.841 62.956 45.811 64.548 47.154 62.079 49.131 63.153 47.789 65.622"/><polyline class="cls-6" points="42.841 62.956 43.738 61.348 42.869 60.891"/><path class="cls-7" d="M44.1262,66.502"/><polyline class="cls-7" points="44.126 66.502 46.586 67.838 47.789 65.622"/><line class="cls-6" x1="49.1308" y1="63.1527" x2="49.7339" y2="62.0443"/><line class="cls-6" x1="34.7225" y1="79.3714" x2="34.3276" y2="82.1378"/><polyline class="cls-6" points="15.866 50.305 18.105 49.81 18.059 49.604"/><polyline class="cls-6" points="26.063 62.912 24.814 57.499 17.772 59.001"/><polyline class="cls-6" points="34.951 70.774 37.182 70.275 37.662 70.513"/><polyline class="cls-6" points="29.092 50.795 29.441 52.373 31.388 61.164"/><polyline class="cls-6" points="29.873 54.276 29.268 54.385 28.855 52.517 29.441 52.373"/><path class="cls-6" d="M27.441,43.4482"/><line class="cls-6" x1="21.9972" y1="44.6539" x2="22.9878" y2="49.127"/><line class="cls-6" x1="15.9472" y1="40.1131" x2="17.0551" y2="39.8672"/><line class="cls-6" x1="28.2954" y1="73.0953" x2="27.05" y2="67.4717"/><line class="cls-6" x1="20.6898" y1="46.6034" x2="21.015" y2="48.0697"/><line class="cls-6" x1="30.9507" y1="79.1774" x2="31.1684" y2="80.1603"/><polyline class="cls-6" points="29.174 45.042 35.078 43.754 34.997 43.363 34.634 43.443 34.668 43.597 32.251 44.132 31.583 41.123"/><line class="cls-6" x1="20.1489" y1="44.1609" x2="20.2057" y2="44.4175"/><polyline class="cls-8" points="32.131 64.516 36.418 63.563 36.483 63.861"/><polyline class="cls-6" points="36.656 64.673 36.893 65.711 34.479 66.238 32.606 66.66 31.388 61.164 35.677 60.214 36.166 62.463"/><line class="cls-6" x1="36.4176" y1="63.5627" x2="36.374" y2="63.3191"/><polyline class="cls-7" points="41.84 60.317 39.921 59.274 35.677 60.214"/><line class="cls-6" x1="36.8932" y1="65.7111" x2="37.0328" y2="66.3025"/><polyline class="cls-6" points="37.277 67.445 37.676 69.335 37.182 70.275"/><line class="cls-6" x1="47.1541" y1="62.0788" x2="47.7509" y2="60.9961"/><line class="cls-7" x1="39.9213" y1="59.2743" x2="45.542" y2="58.0284"/><polyline class="cls-7" points="48.693 59.559 50.538 60.561 50.315 60.975"/><line class="cls-9" x1="45.6028" y1="57.911" x2="43.7377" y2="61.3479"/><polygon class="cls-10" points="22.597 13.231 7.949 16.475 21.68 78.479 28.254 97.936 28.381 97.936 28.456 98.276 29.227 98.105 31.226 107.136 31.397 107.16 50.385 72.206 49.069 71.493 51 67.928 52.32 68.644 68.606 38.664 61.853 34.995 53.329 39.318 34.634 43.443 32.842 35.336 32.935 35.316 35.831 26.995 35.904 26.675 37.116 27.366 39.084 22.168 22.597 13.231"/><polyline class="cls-8" points="25.906 90.86 26.322 90.719 22.05 78.321 8.4 16.683 22.558 13.55 38.781 22.363 38.246 23.793 38.445 23.857"/></g><g id="bigstair_coirrect"><line class="cls-9" x1="40.1075" y1="42.6178" x2="40.0226" y2="42.2543"/><line class="cls-11" x1="54.286" y1="43.7708" x2="56.7603" y2="47.6742"/><line class="cls-11" x1="53.9311" y1="44.4469" x2="56.1221" y2="47.9033"/><line class="cls-11" x1="53.2544" y1="44.6283" x2="55.4811" y2="48.141"/><line class="cls-11" x1="52.5686" y1="44.8122" x2="54.8266" y2="48.3742"/><line class="cls-11" x1="51.8442" y1="45.0064" x2="54.131" y2="48.6167"/><line class="cls-11" x1="50.7242" y1="44.6004" x2="53.4259" y2="48.8626"/><line class="cls-11" x1="49.1084" y1="45.7347" x2="51.5153" y2="49.5317"/><line class="cls-11" x1="48.4232" y1="45.8996" x2="50.9166" y2="49.8331"/><line class="cls-11" x1="47.7219" y1="46.0684" x2="50.2889" y2="50.118"/><polyline class="cls-11" points="55.509 49.524 56.427 51.981 53.446 55.234"/><polyline class="cls-11" points="50.751 44.594 51.195 43.784 54.605 43.026 53.931 44.447 51.122 45.2"/><line class="cls-11" x1="57.3971" y1="47.4781" x2="53.2207" y2="48.9341"/><polyline class="cls-11" points="44.773 54.188 42.028 51.29 41.87 50.574"/><line class="cls-11" x1="45.265" y1="53.4409" x2="42.292" y2="50.3023"/><line class="cls-11" x1="46.1278" y1="52.1292" x2="43.6028" y2="49.4634"/><line class="cls-11" x1="45.6824" y1="52.7191" x2="42.9843" y2="49.8706"/><line class="cls-11" x1="46.5433" y1="51.4975" x2="44.2196" y2="49.0442"/><line class="cls-11" x1="46.7183" y1="58.4872" x2="51.5153" y2="49.5317"/><line class="cls-9" x1="51.5091" y1="49.5541" x2="49.6458" y2="50.4672"/><line class="cls-9" x1="46.9685" y1="46.2498" x2="49.1084" y2="45.7347"/><path class="cls-11" d="M54.6047,43.0257,57.418,47.444s-5.0717,5.525-5.1465,5.6066S48.6928,59.56,48.6928,59.56l-3.09-1.6488m0,0,0,0,4.043-7.4438L46.9685,46.25l-1.3448.3236-5.2711-2.8491-.2451-1.1065,5.7808,3.1384,4.8779-1.184M47.7831,59.0657l5.4376-10.1316m-12.8681-5.21,1.517,6.85,2.3281-1.4924M40.57,44.853m5.9733,6.6445-1.77,2.6907.8294,3.7228m-.5062-2.272,1.6849-3.1125-.2392-1.0217M44.22,49.0191,43.66,46.3686l-3.0537-1.4977"/></g><g id="anchor"><line class="cls-1" x2="1.5833"/></g></svg>