<svg xmlns="http://www.w3.org/2000/svg" xmlns:xlink="http://www.w3.org/1999/xlink" viewBox="0 0 68.7141 107.2466"><defs><style>.cls-1,.cls-10,.cls-11,.cls-12,.cls-8,.cls-9{fill:none;}.cls-2{fill:#746758;}.cls-10,.cls-12,.cls-2,.cls-7,.cls-8,.cls-9{stroke:#b4897d;}.cls-2,.cls-7{stroke-miterlimit:10;}.cls-10,.cls-11,.cls-2,.cls-7,.cls-8,.cls-9{stroke-width:0.08px;}.cls-3{clip-path:url(#clip-path);}.cls-4{fill:#b4897d;}.cls-5{clip-path:url(#clip-path-2);}.cls-6{clip-path:url(#clip-path-3);}.cls-7{fill:#fff;}.cls-8,.cls-9{stroke-linecap:round;}.cls-8{stroke-linejoin:round;}.cls-9{stroke-miterlimit:3;}.cls-11{stroke:#000;}.cls-12{stroke-width:0.16px;}</style><clipPath id="clip-path"><rect class="cls-1" x="24.8636" y="45.7554" width="3.6351" height="3.9096" transform="translate(-9.9924 7.1738) rotate(-12.9204)"/></clipPath><clipPath id="clip-path-2"><rect class="cls-1" x="43.4758" y="59.9627" width="3.9096" height="3.6351" transform="translate(-30.6056 71.7426) rotate(-61.1352)"/></clipPath><clipPath id="clip-path-3"><rect class="cls-1" x="36.2891" y="73.095" width="3.9196" height="3.6694" transform="matrix(0.4715, -0.8819, 0.8819, 0.4715, -45.8634, 73.3294)"/></clipPath></defs><title>2</title><g id="Atrium"><polygon class="cls-2" points="34.792 69.462 29.41 45.018 40.114 42.672 41.93 50.875 42.023 51.265 44.798 54.196 45.122 55.647 36.931 70.74 34.792 69.462"/></g><g id="Stairs"><g class="cls-3"><path class="cls-4" d="M24.6129,46.3019l3.3129-.7527.0148.0646-3.3129.7528Zm3.4319-.2548-3.2963.7489.0146.0647,3.2964-.749Zm-1.3014,3.53,0,.0007.1078-.0244-.5571-2.4627.4682-.1059.0873.386-.0036.0009.0147.0646.0036-.0008.4507,1.9923.0519-.0116.0006.0025,1.3337-.303-.0146-.0647-1.2778.29-.0979-.4327,1.2583-.2859-.0147-.0646-1.2582.2858-.0983-.4343,1.3036-.2962-.0147-.0647-1.3035.2962-.0982-.4346,1.27-.2886-.0147-.0647-1.27.2886-.0983-.4346,1.312-.3-.0147-.0647-1.3119.3-.099-.4371,1.3034-.2954-.0146-.0647-3.2818.7426.0147.0647,1.2944-.2923.0977.4314-1.2807.291.0147.0648,1.2806-.2911.0983.4345-1.28.2909.0147.0647L26.4,48.06l.0983.4345-1.2622.2869.0148.0646,1.2621-.2867.0982.4344-1.2793.2907.0147.0646,1.2792-.2906.1029.4546-1.2958.2944.0147.0647Z"/></g><g class="cls-5"><path class="cls-4" d="M46.0343,64.2085l-2.9719-1.6463.0321-.058L46.0664,64.15Zm-2.7288-2.0968,2.957,1.6381.0322-.058-2.9571-1.6381Zm3.2266-1.82L45.3065,62.5l-.42-.233,1.2158-2.19-1.2869-.7159-.0322.058,1.1915.66-.2154.3878-1.1831-.6547-.0321.058,1.183.6547-.2161.3893-1.1694-.6477-.0321.058,1.1693.6477-.2164.3895-1.1764-.6476-.0321.0581,1.1765.6476-.2163.39-1.1791-.6561-.0321.0581,1.179.656-.2175.3919-1.1687-.6483-.0322.058,2.9246,1.6188.0322-.058-1.1427-.63.2146-.3868,1.1488.6364.0322-.0582-1.1487-.6362.2161-.3895,1.1485.6362.0321-.058-1.1484-.6362.2163-.3894,1.1323.6271.0321-.058-1.1322-.6272.2162-.3894,1.1476.6357.0321-.058L46.37,60.8119l.2263-.4075,1.1323.63.0322-.058Z"/></g><g class="cls-6"><path class="cls-4" d="M37.6333,72.5157l2.99,1.6053-.0314.0586-2.99-1.6053Zm2.7521,2.06L37.38,72.9605l-.0316.0585,3.0059,1.6153Zm-1.4915,2.7652.0316-.0585-1.1985-.6387.211-.3916,1.1474.6166.0314-.0586L37.97,76.1935l.2116-.393,1.1887.6387.0315-.0585-1.1887-.6387.2119-.3933,1.1579.6221.0315-.0586L38.4561,75.29l.2118-.3934,1.1792.6366.0314-.0586-1.1791-.6365.2131-.3957,1.188.6393.0316-.0585-2.9359-1.58-.0315.0586,1.1245.6051-.21.3905L36.9111,73.87l-.0315.0587,1.1677.6273-.2117.3932-1.1675-.6273-.0314.0586,1.1674.6273-.2119.3932-1.1509-.6184-.0315.0586,1.1509.6185-.2118.393-1.1665-.6268-.0315.0586,1.1665.6268-.2216.4114-1.1816-.6349-.0315.0586,1.1816.6349,0,.0006.0982.0529,1.2-2.2286.4266.23-1.1908,2.2109Z"/></g><path class="cls-7" d="M37.4678,65.93l-.934,4.6287-1.6208-.9448,1.5042-10.4258,3.4143.4807Zm2.1549-5.7082-3.2848-.4843m3.0789,1.03-3.1618-.4552m-.0821.5693,3.0293.4178m-.21.5435-2.91-.4133m-.0843.5661,2.7845.3907m-2.8515.17,2.6729.3634m-.2118.5609-2.5482-.3585m2.3413.9067-2.4182-.336m-.0781.5417,2.2844.328m-2.3643.2254,2.1614.34M35.4154,66.18l1.975.2419m-2.0625.3165,1.921.2762m-.113.56-1.8911-.2607m-.0775.5374,1.8265.2783m-.0841.566L35.0852,68.42m-.0829.5745,1.7953.2565"/><g id="bigstairs_copy_from_1" data-name="bigstairs copy from 1"><line class="cls-8" x1="54.286" y1="43.7708" x2="56.7603" y2="47.6742"/><line class="cls-8" x1="53.9311" y1="44.4469" x2="56.1221" y2="47.9033"/><line class="cls-8" x1="53.2544" y1="44.6283" x2="55.4811" y2="48.141"/><line class="cls-8" x1="52.5686" y1="44.8122" x2="54.8266" y2="48.3742"/><line class="cls-8" x1="51.8442" y1="45.0064" x2="54.131" y2="48.6167"/><line class="cls-8" x1="50.7242" y1="44.6004" x2="53.4259" y2="48.8626"/><line class="cls-8" x1="49.1084" y1="45.7347" x2="51.5153" y2="49.5317"/><line class="cls-8" x1="48.4232" y1="45.8996" x2="50.9166" y2="49.8331"/><line class="cls-8" x1="47.7219" y1="46.0684" x2="50.2889" y2="50.118"/><polyline class="cls-8" points="55.509 49.524 56.427 51.981 53.446 55.234"/><polyline class="cls-8" points="50.751 44.594 51.195 43.784 54.605 43.026 53.931 44.447 51.122 45.2"/><line class="cls-8" x1="57.3971" y1="47.4781" x2="53.2207" y2="48.9341"/><polyline class="cls-8" points="44.773 54.188 42.028 51.29 41.87 50.574"/><line class="cls-8" x1="45.265" y1="53.4409" x2="42.292" y2="50.3023"/><line class="cls-8" x1="46.1278" y1="52.1292" x2="43.6028" y2="49.4634"/><line class="cls-8" x1="45.6824" y1="52.7191" x2="42.9843" y2="49.8706"/><line class="cls-8" x1="46.5433" y1="51.4975" x2="44.2196" y2="49.0442"/><line class="cls-8" x1="46.7183" y1="58.4872" x2="51.5153" y2="49.5317"/><line class="cls-9" x1="51.5091" y1="49.5541" x2="49.6458" y2="50.4672"/><line class="cls-9" x1="46.9685" y1="46.2498" x2="49.1084" y2="45.7347"/><path class="cls-8" d="M54.6047,43.0257,57.418,47.444s-5.0717,5.525-5.1465,5.6066S48.6928,59.56,48.6928,59.56l-3.09-1.6488m0,0,0,0,4.043-7.4438L46.9685,46.25l-1.3448.3236-5.2711-2.8491-.2389-1.0527.0573-.0193,5.7173,3.1039,4.8779-1.184M47.7831,59.0657l5.4376-10.1316m-12.8681-5.21,1.517,6.85,2.3281-1.4924M40.57,44.853m5.9733,6.6445-1.77,2.6907.8294,3.7228m-.5062-2.272,1.6849-3.1125-.2392-1.0217M44.22,49.0191,43.66,46.3686l-3.0537-1.4977"/></g></g><g id="NEW_Inner" data-name="NEW Inner"><line class="cls-10" x1="15.7305" y1="39.7731" x2="21.3148" y2="38.5151"/><line class="cls-10" x1="22.2814" y1="38.301" x2="23.1655" y2="38.0972"/><polyline class="cls-10" points="19.603 38.883 21.507 47.771 17.698 48.612 17.581 48.085"/><path class="cls-10" d="M17.3838,47.1923c-.01-.0468-.2861-1.2914-.2861-1.2914"/><line class="cls-10" x1="16.9117" y1="45.0608" x2="16.6706" y2="43.9725"/><polyline class="cls-10" points="16.482 43.122 16.317 42.377 20.166 41.534"/><line class="cls-10" x1="24.7222" y1="39.7684" x2="23.3557" y2="38.9248"/><polyline class="cls-10" points="25.659 40.396 26.723 41.088 27.453 44.381"/><polyline class="cls-10" points="27.652 51.113 23.625 52.007 21.293 52.521 21.104 51.723"/><line class="cls-10" x1="20.303" y1="48.0318" x2="20.5434" y2="49.134"/><polyline class="cls-10" points="25.82 51.517 25.183 48.64 22.987 49.125 23.138 49.813 20.808 50.329 20.741 50.026"/><line class="cls-10" x1="24.5378" y1="45.8947" x2="25.1829" y2="48.6402"/><polyline class="cls-10" points="22.987 49.125 22.379 46.38 27.846 45.17 29.092 50.796 28.653 50.893"/><path class="cls-10" d="M21.2872,46.7959c.0344,0,1.13-.2421,1.13-.2421"/><line class="cls-10" x1="23.3427" y1="50.7371" x2="23.138" y2="49.8126"/><line class="cls-10" x1="20.8079" y1="50.3286" x2="20.9104" y2="50.7949"/><polyline class="cls-10" points="19.224 51.781 19.477 52.923 16.651 53.531"/><line class="cls-10" x1="19.7353" y1="52.8656" x2="19.4766" y2="52.9229"/><line class="cls-10" x1="20.6705" y1="52.6625" x2="21.2933" y2="52.5205"/><polyline class="cls-10" points="16.017 50.74 18.854 50.111 19.005 50.795"/><line class="cls-10" x1="21.1933" y1="54.3955" x2="17.0483" y2="55.3261"/><polyline class="cls-10" points="22.173 54.19 22.333 54.154 23.068 57.474 25.225 56.997 25.191 56.842 25.25 56.829"/><line class="cls-10" x1="25.9957" y1="53.3417" x2="22.3326" y2="54.1545"/><polyline class="cls-10" points="26.752 53.176 27.095 53.1 27.554 55.245"/><polyline class="cls-10" points="24.549 53.657 25.25 56.829 27.826 56.258 30.185 55.735 29.855 54.244 27.457 54.791"/><line class="cls-10" x1="27.757" y1="56.0851" x2="27.7963" y2="56.2747"/><line class="cls-10" x1="27.3346" y1="53.0545" x2="27.0953" y2="53.0997"/><polyline class="cls-10" points="28.195 52.856 29.485 52.571 29.855 54.244"/><line class="cls-10" x1="29.227" y1="51.4081" x2="29.0921" y2="50.7959"/><line class="cls-10" x1="30.1853" y1="55.7354" x2="31.4362" y2="61.6239"/><line class="cls-10" x1="30.2929" y1="60.1147" x2="31.0772" y2="59.9339"/><polyline class="cls-10" points="29.4 60.312 26.119 61.033 25.808 59.629 25.225 56.997"/><line class="cls-10" x1="29.1989" y1="61.7029" x2="28.9162" y2="60.4303"/><polyline class="cls-10" points="29.396 62.595 29.461 62.872 28.082 63.177 26.664 63.491 26.119 61.033"/><polyline class="cls-10" points="28.082 63.177 28.445 64.819 28.637 64.782"/><polyline class="cls-10" points="29.461 62.872 29.824 64.514 29.365 64.602"/><polyline class="cls-10" points="27.353 65.067 27.027 65.133 26.664 63.467"/><line class="cls-10" x1="27.9352" y1="64.9325" x2="28.4453" y2="64.8191"/><polyline class="cls-10" points="27.248 68.37 27.048 67.469 30.948 66.622 31.143 67.505"/><line class="cls-10" x1="30.7994" y1="64.3166" x2="29.8244" y2="64.5136"/><polyline class="cls-10" points="31.655 64.095 32.022 64.027 31.657 62.479"/><polyline class="cls-10" points="32.022 64.027 32.561 66.433 30.989 66.782"/><polyline class="cls-10" points="36.114 89.803 33.457 88.359 25.855 90.042"/><line class="cls-10" x1="31.7648" y1="88.7966" x2="29.4226" y2="78.1905"/><path class="cls-10" d="M31.8908,81.1941c-.0861,0-1.7195.3614-1.7195.3614"/><polyline class="cls-10" points="32.902 80.951 32.952 81.175 34.516 80.829"/><polyline class="cls-10" points="34.261 82.649 35.141 77.184 35.554 76.405 34.368 76.238 34.017 74.644"/><polyline class="cls-10" points="33.814 73.729 33.372 71.784 32.151 72.055 32.191 72.231 28.295 73.096 29.032 76.426 27.348 76.8 25.881 70.178 27.568 69.815 27.726 70.526 31.616 69.664"/><polyline class="cls-10" points="44.93 59.155 42.868 62.948 45.776 64.53 47.788 65.624 50.537 60.561 45.617 57.889 45.395 58.273"/><line class="cls-10" x1="47.8791" y1="60.7388" x2="45.8075" y2="64.5469"/><line class="cls-10" x1="49.1298" y1="63.1546" x2="47.1509" y2="62.0773"/><line class="cls-10" x1="48.3392" y1="59.8917" x2="48.5624" y2="59.4869"/><polyline class="cls-10" points="37.002 88.172 38.692 85.058 34.261 82.649 30.582 83.442"/><line class="cls-10" x1="36.1414" y1="89.7517" x2="35.6866" y2="90.5923"/><polyline class="cls-10" points="35.214 91.462 33.537 94.547 34.055 94.83"/><polyline class="cls-10" points="34.751 95.18 35.944 95.856 32.729 101.775 29.5 101.32"/><line class="cls-10" x1="36.1144" y1="89.8028" x2="36.5625" y2="88.9799"/><line class="cls-10" x1="38.692" y1="85.0577" x2="39.1235" y2="84.2656"/><polyline class="cls-10" points="39.549 83.41 41.185 80.451 35.141 77.184"/><polyline class="cls-10" points="40.743 78.594 42.805 74.795 40.826 73.72 37.867 72.113 35.22 77.026 35.141 77.184"/><line class="cls-10" x1="38.8687" y1="77.325" x2="40.8263" y2="73.7204"/><line class="cls-10" x1="41.4647" y1="77.2644" x2="39.4861" y2="76.1882"/><path class="cls-10" d="M40.0506,79.8455c.0987-.16.2385-.4169.2385-.4169"/><polyline class="cls-10" points="40.586 67.151 40.376 67.535 42.836 68.873 44.126 66.5 41.665 65.163 41.493 65.481"/><polyline class="cls-10" points="43.919 69.47 45.296 70.209 47.788 65.624"/><line class="cls-10" x1="44.1257" y1="66.4996" x2="46.5877" y2="67.837"/><line class="cls-10" x1="42.8677" y1="62.9483" x2="42.2502" y2="64.0838"/><line class="cls-10" x1="45.2959" y1="70.2091" x2="47.7883" y2="71.563"/><polyline class="cls-10" points="48.684 72.05 48.833 72.13 51.411 67.385 47.856 65.465"/><line class="cls-10" x1="32.151" y1="72.055" x2="32.004" y2="71.391"/><line class="cls-10" x1="31.464" y1="68.9526" x2="31.6846" y2="69.9485"/><line class="cls-10" x1="23.0677" y1="57.4736" x2="25.8813" y2="70.1782"/><line class="cls-10" x1="27.0271" y1="65.1331" x2="27.4984" y2="67.3727"/><line class="cls-10" x1="23.6467" y1="60.088" x2="25.8082" y2="59.629"/><line class="cls-10" x1="27.7262" y1="70.526" x2="28.2949" y2="73.0958"/><line class="cls-10" x1="20.6605" y1="38.6406" x2="20.4553" y2="37.6679"/><path class="cls-10" d="M20.1377,36.2909l-.0575-.2785-4.391.9729"/><polyline class="cls-10" points="23.749 40.731 21.737 31.647 19.953 30.51 11.909 32.275"/><line class="cls-10" x1="24.0595" y1="42.1803" x2="24.8682" y2="45.822"/><path class="cls-11" d="M33.5368,94.5467"/><polyline class="cls-10" points="33.537 94.547 32.653 94.095 27.793 95.144"/></g><g id="NEW_Outer" data-name="NEW Outer"><polygon class="cls-12" points="30.52 22.156 7.453 14.242 21.981 79.838 28.215 97.82 30.248 106.998 31.397 107.16 68.606 38.662 61.853 34.993 53.355 39.311 35.187 43.34 30.52 22.156"/><polyline class="cls-10" points="19.915 70.249 20.361 70.159 8.006 14.78 30.121 22.37 34.895 43.808 53.563 39.719 61.844 35.438 67.965 38.848 31.306 106.535 30.568 106.412 28.731 97.657 27.793 95.144 22.234 78.617 21.746 78.779"/></g><g id="Anchor"><line class="cls-1" x2="7.5"/></g></svg>