<svg xmlns="http://www.w3.org/2000/svg" xmlns:xlink="http://www.w3.org/1999/xlink" ><defs><style>.cls-1,.cls-11,.cls-12,.cls-13,.cls-3,.cls-6{fill:none;}.cls-2{fill:#8a6459;}.cls-11,.cls-13,.cls-2,.cls-3,.cls-4,.cls-5,.cls-6{stroke:#b4897d;}.cls-11,.cls-12,.cls-2,.cls-3,.cls-4,.cls-5,.cls-6{stroke-width:0.08px;}.cls-12,.cls-3,.cls-4{stroke-miterlimit:10;}.cls-4,.cls-5{fill:#fff;}.cls-5,.cls-6{stroke-linecap:square;}.cls-7{clip-path:url(#clip-path);}.cls-8{fill:#b4897d;}.cls-9{clip-path:url(#clip-path-2);}.cls-10{clip-path:url(#clip-path-3);}.cls-12{stroke:#000;}.cls-13{stroke-width:0.16px;}</style><clipPath id="clip-path"><polygon class="cls-1" points="46.633 63.251 43.473 61.514 45.36 58.09 48.521 59.827 46.633 63.251"/></clipPath><clipPath id="clip-path-2"><rect class="cls-1" x="24.9208" y="45.8038" width="3.6351" height="3.9096" transform="translate(-10.0017 7.1878) rotate(-12.9204)"/></clipPath><clipPath id="clip-path-3"><polygon class="cls-1" points="38.93 77.487 35.77 75.751 37.657 72.327 40.817 74.063 38.93 77.487"/></clipPath></defs><title>3</title><g id="Stairs_Outline" data-name="Stairs Outline"><path class="cls-2" d="M43.8291,58.1385,36.9567,70.825l-.2526-.14.9482-1.7251-1.4938-.611L35.2709,69.87l-.47-.27-4.2724-19.17s-.1949-.76-.0349-1.0483A3.4833,3.4833,0,0,1,31.18,48.68l4.1876-3.449a1.73,1.73,0,0,0,.4358-.5349,2.1635,2.1635,0,0,0-.0639-.8355L53.351,39.9811a4.49,4.49,0,0,1-.1264.7242,12.1968,12.1968,0,0,1-.8124,1.6863L43.8291,58.1385"/><path class="cls-3" d="M36.7041,70.685l-1.9034-1.0857-4.2724-19.17s-.1949-.76-.0349-1.0483A3.4833,3.4833,0,0,1,31.18,48.68l4.1876-3.449a1.73,1.73,0,0,0,.4358-.5349,2.1635,2.1635,0,0,0-.0639-.8355"/><polyline class="cls-3" points="41.477 62.498 36.957 70.825 36.704 70.685"/><path class="cls-3" d="M53.351,39.9811a4.49,4.49,0,0,1-.1264.7242,12.1968,12.1968,0,0,1-.8124,1.6863L43.8291,58.1385"/><line class="cls-1" x2="7.5"/><path class="cls-4" d="M37.4678,65.93l-.9394,4.6553L34.9063,69.66l1.5109-10.4723,3.4143.4807Zm2.1549-5.7082-3.2848-.4843m3.0789,1.03-3.1618-.4552m-.0821.5693,3.0293.4178m-.21.5435-2.91-.4133m-.0843.5661,2.7845.3907m-2.8515.17,2.6729.3634m-.2118.5609-2.5482-.3585m2.3413.9067-2.4182-.336m-.0781.5417,2.2844.328m-2.3643.2254,2.1614.34M35.4154,66.18l1.975.2419m-2.0625.3165,1.921.2762m-.113.56-1.8911-.2607m-.0775.5374,1.8265.2783m-.0841.566L35.0852,68.42m-.0829.5745,1.7953.2565"/></g><g id="Stairs"><path class="cls-5" d="M32.2555,58.0908l6.6591,5.232s.65.5311.7441.88a1.0136,1.0136,0,0,1-.06.8935c-.1834.406-2.87,5.5844-2.87,5.5844l-1.37-.7629,2.2915-4.0341a3.0692,3.0692,0,0,0,.2294-.8022.8624.8624,0,0,0-.4018-.6644c-.2253-.1786-2.2832-1.8707-2.8717-2.2891a1.6385,1.6385,0,0,0-.946-.3521,1.2909,1.2909,0,0,0-.5723.1381Z"/><line class="cls-6" x1="38.6075" y1="63.0815" x2="37.5888" y2="64.4717"/><line class="cls-6" x1="38.1213" y1="62.6995" x2="37.0979" y2="64.1086"/><line class="cls-6" x1="37.6636" y1="62.3418" x2="36.6757" y2="63.7021"/><line class="cls-6" x1="37.1757" y1="62.0258" x2="36.2061" y2="63.3609"/><line class="cls-6" x1="36.7345" y1="61.6455" x2="35.7424" y2="63.0115"/><line class="cls-6" x1="36.2728" y1="61.2934" x2="35.3101" y2="62.6189"/><line class="cls-6" x1="35.8261" y1="60.9206" x2="34.8293" y2="62.2931"/><line class="cls-6" x1="35.3604" y1="60.5741" x2="34.3586" y2="61.9534"/><line class="cls-6" x1="34.9251" y1="60.1883" x2="33.7922" y2="61.7453"/><line class="cls-6" x1="34.4558" y1="59.8335" x2="33.0674" y2="61.7453"/><line class="cls-6" x1="34.0049" y1="59.4771" x2="32.8926" y2="61.0086"/><line class="cls-6" x1="33.5454" y1="59.1219" x2="32.7416" y2="60.2287"/><line class="cls-6" x1="33.0673" y1="58.7923" x2="32.5581" y2="59.4935"/><line class="cls-6" x1="38.9381" y1="66.387" x2="37.6906" y2="65.8252"/><line class="cls-6" x1="39.3732" y1="65.4705" x2="37.8593" y2="65.241"/><line class="cls-6" x1="39.7131" y1="64.5401" x2="37.8694" y2="64.7934"/><line class="cls-6" x1="39.3541" y1="63.7766" x2="37.7327" y2="64.6187"/><line class="cls-6" x1="38.6748" y1="66.8394" x2="37.5116" y2="66.2124"/><line class="cls-6" x1="38.4211" y1="67.3288" x2="37.2235" y2="66.6832"/><line class="cls-6" x1="38.1627" y1="67.8832" x2="36.9029" y2="67.2041"/><line class="cls-6" x1="37.8593" y1="68.3948" x2="36.6201" y2="67.7267"/><line class="cls-6" x1="37.5888" y1="68.8789" x2="36.3335" y2="68.2022"/><line class="cls-6" x1="37.3521" y1="69.3866" x2="36.0838" y2="68.7072"/><line class="cls-6" x1="37.0869" y1="69.8319" x2="35.8261" y2="69.1403"/><line class="cls-6" x1="36.8642" y1="70.2742" x2="35.5604" y2="69.5633"/><g class="cls-7"><path class="cls-8" d="M45.4048,58.2514l2.9719,1.6462-.0321.058-2.9719-1.6462Zm2.7288,2.0967L45.1767,58.71l-.0323.0579,2.9571,1.6381Zm-1.533,2.7427.0322-.058-1.1687-.6516.2154-.3879,1.1287.6253.0321-.058-1.1286-.6253.2161-.3893,1.146.63.0321-.0581-1.1459-.63.2164-.39,1.139.6309.0321-.058-1.139-.6309.2162-.39,1.1243.6237.0321-.058-1.1242-.6236.2175-.3919,1.1346.6335.0322-.058-2.9059-1.6236-.0322.0581,1.1581.65-.2146.3868-1.1488-.6364-.0322.0581,1.1488.6362-.2162.3895L44.45,60.0588l-.0321.058,1.1484.6362-.2163.3895-1.1323-.6271-.0321.058,1.1322.6272-.2162.3893-1.1476-.6357-.0321.0581,1.1475.6356-.2263.4075-1.1623-.6439-.0322.0581,1.1624.6439,0,.0006.0966.0537L46.1326,59.96l.42.2329-1.2158,2.19Z"/></g><g class="cls-9"><path class="cls-8" d="M24.67,46.35l3.3129-.7528.0147.0647-3.3129.7527Zm3.4319-.2549-3.2964.7489.0146.0647,3.2965-.749Zm-1.1934,3.5068L26.3516,47.14l.4682-.1059.5526,2.4431,1.3863-.3121L28.7441,49.1l-1.2778.29-.0979-.4328,1.2583-.2858-.0147-.0647-1.2582.2858-.0983-.4342,1.2739-.2938L28.5147,48.1l-1.2738.2938-.0982-.4347,1.27-.2885-.0147-.0647-1.27.2886L27.03,47.46l1.2685-.2873-.0147-.0646-1.2684.2873-.0989-.4372,1.3034-.2953-.0146-.0647-3.29.7451.0147.0647,1.3027-.2949.0976.4315-1.2806.2909.0147.0648,1.2805-.291.0984.4345-1.28.2909.0147.0646,1.28-.2909.0983.4346-1.3076.2945.0147.0647,1.3076-.2944.0982.4343-1.2793.2907.0147.0647,1.2792-.2906.1029.4545-1.2958.2944.0147.0647Z"/></g><g class="cls-10"><path class="cls-8" d="M37.7012,72.4879l2.9718,1.6463-.0321.058-2.9718-1.6463ZM40.43,74.5847l-2.957-1.6381-.0322.058,2.9571,1.6381Zm-1.5331,2.7426.0323-.0579-1.1687-.6517.2154-.3878,1.16.6428.032-.058-1.16-.6428.216-.3893,1.146.63.0321-.058-1.1458-.63.2163-.3895,1.1391.6309.0321-.0581-1.1391-.6309.2163-.39,1.1243.6237.0321-.0581-1.1242-.6236.2175-.3919,1.1345.6335.0322-.058L37.2317,73.39l-.0322.058,1.1581.65-.2147.3868-1.1488-.6364-.0322.0582,1.1488.6362-.2162.3895-1.1485-.6362-.0321.058,1.1484.6361-.2162.3895-1.1736-.65-.0321.058,1.1735.65-.2162.3894L36.25,75.1908l-.0322.058,1.1475.6357-.2262.4075-1.1624-.6439-.0321.058,1.1624.6439,0,.0006.0967.0537,1.2256-2.2075.42.233-1.2158,2.19Z"/></g></g><g id="NEW_Inner" data-name="NEW Inner"><polyline class="cls-11" points="18.716 29.383 18.443 28.058 23.693 26.895 23.972 28.228"/><path class="cls-11" d="M19.0254,30.6945"/><polyline class="cls-11" points="24.195 29.148 24.273 29.532 19.025 30.694 18.937 30.338"/><polyline class="cls-11" points="21.065 27.501 21.649 30.137 22.246 32.773 24.883 32.163 24.581 30.89"/><line class="cls-11" x1="24.3748" y1="29.958" x2="24.2732" y2="29.5323"/><polyline class="cls-11" points="22.246 32.773 19.61 33.33 19.342 32.089"/><line class="cls-11" x1="19.0254" y1="30.6945" x2="19.1157" y2="31.0971"/><polyline class="cls-11" points="19.61 33.33 20.194 35.966 25.466 34.798 25.381 34.412"/><line class="cls-11" x1="24.8825" y1="32.1629" x2="25.164" y2="33.5216"/><polyline class="cls-11" points="20.194 35.966 21.36 41.238 26.633 40.07 25.749 36.163"/><line class="cls-11" x1="25.466" y1="34.798" x2="25.5594" y2="35.2194"/><path class="cls-11" d="M19.6744,43.0665c-.0088-.04-.2569-1.3982-.2569-1.3982l-2.5483.5644L18.0186,47.49l2.5675-.5494-.3033-1.37"/><line class="cls-11" x1="19.912" y1="43.8968" x2="20.0899" y2="44.6996"/><line class="cls-11" x1="20.007" y1="44.3042" x2="17.453" y2="44.8641"/><polyline class="cls-11" points="23.205 50.113 22.392 46.356 27.859 45.145 29.092 50.796 28.594 50.906"/><polyline class="cls-11" points="27.667 51.112 23.638 51.981 23.423 51.099"/><polyline class="cls-11" points="22.988 49.134 25.199 48.626 24.582 45.871"/><line class="cls-11" x1="25.8453" y1="51.515" x2="25.1986" y2="48.6256"/><polyline class="cls-11" points="26.057 53.168 24.002 53.623 24.665 56.617 30.116 55.421 29.469 52.413 26.995 52.96"/><polyline class="cls-11" points="23.243 58.942 22.921 57.485 20.372 58.049 21.521 63.307 24.088 62.757 23.772 61.326"/><polyline class="cls-11" points="23.431 59.787 23.505 60.121 20.946 60.674"/><path class="cls-11" d="M23.5917,60.5166l-.0866-.3956"/><polyline class="cls-11" points="31.149 67.445 30.945 66.609 27.049 67.472 28.295 73.096 32.19 72.233 32.005 71.393"/><polyline class="cls-11" points="27.719 70.495 31.635 69.639 31.703 69.946"/><line class="cls-11" x1="31.4834" y1="68.9526" x2="31.6345" y2="69.6394"/><polyline class="cls-11" points="26.743 74.74 26.423 73.302 23.876 73.866 25.043 79.139 27.591 78.575 27.288 77.204"/><polyline class="cls-11" points="27.094 76.333 27.007 75.939 26.924 75.564"/><line class="cls-11" x1="24.4542" y1="76.5034" x2="27.0071" y2="75.9391"/><polyline class="cls-11" points="29.06 85.207 28.759 83.846 26.21 84.411 27.36 89.668 29.927 89.12 29.61 87.685"/><line class="cls-11" x1="29.4366" y1="86.9042" x2="29.2591" y2="86.1029"/><line class="cls-11" x1="26.7767" y1="87.052" x2="29.3434" y2="86.4882"/><polyline class="cls-11" points="35.944 91.341 36.647 90.059 39.02 91.348 36.442 96.095 34.069 94.805 34.791 93.533"/><line class="cls-11" x1="35.1526" y1="92.7902" x2="35.5361" y2="92.1045"/><line class="cls-11" x1="37.7285" y1="93.7209" x2="35.3591" y2="92.421"/><polyline class="cls-11" points="38.104 80.633 39.278 81.287 37.793 84.022 34.38 82.149 35.858 79.428 36.249 79.64"/><line class="cls-11" x1="37.3208" y1="80.2231" x2="37.0006" y2="80.048"/><line class="cls-11" x1="35.6872" y1="82.832" x2="37.1424" y2="80.1261"/><polyline class="cls-11" points="36.364 77.854 40.055 79.859 40.283 79.439"/><line class="cls-11" x1="38.7529" y1="77.5941" x2="40.8618" y2="73.7288"/><path class="cls-11" d="M35.5825,77.4294l-.4482-.2434,2.7627-5.0884,4.9077,2.7s-2.0286,3.7314-2.0622,3.796"/><polyline class="cls-11" points="45.023 74.626 44.379 75.825 46.752 77.114 49.33 72.368 46.957 71.079 46.241 72.398"/><line class="cls-11" x1="45.4671" y1="73.8226" x2="45.8577" y2="73.1056"/><line class="cls-11" x1="48.0407" y1="74.7433" x2="45.6624" y2="73.4482"/><polyline class="cls-11" points="44.121 63.577 47.788 65.624 49.456 62.555"/><polyline class="cls-11" points="49.915 61.709 50.551 60.536 45.63 57.864 42.868 62.951 43.316 63.194"/><polyline class="cls-11" points="49.402 57.986 51.341 59.084 52.819 56.362 47.898 53.69 46.434 56.385 48.643 57.559"/><polyline class="cls-11" points="59.138 48.652 59.846 47.354 62.218 48.643 59.64 53.388 57.268 52.099 57.907 50.922"/><polyline class="cls-11" points="58.355 50.097 58.554 49.73 58.746 49.377"/><line class="cls-11" x1="60.927" y1="51.015" x2="58.5544" y2="49.7304"/><line class="cls-11" x1="52.7151" y1="45.0337" x2="51.4119" y2="47.4326"/><polyline class="cls-11" points="57.443 47.642 56.82 48.784 52.063 46.2"/><polyline class="cls-11" points="57.859 46.871 58.109 46.411 53.364 43.834 53.154 44.225"/><line class="cls-11" x1="56.1562" y1="50.0099" x2="56.8202" y2="48.784"/><polyline class="cls-11" points="55.717 50.818 55.531 51.156 53.154 49.865 50.788 48.579 51.022 48.149"/><line class="cls-11" x1="55.7016" y1="45.1025" x2="53.1543" y2="49.8646"/><polyline class="cls-11" points="42.707 74.75 45.221 70.137 40.476 67.559 38.588 71.035"/><line class="cls-11" x1="37.9722" y1="72.1462" x2="38.1168" y2="71.9028"/><path class="cls-12" d="M40.8618,73.7288"/><line class="cls-11" x1="46.5753" y1="63.0691" x2="48.5849" y2="59.4602"/><line class="cls-11" x1="55.5313" y1="51.1565" x2="52.7216" y2="56.3138"/><line class="cls-11" x1="47.9893" y1="53.7386" x2="50.1556" y2="49.7632"/><line class="cls-11" x1="50.7882" y1="48.5787" x2="50.5767" y2="48.9701"/></g><g id="NEW_Outer" data-name="NEW Outer"><polygon class="cls-13" points="30.533 22.132 7.467 14.218 28.444 108.936 32.613 109.524 72.296 36.476 57.635 31.432 53.369 39.286 35.201 43.319 30.533 22.132"/><polyline class="cls-11" points="30.107 22.404 8.083 14.887 28.787 108.574 32.4 109.076 71.527 36.732 57.915 32.063 53.798 39.878 34.772 44.074 30.107 22.404"/></g></svg>