<svg xmlns="http://www.w3.org/2000/svg" xmlns:xlink="http://www.w3.org/1999/xlink" ><defs><style>.cls-1,.cls-3,.cls-4,.cls-6{fill:none;}.cls-2{fill:#aa897e;}.cls-3,.cls-4,.cls-5,.cls-6,.cls-7{stroke:#b4897d;stroke-linecap:square;}.cls-3,.cls-7{stroke-width:0.08px;}.cls-4{stroke-width:0.16px;}.cls-5,.cls-7{fill:#fff;}.cls-5,.cls-6{stroke-width:0.08px;}.cls-8{clip-path:url(#clip-path);}.cls-9{fill:#b4897d;}.cls-10{clip-path:url(#clip-path-2);}.cls-11{clip-path:url(#clip-path-3);}</style><clipPath id="clip-path"><rect class="cls-1" x="44.0484" y="58.8683" width="3.9196" height="3.6694" transform="translate(-29.2168 72.6535) rotate(-61.8673)"/></clipPath><clipPath id="clip-path-2"><rect class="cls-1" x="36.3279" y="73.093" width="3.9196" height="3.6694" transform="translate(-45.8411 73.3625) rotate(-61.8673)"/></clipPath><clipPath id="clip-path-3"><rect class="cls-1" x="24.9374" y="45.8744" width="3.6351" height="3.9096" transform="translate(-10.0171 7.1933) rotate(-12.9204)"/></clipPath></defs><title>4</title><g id="out_area" data-name="out area"><path class="cls-2" d="M35.7392,43.7848l17.5959-3.9041a4.2925,4.2925,0,0,1-.1265.6917,12.1866,12.1866,0,0,1-.8123,1.6863L43.8132,58.0056,38.67,61.2926l.8029,1.53c.0519.0736.6231-.4353,1.011-.56a1.8076,1.8076,0,0,1,.977.1035l-4.52,8.3265-.2526-.14.9482-1.7251-1.4938-.6109-.8875,1.5206-.47-.27-4.2724-19.17s-.1949-.76-.0349-1.0483a3.4862,3.4862,0,0,1,.6864-.7015l4.1876-3.449a1.7275,1.7275,0,0,0,.4357-.5349A1.9252,1.9252,0,0,0,35.7392,43.7848Z"/></g><g id="New_Inner" data-name="New Inner"><polyline class="cls-3" points="32.152 65.076 31.291 61.187 26.133 62.328 27.262 67.424 30.945 66.609 30.984 66.785 32.458 66.458 32.357 66.002"/><polyline class="cls-3" points="31.186 60.712 31.291 61.187 26.133 62.328 25.55 59.692 30.707 58.55 30.988 59.818"/><polyline class="cls-3" points="30.557 57.874 30.707 58.55 25.55 59.692 24.865 56.597 30.021 55.456 30.355 56.963"/><polyline class="cls-3" points="24.2 54.601 23.989 53.65 29.455 52.44 30.119 55.434 24.652 56.644 24.48 55.866"/><polyline class="cls-3" points="23.21 50.136 22.379 46.383 27.847 45.172 29.092 50.797 28.47 50.933"/><polyline class="cls-3" points="27.886 51.063 23.625 52.007 23.423 51.099"/><polyline class="cls-3" points="25.826 51.484 25.183 48.646 24.567 45.932"/><line class="cls-3" x1="23.0012" y1="49.1248" x2="25.1827" y2="48.6458"/><polyline class="cls-3" points="27.423 43.722 26.621 40.097 21.348 41.264 22.477 46.359 27.744 45.173 27.661 44.796"/><polyline class="cls-3" points="25.55 35.261 25.452 34.826 20.18 35.993 20.279 36.435"/><line class="cls-3" x1="20.4809" y1="37.3335" x2="21.051" y2="39.9215"/><polyline class="cls-3" points="21.294 40.993 21.348 41.264 26.621 40.097 26.436 39.261"/><line class="cls-3" x1="26.1923" y1="38.1625" x2="25.7154" y2="36.0138"/><line class="cls-3" x1="22.8257" y1="35.4262" x2="23.9729" y2="40.6327"/><line class="cls-3" x1="20.8199" y1="38.617" x2="26.0279" y2="37.4606"/><polyline class="cls-3" points="18.547 37.822 18.237 36.423 15.689 36.988 16.28 39.655 18.821 39.06 18.747 38.727"/><polyline class="cls-3" points="18.897 39.4 18.821 39.06 16.28 39.655 16.856 42.26 19.404 41.695 19.088 40.263"/><polyline class="cls-3" points="31.135 67.472 30.945 66.609 27.05 67.473 27.727 70.527 31.622 69.666 31.457 68.919"/><polyline class="cls-3" points="31.691 69.959 31.622 69.666 27.727 70.527 28.295 73.096 32.19 72.233 31.999 71.367"/><line class="cls-3" x1="29.7826" y1="72.6887" x2="29.2247" y2="70.1957"/><polyline class="cls-3" points="30.228 90.569 29.913 89.146 27.365 89.711 27.949 92.346 30.498 91.782 30.406 91.366"/><polyline class="cls-3" points="30.587 92.184 30.498 91.782 27.949 92.346 28.533 94.982 31.082 94.418 30.771 93.021"/><polyline class="cls-3" points="35.986 91.276 36.632 90.086 39.005 91.376 36.428 96.121 34.055 94.831 34.744 93.574"/><line class="cls-3" x1="35.5455" y1="92.087" x2="35.1381" y2="92.837"/><line class="cls-3" x1="37.7171" y1="93.7457" x2="35.3446" y2="92.4568"/><polyline class="cls-3" points="35.556 77.415 35.135 77.186 37.884 72.124 42.804 74.798 40.739 78.602"/><polyline class="cls-3" points="40.283 79.439 40.055 79.86 36.364 77.855"/><line class="cls-3" x1="40.8297" y1="73.7244" x2="38.1092" y2="78.7764"/><line class="cls-3" x1="41.4309" y1="77.2254" x2="39.4968" y2="76.1997"/><polyline class="cls-3" points="43.677 77.12 44.366 75.852 46.74 77.141 44.161 81.885 41.789 80.597 42.479 79.327"/><line class="cls-3" x1="43.2641" y1="77.8829" x2="42.8724" y2="78.6019"/><line class="cls-3" x1="45.4444" y1="79.5099" x2="43.1133" y2="78.2424"/><polyline class="cls-3" points="48.814 67.659 49.521 66.36 51.893 67.649 49.315 72.393 46.944 71.105 47.622 69.856"/><line class="cls-3" x1="48.0594" y1="69.0489" x2="48.4165" y2="68.3914"/><line class="cls-3" x1="50.602" y1="70.0205" x2="48.2288" y2="68.737"/><polyline class="cls-3" points="49.938 61.667 50.538 60.562 45.618 57.889 42.868 62.951 43.378 63.229"/><polyline class="cls-3" points="44.149 63.648 47.789 65.624 49.479 62.513"/><line class="cls-3" x1="48.5631" y1="59.4893" x2="45.8223" y2="64.5305"/><line class="cls-3" x1="49.1048" y1="63.1385" x2="47.1761" y2="62.0925"/><polyline class="cls-3" points="52.758 60.396 52.097 61.615 54.468 62.904 57.047 58.16 54.673 56.87 53.984 58.14"/><line class="cls-3" x1="53.5402" y1="58.9564" x2="53.1795" y2="59.6218"/><line class="cls-3" x1="55.7208" y1="60.5308" x2="53.3859" y2="59.2405"/><polyline class="cls-3" points="52.453 57.038 52.805 56.389 47.885 53.715 46.421 56.411 51.341 59.084 51.813 58.218"/><polyline class="cls-3" points="53.175 55.499 52.701 56.333 47.973 53.761 49.485 50.978 54.23 53.555 53.58 54.753"/><polyline class="cls-3" points="55.33 51.531 55.519 51.183 50.775 48.606 49.485 50.978 54.23 53.555 54.855 52.405"/><polyline class="cls-3" points="50.972 48.241 50.775 48.606 55.519 51.183 58.097 46.438 53.351 43.861 51.412 47.432"/><polyline class="cls-3" points="60.5 46.154 59.833 47.382 62.204 48.67 64.783 43.925 62.411 42.636 61.732 43.886"/><line class="cls-3" x1="61.2877" y1="44.7012" x2="60.9265" y2="45.3662"/><line class="cls-3" x1="63.4933" y1="46.2995" x2="61.1208" y2="45.0106"/><polyline class="cls-3" points="38.034 80.643 39.266 81.312 37.787 84.034 34.368 82.176 35.868 79.455 36.364 79.736"/><line class="cls-3" x1="37.4546" y1="80.3293" x2="36.9489" y2="80.0546"/><line class="cls-3" x1="37.1477" y1="80.1615" x2="35.6683" y2="82.8823"/><polyline class="cls-3" points="26.714 74.694 26.41 73.329 23.863 73.893 25.029 79.165 27.578 78.601 27.259 77.157"/><line class="cls-3" x1="27.0628" y1="76.271" x2="26.9005" y2="75.5557"/><line class="cls-3" x1="24.4457" y1="76.5242" x2="26.9939" y2="75.9599"/><polyline class="cls-3" points="23.227 58.953 22.908 57.511 20.359 58.077 21.527 63.348 24.076 62.784 23.763 61.372"/><line class="cls-3" x1="23.3909" y1="59.6954" x2="23.6029" y2="60.6528"/><line class="cls-3" x1="20.9481" y1="60.7119" x2="23.4866" y2="60.1487"/><polyline class="cls-3" points="20.882 48.367 20.572 46.967 18.025 47.531 19.192 52.805 21.741 52.24 21.433 50.848"/><line class="cls-3" x1="21.2339" y1="49.9541" x2="21.0771" y2="49.2426"/><line class="cls-3" x1="18.6076" y1="50.1628" x2="21.1045" y2="49.6155"/><polygon class="cls-3" points="8.051 14.986 28.78 108.587 32.368 109.092 71.631 36.818 57.914 32.111 53.698 39.801 34.757 44 29.999 22.518 8.051 14.986"/></g><g id="new_outer" data-name="new outer"><path class="cls-4" d="M35.6221,43.28a2.904,2.904,0,0,1,.1389,1.3682,1.3373,1.3373,0,0,1-.41.45L31.33,48.41l-.4914.4052a1.0007,1.0007,0,0,0-.4124.5993,1.995,1.995,0,0,0,.0275.5937l4.3393,19.4932,2.1481,1.1906L51.9457,43.099l1.0762-2.0122a3.434,3.434,0,0,0,.2731-.9,4.8158,4.8158,0,0,0,.0607-.8742l4.2662-7.8542,14.6609,5.0441L32.6,109.55l-4.1691-.587L7.4545,14.2446,30.52,22.1587l4.6681,21.1865,18.1675-4.0326"/></g><g id="stairs"><path class="cls-5" d="M43.9263,57.8535,34.9933,63.6a2.3816,2.3816,0,0,0-.8017.6893,1.5055,1.5055,0,0,0-.1775.8751l.9693,4.4437L36.8,70.6294l-.7667-4.5312a1.4241,1.4241,0,0,1,.0612-.5963,1.5291,1.5291,0,0,1,.5268-.6307l3.4316-2.3629a1.6919,1.6919,0,0,1,.8325-.2458,1.2909,1.2909,0,0,1,.5723.1381Z"/><line class="cls-6" x1="35.3921" y1="63.3952" x2="36.3728" y2="64.996"/><line class="cls-6" x1="35.8836" y1="63.0863" x2="36.8643" y2="64.6871"/><line class="cls-6" x1="36.3751" y1="62.7774" x2="37.3328" y2="64.3406"/><line class="cls-6" x1="36.8666" y1="62.4685" x2="37.8194" y2="64.0237"/><line class="cls-6" x1="37.3581" y1="62.1596" x2="38.3079" y2="63.7099"/><line class="cls-6" x1="37.813" y1="61.7909" x2="38.7817" y2="63.3721"/><line class="cls-6" x1="38.3044" y1="61.4819" x2="39.2589" y2="63.0399"/><line class="cls-6" x1="38.7958" y1="61.1729" x2="39.7404" y2="62.7147"/><line class="cls-6" x1="39.2831" y1="60.86" x2="40.2182" y2="62.3833"/><line class="cls-6" x1="39.7817" y1="60.548" x2="40.8234" y2="62.2483"/><line class="cls-6" x1="40.2699" y1="60.2455" x2="41.4908" y2="62.2382"/><line class="cls-6" x1="40.7407" y1="59.9028" x2="41.8123" y2="61.6518"/><line class="cls-6" x1="41.2311" y1="59.5921" x2="42.1369" y2="61.0704"/><line class="cls-6" x1="41.7194" y1="59.2779" x2="42.4605" y2="60.4875"/><line class="cls-6" x1="42.2056" y1="58.9604" x2="42.7993" y2="59.9294"/><line class="cls-6" x1="42.6939" y1="58.6463" x2="43.1021" y2="59.3124"/><line class="cls-6" x1="34.3612" y1="66.7459" x2="36.0767" y2="66.4726"/><line class="cls-6" x1="34.2742" y1="66.1551" x2="35.9897" y2="65.8818"/><line class="cls-6" x1="34.0203" y1="64.996" x2="36.0945" y2="65.5019"/><line class="cls-6" x1="34.4841" y1="63.9542" x2="36.2448" y2="65.2186"/><line class="cls-6" x1="34.4841" y1="67.268" x2="36.1551" y2="67.0018"/><line class="cls-6" x1="34.607" y1="67.7901" x2="36.2553" y2="67.5275"/><line class="cls-6" x1="34.7299" y1="68.3122" x2="36.3728" y2="68.0504"/><line class="cls-6" x1="34.8528" y1="68.8343" x2="36.4466" y2="68.5804"/><line class="cls-6" x1="34.9757" y1="69.3564" x2="36.5147" y2="69.1112"/><line class="cls-6" x1="35.3433" y1="69.8395" x2="36.613" y2="69.6372"/><path class="cls-7" d="M32.2519,57.9622l6.6591,5.2321s.65.5311.7441.88a1.0136,1.0136,0,0,1-.06.8935c-.1834.4061-2.87,5.5845-2.87,5.5845l-1.3783-.7476,2.3-4.0494a3.0692,3.0692,0,0,0,.2294-.8022.8624.8624,0,0,0-.4018-.6644c-.2253-.1786-2.2832-1.8707-2.8717-2.2891a1.6385,1.6385,0,0,0-.946-.3521,1.2909,1.2909,0,0,0-.5723.1381Z"/><line class="cls-3" x1="38.6039" y1="62.953" x2="37.5852" y2="64.3432"/><line class="cls-3" x1="38.1177" y1="62.571" x2="37.0943" y2="63.98"/><line class="cls-3" x1="37.66" y1="62.2133" x2="36.6721" y2="63.5736"/><line class="cls-3" x1="37.1721" y1="61.8973" x2="36.2025" y2="63.2323"/><line class="cls-3" x1="36.7309" y1="61.517" x2="35.7388" y2="62.883"/><line class="cls-3" x1="36.2692" y1="61.1649" x2="35.3065" y2="62.4904"/><line class="cls-3" x1="35.8226" y1="60.7921" x2="34.8257" y2="62.1646"/><line class="cls-3" x1="35.3568" y1="60.4456" x2="34.355" y2="61.8249"/><line class="cls-3" x1="34.9215" y1="60.0597" x2="33.7886" y2="61.6168"/><line class="cls-3" x1="34.4522" y1="59.705" x2="33.0638" y2="61.6168"/><line class="cls-3" x1="34.0013" y1="59.3486" x2="32.889" y2="60.88"/><line class="cls-3" x1="33.5418" y1="58.9934" x2="32.738" y2="60.1002"/><line class="cls-3" x1="33.0637" y1="58.6638" x2="32.5545" y2="59.365"/><line class="cls-3" x1="38.9345" y1="66.2585" x2="37.687" y2="65.6967"/><line class="cls-3" x1="39.3696" y1="65.342" x2="37.8557" y2="65.1125"/><line class="cls-3" x1="39.7095" y1="64.4116" x2="37.8658" y2="64.6649"/><line class="cls-3" x1="39.3505" y1="63.6481" x2="37.7291" y2="64.4902"/><line class="cls-3" x1="38.6712" y1="66.7109" x2="37.508" y2="66.0839"/><line class="cls-3" x1="38.4175" y1="67.2003" x2="37.2199" y2="66.5547"/><line class="cls-3" x1="38.1591" y1="67.7547" x2="36.8993" y2="67.0756"/><line class="cls-3" x1="37.8557" y1="68.2662" x2="36.6165" y2="67.5982"/><line class="cls-3" x1="37.5852" y1="68.7503" x2="36.3299" y2="68.0737"/><line class="cls-3" x1="37.3485" y1="69.2581" x2="36.0802" y2="68.5787"/><line class="cls-3" x1="37.0833" y1="69.7034" x2="35.8226" y2="69.0118"/><line class="cls-3" x1="36.8606" y1="70.1457" x2="35.5568" y2="69.4348"/><g class="cls-8"><path class="cls-9" d="M45.3616,58.271l3.021,1.6233-.0315.0586L45.33,58.33Zm2.7831,2.0781-3.0058-1.6152-.0316.0585,3.0059,1.6152Zm-3.2231,1.8592,1.2-2.2287.4266.23L45.3578,62.42l1.2622.6814.0315-.0585-1.1652-.6262.211-.3916,1.1474.6166.0314-.0586-1.1472-.6165.2116-.3931,1.1887.6388.0315-.0586-1.1887-.6387.212-.3933,1.1579.6221.0314-.0586-1.1579-.6221.2118-.3933,1.1492.62.0314-.0586-1.149-.62.213-.3957,1.188.6393.0316-.0586L44.902,59.18l-.0315.0586,1.178.6414-.21.39L44.67,59.6434l-.0315.0587,1.1678.6273-.2118.3933-1.1675-.6274-.0314.0586,1.1674.6273-.2119.3932-1.1509-.6184-.0315.0586,1.1509.6185-.2118.3931-1.1665-.6269-.0315.0586,1.1665.6268-.2216.4114-1.1816-.6349-.0314.0586Z"/></g><g class="cls-10"><path class="cls-9" d="M37.641,72.4957l3.021,1.6233-.0314.0586L37.61,72.5543Zm2.7831,2.078-3.0058-1.6152-.0315.0586,3.0059,1.6152ZM37.201,76.4329l1.2-2.2286.4266.23-1.1908,2.2109,1.2622.6815.0316-.0586-1.1652-.6261.211-.3916,1.1473.6166.0315-.0586-1.1473-.6165.2116-.3931,1.1888.6387.0314-.0585L38.2515,75.74l.2119-.3933,1.1579.6221.0314-.0586-1.1579-.6221.2118-.3934,1.16.6227.0314-.0586-1.16-.6226.213-.3957,1.188.6393.0316-.0585-2.9826-1.6095-.0315.0586,1.1712.6347-.21.3905L36.95,73.8681l-.0316.0587,1.1678.6273-.2117.3933L36.7069,74.32l-.0315.0586,1.1674.6273-.2118.3932-1.151-.6184-.0314.0586,1.1508.6185-.2117.393-1.1666-.6268-.0314.0586,1.1664.6268-.2216.4114-1.1815-.6349-.0315.0586Z"/></g><g class="cls-11"><path class="cls-9" d="M24.6867,46.4209,28,45.6681l.0147.0647-3.3129.7528Zm3.3849-.2385-3.2493.7326.0146.0647,3.2494-.7326Zm-1.1464,3.49-.557-2.4627.4681-.106.5527,2.4431,1.3862-.3121-.0146-.0647-1.2778.29-.0978-.4328,1.2583-.2858-.0148-.0647-1.2581.2859-.0983-.4343,1.2612-.29-.0147-.0646-1.2611.29-.0983-.4346,1.27-.2886-.0147-.0647-1.27.2886-.0984-.4346,1.2637-.2952-.0147-.0647-1.2636.2952-.099-.4372L28.2,46.7412l-.0146-.0647-3.28.747.0147.0647,1.328-.3046.0977.4314-1.314.3.0148.0648,1.3138-.3.0983.4345-1.318.3006.0147.0646,1.3179-.3.0983.4345-1.3221.2984.0147.0646,1.3221-.2982.0983.4344-1.3292.3051.0147.0647L26.7,49.1773l.1028.4546-1.32.3.0147.0647Z"/></g></g><g id="Anchor"><line class="cls-1" x2="7.5"/></g></svg>