<svg xmlns="http://www.w3.org/2000/svg" xmlns:xlink="http://www.w3.org/1999/xlink" ><defs><style>.cls-1,.cls-10,.cls-11,.cls-3,.cls-5{fill:none;}.cls-2{fill:#77827a;}.cls-10,.cls-11,.cls-2,.cls-3,.cls-4,.cls-5{stroke:#b4897d;}.cls-10,.cls-2,.cls-3,.cls-4,.cls-5{stroke-width:0.08px;}.cls-3{stroke-miterlimit:10;}.cls-4{fill:#fff;}.cls-4,.cls-5{stroke-linecap:square;}.cls-6{clip-path:url(#clip-path);}.cls-7{fill:#b4897d;}.cls-8{clip-path:url(#clip-path-2);}.cls-9{clip-path:url(#clip-path-3);}.cls-11{stroke-width:0.16px;}</style><clipPath id="clip-path"><rect class="cls-1" x="24.8941" y="45.8626" width="3.6351" height="3.9096" transform="translate(-10.0156 7.1833) rotate(-12.9204)"/></clipPath><clipPath id="clip-path-2"><rect class="cls-1" x="36.3249" y="73.1199" width="3.9196" height="3.6694" transform="translate(-45.8665 73.3741) rotate(-61.8673)"/></clipPath><clipPath id="clip-path-3"><rect class="cls-1" x="44.1013" y="58.8566" width="3.9196" height="3.6694" transform="matrix(0.4715, -0.8819, 0.8819, 0.4715, -29.1785, 72.6939)"/></clipPath></defs><title>5</title><g id="Stairs_Outline" data-name="Stairs Outline"><path class="cls-2" d="M35.7719,43.7746l17.5959-3.9041a4.2828,4.2828,0,0,1-.1265.6917,12.1866,12.1866,0,0,1-.8123,1.6863L43.8459,57.9954l-5.1429,3.287.803,1.53c.0518.0736.623-.4353,1.0109-.56a1.8074,1.8074,0,0,1,.977.1035l-4.52,8.3265-.2526-.14.9482-1.7251-1.4938-.611-.8875,1.5207-.47-.27-4.2724-19.17s-.1949-.76-.0349-1.0483a3.4862,3.4862,0,0,1,.6864-.7015l4.1876-3.449a1.7288,1.7288,0,0,0,.4358-.5349A1.9265,1.9265,0,0,0,35.7719,43.7746Z"/><path class="cls-3" d="M36.7208,70.5419l-1.9033-1.0857-4.2724-19.17s-.1949-.76-.0349-1.0483a3.4862,3.4862,0,0,1,.6864-.7015l4.1876-3.449a1.7288,1.7288,0,0,0,.4358-.5349,2.2492,2.2492,0,0,0-.0685-.8541"/><path class="cls-3" d="M53.3678,39.846a4.4313,4.4313,0,0,1-.1265.7162,12.1866,12.1866,0,0,1-.8123,1.6863L43.8459,57.9954l-5.1429,3.287.803,1.53c.0518.0736.623-.4353,1.0109-.56a1.8074,1.8074,0,0,1,.977.1035l-4.52,8.3265-.2526-.14"/></g><g id="Stairs"><path class="cls-4" d="M43.9782,57.8277l-8.933,5.7465a2.3816,2.3816,0,0,0-.8017.6893,1.5064,1.5064,0,0,0-.1775.8751l.9693,4.4438,1.8166,1.0212-.7667-4.5312a1.4241,1.4241,0,0,1,.0612-.5963,1.5291,1.5291,0,0,1,.5268-.6307l3.4316-2.3629a1.6919,1.6919,0,0,1,.8325-.2458,1.2909,1.2909,0,0,1,.5723.1381Z"/><line class="cls-5" x1="35.444" y1="63.3694" x2="36.4247" y2="64.9702"/><line class="cls-5" x1="35.9355" y1="63.0605" x2="36.9162" y2="64.6613"/><line class="cls-5" x1="36.427" y1="62.7516" x2="37.3847" y2="64.3148"/><line class="cls-5" x1="36.9185" y1="62.4427" x2="37.8993" y2="64.0435"/><line class="cls-5" x1="37.41" y1="62.1338" x2="38.3908" y2="63.7346"/><line class="cls-5" x1="37.8649" y1="61.7651" x2="38.8478" y2="63.3694"/><line class="cls-5" x1="38.3563" y1="61.4561" x2="39.3109" y2="63.0141"/><line class="cls-5" x1="38.8478" y1="61.1471" x2="39.7924" y2="62.6889"/><line class="cls-5" x1="39.335" y1="60.8342" x2="40.2701" y2="62.3575"/><line class="cls-5" x1="39.8337" y1="60.5222" x2="40.8754" y2="62.2225"/><line class="cls-5" x1="40.3219" y1="60.2197" x2="41.5427" y2="62.2124"/><line class="cls-5" x1="40.7927" y1="59.877" x2="41.8642" y2="61.626"/><line class="cls-5" x1="41.2831" y1="59.5663" x2="42.1888" y2="61.0447"/><line class="cls-5" x1="41.7714" y1="59.2521" x2="42.5124" y2="60.4617"/><line class="cls-5" x1="42.2576" y1="58.9346" x2="42.8512" y2="59.9036"/><line class="cls-5" x1="42.7459" y1="58.6205" x2="43.154" y2="59.2866"/><line class="cls-5" x1="34.4131" y1="66.7201" x2="36.1286" y2="66.4468"/><line class="cls-5" x1="34.3261" y1="66.1293" x2="36.0416" y2="65.856"/><line class="cls-5" x1="34.0723" y1="64.9702" x2="36.1464" y2="65.4761"/><line class="cls-5" x1="34.536" y1="63.9284" x2="36.2967" y2="65.1928"/><line class="cls-5" x1="34.536" y1="67.2422" x2="36.207" y2="66.976"/><line class="cls-5" x1="34.6589" y1="67.7643" x2="36.3073" y2="67.5017"/><line class="cls-5" x1="34.7818" y1="68.2864" x2="36.4247" y2="68.0247"/><line class="cls-5" x1="34.9047" y1="68.8085" x2="36.4985" y2="68.5546"/><line class="cls-5" x1="35.0276" y1="69.3306" x2="36.5666" y2="69.0854"/><line class="cls-5" x1="35.3953" y1="69.8137" x2="36.665" y2="69.6114"/><path class="cls-4" d="M32.3,57.9714,38.96,63.2035s.65.5311.7441.88a1.0136,1.0136,0,0,1-.06.8935c-.1834.4061-2.87,5.5845-2.87,5.5845l-1.3783-.7476,2.3-4.0495a3.0669,3.0669,0,0,0,.23-.8021.8623.8623,0,0,0-.4018-.6644c-.2254-.1786-2.2832-1.8707-2.8717-2.2891a1.6385,1.6385,0,0,0-.946-.3521,1.2909,1.2909,0,0,0-.5723.1381Zm6.352,4.9908-1.0187,1.39m.5324-1.7722-1.0233,1.409m.5657-1.7667-.9879,1.36m.5-1.6763-.97,1.335m.5284-1.7154-.9921,1.3661m.53-1.7181L35.355,62.5m.516-1.6983-.9968,1.3725m-.4707-.34,1.0017-1.3793m-.4352-.3859L33.8371,61.626m.6636-1.9118L33.1122,61.626m.9375-2.2682-1.1122,1.5314m.6527-1.8866-.8038,1.1068m.3258-1.4364-.5092.7012m6.38,6.8935-1.2475-.5618m1.6826-.3547-1.5138-.23m1.8537-.7009-1.8436.2533m1.4847-1.0168-1.6214.8421M38.72,66.72l-1.1632-.627m-.288.4708,1.1976.6456m-.2584.5544-1.26-.6791m.9564,1.1906-1.2392-.668m.9687,1.1521-1.2553-.6766m1.0185,1.1844-1.2683-.6794m1.0032,1.1247L35.871,69.021m1.0381,1.1339-1.3038-.7109"/><g class="cls-6"><path class="cls-7" d="M24.6434,46.4091l3.3129-.7528.0148.0647-3.313.7528Zm3.4319-.2549-3.2964.749.0146.0647,3.2965-.749Zm-1.1934,3.5069-.5571-2.4627.4682-.106.5527,2.4431,1.3862-.3121-.0146-.0647-1.2778.29-.0979-.4328L28.6,48.73l-.0147-.0647-1.2582.2858-.0983-.4342,1.3036-.2962-.0147-.0647-1.3035.2962-.0982-.4346,1.27-.2886-.0147-.0647-1.27.2886-.0983-.4346,1.306-.2922-.0147-.0647-1.3059.2922-.099-.4372,1.3034-.2953-.0146-.0647L24.9,47.4l.0147.0647,1.2906-.2929.0977.4314-1.2807.291.0147.0648,1.2806-.2911.0983.4345-1.28.2909.0147.0646,1.28-.2908.0983.4345-1.2925.2965.0147.0646,1.2925-.2963.0982.4344-1.2793.2906.0147.0647,1.2792-.2906.1029.4546-1.2958.2944.0147.0647Z"/></g><g class="cls-8"><path class="cls-7" d="M37.638,72.5226l3.021,1.6233-.0315.0586-3.0209-1.6233Zm2.7831,2.078-3.0058-1.6152-.0316.0586,3.006,1.6152ZM37.198,76.46l1.2-2.2287.4266.23-1.1908,2.2109,1.2622.6815.0315-.0586-1.1651-.6261.2109-.3916,1.1474.6166.0314-.0586-1.1472-.6165.2116-.3931,1.1887.6387.0315-.0585-1.1886-.6387.2119-.3933,1.1579.6221.0314-.0586-1.1579-.6221.2118-.3934,1.1708.6292.0315-.0586-1.1707-.6291.213-.3957,1.188.6394.0316-.0586-3.0006-1.6154-.0315.0586,1.1892.6406-.21.39-1.1677-.6275-.0316.0587,1.1678.6273-.2118.3933-1.1674-.6274-.0315.0586,1.1674.6273-.2118.3932-1.151-.6184-.0314.0586,1.1508.6185-.2117.393-1.1666-.6268-.0315.0586,1.1665.6268-.2216.4114L35.95,75.7128l-.0315.0586Z"/></g><g class="cls-9"><path class="cls-7" d="M45.4145,58.2593l3.0209,1.6233-.0314.0586-3.021-1.6233Zm2.7831,2.078-3.0058-1.6152-.0316.0586,3.0059,1.6152Zm-3.2232,1.8593,1.2-2.2287.4266.23-1.1908,2.2109,1.2621.6815.0316-.0586-1.1652-.6261.211-.3916,1.1474.6166.0314-.0586-1.1472-.6165.2116-.3931,1.1887.6387.0315-.0585-1.1887-.6387.212-.3933,1.1578.6221.0315-.0586-1.1579-.6221.2118-.3934,1.1649.6209.0315-.0586L46.5116,60.6l.2131-.3957,1.188.6393.0316-.0585-3.0365-1.632-.0314.0586,1.225.6572-.21.3905L44.68,59.6039l-.0315.0587,1.2106.6551-.2117.3933-1.2066-.6463-.0315.0586,1.2066.6462-.2119.3932-1.22-.649-.0314.0586,1.22.6491-.2118.393-1.2082-.6477-.0314.0586,1.2081.6477-.2216.4114-1.2252-.661-.0315.0586Z"/></g></g><g id="NEW_Inner" data-name="NEW Inner"><polyline class="cls-10" points="21.435 50.855 21.74 52.239 19.193 52.803 18.025 47.532 20.573 46.968 20.889 48.398"/><polyline class="cls-10" points="21.239 49.972 21.158 49.603 21.067 49.195"/><line class="cls-10" x1="18.608" y1="50.167" x2="21.1575" y2="49.6034"/><polyline class="cls-10" points="23.413 51.062 23.625 52.006 27.729 51.112"/><polyline class="cls-10" points="28.594 50.906 29.092 50.795 27.846 45.171 22.38 46.383 23.205 50.127"/><line class="cls-10" x1="25.8211" y1="51.5338" x2="24.5677" y2="45.8777"/><line class="cls-10" x1="22.9883" y1="49.1292" x2="25.1737" y2="48.6443"/><polyline class="cls-10" points="25.995 53.206 23.989 53.649 24.652 56.644 30.119 55.434 29.456 52.439 27.028 52.985"/><polyline class="cls-10" points="23.168 58.843 22.908 57.512 20.359 58.075 21.527 63.349 24.064 62.744 23.763 61.372"/><line class="cls-10" x1="23.5819" y1="60.5506" x2="23.4129" y2="59.7873"/><line class="cls-10" x1="20.9444" y1="60.7167" x2="23.4745" y2="60.1524"/><polyline class="cls-10" points="31.144 67.508 30.946 66.608 27.049 67.472 28.295 73.096 32.191 72.233 32.005 71.393"/><line class="cls-10" x1="31.4648" y1="68.9512" x2="31.6846" y2="69.9485"/><line class="cls-10" x1="27.726" y1="70.5269" x2="31.6328" y2="69.6562"/><line class="cls-10" x1="29.783" y1="72.7617" x2="29.2147" y2="70.1951"/><polyline class="cls-10" points="28.295 73.096 29.425 78.192 33.331 77.375 33.23 76.921"/><line class="cls-10" x1="33.018" y1="75.965" x2="32.4404" y2="73.3728"/><line class="cls-10" x1="28.8408" y1="75.5382" x2="32.7025" y2="74.6936"/><line class="cls-10" x1="32.1915" y1="72.2329" x2="32.2475" y2="72.4904"/><path class="cls-10" d="M27.8991,80.005a12.2055,12.2055,0,0,0-.3208-1.404l-2.5472.5641.58,2.6214.5864,2.65,2.5483-.5644-.3126-1.471"/><polyline class="cls-10" points="25.611 81.787 28.162 81.236 28.083 80.876"/><line class="cls-10" x1="28.2453" y1="81.6081" x2="28.162" y2="81.2364"/><polyline class="cls-10" points="30.768 92.952 31.082 94.417 28.534 94.981 27.365 89.709 29.914 89.145 30.225 90.553"/><line class="cls-10" x1="30.4151" y1="91.4056" x2="30.5864" y2="92.1839"/><line class="cls-10" x1="27.9542" y1="92.3451" x2="30.4927" y2="91.7819"/><polyline class="cls-10" points="34.756 93.543 34.057 94.832 36.429 96.12 39.007 91.374 36.634 90.085 35.944 91.336"/><line class="cls-10" x1="35.1454" y1="92.8286" x2="35.5302" y2="92.1181"/><line class="cls-10" x1="37.7113" y1="93.7431" x2="35.3378" y2="92.4537"/><polyline class="cls-10" points="38.085 80.671 39.266 81.313 37.793 84.022 34.331 82.156 35.845 79.454 36.209 79.652"/><line class="cls-10" x1="36.9772" y1="80.0692" x2="37.3182" y2="80.2533"/><line class="cls-10" x1="35.6534" y1="82.8694" x2="37.1477" y2="80.144"/><line class="cls-10" x1="35.2344" y1="80.5444" x2="35.7942" y2="80.8607"/><line class="cls-10" x1="36.5647" y1="81.2714" x2="36.3508" y2="81.1571"/><polyline class="cls-10" points="40.72 78.636 42.806 74.797 37.884 72.124 35.134 77.186 35.583 77.429"/><polyline class="cls-10" points="36.364 77.854 40.055 79.859 40.283 79.439"/><polyline class="cls-10" points="41.118 66.382 42.104 64.566 46.849 67.143 42.707 74.766"/><line class="cls-10" x1="38.5183" y1="71.1662" x2="40.6617" y2="67.2208"/><line class="cls-10" x1="45.1867" y1="70.1499" x2="40.4497" y2="67.5776"/><line class="cls-10" x1="37.9686" y1="72.1692" x2="38.1037" y2="71.9296"/><line class="cls-10" x1="45.4834" y1="73.7952" x2="45.8683" y2="73.0867"/><polyline class="cls-10" points="46.256 72.375 46.946 71.106 49.317 72.395 46.739 77.14 44.367 75.851 45.067 74.564"/><line class="cls-10" x1="45.6586" y1="73.4789" x2="48.02" y2="74.7629"/><polyline class="cls-10" points="44.098 63.619 47.788 65.624 49.456 62.555"/><polyline class="cls-10" points="49.915 61.709 50.538 60.562 45.617 57.889 42.869 62.95 43.349 63.211"/><polyline class="cls-10" points="49.536 58.102 51.341 59.084 52.807 56.388 47.884 53.716 46.421 56.411 48.61 57.591"/><polyline class="cls-10" points="50.231 65.055 49.523 66.361 51.895 67.65 54.473 62.904 52.1 61.615 51.435 62.84"/><path class="cls-10" d="M50.6162,64.3463l.3969-.7306"/><line class="cls-10" x1="53.1833" y1="65.2793" x2="50.8299" y2="63.9887"/><line class="cls-10" x1="46.6735" y1="63.0941" x2="48.6032" y2="59.5108"/><line class="cls-10" x1="40.8734" y1="73.7472" x2="38.8794" y2="77.35"/></g><g id="NEW_Outer" data-name="NEW Outer"><polygon class="cls-11" points="31.634 27.212 8.693 19.339 28.431 108.962 32.601 109.549 69.51 41.607 69.979 40.374 55.482 35.398 53.356 39.312 35.189 43.345 31.634 27.212"/><polygon class="cls-10" points="31.082 27.585 34.688 44.002 35.772 43.775 53.687 39.812 55.841 35.993 69.426 40.616 69.031 41.459 32.234 109.089 28.811 108.59 9.533 20.293 31.082 27.585"/></g><g id="Anchor"><line class="cls-1" x2="7.5"/></g></svg>