<svg xmlns="http://www.w3.org/2000/svg" xmlns:xlink="http://www.w3.org/1999/xlink" ><defs><style>.cls-1,.cls-10,.cls-11,.cls-3,.cls-5{fill:none;}.cls-2{fill:#898d87;}.cls-10,.cls-11,.cls-2,.cls-3,.cls-4,.cls-5{stroke:#b4897d;}.cls-2,.cls-3{stroke-miterlimit:10;}.cls-10,.cls-2,.cls-3,.cls-4,.cls-5{stroke-width:0.08px;}.cls-4{fill:#fff;}.cls-4,.cls-5{stroke-linecap:square;}.cls-6{clip-path:url(#clip-path);}.cls-7{fill:#b4897d;}.cls-8{clip-path:url(#clip-path-2);}.cls-9{clip-path:url(#clip-path-3);}.cls-11{stroke-width:0.16px;}</style><clipPath id="clip-path"><rect class="cls-1" x="24.8992" y="45.8555" width="3.6351" height="3.9096" transform="translate(-10.0139 7.1843) rotate(-12.9204)"/></clipPath><clipPath id="clip-path-2"><rect class="cls-1" x="36.3013" y="73.1344" width="3.9196" height="3.6694" transform="matrix(0.4715, -0.8819, 0.8819, 0.4715, -45.8917, 73.361)"/></clipPath><clipPath id="clip-path-3"><rect class="cls-1" x="44.0154" y="58.8937" width="3.9196" height="3.6694" transform="translate(-29.2566 72.6377) rotate(-61.8673)"/></clipPath></defs><title>6</title><g id="Stairs_Outline" data-name="Stairs Outline"><path class="cls-2" d="M35.7328,44.4735a1.7275,1.7275,0,0,1-.4357.5349l-4.1347,3.38a3.4862,3.4862,0,0,0-.6864.7015c-.16.2881.0349,1.0483.0349,1.0483l4.2724,19.17.47.27.8875-1.5206,1.4938.6109-.9482,1.7251.2526.14,4.52-8.3265a1.8076,1.8076,0,0,0-.977-.1035c-.3879.1251-.9591.634-1.011.56l-.8029-1.53,5.1429-3.287,4.8742-8.9Z"/><path class="cls-3" d="M35.7328,44.4735a1.7275,1.7275,0,0,1-.4357.5349l-4.1347,3.38a3.4862,3.4862,0,0,0-.6864.7015c-.16.2881.0349,1.0483.0349,1.0483l4.2724,19.17.47.27.8875-1.5206,1.4938.6109-.9482,1.7251.2526.14,4.52-8.3265a1.8076,1.8076,0,0,0-.977-.1035c-.3879.1251-.9591.634-1.011.56l-.8029-1.53,5.1429-3.287,4.8742-8.9Z"/></g><g id="Stairs"><path class="cls-4" d="M43.9176,57.6843l-8.933,5.7465a2.3816,2.3816,0,0,0-.8017.6893,1.5064,1.5064,0,0,0-.1775.8751l.9693,4.4437L36.7913,70.46l-.7667-4.5312a1.424,1.424,0,0,1,.0612-.5963,1.5291,1.5291,0,0,1,.5268-.6307l3.4316-2.3629a1.6907,1.6907,0,0,1,.8325-.2458,1.2909,1.2909,0,0,1,.5723.1381Z"/><line class="cls-5" x1="35.3834" y1="63.226" x2="36.3641" y2="64.8268"/><line class="cls-5" x1="35.8749" y1="62.9171" x2="36.8556" y2="64.5179"/><line class="cls-5" x1="36.3664" y1="62.6082" x2="37.3241" y2="64.1714"/><line class="cls-5" x1="36.8579" y1="62.2993" x2="37.8386" y2="63.9001"/><line class="cls-5" x1="37.3494" y1="61.9904" x2="38.3301" y2="63.5912"/><line class="cls-5" x1="37.8043" y1="61.6217" x2="38.7871" y2="63.226"/><line class="cls-5" x1="38.2957" y1="61.3127" x2="39.2502" y2="62.8707"/><line class="cls-5" x1="38.7871" y1="61.0036" x2="39.7318" y2="62.5455"/><line class="cls-5" x1="39.2744" y1="60.6908" x2="40.2095" y2="62.2141"/><line class="cls-5" x1="39.7731" y1="60.3788" x2="40.8147" y2="62.079"/><line class="cls-5" x1="40.2612" y1="60.0762" x2="41.4821" y2="62.069"/><line class="cls-5" x1="40.732" y1="59.7335" x2="41.8036" y2="61.4826"/><line class="cls-5" x1="41.2224" y1="59.4228" x2="42.1282" y2="60.9012"/><line class="cls-5" x1="41.7107" y1="59.1087" x2="42.4518" y2="60.3183"/><line class="cls-5" x1="42.197" y1="58.7912" x2="42.7906" y2="59.7602"/><line class="cls-5" x1="42.6853" y1="58.477" x2="43.0934" y2="59.1432"/><line class="cls-5" x1="34.3525" y1="66.5767" x2="36.068" y2="66.3034"/><line class="cls-5" x1="34.2655" y1="65.9859" x2="35.981" y2="65.7126"/><line class="cls-5" x1="34.0116" y1="64.8268" x2="36.0858" y2="65.3327"/><line class="cls-5" x1="34.4754" y1="63.7849" x2="36.2361" y2="65.0494"/><line class="cls-5" x1="34.4754" y1="67.0988" x2="36.1464" y2="66.8325"/><line class="cls-5" x1="34.5983" y1="67.6209" x2="36.2466" y2="67.3583"/><line class="cls-5" x1="34.7212" y1="68.143" x2="36.3641" y2="67.8812"/><line class="cls-5" x1="34.8441" y1="68.665" x2="36.4379" y2="68.4111"/><line class="cls-5" x1="34.967" y1="69.1871" x2="36.506" y2="68.942"/><line class="cls-5" x1="35.3346" y1="69.6703" x2="36.6043" y2="69.468"/><path class="cls-4" d="M32.24,57.828,38.8988,63.06s.65.5311.7442.88a1.0139,1.0139,0,0,1-.06.8935c-.1835.4061-2.87,5.5845-2.87,5.5845L35.3346,69.67l2.3-4.0495a3.064,3.064,0,0,0,.2294-.8021.862.862,0,0,0-.4018-.6644c-.2253-.1786-2.2832-1.8707-2.8717-2.2891a1.6377,1.6377,0,0,0-.9459-.3521,1.2917,1.2917,0,0,0-.5724.1381Z"/><line class="cls-5" x1="38.5918" y1="62.8188" x2="37.573" y2="64.209"/><line class="cls-5" x1="38.1055" y1="62.4367" x2="37.0822" y2="63.8458"/><line class="cls-5" x1="37.6479" y1="62.079" x2="36.6599" y2="63.4394"/><line class="cls-5" x1="37.1599" y1="61.7631" x2="36.1904" y2="63.0981"/><line class="cls-5" x1="36.7188" y1="61.3827" x2="35.7267" y2="62.7488"/><line class="cls-5" x1="36.257" y1="61.0306" x2="35.2944" y2="62.3562"/><line class="cls-5" x1="35.8104" y1="60.6578" x2="34.8136" y2="62.0304"/><line class="cls-5" x1="35.3446" y1="60.3114" x2="34.3429" y2="61.6907"/><line class="cls-5" x1="34.9093" y1="59.9255" x2="33.7764" y2="61.4826"/><line class="cls-5" x1="34.44" y1="59.5708" x2="33.0516" y2="61.4826"/><line class="cls-5" x1="33.9891" y1="59.2143" x2="32.8769" y2="60.7458"/><line class="cls-5" x1="33.5296" y1="58.8592" x2="32.7258" y2="59.9659"/><line class="cls-5" x1="33.0516" y1="58.5296" x2="32.5423" y2="59.2307"/><line class="cls-5" x1="38.9223" y1="66.1243" x2="37.6748" y2="65.5624"/><line class="cls-5" x1="39.3574" y1="65.2078" x2="37.8435" y2="64.9783"/><line class="cls-5" x1="39.6973" y1="64.2773" x2="37.8537" y2="64.5307"/><line class="cls-5" x1="39.3384" y1="63.5139" x2="37.717" y2="64.356"/><line class="cls-5" x1="38.659" y1="66.5767" x2="37.4958" y2="65.9496"/><line class="cls-5" x1="38.4054" y1="67.066" x2="37.2078" y2="66.4204"/><line class="cls-5" x1="38.1469" y1="67.6205" x2="36.8871" y2="66.9413"/><line class="cls-5" x1="37.8435" y1="68.132" x2="36.6043" y2="67.464"/><line class="cls-5" x1="37.573" y1="68.6161" x2="36.3178" y2="67.9394"/><line class="cls-5" x1="37.3363" y1="69.1239" x2="36.068" y2="68.4444"/><line class="cls-5" x1="37.0712" y1="69.5691" x2="35.8104" y2="68.8776"/><line class="cls-5" x1="36.8485" y1="70.0115" x2="35.5446" y2="69.3005"/><g class="cls-6"><path class="cls-7" d="M24.6485,46.402l3.313-.7527.0147.0646-3.3129.7528Zm3.4319-.2548-3.2963.7489.0146.0647,3.2964-.749ZM26.887,49.654l-.557-2.4627.4681-.1059.5527,2.443,1.3862-.3121-.0146-.0647-1.2778.29-.0978-.4327,1.2583-.2859-.0148-.0646-1.2581.2858-.0983-.4343,1.3036-.2962-.0147-.0647-1.3035.2962-.0983-.4346,1.27-.2886-.0148-.0647-1.27.2886-.0984-.4346L28.3,47.22l-.0147-.0647-1.292.292-.099-.4371,1.3035-.2954-.0147-.0647-3.2919.7483.0147.0647,1.3045-.298.0977.4314-1.2807.291.0148.0648,1.2805-.2911.0983.4345-1.28.2909.0148.0647,1.28-.2909.0983.4345-1.2621.2869.0147.0646,1.2621-.2867.0983.4344-1.2793.2906.0147.0647,1.2792-.2906.1028.4546-1.2957.2944.0147.0647Z"/></g><g class="cls-8"><path class="cls-7" d="M37.6145,72.5371,40.6354,74.16l-.0314.0586-3.021-1.6233Zm2.7831,2.078L37.3918,73l-.0316.0586,3.0059,1.6152Zm-3.3211,1.8057,0,.0006.0982.053,1.2-2.2287.4266.23-.1882.3494L38.61,74.823l-.0314.0586.0032.0017-.9711,1.803.0472.0256-.0012.0023,1.2161.6536.0316-.0586-1.1652-.6261.211-.3916,1.1474.6166.0314-.0586-1.1472-.6165.2116-.3931,1.1887.6387.0315-.0585-1.1887-.6387.212-.3933,1.1578.6221.0315-.0586L38.4683,75.33l.2118-.3934,1.1147.5989.0314-.0586-1.1146-.5988.2131-.3957,1.188.6393.0316-.0585-2.9359-1.58-.0315.0586,1.1245.6051-.21.3905L36.9233,73.91l-.0315.0587,1.1677.6273-.2117.3933L36.68,74.3614l-.0314.0586,1.1674.6273-.2119.3932-1.1509-.6184-.0315.0586,1.1509.6185-.2118.393-1.1665-.6268-.0315.0586,1.1665.6268-.2216.4114-1.1816-.6349-.0314.0586Z"/></g><g class="cls-9"><path class="cls-7" d="M45.3285,58.2964,48.35,59.92l-.0314.0586-3.021-1.6233Zm2.7831,2.078-3.0058-1.6152-.0315.0586L48.08,60.433ZM44.7906,62.18l0,.0006.0982.0529,1.2-2.2286.4266.23-.1881.3494-.0033-.0018-.0315.0586.0032.0017-.9711,1.803.0473.0256-.0013.0023,1.2162.6536.0316-.0586-1.1652-.6261.211-.3916,1.1473.6166.0315-.0586-1.1473-.6165.2116-.3931,1.1888.6387.0314-.0585-1.1886-.6387.2119-.3933,1.1579.6221.0315-.0586-1.158-.6221.2118-.3934,1.1147.5989.0315-.0586-1.1146-.5988.213-.3957,1.1881.6393.0315-.0585-2.9359-1.58-.0315.0586,1.1245.6051-.21.3905-1.1678-.6275-.0316.0587,1.1678.6273-.2117.3933-1.1675-.6274-.0315.0586,1.1674.6273-.2118.3932-1.151-.6184-.0314.0586,1.1508.6185-.2117.393-1.1665-.6268-.0315.0586,1.1664.6268-.2215.4114-1.1816-.6349-.0315.0586Z"/></g></g><g id="NEW_Inner" data-name="NEW Inner"><polyline class="cls-10" points="28.433 82.442 28.745 83.872 26.198 84.437 25.03 79.164 27.577 78.6 27.899 80.019"/><line class="cls-10" x1="28.0823" y1="80.8757" x2="28.2576" y2="81.639"/><line class="cls-10" x1="25.609" y1="81.7785" x2="28.1937" y2="81.2289"/><polyline class="cls-10" points="30.222 90.541 29.913 89.144 27.364 89.71 28.533 94.982 31.081 94.416 30.772 92.987"/><line class="cls-10" x1="30.5795" y1="92.1516" x2="30.4133" y2="91.3739"/><line class="cls-10" x1="27.9525" y1="92.346" x2="30.5049" y2="91.7855"/><polyline class="cls-10" points="34.742 93.549 34.055 94.831 36.428 96.12 39.006 91.374 36.634 90.086 35.939 91.365"/><line class="cls-10" x1="35.1391" y1="92.8027" x2="35.5155" y2="92.1158"/><line class="cls-10" x1="37.7088" y1="93.7431" x2="35.3009" y2="92.4338"/><polyline class="cls-10" points="41.088 81.885 41.789 80.595 44.161 81.884 41.584 86.629 39.211 85.34 39.905 84.042"/><line class="cls-10" x1="40.2943" y1="83.3126" x2="40.6877" y2="82.6237"/><line class="cls-10" x1="42.8642" y1="84.253" x2="40.4638" y2="82.9478"/><polyline class="cls-10" points="38.085 80.671 39.265 81.311 37.786 84.034 34.385 82.171 35.814 79.43 36.209 79.652"/><line class="cls-10" x1="36.9493" y1="80.0359" x2="37.3375" y2="80.264"/><path class="cls-10" d="M35.6352,82.8648c-.0077-.0295,1.4924-2.7149,1.4924-2.7149"/><line class="cls-10" x1="35.2107" y1="80.5444" x2="35.7837" y2="80.855"/><line class="cls-10" x1="36.3545" y1="81.1571" x2="36.5033" y2="81.2402"/><polyline class="cls-10" points="40.743 78.594 42.804 74.797 37.883 72.123 35.134 77.186 35.583 77.429"/><polyline class="cls-10" points="36.364 77.854 40.055 79.859 40.283 79.439"/><line class="cls-10" x1="40.8264" y1="73.7177" x2="38.0864" y2="78.7897"/><line class="cls-10" x1="41.4639" y1="77.2659" x2="39.4906" y2="76.1946"/><polyline class="cls-10" points="47.653 69.801 46.943 71.106 49.317 72.394 51.894 67.648 49.521 66.36 48.862 67.575"/><line class="cls-10" x1="48.0454" y1="69.0791" x2="48.4354" y2="68.3611"/><line class="cls-10" x1="50.6061" y1="70.0228" x2="48.23" y2="68.7306"/><polyline class="cls-10" points="41.101 66.412 42.061 64.645 46.804 67.222 45.184 70.148 40.464 67.585 40.645 67.252"/><polyline class="cls-10" points="49.915 61.709 50.538 60.563 45.617 57.889 42.867 62.951 43.315 63.194"/><polyline class="cls-10" points="44.097 63.619 47.788 65.623 49.479 62.513"/><line class="cls-10" x1="48.5349" y1="59.4884" x2="45.8113" y2="64.5662"/><line class="cls-10" x1="49.108" y1="63.1397" x2="47.142" y2="62.0852"/><path class="cls-10" d="M48.647,57.6058s-2.24-1.191-2.2267-1.195,1.4628-2.6958,1.4628-2.6958l4.9226,2.673-1.4646,2.6959-1.8056-.982"/><polyline class="cls-10" points="33.139 76.98 33.221 77.35 29.521 78.169 28.392 73.074 32.092 72.254 32.142 72.475"/><line class="cls-10" x1="32.3405" y1="73.3728" x2="32.9329" y2="76.0478"/><line class="cls-10" x1="28.9314" y1="75.5089" x2="32.6175" y2="74.7182"/><polyline class="cls-10" points="31.144 67.508 30.945 66.608 27.049 67.471 28.295 73.094 28.413 73.068"/><polyline class="cls-10" points="32.092 72.254 32.189 72.232 32.005 71.393"/><line class="cls-10" x1="31.6846" y1="69.9485" x2="31.464" y2="68.9526"/><line class="cls-10" x1="27.7251" y1="70.5266" x2="31.622" y2="69.665"/><polyline class="cls-10" points="26.087 53.185 23.988 53.65 24.651 56.644 30.118 55.432 29.455 52.438 27.028 52.985"/><polyline class="cls-10" points="28.594 50.906 29.091 50.795 27.846 45.171 22.379 46.383 23.205 50.113"/><polyline class="cls-10" points="23.413 51.052 23.625 52.007 27.667 51.112"/><path class="cls-10" d="M22.975,49.0741c.065.0411,2.208-.4324,2.208-.4324L24.56,45.8962"/><path class="cls-10" d="M25.8453,51.515c.0018-.0209-.6623-2.8733-.6623-2.8733"/><polyline class="cls-10" points="24.336 64.116 24.075 62.783 21.526 63.347 22.694 68.62 25.242 68.056 24.942 66.626"/><line class="cls-10" x1="24.5731" y1="65.0301" x2="24.7275" y2="65.8089"/><path class="cls-10" d="M22.1063,65.9853c.0388-.0079,2.5435-.5685,2.5435-.5685"/><polyline class="cls-10" points="31.587 62.524 32.012 64.446 26.74 65.614 24.766 56.606"/><polyline class="cls-10" points="31.38 61.591 31.29 61.186 26.034 62.353"/><line class="cls-10" x1="31.2903" y1="61.1859" x2="30.3985" y2="57.246"/><line class="cls-10" x1="30.2128" y1="56.3193" x2="29.9941" y2="55.448"/></g><g id="NEW_Outer" data-name="NEW Outer"><polygon class="cls-11" points="32.6 109.549 28.431 108.962 15.706 51.503 14.2 36.509 61.352 52.693 56.558 65.447 32.6 109.549"/><polygon class="cls-10" points="60.582 53.054 14.796 37.271 16.262 51.338 28.867 108.515 32.344 109.021 55.978 65.235 60.582 53.054"/></g><g id="Anchor"><line class="cls-1" x2="7.5"/></g></svg>