<svg xmlns="http://www.w3.org/2000/svg" xmlns:xlink="http://www.w3.org/1999/xlink" ><defs><style>.cls-1,.cls-4,.cls-5,.cls-7{fill:none;}.cls-2{fill:#889196;}.cls-2,.cls-3,.cls-4,.cls-5,.cls-6,.cls-7{stroke:#b4897d;}.cls-2,.cls-6{stroke-miterlimit:10;}.cls-2,.cls-3,.cls-4,.cls-5,.cls-6{stroke-width:0.08px;}.cls-3{fill:#fff;}.cls-3,.cls-4,.cls-7{stroke-linecap:square;}.cls-6{fill:#f8cdc3;}.cls-7{stroke-width:0.16px;}.cls-8{clip-path:url(#clip-path);}.cls-9{fill:#b4897d;}</style><clipPath id="clip-path"><rect class="cls-1" x="36.3008" y="73.1292" width="3.9196" height="3.6694" transform="translate(-45.8873 73.3578) rotate(-61.8673)"/></clipPath></defs><title>7</title><g id="Stairs_Outline" data-name="Stairs Outline"><polyline class="cls-2" points="43.06 62.6 30.764 58.419 33.182 69.269 35.016 68.816 38.619 70.748 43.06 62.6"/></g><g id="Stairs"><path class="cls-3" d="M35.0372,68.7977a5.2574,5.2574,0,0,1-.1209-1.4148,1.5292,1.5292,0,0,1,.5268-.6306l3.4316-2.3629a1.6915,1.6915,0,0,1,.8325-.2459,1.2909,1.2909,0,0,1,.5723.1381l1.2158-2.2393-1.5274-.5193-6.1528,3.958a2.3829,2.3829,0,0,0-.8017.6893,1.5065,1.5065,0,0,0-.1775.8751l.4738,2.1719"/><line class="cls-4" x1="34.2139" y1="65.2762" x2="35.1946" y2="66.877"/><line class="cls-4" x1="34.7054" y1="64.9673" x2="35.6861" y2="66.5681"/><line class="cls-4" x1="35.1969" y1="64.6584" x2="36.1546" y2="66.2217"/><line class="cls-4" x1="35.6884" y1="64.3495" x2="36.6691" y2="65.9503"/><line class="cls-4" x1="36.1799" y1="64.0406" x2="37.1606" y2="65.6414"/><line class="cls-4" x1="36.6348" y1="63.6719" x2="37.6177" y2="65.2762"/><line class="cls-4" x1="37.1262" y1="63.3629" x2="38.0807" y2="64.9209"/><line class="cls-4" x1="37.6177" y1="63.0539" x2="38.5623" y2="64.5957"/><line class="cls-4" x1="38.1049" y1="62.7411" x2="39.04" y2="64.2643"/><line class="cls-4" x1="38.6036" y1="62.429" x2="39.6452" y2="64.1293"/><line class="cls-4" x1="39.0917" y1="62.1265" x2="40.3126" y2="64.1193"/><line class="cls-4" x1="39.5625" y1="61.7838" x2="40.6341" y2="63.5328"/><path class="cls-4" d="M40.9587,62.9515"/><path class="cls-4" d="M40.0529,61.4731"/><path class="cls-4" d="M41.2823,62.3685"/><path class="cls-4" d="M40.5413,61.159"/><path class="cls-4" d="M41.6211,61.81"/><path class="cls-4" d="M41.0275,60.8414"/><path class="cls-4" d="M41.9239,61.1934"/><path class="cls-4" d="M41.5158,60.5273"/><line class="cls-4" x1="33.183" y1="68.6269" x2="34.8985" y2="68.3536"/><line class="cls-4" x1="33.096" y1="68.0362" x2="34.8115" y2="67.7629"/><line class="cls-4" x1="32.8421" y1="66.877" x2="34.9163" y2="67.3829"/><line class="cls-4" x1="33.3059" y1="65.8352" x2="35.0666" y2="67.0996"/><line class="cls-4" x1="33.3025" y1="69.1846" x2="34.9769" y2="68.7977"/><path class="cls-4" d="M35.0771,69.4085"/><path class="cls-4" d="M33.4288,69.6711"/><path class="cls-4" d="M35.1946,69.9315"/><path class="cls-4" d="M33.5517,70.1932"/><path class="cls-4" d="M35.2684,70.4614"/><path class="cls-4" d="M33.6746,70.7153"/><path class="cls-4" d="M35.3365,70.9922"/></g><g id="NEW_Inner" data-name="NEW Inner"><polyline class="cls-5" points="38.498 80.895 39.239 81.298 37.537 84.432 34.26 82.652 34.787 78.88 36.226 79.663"/><line class="cls-5" x1="36.9279" y1="80.0324" x2="37.6944" y2="80.459"/><polyline class="cls-5" points="39.239 81.298 42.805 74.798 37.883 72.126 35.134 77.186 35.583 77.429"/><line class="cls-5" x1="36.3645" y1="77.8543" x2="38.8249" y2="79.1909"/><line class="cls-5" x1="39.607" y1="79.6157" x2="40.0341" y2="79.849"/><line class="cls-5" x1="40.5623" y1="72.3767" x2="40.8027" y2="71.9623"/><line class="cls-5" x1="40.067" y1="73.3192" x2="40.137" y2="73.1878"/><polyline class="cls-5" points="41.961 72.576 38.611 70.785 40.375 67.537 42.867 62.952 44.866 64.036 43.069 67.344 44.16 67.907"/><polyline class="cls-5" points="42.756 73.007 42.966 73.138 43.897 71.426 44.13 71.552 45.062 69.838 42.712 68.558 40.803 71.962"/><polyline class="cls-5" points="28.839 75.556 28.905 75.855 32.779 74.984 32.095 71.802"/><line class="cls-5" x1="27.6289" y1="70.0887" x2="28.6759" y2="74.724"/><polyline class="cls-5" points="27.726 70.55 31.62 69.665 30.945 66.61 27.049 67.473 27.087 67.648 26.478 67.783"/><line class="cls-5" x1="32.0631" y1="69.5168" x2="31.6204" y2="69.616"/><line class="cls-5" x1="28.2978" y1="73.0915" x2="32.1905" y2="72.2457"/><line class="cls-5" x1="29.2285" y1="70.1958" x2="29.794" y2="72.7639"/><line class="cls-5" x1="31.6204" y1="69.665" x2="31.6844" y2="69.9475"/><line class="cls-5" x1="30.0938" y1="66.8033" x2="27.9868" y2="57.4499"/><line class="cls-5" x1="30.873" y1="58.8473" x2="28.4166" y2="59.4001"/><polyline class="cls-5" points="30.785 58.401 32.515 66.252 33.182 69.269 32.735 69.368"/><line class="cls-5" x1="30.9448" y1="66.6098" x2="32.5148" y2="66.2515"/><polyline class="cls-5" points="24.733 90.293 29.805 89.169 28.887 85.106"/><polyline class="cls-5" points="23.579 85.018 28.638 83.898 28.694 84.145"/><polyline class="cls-5" points="22.861 79.646 27.47 78.624 27.526 78.873"/><line class="cls-5" x1="27.733" y1="79.8081" x2="28.6378" y2="83.8979"/><line class="cls-5" x1="27.4699" y1="78.6244" x2="26.5723" y2="74.5671"/><path class="cls-5" d="M26.3582,73.6005c-.0069-.0312-.0559-.2484-.0559-.2484l-3.9767.8807"/><line class="cls-5" x1="25.3642" y1="69.2508" x2="26.3023" y2="73.3521"/><polyline class="cls-5" points="25.197 68.362 25.135 68.081 21.791 68.821"/><line class="cls-5" x1="25.6378" y1="67.9685" x2="25.1349" y2="68.0809"/><polyline class="cls-5" points="38.64 70.747 35.069 68.801 34.486 68.929"/><line class="cls-5" x1="33.1815" y1="69.2173" x2="33.603" y2="69.125"/><line class="cls-5" x1="29.8052" y1="89.1691" x2="30.2078" y2="89.0809"/><path class="cls-5" d="M31.074,88.8888l2.4108-.5233,1.0658.579,6.7845,3.6965"/><line class="cls-5" x1="43.2705" y1="75.2705" x2="42.7333" y2="74.9639"/><line class="cls-5" x1="44.0789" y1="75.7097" x2="47.4748" y2="77.5422"/><path class="cls-6" d="M38.8915,67.0943"/><line class="cls-5" x1="38.8706" y1="77.3353" x2="40.894" y2="73.7492"/><line class="cls-5" x1="33.4452" y1="88.3741" x2="33.6151" y2="87.2578"/><line class="cls-5" x1="33.7385" y1="86.2776" x2="34.2604" y2="82.6518"/></g><g id="NEW_Outer" data-name="NEW Outer"><polygon class="cls-7" points="32.599 109.55 28.43 108.963 22.809 83.58 19.852 54.132 52.479 65.35 43.265 89.916 32.599 109.55"/><polygon class="cls-4" points="20.412 54.875 23.237 83.45 28.749 108.665 32.349 109.146 42.971 89.636 51.926 65.588 20.412 54.875"/></g><g id="Anchor"><g class="cls-8"><path class="cls-9" d="M37.614,72.5319l3.0209,1.6233-.0314.0585L37.5825,72.59Zm2.7831,2.078-3.0058-1.6152-.0316.0585,3.0059,1.6153Zm-3.2232,1.8592,1.2-2.2286.4266.23L37.61,76.6811l1.2857.6931.0316-.0585-1.1888-.6378.211-.3917,1.1474.6166.0314-.0585-1.1472-.6166.2116-.393,1.1887.6387.0315-.0586-1.1887-.6386.212-.3933,1.1578.6221.0315-.0586-1.1579-.6221.2118-.3934,1.1978.6424.0314-.0586-1.1976-.6423.213-.3957,1.188.6393.0316-.0585-2.983-1.6046-.0315.0586,1.1716.63-.21.3905-1.1678-.6276-.0315.0587,1.1677.6274-.2117.3932L36.68,74.3562l-.0314.0586,1.1674.6272-.2119.3933-1.1509-.6184-.0315.0586,1.1509.6184-.2118.3931L36.1941,75.26l-.0315.0586,1.1665.6268-.2216.4114-1.1816-.635-.0314.0586Z"/></g><line class="cls-1" x2="7.5"/></g></svg>