<svg xmlns="http://www.w3.org/2000/svg" xmlns:xlink="http://www.w3.org/1999/xlink">
    <g id="storey-U2">
        <g id="product-U2-Y06-M">
        </g>
        <g id="product-U2-Y09-I">
        </g>
        <g id="product-U2-X10-M">
        </g>
        <g id="product-U2-Y07-M">
        </g>
        <g id="product-U2-X08-M">
        </g>
        <g id="product-U2-X12-S">
        </g>
        <g id="product-U2-X08-G">
        </g>
        <g id="product-U2-Y08-O">
        </g>
        <g id="product-U2-Y06-I">
        </g>
        <g id="product-U2-X07-G">
        </g>
        <g id="product-U2-X13-R">
        </g>
        <g id="product-U2-X07-H">
        </g>
        <g id="product-U2-Y08-L">
        </g>
        <g id="product-U2-Y08-I">
        </g>
        <g id="product-U2-Y07-J">
        </g>
        <g id="product-U2-X07-K">
        </g>
        <g id="product-U2-X05-A">
        </g>
        <g id="product-U2-X11-A">
        </g>
        <g id="product-U2-Y03-A">
        </g>
        <g id="product-U2-X12-J">
        </g>
        <g id="product-U2-X12-R">
        </g>
        <g id="product-U2-X12-Q">
        </g>
        <g id="product-U2-X12-O">
        </g>
        <g id="product-U2-X06-G">
        </g>
        <g id="product-U2-Y07-I">
        </g>
        <g id="product-U2-X11-I">
        </g>
        <g id="product-U2-X12-T">
        </g>
        <g id="product-U2-X12-R">
        </g>
        <g id="product-U2-X13-Q">
        </g>
    </g>
    <g id="storey-03">
        <g id="product-03-Y03-C">
            <path style="stroke:none; fill:none;"  pointer-events="visible" d="M38.815,91.405 L36.6581,90.2333 L35.4431,92.4696 L37.6,93.6414 L38.815,91.405"/>
        </g>
        <g id="product-03-Y12-G">
            <path style="stroke:none; fill:none;"  pointer-events="visible" d="M55.7701,45.2603 L54.5595,47.4887 L56.6583,48.6289 L56.8257,48.7198 L57.4185,47.6286 L57.3767,47.6059 L57.8493,46.736 L57.891,46.7587 L57.9817,46.5917 L57.6549,46.4141 L57.7094,46.3138 L55.7701,45.2603"/>
        </g>
        <g id="product-03-X14-H">
            <path style="stroke:none; fill:none;"  pointer-events="visible" d="M19.7283,33.4054 L20.2545,35.7816 L20.5298,35.7207 L20.5545,35.8321 L25.0457,34.8375 L25.021,34.726 L25.3842,34.6456 L25.3431,34.4601 L25.2973,34.4703 L25.0832,33.5037 L25.1291,33.4935 L24.858,32.2693 L19.7283,33.4054"/>
        </g>
        <g id="product-03-X09-D">
            <path style="stroke:none; fill:none;"  pointer-events="visible" d="M23.4247,60.2018 L21.0281,60.7326 L21.5784,63.2174 L23.975,62.6866 L23.4247,60.2018"/>
        </g>
        <g id="product-03-Y05-I">
            <path style="stroke:none; fill:none;"  pointer-events="visible" d="M36.0726,79.6918 L35.5398,80.6724 L36.5314,81.2111 L37.0641,80.2304 L36.0726,79.6918"/>
        </g>
        <g id="product-03-Y06-G">
            <path style="stroke:none; fill:none;"  pointer-events="visible" d="M42.3396,74.9207 L40.8019,74.0853 L39.6512,76.2034 L41.1886,77.0394 L42.3396,74.9207"/>
        </g>
        <g id="product-03-Y09-H">
            <path style="stroke:none; fill:none;"  pointer-events="visible" d="M46.1005,64.3316 L47.6382,65.167 L48.7839,63.0581 L47.2461,62.2227 L46.1005,64.3316"/>
        </g>
        <g id="product-03-X09-C">
            <path style="stroke:none; fill:none;"  pointer-events="visible" d="M23.4166,60.165 L22.8582,57.6438 L20.4616,58.1745 L21.02,60.6957 L23.4166,60.165"/>
        </g>
        <g id="product-03-Y06-H">
            <path style="stroke:none; fill:none;"  pointer-events="visible" d="M39.9051,79.4021 L41.1161,77.173 L39.5787,76.337 L38.3674,78.5668 L39.9051,79.4021"/>
        </g>
        <g id="product-03-Y06-I">
            <path style="stroke:none; fill:none;"  pointer-events="visible" d="M35.5994,77.0631 L38.1037,78.4235 L40.5382,73.9421 L38.0339,72.5817 L35.5994,77.0631"/>
        </g>
        <g id="product-03-X12-D">
            <path style="stroke:none; fill:none;"  pointer-events="visible" d="M19.9218,44.3848 L17.5253,44.9156 L18.0756,47.4004 L20.4721,46.8696 L19.9218,44.3848"/>
        </g>
        <g id="product-03-X11-H">
            <path style="stroke:none; fill:none;"  pointer-events="visible" d="M25.6035,51.2305 L25.055,48.7535 L23.3463,49.1319 L23.8949,51.6089 L25.6035,51.2305"/>
        </g>
        <g id="product-03-Y04-H">
            <path style="stroke:none; fill:none;"  pointer-events="visible" d="M31.5178,87.6487 L34.8423,89.4547 L37.7876,84.033 L34.382,82.183 L35.8599,79.4625 L33.5087,78.1852 L32.1905,72.2331 L28.2949,73.0958 L31.5178,87.6487"/>
        </g>
        <g id="product-03-Y12-C">
            <path style="stroke:none; fill:none;"  pointer-events="visible" d="M59.8575,47.5279 L58.6426,49.7642 L60.7995,50.936 L62.0144,48.6997 L59.8575,47.5279"/>
        </g>
        <g id="product-03-Y09-G">
            <path style="stroke:none; fill:none;"  pointer-events="visible" d="M47.3239,62.0795 L48.8617,62.9149 L50.0727,60.6856 L48.535,59.8502 L47.3239,62.0795"/>
        </g>
        <g id="product-03-Y7-M">
            <path style="stroke:none; fill:none;"  pointer-events="visible" d="M30.4111,49.8169 L30.422,49.8664 L34.945,70.2877 L37.017,70.5784 L53.8919,39.2 L35.5604,43.2607 L35.76,44.1622 L35.77,44.2076 L35.78,44.2999 L35.7798,44.3928 L35.7694,44.485 L35.7488,44.5756 L35.7185,44.6634 L35.6786,44.7473 L35.6298,44.8262 L35.5726,44.8994 L35.5077,44.9658 L35.4745,44.993 L30.7622,48.8786 L30.7346,48.9005 L30.6622,48.9715 L30.5973,49.0494 L30.5406,49.1335 L30.4928,49.223 L30.4542,49.3168 L30.4253,49.414 L30.4064,49.5137 L30.3977,49.6147 L30.3993,49.7161 L30.4111,49.8169"/>
        </g>
        <g id="product-03-Y10-K">
            <path style="stroke:none; fill:none;"  pointer-events="visible" d="M49.4111,54.7033 L48.1634,54.0255 L47.5437,55.1661 L48.7915,55.8439 L49.4111,54.7033"/>
        </g>
        <g id="product-03-Y10-L">
            <path style="stroke:none; fill:none;"  pointer-events="visible" d="M48.7276,55.9617 L47.4798,55.2838 L46.903,56.3455 L48.1508,57.0233 L48.7276,55.9617"/>
        </g>
        <g id="product-03-Y05-H">
            <path style="stroke:none; fill:none;"  pointer-events="visible" d="M37.1555,80.2801 L35.9125,82.5682 L37.8606,83.6265 L39.1036,81.3384 L37.1555,80.2801"/>
        </g>
        <g id="product-03-X12-C">
            <path style="stroke:none; fill:none;"  pointer-events="visible" d="M19.3553,41.8268 L16.9588,42.3576 L17.5091,44.8423 L19.9056,44.3116 L19.3553,41.8268"/>
        </g>
        <g id="product-03-Y12-L">
            <path style="stroke:none; fill:none;"  pointer-events="visible" d="M51.167,48.7185 L53.1371,49.7887 L54.3419,47.5708 L52.2132,46.4144 L52.0462,46.3237 L51.4532,47.4152 L51.4945,47.4376 L51.022,48.3075 L50.9807,48.2851 L50.89,48.4521 L51.2156,48.629 L51.167,48.7185"/>
        </g>
        <g id="product-03-Y10-G">
            <path style="stroke:none; fill:none;"  pointer-events="visible" d="M52.2283,56.2337 L50.9787,55.5549 L50.3591,56.6955 L51.6087,57.3743 L52.2283,56.2337"/>
        </g>
        <g id="product-03-Y12-H">
            <path style="stroke:none; fill:none;"  pointer-events="visible" d="M55.2586,50.8253 L55.585,51.0026 L55.6757,50.8357 L55.6344,50.8132 L56.107,49.9433 L56.1483,49.9657 L56.7412,48.8742 L56.5743,48.7835 L54.4755,47.6434 L53.2706,49.8612 L55.21,50.9148 L55.2586,50.8253"/>
        </g>
        <g id="product-03-X11-G">
            <path style="stroke:none; fill:none;"  pointer-events="visible" d="M24.5008,46.2512 L22.7921,46.6296 L23.3111,48.9728 L25.0197,48.5944 L24.5008,46.2512"/>
        </g>
        <g id="product-03-Y07-D">
            <path style="stroke:none; fill:none;"  pointer-events="visible" d="M46.6603,76.9634 L47.8752,74.7272 L45.7182,73.5554 L44.5033,75.7916 L46.6603,76.9634"/>
        </g>
        <g id="product-03-X13-T">
        </g>
        <g id="product-03-X10-I">
            <path style="stroke:none; fill:none;"  pointer-events="visible" d="M26.083,53.3633 L26.6843,56.0785 L28.223,55.7378 L27.6217,53.0225 L26.083,53.3633"/>
        </g>
        <g id="product-03-Y09-I">
            <path style="stroke:none; fill:none;"  pointer-events="visible" d="M43.3325,62.828 L45.8369,64.1884 L48.2714,59.707 L45.767,58.3465 L43.3325,62.828"/>
        </g>
        <g id="product-03-X07-G">
            <path style="stroke:none; fill:none;"  pointer-events="visible" d="M27.4625,67.7186 L28.0463,70.3547 L31.2585,69.6434 L30.6747,67.0072 L27.4625,67.7186"/>
        </g>
        <g id="product-03-X07-J">
            <path style="stroke:none; fill:none;"  pointer-events="visible" d="M29.8248,72.419 L31.7775,71.9866 L31.3018,69.8386 L29.3491,70.2711 L29.8248,72.419"/>
        </g>
        <g id="product-03-X07-H">
            <path style="stroke:none; fill:none;"  pointer-events="visible" d="M29.6295,72.4623 L29.1538,70.3143 L28.0896,70.55 L28.5653,72.698 L29.6295,72.4623"/>
        </g>
        <g id="product-03-X15-J">
            <path style="stroke:none; fill:none;"  pointer-events="visible" d="M23.6929,27.0088 L21.1583,27.5701 L21.7067,30.0461 L23.8781,29.5652 L23.8534,29.4538 L24.2166,29.3734 L24.1755,29.1878 L24.1297,29.198 L23.9154,28.2306 L23.9613,28.2204 L23.6929,27.0088"/>
        </g>
        <g id="product-03-X6-C">
            <path style="stroke:none; fill:none;"  pointer-events="visible" d="M26.361,73.4603 L23.9644,73.9911 L24.5147,76.4759 L26.9113,75.9451 L26.361,73.4603"/>
        </g>
        <g id="product-03-Y07-C">
            <path style="stroke:none; fill:none;"  pointer-events="visible" d="M46.969,71.2531 L45.754,73.4895 L47.9109,74.6612 L49.1259,72.4249 L46.969,71.2531"/>
        </g>
        <g id="product-03-X14-G">
            <path style="stroke:none; fill:none;"  pointer-events="visible" d="M19.0812,30.8999 L19.1223,31.0854 L19.1681,31.0752 L19.1807,31.1318 L19.3822,32.0418 L19.3363,32.0519 L19.6049,33.2646 L22.1395,32.7033 L21.5911,30.2274 L19.4198,30.7083 L19.4444,30.8194 L19.0812,30.8999"/>
        </g>
        <g id="product-03-X6-D">
            <path style="stroke:none; fill:none;"  pointer-events="visible" d="M26.9275,76.0184 L24.5309,76.5491 L25.0812,79.0339 L27.4778,78.5032 L26.9275,76.0184"/>
        </g>
        <g id="product-03-Y12-D">
            <path style="stroke:none; fill:none;"  pointer-events="visible" d="M59.5488,53.2382 L60.7637,51.002 L58.6068,49.8301 L57.3919,52.0664 L59.5488,53.2382"/>
        </g>
        <g id="product-03-Y07-G">
            <path style="stroke:none; fill:none;"  pointer-events="visible" d="M38.0875,72.019 L37.9968,72.186 L42.6127,74.6935 L45.0138,70.2736 L44.7664,70.1392 L44.8151,70.0496 L40.773,67.8537 L40.7243,67.9434 L40.3979,67.7661 L38.5601,71.1491 L38.6014,71.1715 L38.1288,72.0415 L38.0875,72.019"/>
        </g>
        <g id="product-03-X04-D">
            <path style="stroke:none; fill:none;"  pointer-events="visible" d="M29.2627,86.5631 L26.8662,87.0938 L27.4165,89.5786 L29.813,89.0479 L29.2627,86.5631"/>
        </g>
        <g id="product-03-X13-G">
            <path style="stroke:none; fill:none;"  pointer-events="visible" d="M20.3367,36.1527 L21.4442,41.1535 L26.5739,40.0175 L25.7214,36.1679 L25.6755,36.178 L25.474,35.2681 L25.4614,35.2115 L25.5073,35.2013 L25.4664,35.0166 L25.1032,35.0971 L25.0786,34.9859 L20.5874,35.9805 L20.612,36.0917 L20.3367,36.1527"/>
        </g>
        <g id="product-03-X15-H">
            <path style="stroke:none; fill:none;"  pointer-events="visible" d="M18.4754,28.1643 L18.7439,29.3768 L18.7898,29.3666 L18.9913,30.2766 L19.0038,30.3332 L18.9579,30.3433 L18.999,30.5289 L19.3622,30.4484 L19.3869,30.5598 L21.5583,30.079 L21.0099,27.603 L18.4754,28.1643"/>
        </g>
        <g id="product-03-X04-C">
            <path style="stroke:none; fill:none;"  pointer-events="visible" d="M28.6962,84.0051 L26.2997,84.5358 L26.85,87.0206 L29.2465,86.4899 L28.6962,84.0051"/>
        </g>
        <g id="product-03-Y12-I">
            <path style="stroke:none; fill:none;"  pointer-events="visible" d="M52.7226,45.0776 L52.1299,46.1688 L52.2972,46.2597 L54.4259,47.4162 L55.6365,45.1877 L53.6673,44.118 L53.6128,44.2183 L53.2863,44.0409 L53.1956,44.2079 L53.2369,44.2303 L52.7643,45.1003 L52.7226,45.0776"/>
        </g>
        <g id="product-03-Y08-H">
            <path style="stroke:none; fill:none;"  pointer-events="visible" d="M47.7004,65.5765 L42.9552,62.9987 L40.4997,67.5187 L45.245,70.0965 L47.7004,65.5765"/>
        </g>
        <g id="product-03-X14-G">
            <path style="stroke:none; fill:none;"  pointer-events="visible" d="M22.6163,46.437 L27.7226,45.3062 L26.5905,40.194 L21.4842,41.3249 L22.6163,46.437"/>
        </g>
        <g id="product-03-X14-I">
            <path style="stroke:none; fill:none;"  pointer-events="visible" d="M21.7396,30.1945 L22.2879,32.6705 L24.8225,32.1092 L24.5538,30.8956 L24.5079,30.9058 L24.3064,29.9958 L24.2938,29.9392 L24.3397,29.929 L24.2988,29.7444 L23.9356,29.8248 L23.911,29.7136 L21.7396,30.1945"/>
        </g>
        <g id="product-03-Y-10-H">
            <path style="stroke:none; fill:none;"  pointer-events="visible" d="M51.5447,57.4921 L50.2952,56.8133 L49.6636,57.9758 L50.9132,58.6546 L51.5447,57.4921"/>
        </g>
        <g id="product-03-X11-I">
            <path style="stroke:none; fill:none;"  pointer-events="visible" d="M25.8964,51.1657 L28.679,50.5494 L27.5763,45.5701 L24.7937,46.1863 L25.8964,51.1657"/>
        </g>
        <g id="product-03-X10-L">
            <path style="stroke:none; fill:none;"  pointer-events="visible" d="M28.3245,55.7153 L29.7109,55.4082 L29.4247,54.1156 L28.0383,54.4226 L28.3245,55.7153"/>
        </g>
        <g id="product-03-Y05-A">
            <path style="stroke:none; fill:none;"  pointer-events="visible" d="M57.2902,52.0966 L59.8273,47.4262 L62.1161,48.6695 L59.5789,53.3399 L57.2902,52.0966"/>
            <path style="stroke:none; fill:none;"  pointer-events="visible" d="M52.8052,56.3889 L52.5863,56.7918 L52.559,56.777 L51.5614,58.6135 L51.5886,58.6283 L47.7883,65.624 L47.6999,65.5761 L42.7164,74.7498 L42.8047,74.7978 L37.5633,84.4462 L43.89,87.8831 L71.6316,36.8164 L57.9157,32.1078 L54.6134,38.1841 L55.9731,38.9227 L53.3876,43.6821 L58.199,46.2958 L52.696,56.3291 L52.8052,56.3889"/>
            <path style="stroke:none; fill:none;"  pointer-events="visible" d="M49.2275,72.3948 L46.7924,76.8771 L46.7903,76.881 L46.6903,77.065 L44.4017,75.8218 L46.9388,71.1514 L49.2275,72.3948"/>
        </g>
        <g id="product-03-Y05-C">
            <path style="stroke:none; fill:none;"  pointer-events="visible" d="M29.0921,50.7959 L23.6245,52.0068 L23.9878,53.6492 L26.0875,53.1851 L26.1005,53.2437 L26.1103,53.2415 L26.1131,53.2542 L27.0797,53.0402 L27.0768,53.0275 L27.0866,53.0253 L27.0736,52.9667 L29.4557,52.4396 L31.3883,61.1647 L32.5148,66.2515 L30.9429,66.5996 L31.144,67.5076 L30.8023,67.5833 L31.1223,69.0283 L31.464,68.9526 L31.6846,69.9485 L31.3428,70.0241 L31.6629,71.4691 L32.0046,71.3934 L32.1949,72.2527 L33.5087,78.1854 L36.176,79.6342 L37.046,80.1068 L37.2481,80.2166 L38.118,80.6891 L39.2653,81.3124 L40.0552,79.8592 L35.1349,77.185 L37.8836,72.1245 L37.9717,72.1723 L42.9552,62.9987 L42.8675,62.9509 L45.617,57.8895 L50.5378,60.5627 L51.3412,59.084 L49.4814,58.0054 L49.4726,58.0006 L49.4788,57.9892 L48.6089,57.5166 L48.6027,57.528 L48.5939,57.5233 L46.4202,56.4107 L47.7266,54.006 L47.8845,53.7156 L47.9727,53.7635 L53.2622,44.0265 L53.1739,43.9786 L55.9373,38.8916 L54.6182,38.1751 L51.1337,44.5899 L48.3541,49.7059 L43.6386,58.3891 L37.017,70.5784 L34.945,70.2877 L31.5678,55.0381 L30.422,49.8664 L30.4111,49.8169 L30.3993,49.7161 L30.3977,49.6147 L30.4064,49.5137 L30.4253,49.414 L30.4542,49.3168 L30.4928,49.223 L30.5406,49.1335 L30.5973,49.0494 L30.6622,48.9715 L30.7346,48.9005 L30.7622,48.8786 L35.0126,45.3738 L35.0393,45.3527 L35.1118,45.2818 L35.1768,45.2039 L35.2336,45.1198 L35.2815,45.0304 L35.3202,44.9367 L35.3492,44.8395 L35.3682,44.7399 L35.377,44.6388 L35.3756,44.5374 L35.3639,44.4366 L35.353,44.3871 L35.3499,44.3876 L35.2035,43.7269 L27.8865,45.352 L29.0921,50.7959"/>
        </g>
        <g id="product-03-Y00-A">
            <path style="stroke:none; fill:none;"  pointer-events="visible" d="M38.9167,91.3749 L36.3794,96.0452 L34.0908,94.8019 L36.628,90.1316 L38.9167,91.3749"/>
            <path style="stroke:none; fill:none;"  pointer-events="visible" d="M31.5178,87.6487 L29.4236,78.1923 L22.3939,79.7492 L25.9022,95.5903 L28.7288,108.354 L32.4823,108.882 L37.4977,99.65 L40.0812,94.8945 L42.5952,90.2668 L43.8902,87.8831 L37.5633,84.4459 L37.5634,84.4461 L37.5633,84.446 L34.8423,89.4547 L31.5178,87.6487"/>
            <path style="stroke:none; fill:none;"  pointer-events="visible" d="M27.3595,89.6681 L26.2102,84.4788 L28.7533,83.9156 L29.9025,89.1049 L27.3595,89.6681"/>
        </g>
        <g id="product-03-Y10-I">
            <path style="stroke:none; fill:none;"  pointer-events="visible" d="M49.5025,54.753 L48.1874,57.1738 L49.5722,57.9261 L50.8874,55.5053 L49.5025,54.753"/>
        </g>
        <g id="product-03-Y03-D">
            <path style="stroke:none; fill:none;"  pointer-events="visible" d="M36.3495,95.9436 L37.5643,93.7073 L35.4074,92.5355 L34.1925,94.7718 L36.3495,95.9436"/>
        </g>
        <g id="product-03-X10-H">
            <path style="stroke:none; fill:none;"  pointer-events="visible" d="M25.1944,56.4085 L26.5827,56.101 L26.2965,54.8083 L24.9081,55.1158 L25.1944,56.4085"/>
        </g>
        <g id="product-03-10-K">
            <path style="stroke:none; fill:none;"  pointer-events="visible" d="M28.0093,54.2918 L29.3957,53.9847 L29.1344,52.8051 L27.748,53.1122 L28.0093,54.2918"/>
        </g>
        <g id="product-03-Y05-J">
            <path style="stroke:none; fill:none;"  pointer-events="visible" d="M36.4818,81.3025 L35.3412,80.6829 L34.6805,81.899 L35.8211,82.5186 L36.4818,81.3025"/>
        </g>
        <g id="product-03-X10-G">
            <path style="stroke:none; fill:none;"  pointer-events="visible" d="M24.8791,54.985 L26.2675,54.6775 L25.9814,53.3858 L24.5931,53.6933 L24.8791,54.985"/>
        </g>
        <g id="product-03-Y11-G">
            <path style="stroke:none; fill:none;"  pointer-events="visible" d="M47.9972,53.777 L52.6132,56.2847 L52.7468,56.0386 L52.4995,55.9042 L52.6809,55.5703 L52.9282,55.7047 L55.3245,51.2936 L55.0771,51.1591 L55.1259,51.0694 L51.086,48.8691 L51.0348,48.9632 L50.7088,48.7856 L50.6179,48.9529 L50.6592,48.9754 L50.1867,49.8451 L50.1454,49.8226 L47.9972,53.777"/>
        </g>
        <g id="product-03-X06-A">
            <path style="stroke:none; fill:none;"  pointer-events="visible" d="M20.3722,58.1175 L22.9152,57.5544 L24.0644,62.7436 L21.5214,63.3068 L20.3722,58.1175"/>
            <path style="stroke:none; fill:none;"  pointer-events="visible" d="M34.6379,43.8526 L34.7199,43.8344 L29.9992,22.5182 L8.05135,14.9863 L10.7142,27.0299 L15.9663,50.7274 L15.9673,50.7272 L16.7522,54.2716 L20.2481,70.059 L20.6416,71.8357 L22.3939,79.7492 L25.0333,79.1646 L23.875,73.9341 L26.418,73.3709 L27.5764,78.6014 L29.4236,78.1923 L27.0322,67.394 L27.0321,67.394 L24.5524,56.1968 L24.5827,56.1901 L24.1308,54.1495 L24.1005,54.1562 L22.379,46.3831 L22.5938,46.3355 L21.4842,41.3249 L21.3676,41.3507 L19.008,30.6959 L18.4175,28.0327 L23.6895,26.8651 L24.8602,32.1506 L25.638,35.6626 L26.2249,38.312 L26.6147,40.0723 L26.5659,40.0832 L27.7001,45.2046 L27.8466,45.1722 L27.8865,45.352 L34.6388,43.8566 L34.6379,43.8526"/>
            <path style="stroke:none; fill:none;"  pointer-events="visible" d="M19.4124,41.7374 L20.5616,46.9266 L18.0186,47.4898 L16.8693,42.3005 L19.4124,41.7374"/>
        </g>
        <g id="product-03-X08-G">
            <path style="stroke:none; fill:none;"  pointer-events="visible" d="M32.5123,66.2418 L30.1187,55.4333 L24.6515,56.6441 L27.0451,67.4525 L32.5123,66.2418"/>
        </g>
    </g>
    <g id="storey-05">
        <g id="product-05-Y09-H">
        </g>
        <g id="product-05-X11-C">
        </g>
        <g id="product-05-X11-H">
        </g>
        <g id="product-05-Y04-G">
        </g>
        <g id="product-05-Y10-I">
        </g>
        <g id="product-05-X10-I">
        </g>
        <g id="product-05-X03-C">
        </g>
        <g id="product-05-Y10-G">
        </g>
        <g id="product-05-Y10-H">
        </g>
        <g id="product-05-Y10-K">
        </g>
        <g id="product-05-Y05-H">
        </g>
        <g id="product-05-Y05-I">
        </g>
        <g id="product-05-Y10-L">
        </g>
        <g id="product-05-Y05-J">
        </g>
        <g id="product-05-X09-D">
        </g>
        <g id="product-05-X10-K">
        </g>
        <g id="product-05-X10-L">
        </g>
        <g id="product-05-X05-C">
        </g>
        <g id="product-05-X10-G">
        </g>
        <g id="product-05-X10-H">
        </g>
        <g id="product-05-X06-G">
        </g>
        <g id="product-05-X06-H">
        </g>
        <g id="product-05-X05-D">
        </g>
        <g id="product-05-Y07-C">
        </g>
        <g id="product-05-Y09-C">
        </g>
        <g id="product-05-Y09-D">
        </g>
        <g id="product-05-Y03-D">
        </g>
        <g id="product-05-Y03-C">
        </g>
        <g id="product-05-X07-H">
        </g>
        <g id="product-05-Y07-D">
        </g>
        <g id="product-05-X07-J">
        </g>
        <g id="product-05-Y08-H">
        </g>
        <g id="product-05-Y07-M">
        </g>
        <g id="product-05-X03-D">
        </g>
        <g id="product-05-Y06-H">
        </g>
        <g id="product-05-Y06-G">
        </g>
        <g id="product-05-Y09-G">
        </g>
        <g id="product-05-X11-D">
        </g>
        <g id="product-05-X07-G">
        </g>
        <g id="product-05-X11-G">
        </g>
        <g id="product-05-X09-C">
        </g>
        <g id="product-05-X11-I">
        </g>
        <g id="product-05-Y06-I">
        </g>
        <g id="product-05-X13-T">
        </g>
        <g id="product-05-X02-A">
        </g>
        <g id="product-05-Y07-G">
        </g>
        <g id="product-05-X08-G">
        </g>
        <g id="product-05-Y02-A">
        </g>
        <g id="product-05-Y05-G">
        </g>
        <g id="product-05-Y05-A">
        </g>
        <g id="product-05-X04-A">
        </g>
        <g id="product-05-Y00-A">
        </g>
        <g id="product-05-Y09-I">
        </g>
    </g>
    <g id="storey-U1">
        <g id="product-U1-X08-M">
        </g>
        <g id="product-U1-X07-H">
        </g>
        <g id="product-U1-X13-R">
        </g>
        <g id="product-U1-X12-O">
        </g>
        <g id="product-U1-X07-G">
        </g>
        <g id="product-U1-X08-G">
        </g>
        <g id="product-U1-X08-I">
        </g>
        <g id="product-U1-Y07-J">
        </g>
        <g id="product-U1-Y03-A">
        </g>
        <g id="product-U1-X07-K">
        </g>
        <g id="product-U1-Y06-I">
        </g>
        <g id="product-U1-Y09-I">
        </g>
        <g id="product-U1-X12-N">
        </g>
        <g id="product-U1-X11-I">
        </g>
        <g id="product-U1-X12-J">
        </g>
        <g id="product-U1-X06-G">
        </g>
        <g id="product-U1-X15-S">
        </g>
        <g id="product-U1-X12-L">
        </g>
        <g id="product-U1-X08-Lb">
        </g>
        <g id="product-U1-X16-T">
        </g>
        <g id="product-U1-X09-O">
        </g>
        <g id="product-U1-X08-Ka">
        </g>
        <g id="product-U1-X08-La">
        </g>
        <g id="product-U1-Y07-O">
        </g>
        <g id="product-U1-X08-Kb">
        </g>
        <g id="product-U1-X08-Kc">
        </g>
        <g id="product-U1-X08-N">
        </g>
        <g id="product-U1-X11-O">
        </g>
        <g id="product-U1-X12-R">
        </g>
        <g id="product-U1-X12-Q">
        </g>
        <g id="product-U1-Y10-I">
        </g>
        <g id="product-U1-Y08-L">
        </g>
        <g id="product-U1-X12-T">
        </g>
        <g id="product-U1-Y07-I">
        </g>
        <g id="product-U1-Y11-O">
        </g>
        <g id="product-U1-X09-I">
        </g>
        <g id="product-U1-X12-M">
        </g>
        <g id="product-U1-Y06-M">
        </g>
        <g id="product-U1-Y08-I">
        </g>
        <g id="product-U1-Y07-P">
        </g>
        <g id="product-U1-Y08-N">
        </g>
        <g id="product-U1-X11-N">
        </g>
        <g id="product-U1-X05-A">
        </g>
    </g>
    <g id="storey-U3">
        <g id="product-U3-X10-M">
        </g>
        <g id="product-U3-Y03-A">
        </g>
        <g id="product-U3-X11-I">
        </g>
        <g id="product-U3-X12-J">
        </g>
        <g id="product-U3-X04-A">
        </g>
        <g id="product-U3-Y07-M">
        </g>
        <g id="product-U3-X07-A">
        </g>
        <g id="product-U3-Y09-I">
        </g>
        <g id="product-U3-Y6-I">
        </g>
        <g id="product-U3-Y08-I">
        </g>
        <g id="product-U3-Y08-L">
        </g>
        <g id="product-U3-Y07-J">
        </g>
        <g id="product-U3-X10-N">
        </g>
        <g id="product-U3-X07-H">
        </g>
        <g id="product-U3-X12-O">
        </g>
        <g id="product-U3-X12-R">
        </g>
        <g id="product-U3-X12Q">
        </g>
        <g id="product-U3-X13-P">
        </g>
        <g id="product-U3-X07-G">
        </g>
        <g id="product-U3-Y06-M">
        </g>
        <g id="product-U3-Y07-I">
        </g>
        <g id="product-U3-X07-K">
        </g>
        <g id="product-U3-X06-G">
        </g>
        <g id="product-U3-X08-G">
        </g>
    </g>
    <g id="storey-04">
        <g id="product-04-X11-H">
        </g>
        <g id="product-04-Y03-D">
        </g>
        <g id="product-04-Y09-H">
        </g>
        <g id="product-04-Y09-G">
        </g>
        <g id="product-04-Y06-G">
        </g>
        <g id="product-04-Y06-H">
        </g>
        <g id="product-04-X06-C">
        </g>
        <g id="product-04-X06-D">
        </g>
        <g id="product-04-Y08-C">
        </g>
        <g id="product-04-Y08-D">
        </g>
        <g id="product-04-Y11-G">
        </g>
        <g id="product-04-X13-J">
        </g>
        <g id="product-04-X09-C">
        </g>
        <g id="product-04-X09-D">
        </g>
        <g id="product-04-X03-D">
        </g>
        <g id="product-04-X13-I">
        </g>
        <g id="product-04-Y12-G">
        </g>
        <g id="product-04-X11-D">
        </g>
        <g id="product-04-X11-C">
        </g>
        <g id="product-04-X08-G">
        </g>
        <g id="product-04-X03-C">
        </g>
        <g id="product-04-Y03-C">
        </g>
        <g id="product-04-Y06-C">
        </g>
        <g id="product-04-Y06-D">
        </g>
        <g id="product-04-X13-G">
        </g>
        <g id="product-04-X13-H">
        </g>
        <g id="product-04-X07-H">
        </g>
        <g id="product-04-X07-J">
        </g>
        <g id="product-04-X07-G">
        </g>
        <g id="product-04-X11-G">
        </g>
        <g id="product-04-Y10-I">
        </g>
        <g id="product-04-X11-I">
        </g>
        <g id="product-04-Y10-G">
        </g>
        <g id="product-04-Y10-L">
        </g>
        <g id="product-04-Y09-I">
        </g>
        <g id="product-04-Y06-I">
        </g>
        <g id="product-04-Y10-K">
        </g>
        <g id="product-04-X13-T">
        </g>
        <g id="product-04-Y-10-H">
        </g>
        <g id="product-04-Y10-A">
        </g>
        <g id="product-04-X02-A">
        </g>
        <g id="product-04-X13-A">
        </g>
        <g id="product-04-Y05-G">
        </g>
        <g id="product-04-X12-G">
        </g>
        <g id="product-04-Y12-A">
        </g>
        <g id="product-04-X10-I">
        </g>
        <g id="product-04-X10-H">
        </g>
        <g id="product-04-X10-G">
        </g>
        <g id="product-04-10-K">
        </g>
        <g id="product-04-Y11-H">
        </g>
        <g id="product-04-X10-L">
        </g>
        <g id="product-04-Y13-G">
        </g>
        <g id="product-04-Y07-G">
        </g>
        <g id="product-04-Y13-A">
        </g>
        <g id="product-04-X09-H">
        </g>
        <g id="product-04-Y10-D">
        </g>
        <g id="product-04-Y10-C">
        </g>
        <g id="product-04-X09-G">
        </g>
        <g id="product-XX-XX">
        </g>
        <g id="product-04-X10-A">
        </g>
        <g id="product-04-X13-D">
        </g>
        <g id="product-04-Y13-C">
        </g>
        <g id="product-04-Y02-A">
        </g>
        <g id="product-04-Y00-A">
        </g>
        <g id="product-04-Y05-H">
        </g>
        <g id="product-04-Y05-I">
        </g>
        <g id="product-04-Y05-J">
        </g>
        <g id="product-04-X03-A">
        </g>
        <g id="product-04-Y13-D">
        </g>
        <g id="product-04-Y04-H">
        </g>
        <g id="product-04-X13-C">
        </g>
    </g>
    <g id="storey-02">
        <g id="product-02-X06-K">
        </g>
        <g id="product-02-X11-G">
        </g>
        <g id="product-02-X07-G">
        </g>
        <g id="product-02-X10-L">
        </g>
        <g id="product-02-X07-J">
        </g>
        <g id="product-02-X07-H">
        </g>
        <g id="product-02-X10-H">
        </g>
        <g id="product-02-X10-J">
        </g>
        <g id="product-02-Y08-C">
        </g>
        <g id="product-02-X05-D">
        </g>
        <g id="product-02-X10-A">
        </g>
        <g id="product-02-X12-K">
        </g>
        <g id="product-02-X11-I">
        </g>
        <g id="product-XX-XX">
        </g>
        <g id="product-02-Y06-K">
        </g>
        <g id="product-02-Y09-G">
        </g>
        <g id="product-02-X12-C">
        </g>
        <g id="product-02-X12-D">
        </g>
        <g id="product-02-X09-E">
        </g>
        <g id="product-02-X08-K">
        </g>
        <g id="product-02-X09-K">
        </g>
        <g id="product-02-X05-C">
        </g>
        <g id="product-02-X08-E">
        </g>
        <g id="product-02-X10-B">
        </g>
        <g id="product-02-X09-E">
        </g>
        <g id="product-02-Y08-L">
        </g>
        <g id="product-02-Y10-G">
        </g>
        <g id="product-02-X13-S">
        </g>
        <g id="product-02-X11-A">
        </g>
        <g id="product-02-X11-E">
        </g>
        <g id="product-02-Y09-I">
        </g>
        <g id="product-02-Y08-G">
        </g>
        <g id="product-02-Y04-G">
        </g>
        <g id="product-02-Y03-G">
        </g>
        <g id="product-02-X06-E">
        </g>
        <g id="product-02-X07-I">
        </g>
        <g id="product-02-X09-Ga">
        </g>
        <g id="product-02-X07-E">
        </g>
        <g id="product-02-Y07-M">
        </g>
        <g id="product-02-X03-C">
        </g>
        <g id="product-02-Y05-G">
        </g>
        <g id="product-02-X08-H">
        </g>
        <g id="product-02-X08-I">
        </g>
        <g id="product-02-X13-A">
        </g>
        <g id="product-02-X09-Gb">
        </g>
        <g id="product-02-X09-Gc">
        </g>
        <g id="product-02-X12-H">
        </g>
        <g id="product-02-X09-Ha">
        </g>
        <g id="product-02-Y09-M">
        </g>
        <g id="product-02-Y06-G">
        </g>
        <g id="product-02-X12-F">
        </g>
        <g id="product-02-Y08-K">
        </g>
        <g id="product-02-X08-G">
        </g>
        <g id="product-02-X12-E">
        </g>
        <g id="product-02-X11-F">
        </g>
        <g id="product-02-X10-F">
        </g>
        <g id="product-02-Y09-H">
        </g>
        <g id="product-02-X04-A">
        </g>
        <g id="product-02-Y02-C">
        </g>
    </g>
    <g id="storey-07L">
        <g id="product-07-Y06-I">
        </g>
        <g id="product-07-Y06-G">
        </g>
        <g id="product-07-Y06-H">
        </g>
        <g id="product-07-X07-G">
        </g>
        <g id="product-07-X07-J">
        </g>
        <g id="product-07-X07-H">
        </g>
        <g id="product-07-X09-C">
        </g>
        <g id="product-07-X06-A">
        </g>
        <g id="product-07-X05-I">
        </g>
        <g id="product-07-Y04-A">
        </g>
        <g id="product-07-Y00-A">
        </g>
        <g id="product-07-X06-Ha">
        </g>
        <g id="product-07-X06-Hc">
        </g>
        <g id="product-07-Y05-J">
        </g>
        <g id="product-07-Y05-K">
        </g>
        <g id="product-07-Y07-C">
        </g>
        <g id="product-07-X08-C">
        </g>
        <g id="product-07-X05-A">
        </g>
        <g id="product-07-Y05-H">
        </g>
        <g id="product-07-Y07-H">
        </g>
        <g id="product-07-Y07-I">
        </g>
        <g id="product-07-Y07-G">
        </g>
        <g id="product-07-X06-G">
        </g>
        <g id="product-07-X04-E">
        </g>
        <g id="product-07-X04-A">
        </g>
        <g id="product-07-Y08-J">
        </g>
        <g id="product-07-Y05-A">
        </g>
        <g id="product-07-Y08-C">
        </g>
        <g id="product-07-X07-K">
        </g>
        <g id="product-07-X07-A">
        </g>
        <g id="product-XX-XX">
        </g>
    </g>
    <g id="storey-01">
        <g id="product-01-X14-J">
        </g>
        <g id="product-01-X08-O">
        </g>
        <g id="product-01-Y08-L">
        </g>
        <g id="product-01-Y08-M">
        </g>
        <g id="product-01-Y06-G">
        </g>
        <g id="product-01-X11-H">
        </g>
        <g id="product-01-Y09-C">
        </g>
        <g id="product-01-Y05-C">
        </g>
        <g id="product-01-X12-C">
        </g>
        <g id="product-01-X06-I">
        </g>
        <g id="product-01-Y08-N">
        </g>
        <g id="product-01-X11-F">
        </g>
        <g id="product-01-X06-G">
        </g>
        <g id="product-01-Y05-E">
        </g>
        <g id="product-01-X15-S">
        </g>
        <g id="product-01-X11-G">
        </g>
        <g id="product-01-X-15-T">
        </g>
        <g id="product-01-X05-I">
        </g>
        <g id="product-01-X15-G">
        </g>
        <g id="product-01-X12-A">
        </g>
        <g id="product-01-X7-K">
        </g>
        <g id="product-01-Y04-E">
        </g>
        <g id="product-01-X12-B">
        </g>
        <g id="product-01-X12-D">
        </g>
        <g id="product-01-Y6-M">
        </g>
        <g id="product-01-Y07-P">
        </g>
        <g id="product-01-X13-B">
        </g>
        <g id="product-01-X09-G">
        </g>
        <g id="product-01-X08-G">
        </g>
        <g id="product-01-Y06-I">
        </g>
        <g id="product-01-X08-P">
        </g>
        <g id="product-01-X13-A">
        </g>
        <g id="product-01-X10-A">
        </g>
        <g id="product-01-X12-P">
        </g>
        <g id="product-01-X08-Oc">
        </g>
        <g id="product-01-X14-H">
        </g>
        <g id="product-01-X14-F">
        </g>
        <g id="product-01-X13-Q">
        </g>
        <g id="product-01-X11-A">
        </g>
        <g id="product-01-X10-H">
        </g>
        <g id="product-01-X13-H">
        </g>
        <g id="product-01-X09-H">
        </g>
        <g id="product-01-X14-G">
        </g>
        <g id="product-01-X17-M">
        </g>
        <g id="product-01-Y08-G">
        </g>
        <g id="product-01-X07-H">
        </g>
        <g id="product-01-X07-G">
        </g>
        <g id="product-01-Y01-B">
        </g>
        <g id="product-01-X07-K">
        </g>
        <g id="product-01-X08-Oa">
        </g>
        <g id="product-01-X08-Pb">
        </g>
        <g id="product-01-X08-Pa">
        </g>
        <g id="product-01-X08-Ob">
        </g>
        <g id="product-??01-Y02-C">
        </g>
        <g id="product-??01-Y03-C">
        </g>
        <g id="product-01-Y06-H">
        </g>
        <g id="product-01-Y04-G">
        </g>
        <g id="product-01-Y07-O">
        </g>
        <g id="product-01-Y05-F">
        </g>
        <g id="product-01-X16-T">
        </g>
        <g id="product-01-X02-C">
        </g>
        <g id="product-01-X13-J">
        </g>
        <g id="product-01-X11-I">
        </g>
        <g id="product-01-Y09-G">
        </g>
        <g id="product-01-X04-I">
        </g>
        <g id="product-01-X12-Q">
        </g>
        <g id="product-01-X12-R">
        </g>
        <g id="product-01-X12-G">
        </g>
        <g id="product-01-Y04-F">
        </g>
    </g>
    <g id="storey-06">
        <g id="product-06-Y10-G">
        </g>
        <g id="product-06-Y10-L">
        </g>
        <g id="product-06-X06-A">
        </g>
        <g id="product-06-Y10-K">
        </g>
        <g id="product-06-Y07-M">
        </g>
        <g id="product-06-X07-G">
        </g>
        <g id="product-06-X11-H">
        </g>
        <g id="product-06-X11-G">
        </g>
        <g id="product-06-Y03-C">
        </g>
        <g id="product-06-Y03-D">
        </g>
        <g id="product-06-Y08-C">
        </g>
        <g id="product-06-Y06-H">
        </g>
        <g id="product-06-Y06-G">
        </g>
        <g id="product-06-Y09-G">
        </g>
        <g id="product-06-Y09-H">
        </g>
        <g id="product-06-X09-G">
        </g>
        <g id="product-06-X06-G">
        </g>
        <g id="product-06-Y09-A">
        </g>
        <g id="product-06-X08-D">
        </g>
        <g id="product-06-X10-I">
        </g>
        <g id="product-06-X10-H">
        </g>
        <g id="product-06-X10-G">
        </g>
        <g id="product-06-X03-A">
        </g>
        <g id="product-06-X07-H">
        </g>
        <g id="product-06-X07-J">
        </g>
        <g id="product-06-Y10-I">
        </g>
        <g id="product-06-X11-I">
        </g>
        <g id="product-06-Y06-I">
        </g>
        <g id="product-06-Y00-A">
        </g>
        <g id="product-06-Y02-A">
        </g>
        <g id="product-06-Y09-I">
        </g>
        <g id="product-06-X06-H">
        </g>
        <g id="product-06-X07-G">
        </g>
        <g id="product-06-X03-C">
        </g>
        <g id="product-06-X08-G">
        </g>
        <g id="product-06-X03-D">
        </g>
        <g id="product-06-Y05-D">
        </g>
        <g id="product-06-Y05-D">
        </g>
        <g id="product-06-X08-C">
        </g>
        <g id="product-06-Y08-D">
        </g>
        <g id="product-06-Y05-H">
        </g>
        <g id="product-06-Y05-J">
        </g>
        <g id="product-06-Y05-G">
        </g>
        <g id="product-06-Y05-J">
        </g>
        <g id="product-06-X05-C">
        </g>
        <g id="product-06-X05-D">
        </g>
        <g id="product-06-Y04-G">
        </g>
        <g id="product-06-X10-K">
        </g>
        <g id="product-06-X10-L">
        </g>
        <g id="product-06-X02-A">
        </g>
        <g id="product-06-Y10-H">
        </g>
        <g id="product-06-Y08-H">
        </g>
    </g>
</svg>
