<svg xmlns="http://www.w3.org/2000/svg" xmlns:xlink="http://www.w3.org/1999/xlink">
    <g id="storey-U2">
        <g id="product-U2-Y06-M">
        </g>
        <g id="product-U2-Y09-I">
        </g>
        <g id="product-U2-X10-M">
        </g>
        <g id="product-U2-Y07-M">
        </g>
        <g id="product-U2-X08-M">
        </g>
        <g id="product-U2-X12-S">
        </g>
        <g id="product-U2-X08-G">
        </g>
        <g id="product-U2-Y08-O">
        </g>
        <g id="product-U2-Y06-I">
        </g>
        <g id="product-U2-X07-G">
        </g>
        <g id="product-U2-X13-R">
        </g>
        <g id="product-U2-X07-H">
        </g>
        <g id="product-U2-Y08-L">
        </g>
        <g id="product-U2-Y08-I">
        </g>
        <g id="product-U2-Y07-J">
        </g>
        <g id="product-U2-X07-K">
        </g>
        <g id="product-U2-X05-A">
        </g>
        <g id="product-U2-X11-A">
        </g>
        <g id="product-U2-Y03-A">
        </g>
        <g id="product-U2-X12-J">
        </g>
        <g id="product-U2-X12-R">
        </g>
        <g id="product-U2-X12-Q">
        </g>
        <g id="product-U2-X12-O">
        </g>
        <g id="product-U2-X06-G">
        </g>
        <g id="product-U2-Y07-I">
        </g>
        <g id="product-U2-X11-I">
        </g>
        <g id="product-U2-X12-T">
        </g>
        <g id="product-U2-X12-R">
        </g>
        <g id="product-U2-X13-Q">
        </g>
    </g>
    <g id="storey-U1">
        <g id="product-U1-X08-M">
        </g>
        <g id="product-U1-X07-H">
        </g>
        <g id="product-U1-X13-R">
        </g>
        <g id="product-U1-X12-O">
        </g>
        <g id="product-U1-X07-G">
        </g>
        <g id="product-U1-X08-G">
        </g>
        <g id="product-U1-X08-I">
        </g>
        <g id="product-U1-Y07-J">
        </g>
        <g id="product-U1-Y03-A">
        </g>
        <g id="product-U1-X07-K">
        </g>
        <g id="product-U1-Y06-I">
        </g>
        <g id="product-U1-Y09-I">
        </g>
        <g id="product-U1-X12-N">
        </g>
        <g id="product-U1-X11-I">
        </g>
        <g id="product-U1-X12-J">
        </g>
        <g id="product-U1-X06-G">
        </g>
        <g id="product-U1-X15-S">
        </g>
        <g id="product-U1-X12-L">
        </g>
        <g id="product-U1-X08-Lb">
        </g>
        <g id="product-U1-X16-T">
        </g>
        <g id="product-U1-X09-O">
        </g>
        <g id="product-U1-X08-Ka">
        </g>
        <g id="product-U1-X08-La">
        </g>
        <g id="product-U1-Y07-O">
        </g>
        <g id="product-U1-X08-Kb">
        </g>
        <g id="product-U1-X08-Kc">
        </g>
        <g id="product-U1-X08-N">
        </g>
        <g id="product-U1-X11-O">
        </g>
        <g id="product-U1-X12-R">
        </g>
        <g id="product-U1-X12-Q">
        </g>
        <g id="product-U1-Y10-I">
        </g>
        <g id="product-U1-Y08-L">
        </g>
        <g id="product-U1-X12-T">
        </g>
        <g id="product-U1-Y07-I">
        </g>
        <g id="product-U1-Y11-O">
        </g>
        <g id="product-U1-X09-I">
        </g>
        <g id="product-U1-X12-M">
        </g>
        <g id="product-U1-Y06-M">
        </g>
        <g id="product-U1-Y08-I">
        </g>
        <g id="product-U1-Y07-P">
        </g>
        <g id="product-U1-Y08-N">
        </g>
        <g id="product-U1-X11-N">
        </g>
        <g id="product-U1-X05-A">
        </g>
    </g>
    <g id="storey-U3">
        <g id="product-U3-X10-M">
        </g>
        <g id="product-U3-Y03-A">
        </g>
        <g id="product-U3-X11-I">
        </g>
        <g id="product-U3-X12-J">
        </g>
        <g id="product-U3-X04-A">
        </g>
        <g id="product-U3-Y07-M">
        </g>
        <g id="product-U3-X07-A">
        </g>
        <g id="product-U3-Y09-I">
        </g>
        <g id="product-U3-Y6-I">
        </g>
        <g id="product-U3-Y08-I">
        </g>
        <g id="product-U3-Y08-L">
        </g>
        <g id="product-U3-Y07-J">
        </g>
        <g id="product-U3-X10-N">
        </g>
        <g id="product-U3-X07-H">
        </g>
        <g id="product-U3-X12-O">
        </g>
        <g id="product-U3-X12-R">
        </g>
        <g id="product-U3-X12Q">
        </g>
        <g id="product-U3-X13-P">
        </g>
        <g id="product-U3-X07-G">
        </g>
        <g id="product-U3-Y06-M">
        </g>
        <g id="product-U3-Y07-I">
        </g>
        <g id="product-U3-X07-K">
        </g>
        <g id="product-U3-X06-G">
        </g>
        <g id="product-U3-X08-G">
        </g>
    </g>
    <g id="storey-06">
        <g id="product-06-Y10-G">
        </g>
        <g id="product-06-Y10-L">
        </g>
        <g id="product-06-X06-A">
        </g>
        <g id="product-06-Y10-K">
        </g>
        <g id="product-06-Y07-M">
        </g>
        <g id="product-06-X07-G">
        </g>
        <g id="product-06-X11-H">
        </g>
        <g id="product-06-X11-G">
        </g>
        <g id="product-06-Y03-C">
        </g>
        <g id="product-06-Y03-D">
        </g>
        <g id="product-06-Y08-C">
        </g>
        <g id="product-06-Y06-H">
        </g>
        <g id="product-06-Y06-G">
        </g>
        <g id="product-06-Y09-G">
        </g>
        <g id="product-06-Y09-H">
        </g>
        <g id="product-06-X09-G">
        </g>
        <g id="product-06-X06-G">
        </g>
        <g id="product-06-Y09-A">
        </g>
        <g id="product-06-X08-D">
        </g>
        <g id="product-06-X10-I">
        </g>
        <g id="product-06-X10-H">
        </g>
        <g id="product-06-X10-G">
        </g>
        <g id="product-06-X03-A">
        </g>
        <g id="product-06-X07-H">
        </g>
        <g id="product-06-X07-J">
        </g>
        <g id="product-06-Y10-I">
        </g>
        <g id="product-06-X11-I">
        </g>
        <g id="product-06-Y06-I">
        </g>
        <g id="product-06-Y00-A">
        </g>
        <g id="product-06-Y02-A">
        </g>
        <g id="product-06-Y09-I">
        </g>
        <g id="product-06-X06-H">
        </g>
        <g id="product-06-X07-G">
        </g>
        <g id="product-06-X03-C">
        </g>
        <g id="product-06-X08-G">
        </g>
        <g id="product-06-X03-D">
        </g>
        <g id="product-06-Y05-D">
        </g>
        <g id="product-06-Y05-D">
        </g>
        <g id="product-06-X08-C">
        </g>
        <g id="product-06-Y08-D">
        </g>
        <g id="product-06-Y05-H">
        </g>
        <g id="product-06-Y05-J">
        </g>
        <g id="product-06-Y05-G">
        </g>
        <g id="product-06-Y05-J">
        </g>
        <g id="product-06-X05-C">
        </g>
        <g id="product-06-X05-D">
        </g>
        <g id="product-06-Y04-G">
        </g>
        <g id="product-06-X10-K">
        </g>
        <g id="product-06-X10-L">
        </g>
        <g id="product-06-X02-A">
        </g>
        <g id="product-06-Y10-H">
        </g>
        <g id="product-06-Y08-H">
        </g>
    </g>
    <g id="storey-01">
        <g id="product-01-X14-J">
        </g>
        <g id="product-01-X08-O">
        </g>
        <g id="product-01-Y08-L">
        </g>
        <g id="product-01-Y08-M">
        </g>
        <g id="product-01-Y06-G">
        </g>
        <g id="product-01-X11-H">
        </g>
        <g id="product-01-Y09-C">
        </g>
        <g id="product-01-Y05-C">
        </g>
        <g id="product-01-X12-C">
        </g>
        <g id="product-01-X06-I">
        </g>
        <g id="product-01-Y08-N">
        </g>
        <g id="product-01-X11-F">
        </g>
        <g id="product-01-X06-G">
        </g>
        <g id="product-01-Y05-E">
        </g>
        <g id="product-01-X15-S">
        </g>
        <g id="product-01-X11-G">
        </g>
        <g id="product-01-X-15-T">
        </g>
        <g id="product-01-X05-I">
        </g>
        <g id="product-01-X15-G">
        </g>
        <g id="product-01-X12-A">
        </g>
        <g id="product-01-X7-K">
        </g>
        <g id="product-01-Y04-E">
        </g>
        <g id="product-01-X12-B">
        </g>
        <g id="product-01-X12-D">
        </g>
        <g id="product-01-Y6-M">
        </g>
        <g id="product-01-Y07-P">
        </g>
        <g id="product-01-X13-B">
        </g>
        <g id="product-01-X09-G">
        </g>
        <g id="product-01-X08-G">
        </g>
        <g id="product-01-Y06-I">
        </g>
        <g id="product-01-X08-P">
        </g>
        <g id="product-01-X13-A">
        </g>
        <g id="product-01-X10-A">
        </g>
        <g id="product-01-X12-P">
        </g>
        <g id="product-01-X08-Oc">
        </g>
        <g id="product-01-X14-H">
        </g>
        <g id="product-01-X14-F">
        </g>
        <g id="product-01-X13-Q">
        </g>
        <g id="product-01-X11-A">
        </g>
        <g id="product-01-X10-H">
        </g>
        <g id="product-01-X13-H">
        </g>
        <g id="product-01-X09-H">
        </g>
        <g id="product-01-X14-G">
        </g>
        <g id="product-01-X17-M">
        </g>
        <g id="product-01-Y08-G">
        </g>
        <g id="product-01-X07-H">
        </g>
        <g id="product-01-X07-G">
        </g>
        <g id="product-01-Y01-B">
        </g>
        <g id="product-01-X07-K">
        </g>
        <g id="product-01-X08-Oa">
        </g>
        <g id="product-01-X08-Pb">
        </g>
        <g id="product-01-X08-Pa">
        </g>
        <g id="product-01-X08-Ob">
        </g>
        <g id="product-??01-Y02-C">
        </g>
        <g id="product-??01-Y03-C">
        </g>
        <g id="product-01-Y06-H">
        </g>
        <g id="product-01-Y04-G">
        </g>
        <g id="product-01-Y07-O">
        </g>
        <g id="product-01-Y05-F">
        </g>
        <g id="product-01-X16-T">
        </g>
        <g id="product-01-X02-C">
        </g>
        <g id="product-01-X13-J">
        </g>
        <g id="product-01-X11-I">
        </g>
        <g id="product-01-Y09-G">
        </g>
        <g id="product-01-X04-I">
        </g>
        <g id="product-01-X12-Q">
        </g>
        <g id="product-01-X12-R">
        </g>
        <g id="product-01-X12-G">
        </g>
        <g id="product-01-Y04-F">
        </g>
    </g>
    <g id="storey-07L">
        <g id="product-07-Y06-I">
        </g>
        <g id="product-07-Y06-G">
        </g>
        <g id="product-07-Y06-H">
        </g>
        <g id="product-07-X07-G">
        </g>
        <g id="product-07-X07-J">
        </g>
        <g id="product-07-X07-H">
        </g>
        <g id="product-07-X09-C">
        </g>
        <g id="product-07-X06-A">
        </g>
        <g id="product-07-X05-I">
        </g>
        <g id="product-07-Y04-A">
        </g>
        <g id="product-07-Y00-A">
        </g>
        <g id="product-07-X06-Ha">
        </g>
        <g id="product-07-X06-Hc">
        </g>
        <g id="product-07-Y05-J">
        </g>
        <g id="product-07-Y05-K">
        </g>
        <g id="product-07-Y07-C">
        </g>
        <g id="product-07-X08-C">
        </g>
        <g id="product-07-X05-A">
        </g>
        <g id="product-07-Y05-H">
        </g>
        <g id="product-07-Y07-H">
        </g>
        <g id="product-07-Y07-I">
        </g>
        <g id="product-07-Y07-G">
        </g>
        <g id="product-07-X06-G">
        </g>
        <g id="product-07-X04-E">
        </g>
        <g id="product-07-X04-A">
        </g>
        <g id="product-07-Y08-J">
        </g>
        <g id="product-07-Y05-A">
        </g>
        <g id="product-07-Y08-C">
        </g>
        <g id="product-07-X07-K">
        </g>
        <g id="product-07-X07-A">
        </g>
        <g id="product-XX-XX">
        </g>
    </g>
    <g id="storey-03">
        <g id="product-03-Y03-C">
        </g>
        <g id="product-03-Y12-G">
        </g>
        <g id="product-03-X14-H">
        </g>
        <g id="product-03-X09-D">
        </g>
        <g id="product-03-Y05-I">
        </g>
        <g id="product-03-Y06-G">
        </g>
        <g id="product-03-Y09-H">
        </g>
        <g id="product-03-X09-C">
        </g>
        <g id="product-03-Y06-H">
        </g>
        <g id="product-03-Y06-I">
        </g>
        <g id="product-03-X12-D">
        </g>
        <g id="product-03-X11-H">
        </g>
        <g id="product-03-Y04-H">
        </g>
        <g id="product-03-Y12-C">
        </g>
        <g id="product-03-Y09-G">
        </g>
        <g id="product-03-Y7-M">
        </g>
        <g id="product-03-Y10-K">
        </g>
        <g id="product-03-Y10-L">
        </g>
        <g id="product-03-Y05-H">
        </g>
        <g id="product-03-X12-C">
        </g>
        <g id="product-03-Y12-L">
        </g>
        <g id="product-03-Y10-G">
        </g>
        <g id="product-03-Y12-H">
        </g>
        <g id="product-03-X11-G">
        </g>
        <g id="product-03-Y07-D">
        </g>
        <g id="product-03-X13-T">
        </g>
        <g id="product-03-X10-I">
        </g>
        <g id="product-03-Y09-I">
        </g>
        <g id="product-03-X07-G">
        </g>
        <g id="product-03-X07-J">
        </g>
        <g id="product-03-X07-H">
        </g>
        <g id="product-03-X15-J">
        </g>
        <g id="product-03-X6-C">
        </g>
        <g id="product-03-Y07-C">
        </g>
        <g id="product-03-X14-G">
        </g>
        <g id="product-03-X6-D">
        </g>
        <g id="product-03-Y12-D">
        </g>
        <g id="product-03-Y07-G">
        </g>
        <g id="product-03-X04-D">
        </g>
        <g id="product-03-X13-G">
        </g>
        <g id="product-03-X15-H">
        </g>
        <g id="product-03-X04-C">
        </g>
        <g id="product-03-Y12-I">
        </g>
        <g id="product-03-Y08-H">
        </g>
        <g id="product-03-X14-G">
        </g>
        <g id="product-03-X14-I">
        </g>
        <g id="product-03-Y-10-H">
        </g>
        <g id="product-03-X11-I">
        </g>
        <g id="product-03-X10-L">
        </g>
        <g id="product-03-Y05-A">
        </g>
        <g id="product-03-Y05-C">
        </g>
        <g id="product-03-Y00-A">
        </g>
        <g id="product-03-Y10-I">
        </g>
        <g id="product-03-Y03-D">
        </g>
        <g id="product-03-X10-H">
        </g>
        <g id="product-03-10-K">
        </g>
        <g id="product-03-Y05-J">
        </g>
        <g id="product-03-X10-G">
        </g>
        <g id="product-03-Y11-G">
        </g>
        <g id="product-03-X06-A">
        </g>
        <g id="product-03-X08-G">
        </g>
    </g>
    <g id="storey-05">
        <g id="product-05-Y09-H">
            <path style="stroke:none; fill:none;"  pointer-events="visible" d="M46.1003,64.3317 L47.6382,65.167 L48.7839,63.0581 L47.2459,62.2228 L46.1003,64.3317"/>
        </g>
        <g id="product-05-X11-C">
            <path style="stroke:none; fill:none;"  pointer-events="visible" d="M18.6767,50.1146 L21.0732,49.5839 L20.5229,47.0991 L18.1264,47.6298 L18.6767,50.1146"/>
        </g>
        <g id="product-05-X11-H">
            <path style="stroke:none; fill:none;"  pointer-events="visible" d="M25.6035,51.2305 L25.055,48.7535 L23.3463,49.1319 L23.8949,51.6089 L25.6035,51.2305"/>
        </g>
        <g id="product-05-Y04-G">
            <path style="stroke:none; fill:none;"  pointer-events="visible" d="M29.5448,78.2436 L32.8428,93.1354 L37.7876,84.033 L34.382,82.183 L35.8571,79.4609 L33.3923,78.1219 L33.2381,77.4257 L29.5448,78.2436"/>
        </g>
        <g id="product-05-Y10-I">
            <path style="stroke:none; fill:none;"  pointer-events="visible" d="M49.5149,54.7301 L48.1874,57.1738 L49.5828,57.9319 L50.9103,55.4882 L49.5149,54.7301"/>
        </g>
        <g id="product-05-X10-I">
            <path style="stroke:none; fill:none;"  pointer-events="visible" d="M27.6217,53.0225 L26.083,53.3633 L26.6843,56.0785 L28.223,55.7378 L27.6303,53.0614 L27.6217,53.0225"/>
        </g>
        <g id="product-05-X03-C">
            <path style="stroke:none; fill:none;"  pointer-events="visible" d="M28.0175,92.2927 L30.4141,91.7619 L29.8638,89.2771 L27.4672,89.8079 L28.0175,92.2927"/>
        </g>
        <g id="product-05-Y10-G">
            <path style="stroke:none; fill:none;"  pointer-events="visible" d="M52.2244,56.2157 L50.996,55.5484 L50.3683,56.7039 L51.5967,57.3712 L52.2244,56.2157"/>
        </g>
        <g id="product-05-Y10-H">
            <path style="stroke:none; fill:none;"  pointer-events="visible" d="M51.5447,57.4921 L50.3057,56.819 L49.6742,57.9815 L50.9132,58.6546 L51.5447,57.4921"/>
        </g>
        <g id="product-05-Y10-K">
            <path style="stroke:none; fill:none;"  pointer-events="visible" d="M49.4235,54.6805 L48.1758,54.0027 L47.5437,55.1661 L48.7915,55.8439 L49.4235,54.6805"/>
        </g>
        <g id="product-05-Y05-H">
            <path style="stroke:none; fill:none;"  pointer-events="visible" d="M37.1555,80.2801 L35.9125,82.5682 L37.8606,83.6265 L39.1036,81.3384 L37.1555,80.2801"/>
        </g>
        <g id="product-05-Y05-I">
            <path style="stroke:none; fill:none;"  pointer-events="visible" d="M36.0726,79.6918 L35.5398,80.6724 L36.5314,81.2111 L37.0641,80.2304 L36.0726,79.6918"/>
        </g>
        <g id="product-05-Y10-L">
            <path style="stroke:none; fill:none;"  pointer-events="visible" d="M48.7276,55.9617 L47.4798,55.2838 L46.903,56.3455 L48.1508,57.0233 L48.7276,55.9617"/>
        </g>
        <g id="product-05-Y05-J">
            <path style="stroke:none; fill:none;"  pointer-events="visible" d="M36.4818,81.3025 L35.3412,80.6829 L34.6805,81.899 L35.8211,82.5186 L36.4818,81.3025"/>
        </g>
        <g id="product-05-X09-D">
            <path style="stroke:none; fill:none;"  pointer-events="visible" d="M21.5784,63.2174 L23.975,62.6866 L23.4247,60.2018 L21.0281,60.7326 L21.5784,63.2174"/>
        </g>
        <g id="product-05-X10-K">
            <path style="stroke:none; fill:none;"  pointer-events="visible" d="M29.1344,52.8051 L27.748,53.1122 L28.0093,54.2918 L29.3957,53.9847 L29.1344,52.8051"/>
        </g>
        <g id="product-05-X10-L">
            <path style="stroke:none; fill:none;"  pointer-events="visible" d="M29.4247,54.1156 L28.0383,54.4226 L28.3245,55.7153 L29.7109,55.4082 L29.4247,54.1156"/>
        </g>
        <g id="product-05-X05-C">
            <path style="stroke:none; fill:none;"  pointer-events="visible" d="M25.6823,81.7481 L28.0789,81.2174 L27.5286,78.7326 L25.132,79.2634 L25.6823,81.7481"/>
        </g>
        <g id="product-05-X10-G">
            <path style="stroke:none; fill:none;"  pointer-events="visible" d="M25.9814,53.3858 L24.5931,53.6933 L24.8791,54.985 L26.2675,54.6775 L25.9814,53.3858"/>
        </g>
        <g id="product-05-X10-H">
            <path style="stroke:none; fill:none;"  pointer-events="visible" d="M26.2965,54.8083 L24.9081,55.1158 L25.1944,56.4085 L26.5827,56.101 L26.2965,54.8083"/>
        </g>
        <g id="product-05-X06-G">
            <path style="stroke:none; fill:none;"  pointer-events="visible" d="M32.0656,72.2608 L28.4765,73.0556 L29.005,75.442 L32.5941,74.6472 L32.3207,73.4131 L32.2749,73.4232 L32.0608,72.4566 L32.1067,72.4465 L32.0656,72.2608"/>
        </g>
        <g id="product-05-X06-H">
            <path style="stroke:none; fill:none;"  pointer-events="visible" d="M29.0379,75.5904 L29.5862,78.0664 L33.1753,77.2716 L33.1121,76.9863 L33.0662,76.9964 L32.8521,76.0299 L32.898,76.0197 L32.6269,74.7956 L29.0379,75.5904"/>
        </g>
        <g id="product-05-X05-D">
            <path style="stroke:none; fill:none;"  pointer-events="visible" d="M26.2488,84.3062 L28.6454,83.7754 L28.0951,81.2906 L25.6985,81.8214 L26.2488,84.3062"/>
        </g>
        <g id="product-05-Y07-C">
            <path style="stroke:none; fill:none;"  pointer-events="visible" d="M47.911,74.6612 L49.1258,72.4249 L46.9689,71.2531 L45.754,73.4895 L47.911,74.6612"/>
        </g>
        <g id="product-05-Y09-C">
            <path style="stroke:none; fill:none;"  pointer-events="visible" d="M52.1243,61.763 L50.9095,63.9994 L53.0664,65.1711 L53.0668,65.1702 L54.2812,62.9348 L52.1243,61.763"/>
        </g>
        <g id="product-05-Y09-D">
            <path style="stroke:none; fill:none;"  pointer-events="visible" d="M51.8157,67.4733 L53.0306,65.237 L50.8736,64.0653 L49.6588,66.3016 L51.8157,67.4733"/>
        </g>
        <g id="product-05-Y03-D">
            <path style="stroke:none; fill:none;"  pointer-events="visible" d="M36.3495,95.9436 L37.5643,93.7072 L35.4074,92.5355 L34.1925,94.7718 L36.3495,95.9436"/>
        </g>
        <g id="product-05-Y03-C">
            <path style="stroke:none; fill:none;"  pointer-events="visible" d="M37.6001,93.6413 L38.815,91.405 L36.6581,90.2333 L35.4432,92.4696 L37.6001,93.6413"/>
        </g>
        <g id="product-05-X07-H">
            <path style="stroke:none; fill:none;"  pointer-events="visible" d="M28.0896,70.55 L28.5653,72.698 L29.5319,72.4839 L29.6295,72.4623 L29.1538,70.3143 L29.0562,70.3359 L28.0896,70.55"/>
        </g>
        <g id="product-05-Y07-D">
            <path style="stroke:none; fill:none;"  pointer-events="visible" d="M46.6603,76.9634 L47.8751,74.7271 L45.7182,73.5554 L44.5034,75.7917 L46.6603,76.9634"/>
        </g>
        <g id="product-05-X07-J">
            <path style="stroke:none; fill:none;"  pointer-events="visible" d="M29.8248,72.419 L31.7775,71.9866 L31.3018,69.8386 L29.3491,70.2711 L29.8248,72.419"/>
        </g>
        <g id="product-05-Y08-H">
            <path style="stroke:none; fill:none;"  pointer-events="visible" d="M46.6607,67.242 L42.0444,64.7342 L41.1422,66.395 L41.1835,66.4174 L41.1725,66.4377 L40.7218,67.2672 L40.7109,67.2874 L40.6696,67.2649 L40.5789,67.4319 L40.9057,67.6095 L40.8513,67.7097 L44.8934,69.9055 L44.9478,69.8053 L45.1952,69.9397 L46.6607,67.242"/>
        </g>
        <g id="product-05-Y07-M">
            <path style="stroke:none; fill:none;"  pointer-events="visible" d="M48.2223,49.6343 L53.8903,39.2024 L35.667,43.2392 L35.8943,44.2675 L35.9029,44.3131 L35.9101,44.4057 L35.9072,44.4985 L35.8944,44.5904 L35.8717,44.6804 L35.8393,44.7675 L35.7978,44.8505 L35.7475,44.9285 L35.6891,45.0007 L35.6232,45.0661 L35.5769,45.1029 L30.8576,48.9943 L30.8122,49.0329 L30.7489,49.0999 L30.6932,49.1733 L30.6458,49.2524 L30.6072,49.3361 L30.5779,49.4235 L30.5582,49.5135 L30.5483,49.6052 L30.5484,49.6973 L30.5585,49.7889 L30.5685,49.8339 L32.1218,56.8459 L32.2384,57.3724 L33.4754,62.9542 L35.1226,70.3495 L37.1627,69.8977 L43.5072,58.3168 L48.2223,49.6343"/>
        </g>
        <g id="product-05-X03-D">
            <path style="stroke:none; fill:none;"  pointer-events="visible" d="M28.584,94.8507 L30.9806,94.3199 L30.4303,91.8351 L28.0337,92.3659 L28.584,94.8507"/>
        </g>
        <g id="product-05-Y06-H">
            <path style="stroke:none; fill:none;"  pointer-events="visible" d="M39.9051,79.4021 L41.1161,77.173 L39.5788,76.3368 L38.3674,78.5668 L39.9051,79.4021"/>
        </g>
        <g id="product-05-Y06-G">
            <path style="stroke:none; fill:none;"  pointer-events="visible" d="M42.3396,74.9207 L40.8019,74.0853 L39.6566,76.1936 L41.1939,77.0298 L42.3396,74.9207"/>
        </g>
        <g id="product-05-Y09-G">
            <path style="stroke:none; fill:none;"  pointer-events="visible" d="M47.3237,62.0796 L48.8616,62.915 L50.0726,60.6857 L48.5348,59.8503 L47.3237,62.0796"/>
        </g>
        <g id="product-05-X11-D">
            <path style="stroke:none; fill:none;"  pointer-events="visible" d="M19.2432,52.6726 L21.6397,52.1419 L21.0895,49.6571 L18.6929,50.1878 L19.2432,52.6726"/>
        </g>
        <g id="product-05-X07-G">
            <path style="stroke:none; fill:none;"  pointer-events="visible" d="M27.4625,67.7186 L28.0463,70.3547 L29.0129,70.1407 L31.2585,69.6434 L30.6747,67.0072 L27.4625,67.7186"/>
        </g>
        <g id="product-05-X11-G">
            <path style="stroke:none; fill:none;"  pointer-events="visible" d="M24.5008,46.2512 L22.7921,46.6296 L23.3111,48.9728 L25.0197,48.5944 L24.5008,46.2512"/>
        </g>
        <g id="product-05-X09-C">
            <path style="stroke:none; fill:none;"  pointer-events="visible" d="M21.0119,60.6593 L23.4085,60.1286 L22.8582,57.6438 L20.4616,58.1745 L21.0119,60.6593"/>
        </g>
        <g id="product-05-X11-I">
            <path style="stroke:none; fill:none;"  pointer-events="visible" d="M25.8964,51.1657 L28.679,50.5494 L27.5763,45.5701 L24.7937,46.1863 L25.8964,51.1657"/>
        </g>
        <g id="product-05-Y06-I">
            <path style="stroke:none; fill:none;"  pointer-events="visible" d="M35.5994,77.0631 L38.1037,78.4235 L40.5382,73.9421 L38.0339,72.5817 L35.5994,77.0631"/>
        </g>
        <g id="product-05-X13-T">
        </g>
        <g id="product-05-X02-A">
            <path style="stroke:none; fill:none;"  pointer-events="visible" d="M31.07,94.3769 L28.527,94.9401 L27.3778,89.7509 L24.7384,90.3354 L27.0645,100.839 L31.6106,101.479 L32.6535,94.0698 L31.0792,94.4184 L31.07,94.3769"/>
        </g>
        <g id="product-05-Y07-G">
            <path style="stroke:none; fill:none;"  pointer-events="visible" d="M40.7243,67.9434 L40.3975,67.7658 L38.5597,71.1488 L38.5878,71.1641 L38.1152,72.034 L38.0871,72.0188 L37.9964,72.1857 L42.6127,74.6935 L45.0138,70.2736 L44.7664,70.1392 L44.8208,70.0391 L40.7787,67.8432 L40.7243,67.9434"/>
        </g>
        <g id="product-05-X08-G">
            <path style="stroke:none; fill:none;"  pointer-events="visible" d="M32.5127,66.2417 L30.119,55.4333 L24.6515,56.6441 L27.0451,67.4526 L32.5127,66.2417"/>
        </g>
        <g id="product-05-Y02-A">
            <path style="stroke:none; fill:none;"  pointer-events="visible" d="M38.9167,91.3749 L36.3796,96.0453 L34.0908,94.8019 L34.0705,94.8393 L32.6538,94.0697 L32.6535,94.0698 L31.6106,101.479 L36.1566,102.119 L41.292,92.6653 L38.9167,91.3749"/>
        </g>
        <g id="product-05-Y05-G">
            <path style="stroke:none; fill:none;"  pointer-events="visible" d="M46.4202,56.4107 L55.8418,39.0673 L54.5234,38.3511 L48.3541,49.7059 L43.6386,58.3891 L37.4173,69.8413 L34.9664,70.3841 L31.9454,56.7431 L31.944,56.7367 L31.3058,53.856 L30.4219,49.8664 L30.4109,49.8169 L30.3992,49.7161 L30.3977,49.6146 L30.4064,49.5135 L30.4254,49.4138 L30.4543,49.3166 L30.4929,49.2227 L30.5408,49.1333 L30.5975,49.0491 L30.6625,48.9711 L30.735,48.9001 L30.7622,48.8786 L35.4745,44.9929 L35.5083,44.9652 L35.5731,44.899 L35.6302,44.826 L35.679,44.7471 L35.7187,44.6634 L35.749,44.5758 L35.7695,44.4854 L35.78,44.3933 L35.7802,44.3006 L35.7702,44.2085 L35.7602,44.1632 L35.642,43.6295 L27.8865,45.352 L29.0921,50.7959 L23.6245,52.0068 L23.9884,53.65 L26.0875,53.1851 L26.1033,53.2564 L27.0894,53.038 L27.0736,52.9667 L29.4559,52.4391 L32.517,66.2612 L30.9451,66.6094 L31.144,67.5076 L30.8023,67.5833 L31.1223,69.0283 L31.464,68.9526 L31.6846,69.9485 L31.3428,70.0241 L31.6629,71.4691 L32.0046,71.3934 L32.1905,72.2331 L32.0929,72.2547 L33.3923,78.1219 L39.1527,81.2512 L39.2429,81.0852 L39.2148,81.0699 L39.6873,80.1999 L39.7155,80.2152 L39.9422,79.7978 L35.1343,77.186 L36.5377,74.6025 L37.8839,72.1246 L37.9717,72.1723 L42.1038,64.5662 L46.8239,67.13 L46.976,66.85 L46.9479,66.8347 L47.4205,65.9648 L47.4486,65.9801 L47.6692,65.5741 L42.8613,62.9623 L45.6168,57.8896 L50.423,60.5005 L50.5271,60.3089 L50.5007,60.2946 L50.9733,59.4247 L50.9997,59.439 L51.2264,59.0216 L49.4519,58.0576 L49.4867,57.9935 L48.5992,57.5114 L48.5644,57.5755 L46.4202,56.4107"/>
        </g>
        <g id="product-05-Y05-A">
            <path style="stroke:none; fill:none;"  pointer-events="visible" d="M67.0895,45.1776 L55.8319,39.0619 L50.6838,48.5627 L47.8842,53.716 L52.805,56.3893 L47.7883,65.624 L47.7,65.5761 L42.7164,74.7498 L42.8047,74.7978 L32.7646,93.2803 L32.6531,94.0695 L34.0701,94.8397 L34.8524,93.3997 L35.1474,92.8569 L36.5258,90.3196 L36.528,90.3157 L36.628,90.1316 L38.9167,91.3749 L39.6884,91.7942 L39.7098,91.8058 L41.2921,92.6654 L67.0895,45.1776"/>
            <path style="stroke:none; fill:none;"  pointer-events="visible" d="M54.3829,62.9047 L51.8458,67.575 L49.5571,66.3317 L52.0942,61.6613 L54.3829,62.9047"/>
            <path style="stroke:none; fill:none;"  pointer-events="visible" d="M49.2275,72.3948 L46.6904,77.0651 L44.4017,75.8218 L46.9388,71.1514 L49.2275,72.3948"/>
        </g>
        <g id="product-05-X04-A">
            <path style="stroke:none; fill:none;"  pointer-events="visible" d="M23.4234,51.0988 L22.379,46.3831 L27.8466,45.1722 L27.8864,45.352 L34.6388,43.8566 L32.3107,33.3441 L13.0616,37.6135 L14.1774,42.6481 L14.1847,42.6465 L24.7364,90.3358 L29.9208,89.1877 L31.0792,94.4184 L32.6531,94.0695 L32.8045,92.997 L28.3925,73.0742 L28.2949,73.0958 L24.5524,56.1968 L24.5827,56.1901 L24.1308,54.1495 L24.1005,54.1562 L23.9856,53.6373 L23.6288,52.0263 L23.4234,51.0988"/>
            <path style="stroke:none; fill:none;"  pointer-events="visible" d="M21.7292,52.1989 L19.1862,52.7621 L18.0369,47.5728 L20.58,47.0096 L21.7292,52.1989"/>
            <path style="stroke:none; fill:none;"  pointer-events="visible" d="M20.3722,58.1175 L22.9152,57.5544 L24.0644,62.7436 L21.5214,63.3068 L20.3722,58.1175"/>
            <path style="stroke:none; fill:none;"  pointer-events="visible" d="M28.7348,83.8324 L26.1918,84.3956 L25.0426,79.2063 L27.5856,78.6432 L28.7348,83.8324"/>
        </g>
        <g id="product-05-Y00-A">
            <path style="stroke:none; fill:none;"  pointer-events="visible" d="M32.3682,109.092 L36.1566,102.119 L27.0645,100.839 L28.7805,108.587 L32.3682,109.092"/>
        </g>
        <g id="product-05-Y09-I">
            <path style="stroke:none; fill:none;"  pointer-events="visible" d="M43.3325,62.828 L43.4204,62.8756 L43.4204,62.8755 L43.4625,62.8985 L44.2657,63.3348 L44.2656,63.3349 L44.3078,63.3578 L45.8369,64.1884 L48.2712,59.7071 L45.7669,58.3466 L43.3325,62.828"/>
        </g>
    </g>
    <g id="storey-04">
        <g id="product-04-X11-H">
        </g>
        <g id="product-04-Y03-D">
        </g>
        <g id="product-04-Y09-H">
        </g>
        <g id="product-04-Y09-G">
        </g>
        <g id="product-04-Y06-G">
        </g>
        <g id="product-04-Y06-H">
        </g>
        <g id="product-04-X06-C">
        </g>
        <g id="product-04-X06-D">
        </g>
        <g id="product-04-Y08-C">
        </g>
        <g id="product-04-Y08-D">
        </g>
        <g id="product-04-Y11-G">
        </g>
        <g id="product-04-X13-J">
        </g>
        <g id="product-04-X09-C">
        </g>
        <g id="product-04-X09-D">
        </g>
        <g id="product-04-X03-D">
        </g>
        <g id="product-04-X13-I">
        </g>
        <g id="product-04-Y12-G">
        </g>
        <g id="product-04-X11-D">
        </g>
        <g id="product-04-X11-C">
        </g>
        <g id="product-04-X08-G">
        </g>
        <g id="product-04-X03-C">
        </g>
        <g id="product-04-Y03-C">
        </g>
        <g id="product-04-Y06-C">
        </g>
        <g id="product-04-Y06-D">
        </g>
        <g id="product-04-X13-G">
        </g>
        <g id="product-04-X13-H">
        </g>
        <g id="product-04-X07-H">
        </g>
        <g id="product-04-X07-J">
        </g>
        <g id="product-04-X07-G">
        </g>
        <g id="product-04-X11-G">
        </g>
        <g id="product-04-Y10-I">
        </g>
        <g id="product-04-X11-I">
        </g>
        <g id="product-04-Y10-G">
        </g>
        <g id="product-04-Y10-L">
        </g>
        <g id="product-04-Y09-I">
        </g>
        <g id="product-04-Y06-I">
        </g>
        <g id="product-04-Y10-K">
        </g>
        <g id="product-04-X13-T">
        </g>
        <g id="product-04-Y-10-H">
        </g>
        <g id="product-04-Y10-A">
        </g>
        <g id="product-04-X02-A">
        </g>
        <g id="product-04-X13-A">
        </g>
        <g id="product-04-Y05-G">
        </g>
        <g id="product-04-X12-G">
        </g>
        <g id="product-04-Y12-A">
        </g>
        <g id="product-04-X10-I">
        </g>
        <g id="product-04-X10-H">
        </g>
        <g id="product-04-X10-G">
        </g>
        <g id="product-04-10-K">
        </g>
        <g id="product-04-Y11-H">
        </g>
        <g id="product-04-X10-L">
        </g>
        <g id="product-04-Y13-G">
        </g>
        <g id="product-04-Y07-G">
        </g>
        <g id="product-04-Y13-A">
        </g>
        <g id="product-04-X09-H">
        </g>
        <g id="product-04-Y10-D">
        </g>
        <g id="product-04-Y10-C">
        </g>
        <g id="product-04-X09-G">
        </g>
        <g id="product-XX-XX">
        </g>
        <g id="product-04-X10-A">
        </g>
        <g id="product-04-X13-D">
        </g>
        <g id="product-04-Y13-C">
        </g>
        <g id="product-04-Y02-A">
        </g>
        <g id="product-04-Y00-A">
        </g>
        <g id="product-04-Y05-H">
        </g>
        <g id="product-04-Y05-I">
        </g>
        <g id="product-04-Y05-J">
        </g>
        <g id="product-04-X03-A">
        </g>
        <g id="product-04-Y13-D">
        </g>
        <g id="product-04-Y04-H">
        </g>
        <g id="product-04-X13-C">
        </g>
    </g>
    <g id="storey-02">
        <g id="product-02-X06-K">
        </g>
        <g id="product-02-X11-G">
        </g>
        <g id="product-02-X07-G">
        </g>
        <g id="product-02-X10-L">
        </g>
        <g id="product-02-X07-J">
        </g>
        <g id="product-02-X07-H">
        </g>
        <g id="product-02-X10-H">
        </g>
        <g id="product-02-X10-J">
        </g>
        <g id="product-02-Y08-C">
        </g>
        <g id="product-02-X05-D">
        </g>
        <g id="product-02-X10-A">
        </g>
        <g id="product-02-X12-K">
        </g>
        <g id="product-02-X11-I">
        </g>
        <g id="product-XX-XX">
        </g>
        <g id="product-02-Y06-K">
        </g>
        <g id="product-02-Y09-G">
        </g>
        <g id="product-02-X12-C">
        </g>
        <g id="product-02-X12-D">
        </g>
        <g id="product-02-X09-E">
        </g>
        <g id="product-02-X08-K">
        </g>
        <g id="product-02-X09-K">
        </g>
        <g id="product-02-X05-C">
        </g>
        <g id="product-02-X08-E">
        </g>
        <g id="product-02-X10-B">
        </g>
        <g id="product-02-X09-E">
        </g>
        <g id="product-02-Y08-L">
        </g>
        <g id="product-02-Y10-G">
        </g>
        <g id="product-02-X13-S">
        </g>
        <g id="product-02-X11-A">
        </g>
        <g id="product-02-X11-E">
        </g>
        <g id="product-02-Y09-I">
        </g>
        <g id="product-02-Y08-G">
        </g>
        <g id="product-02-Y04-G">
        </g>
        <g id="product-02-Y03-G">
        </g>
        <g id="product-02-X06-E">
        </g>
        <g id="product-02-X07-I">
        </g>
        <g id="product-02-X09-Ga">
        </g>
        <g id="product-02-X07-E">
        </g>
        <g id="product-02-Y07-M">
        </g>
        <g id="product-02-X03-C">
        </g>
        <g id="product-02-Y05-G">
        </g>
        <g id="product-02-X08-H">
        </g>
        <g id="product-02-X08-I">
        </g>
        <g id="product-02-X13-A">
        </g>
        <g id="product-02-X09-Gb">
        </g>
        <g id="product-02-X09-Gc">
        </g>
        <g id="product-02-X12-H">
        </g>
        <g id="product-02-X09-Ha">
        </g>
        <g id="product-02-Y09-M">
        </g>
        <g id="product-02-Y06-G">
        </g>
        <g id="product-02-X12-F">
        </g>
        <g id="product-02-Y08-K">
        </g>
        <g id="product-02-X08-G">
        </g>
        <g id="product-02-X12-E">
        </g>
        <g id="product-02-X11-F">
        </g>
        <g id="product-02-X10-F">
        </g>
        <g id="product-02-Y09-H">
        </g>
        <g id="product-02-X04-A">
        </g>
        <g id="product-02-Y02-C">
        </g>
    </g>
</svg>
