<svg xmlns="http://www.w3.org/2000/svg" xmlns:xlink="http://www.w3.org/1999/xlink">
    <g id="storey-U2">
        <g id="product-U2-Y06-M">
        </g>
        <g id="product-U2-Y09-I">
        </g>
        <g id="product-U2-X10-M">
        </g>
        <g id="product-U2-Y07-M">
        </g>
        <g id="product-U2-X08-M">
        </g>
        <g id="product-U2-X12-S">
        </g>
        <g id="product-U2-X08-G">
        </g>
        <g id="product-U2-Y08-O">
        </g>
        <g id="product-U2-Y06-I">
        </g>
        <g id="product-U2-X07-G">
        </g>
        <g id="product-U2-X13-R">
        </g>
        <g id="product-U2-X07-H">
        </g>
        <g id="product-U2-Y08-L">
        </g>
        <g id="product-U2-Y08-I">
        </g>
        <g id="product-U2-Y07-J">
        </g>
        <g id="product-U2-X07-K">
        </g>
        <g id="product-U2-X05-A">
        </g>
        <g id="product-U2-X11-A">
        </g>
        <g id="product-U2-Y03-A">
        </g>
        <g id="product-U2-X12-J">
        </g>
        <g id="product-U2-X12-R">
        </g>
        <g id="product-U2-X12-Q">
        </g>
        <g id="product-U2-X12-O">
        </g>
        <g id="product-U2-X06-G">
        </g>
        <g id="product-U2-Y07-I">
        </g>
        <g id="product-U2-X11-I">
        </g>
        <g id="product-U2-X12-T">
        </g>
        <g id="product-U2-X12-R">
        </g>
        <g id="product-U2-X13-Q">
        </g>
    </g>
    <g id="storey-U3">
        <g id="product-U3-X10-M">
        </g>
        <g id="product-U3-Y03-A">
        </g>
        <g id="product-U3-X11-I">
        </g>
        <g id="product-U3-X12-J">
        </g>
        <g id="product-U3-X04-A">
        </g>
        <g id="product-U3-Y07-M">
        </g>
        <g id="product-U3-X07-A">
        </g>
        <g id="product-U3-Y09-I">
        </g>
        <g id="product-U3-Y6-I">
        </g>
        <g id="product-U3-Y08-I">
        </g>
        <g id="product-U3-Y08-L">
        </g>
        <g id="product-U3-Y07-J">
        </g>
        <g id="product-U3-X10-N">
        </g>
        <g id="product-U3-X07-H">
        </g>
        <g id="product-U3-X12-O">
        </g>
        <g id="product-U3-X12-R">
        </g>
        <g id="product-U3-X12Q">
        </g>
        <g id="product-U3-X13-P">
        </g>
        <g id="product-U3-X07-G">
        </g>
        <g id="product-U3-Y06-M">
        </g>
        <g id="product-U3-Y07-I">
        </g>
        <g id="product-U3-X07-K">
        </g>
        <g id="product-U3-X06-G">
        </g>
        <g id="product-U3-X08-G">
        </g>
    </g>
    <g id="storey-01">
        <g id="product-01-X14-J">
            <path style="stroke:none; fill:none;"  pointer-events="visible" d="M24.5924,32.328 L22.1932,32.8593 L22.7442,35.3471 L25.1433,34.8158 L24.5924,32.328"/>
        </g>
        <g id="product-01-X08-O">
            <path style="stroke:none; fill:none;"  pointer-events="visible" d="M33.2529,60.8798 L33.953,64.0412 L36.2777,63.5264 L35.5776,60.365 L33.2529,60.8798"/>
        </g>
        <g id="product-01-Y08-L">
            <path style="stroke:none; fill:none;"  pointer-events="visible" d="M40.7596,67.5643 L42.7367,68.6383 L43.8347,66.6171 L41.8576,65.5431 L40.7596,67.5643"/>
        </g>
        <g id="product-01-Y08-M">
            <path style="stroke:none; fill:none;"  pointer-events="visible" d="M43.8101,61.2154 L44.5529,59.8481 L42.6298,58.8034 L40.3141,59.3162 L43.8101,61.2154"/>
        </g>
        <g id="product-01-Y06-G">
            <path style="stroke:none; fill:none;"  pointer-events="visible" d="M43.3709,73.3366 L38.8016,70.8543 L38.0596,72.2201 L42.8047,74.7978 L42.629,74.7023 L43.3709,73.3366"/>
        </g>
        <g id="product-01-X11-H">
            <path style="stroke:none; fill:none;"  pointer-events="visible" d="M25.6035,51.2305 L25.055,48.7535 L23.7202,49.0491 L23.9105,49.9083 L23.5366,49.9911 L23.8949,51.6089 L25.6035,51.2305"/>
        </g>
        <g id="product-01-Y09-C">
            <path style="stroke:none; fill:none;"  pointer-events="visible" d="M41.7473,71.3226 L41.368,72.0209 L43.6421,73.2563 L42.7187,74.9559 L47.4599,77.5335 L50.3549,72.1904 L49.0687,71.4935 L50.9996,67.9296 L52.2858,68.6265 L68.5417,38.6239 L61.8472,35.0738 L53.8317,39.1695 L48.5664,40.3719 L49.555,44.8358 L53.1707,44.0351 L53.8349,44.3956 L54.9727,47.1105 L54.4947,48.7051 L49.8674,57.1623 L48.8455,59.6433 L50.5378,60.5626 L50.3563,60.8967 L49.731,62.0479 L46.5376,67.9261 L44.2627,66.6903 L43.938,67.288 L43.6428,67.1276 L42.9363,68.4281 L43.2315,68.5885 L42.9356,69.1333 L42.5159,69.9079 L41.7473,71.3226"/>
        </g>
        <g id="product-01-Y05-C">
            <path style="stroke:none; fill:none;"  pointer-events="visible" d="M41.1983,80.4463 L37.4033,87.4321 L40.9798,89.3746 L47.411,77.5337 L47.0782,77.3529 L46.9708,77.5506 L46.2678,77.1687 L46.3813,76.9719 L42.7068,74.9781 L40.8428,78.4093 L40.3607,79.2968 L40.0694,79.833 L41.1983,80.4463"/>
        </g>
        <g id="product-01-X12-C">
            <path style="stroke:none; fill:none;"  pointer-events="visible" d="M20.0005,44.1525 L19.5362,42.0562 L18.0886,42.3768 L18.5528,44.473 L20.0005,44.1525"/>
        </g>
        <g id="product-01-X06-I">
            <path style="stroke:none; fill:none;"  pointer-events="visible" d="M35.2069,77.0524 L36.8148,74.0925 L35.6178,73.4422 L34.0099,76.4021 L35.2069,77.0524"/>
        </g>
        <g id="product-01-Y08-N">
            <path style="stroke:none; fill:none;"  pointer-events="visible" d="M37.6958,69.3287 L37.1989,70.2432 L38.5169,70.9595 L43.7376,61.349 L40.1694,59.4106 L35.7177,60.3964 L37.6958,69.3287"/>
        </g>
        <g id="product-01-X11-F">
            <path style="stroke:none; fill:none;"  pointer-events="visible" d="M20.148,36.0777 L18.455,36.4527 L19.1184,39.448 L20.7133,46.6498 L21.9503,52.2352 L23.5944,51.8711 L22.379,46.3831 L21.9747,44.5573 L21.726,43.4344 L20.5364,38.0627 L22.5906,37.6077 L25.6134,36.9383 L25.1762,34.9642 L20.5385,35.9912 L20.5653,36.1123 L20.1748,36.1987 L20.148,36.0777"/>
        </g>
        <g id="product-01-X06-G">
            <path style="stroke:none; fill:none;"  pointer-events="visible" d="M28.9289,74.8021 L29.6461,78.0407 L32.0381,77.5109 L33.3982,77.2097 L35.4653,73.4045 L35.458,73.3713 L34.3905,68.5513 L31.5161,69.1879 L31.6846,69.9485 L31.3428,70.0241 L31.3018,69.8386 L29.3491,70.2711 L29.8248,72.419 L31.7775,71.9866 L31.6629,71.4691 L32.0046,71.3934 L32.1905,72.2331 L28.8153,72.9806 L29.2052,74.7409 L28.9289,74.8021"/>
        </g>
        <g id="product-01-Y05-E">
            <path style="stroke:none; fill:none;"  pointer-events="visible" d="M36.8462,78.1159 L35.6794,80.2637 L39.9917,82.6063 L40.1161,82.3773 L40.0748,82.3548 L40.5474,81.4849 L40.5887,81.5073 L41.1582,80.4584 L40.0552,79.8592 L36.8462,78.1159"/>
        </g>
        <g id="product-01-X15-S">
            <path style="stroke:none; fill:none;"  pointer-events="visible" d="M33.0027,25.112 L35.1602,21.1406 L33.3931,20.1804 L31.3077,24.0184 L33.0753,24.9785 L33.0027,25.112"/>
        </g>
        <g id="product-01-X11-G">
            <path style="stroke:none; fill:none;"  pointer-events="visible" d="M27.6874,45.2075 L27.3263,43.5769 L22.2132,44.7093 L22.5743,46.3398 L22.7208,46.3074 L23.3111,48.9728 L25.0197,48.5944 L24.4294,45.929 L27.6874,45.2075"/>
        </g>
        <g id="product-01-X-15-T">
            <path style="stroke:none; fill:none;"  pointer-events="visible" d="M38.8011,22.3559 L35.6558,20.6473 L33.2739,25.0317 L37.0353,27.0748 L38.8011,22.3559"/>
        </g>
        <g id="product-01-X05-I">
            <path style="stroke:none; fill:none;"  pointer-events="visible" d="M31.1825,77.8561 L31.6686,80.0509 L36.0062,79.0903 L36.6062,77.9852 L35.4507,77.3578 L35.1343,77.186 L33.9373,76.5357 L33.4987,77.3431 L31.1825,77.8561"/>
        </g>
        <g id="product-01-X15-G">
            <path style="stroke:none; fill:none;"  pointer-events="visible" d="M19.0864,30.2944 L19.1565,30.6107 L23.9757,29.5435 L21.6734,19.1474 L16.8541,20.2146 L18.8723,29.3278 L18.9182,29.3177 L19.1323,30.2843 L19.0864,30.2944"/>
        </g>
        <g id="product-01-X12-A">
            <path style="stroke:none; fill:none;"  pointer-events="visible" d="M16.4845,42.732 L14.4172,43.1898 L14.8815,45.2861 L18.422,44.502 L17.9578,42.4057 L16.4845,42.732"/>
        </g>
        <g id="product-01-X7-K">
            <path style="stroke:none; fill:none;"  pointer-events="visible" d="M23.6217,51.9941 L21.9775,52.3582 L22.3293,53.9469 L27.543,52.7922 L29.1969,52.426 L28.8479,50.85 L23.6245,52.0068 L23.6217,51.9941"/>
        </g>
        <g id="product-01-Y04-E">
            <path style="stroke:none; fill:none;"  pointer-events="visible" d="M33.1017,85.0087 L37.4143,87.3515 L37.5384,87.1223 L37.4982,87.1004 L37.9708,86.2305 L38.012,86.2529 L38.6306,85.1126 L35.5938,83.4628 L35.5939,83.4626 L35.4177,83.368 L35.418,83.3674 L34.318,82.7698 L33.1017,85.0087"/>
        </g>
        <g id="product-01-X12-B">
            <path style="stroke:none; fill:none;"  pointer-events="visible" d="M18.4965,44.8382 L14.9559,45.6223 L15.4204,47.7195 L18.9609,46.9354 L18.4965,44.8382"/>
        </g>
        <g id="product-01-X12-D">
            <path style="stroke:none; fill:none;"  pointer-events="visible" d="M20.5394,46.5859 L20.0749,44.4886 L18.6273,44.8092 L19.0917,46.9064 L20.5394,46.5859"/>
        </g>
        <g id="product-01-Y6-M">
            <path style="stroke:none; fill:none;"  pointer-events="visible" d="M36.8874,73.9589 L37.8839,72.1246 L38.4568,71.0702 L37.1387,70.3539 L35.048,70.8169 L35.5874,73.2527 L36.8874,73.9589"/>
        </g>
        <g id="product-01-Y07-P">
            <path style="stroke:none; fill:none;"  pointer-events="visible" d="M37.1644,67.5302 L34.7304,68.0693 L35.2971,70.6286 L37.0528,70.2398 L37.5584,69.3094 L37.1644,67.5302"/>
        </g>
        <g id="product-01-X13-B">
            <path style="stroke:none; fill:none;"  pointer-events="visible" d="M14.2814,43.1175 L16.4628,42.6344 L15.9171,40.1703 L13.7357,40.6534 L14.2814,43.1175"/>
        </g>
        <g id="product-01-X09-G">
            <path style="stroke:none; fill:none;"  pointer-events="visible" d="M26.1002,60.4245 L28.9345,59.7968 L28.507,57.8667 L25.6729,58.495 L26.1002,60.4245"/>
        </g>
        <g id="product-01-X08-G">
            <path style="stroke:none; fill:none;"  pointer-events="visible" d="M26.4098,62.905 L27.4039,67.3936 L30.4706,66.7144 L30.2792,65.8501 L29.2794,66.0715 L29.2586,65.9778 L30.2584,65.7564 L29.8216,63.7842 L28.8219,64.0056 L28.8011,63.9118 L29.8009,63.6904 L29.4597,62.1497 L29.4558,62.1506 L29.4726,62.2267 L26.4098,62.905"/>
            <path style="stroke:none; fill:none;"  pointer-events="visible" d="M27.2083,66.4318 L28.3272,66.1841 L28.3479,66.2778 L27.2291,66.5256 L27.2083,66.4318"/>
        </g>
        <g id="product-01-Y06-I">
            <path style="stroke:none; fill:none;"  pointer-events="visible" d="M35.5994,77.0631 L38.1037,78.4235 L40.5382,73.9421 L38.0339,72.5817 L36.4348,75.5253 L37.4892,76.0982 L37.3938,76.2739 L36.3393,75.7011 L35.5994,77.0631"/>
        </g>
        <g id="product-01-X08-P">
            <path style="stroke:none; fill:none;"  pointer-events="visible" d="M34.4291,66.1911 L36.7538,65.6763 L36.3067,63.6572 L33.982,64.1721 L34.4291,66.1911"/>
        </g>
        <g id="product-01-X13-A">
            <path style="stroke:none; fill:none;"  pointer-events="visible" d="M17.139,31.2132 L12.3539,32.2729 L12.3836,32.4067 L11.9315,32.5068 L13.7149,40.5597 L17.0257,39.8264 L17.0465,39.9202 L16.0109,40.1495 L16.5566,42.6136 L19.5146,41.9585 L18.9661,39.4817 L18.97,39.4809 L17.139,31.2132"/>
        </g>
        <g id="product-01-X10-A">
            <path style="stroke:none; fill:none;"  pointer-events="visible" d="M15.8863,50.3642 L16.5235,53.2414 L17.0116,53.1333 L17.0765,53.4262 L16.5883,53.5343 L17.7559,58.8066 L24.7407,57.2597 L24.6594,56.8926 L25.5352,56.6987 L24.8379,53.5501 L22.2115,54.1317 L21.1204,49.205 L20.2798,49.3912 L20.259,49.2974 L21.1026,49.1106 L20.5649,46.6826 L17.6352,47.3314 L17.9329,48.6757 L18.1729,49.7594 L19.1851,49.5353 L19.2058,49.629 L15.8863,50.3642"/>
        </g>
        <g id="product-01-X12-P">
            <path style="stroke:none; fill:none;"  pointer-events="visible" d="M28.9946,41.5687 L31.4354,41.0282 L31.1219,39.6124 L33.5141,39.0826 L32.7249,35.5191 L30.3327,36.0488 L30.8625,38.4408 L28.4216,38.9814 L28.5513,39.5672 L28.9946,41.5687"/>
        </g>
        <g id="product-01-X08-Oc">
            <path style="stroke:none; fill:none;"  pointer-events="visible" d="M32.2786,64.412 L33.8515,64.0637 L33.635,63.0864 L32.0621,63.4347 L32.2786,64.412"/>
        </g>
        <g id="product-01-X14-H">
            <path style="stroke:none; fill:none;"  pointer-events="visible" d="M22.0702,32.8866 L19.7653,33.397 L20.2894,35.7637 L20.4789,35.7217 L20.5057,35.8428 L22.6211,35.3743 L22.0702,32.8866"/>
        </g>
        <g id="product-01-X14-F">
            <path style="stroke:none; fill:none;"  pointer-events="visible" d="M20.5326,13.9964 L8.42594,16.6776 L11.8718,32.2373 L17.2447,31.0474 L18.4095,36.3071 L20.1679,35.9176 L18.9842,30.5731 L19.1131,30.5446 L16.7939,20.0723 L21.6405,18.999 L20.5326,13.9964"/>
        </g>
        <g id="product-01-X13-Q">
            <path style="stroke:none; fill:none;"  pointer-events="visible" d="M23.2361,23.8313 L23.2361,23.8313 L26.0362,36.4749 L33.0739,34.9163 L35.936,26.693 L33.0004,25.0985 L32.9952,25.1079 L31.1016,24.0794 L33.584,19.5108 L24.444,14.5455 L22.125,18.8142 L23.2361,23.8313"/>
        </g>
        <g id="product-01-X11-A">
            <path style="stroke:none; fill:none;"  pointer-events="visible" d="M17.5122,47.3587 L15.442,47.8171 L15.4448,47.8298 L15.3599,47.8487 L15.3571,47.836 L15.3278,47.8424 L15.4164,48.2425 L15.7874,48.1604 L15.7016,47.773 L15.7826,47.755 L15.8864,48.2235 L15.4343,48.3236 L15.8655,50.2704 L18.0499,49.7867 L17.5122,47.3587"/>
        </g>
        <g id="product-01-X10-H">
            <path style="stroke:none; fill:none;"  pointer-events="visible" d="M25.207,54.5878 L25.6736,56.6946 L26.0255,58.2837 L28.4789,57.7398 L28.495,57.8124 L28.4989,57.8116 L28.1585,56.2745 L27.329,56.4582 L27.3083,56.3645 L28.1378,56.1808 L27.6645,54.0436 L26.835,54.2273 L26.8142,54.1336 L27.6437,53.9499 L27.4275,52.9735 L24.97,53.5178 L25.1862,54.4941 L26.0161,54.3103 L26.0369,54.404 L25.207,54.5878"/>
        </g>
        <g id="product-01-X13-H">
            <path style="stroke:none; fill:none;"  pointer-events="visible" d="M23.1397,40.7903 L22.4751,37.789 L20.7177,38.1782 L21.3823,41.1795 L23.1397,40.7903"/>
        </g>
        <g id="product-01-X09-H">
            <path style="stroke:none; fill:none;"  pointer-events="visible" d="M29.0173,60.1707 L26.183,60.7984 L26.6102,62.7275 L29.4445,62.0998 L29.0173,60.1707"/>
        </g>
        <g id="product-01-X14-G">
            <path style="stroke:none; fill:none;"  pointer-events="visible" d="M19.1815,30.7609 L19.7325,33.2486 L24.5595,32.1796 L24.0086,29.6919 L19.1815,30.7609"/>
        </g>
        <g id="product-01-X17-M">
            <path style="stroke:none; fill:none;"  pointer-events="visible" d="M22.5786,13.5433 L21.0335,13.8855 L22.1245,18.8119 L24.4423,14.5557 L22.5786,13.5433"/>
        </g>
        <g id="product-01-Y08-G">
            <path style="stroke:none; fill:none;"  pointer-events="visible" d="M43.0431,63.0463 L41.888,65.1727 L46.4573,67.6549 L47.6124,65.5286 L47.4807,65.457 L48.8845,62.8729 L47.3466,62.0375 L45.9429,64.6215 L43.0431,63.0463"/>
        </g>
        <g id="product-01-X07-H">
            <path style="stroke:none; fill:none;"  pointer-events="visible" d="M29.6295,72.4623 L29.1538,70.3143 L28.0896,70.55 L28.5653,72.698 L29.6295,72.4623"/>
        </g>
        <g id="product-01-X07-G">
            <path style="stroke:none; fill:none;"  pointer-events="visible" d="M27.4625,67.7186 L28.0463,70.3547 L31.2585,69.6434 L30.6747,67.0072 L27.4625,67.7186"/>
        </g>
        <g id="product-01-Y01-B">
            <path style="stroke:none; fill:none;"  pointer-events="visible" d="M31.9182,101.28 L29.8841,100.993 L31.1069,106.515 L31.6565,106.593 L41.0031,89.3872 L37.4006,87.4306 L35.9863,90.0405 L35.534,89.7948 L32.9261,94.5954 L34.9516,95.6957 L31.9182,101.28"/>
        </g>
        <g id="product-01-X07-K">
            <path style="stroke:none; fill:none;"  pointer-events="visible" d="M29.1969,52.426 L27.543,52.7922 L28.6473,57.7787 L29.6081,62.1169 L30.619,66.6816 L30.9451,66.6094 L31.4833,69.0395 L34.3577,68.4029 L34.2776,68.0415 L37.1159,67.4129 L36.7669,65.8373 L32.3822,66.8083 L32.3551,66.6863 L32.111,66.7404 L32.0245,66.3498 L32.2686,66.2958 L31.1875,61.4141 L30.9434,61.4681 L30.8569,61.0776 L31.101,61.0235 L30.0199,56.1418 L29.7758,56.1958 L29.6893,55.8053 L29.9334,55.7513 L29.6133,54.3061 L29.2883,54.3781 L28.8775,52.5233 L29.2026,52.4514 L29.1969,52.426"/>
        </g>
        <g id="product-01-X08-Oa">
            <path style="stroke:none; fill:none;"  pointer-events="visible" d="M31.7996,62.2494 L33.3725,61.9011 L33.1513,60.9023 L31.5784,61.2506 L31.7996,62.2494"/>
        </g>
        <g id="product-01-X08-Pb">
            <path style="stroke:none; fill:none;"  pointer-events="visible" d="M34.115,65.2539 L32.5422,65.6022 L32.7547,66.562 L34.3276,66.2136 L34.115,65.2539"/>
        </g>
        <g id="product-01-X08-Pa">
            <path style="stroke:none; fill:none;"  pointer-events="visible" d="M32.5197,65.5007 L34.0926,65.1523 L33.8804,64.1945 L32.3076,64.5429 L32.5197,65.5007"/>
        </g>
        <g id="product-01-X08-Ob">
            <path style="stroke:none; fill:none;"  pointer-events="visible" d="M33.395,62.0026 L31.8221,62.351 L32.0397,63.3332 L33.6125,62.9849 L33.395,62.0026"/>
        </g>
        <g id="product-??01-Y02-C">
            <path style="stroke:none; fill:none;"  pointer-events="visible" d="M30.7956,97.8326 L29.2594,98.1728 L29.8775,100.964 L31.9001,101.248 L33.2439,98.7749 L30.9582,97.5332 L30.7956,97.8326"/>
        </g>
        <g id="product-??01-Y03-C">
            <path style="stroke:none; fill:none;"  pointer-events="visible" d="M32.6255,94.464 L30.9715,97.5087 L33.2572,98.7504 L34.9113,95.7055 L33.5466,94.9643 L32.9127,94.62 L32.6255,94.464"/>
        </g>
        <g id="product-01-Y06-H">
            <path style="stroke:none; fill:none;"  pointer-events="visible" d="M39.9051,79.4021 L41.1162,77.1728 L39.5787,76.3368 L38.3673,78.5667 L39.9051,79.4021"/>
        </g>
        <g id="product-01-Y04-G">
            <path style="stroke:none; fill:none;"  pointer-events="visible" d="M35.3416,89.8305 L33.8029,88.9946 L34.2983,91.2317 L34.2993,91.23 L34.5171,91.3483 L35.3416,89.8305"/>
        </g>
        <g id="product-01-Y07-O">
            <path style="stroke:none; fill:none;"  pointer-events="visible" d="M42.8033,69.0603 L40.2898,67.696 L38.7214,70.5831 L41.2345,71.9483 L42.8033,69.0603"/>
        </g>
        <g id="product-01-Y05-F">
            <path style="stroke:none; fill:none;"  pointer-events="visible" d="M39.7947,82.9689 L39.9194,82.74 L35.6068,80.3973 L34.3905,82.6362 L38.7031,84.979 L39.3232,83.8394 L39.2808,83.8164 L39.7534,82.9465 L39.7947,82.9689"/>
        </g>
        <g id="product-01-X16-T">
            <path style="stroke:none; fill:none;"  pointer-events="visible" d="M35.48,20.5519 L33.7129,19.592 L33.4533,20.0697 L35.2203,21.0299 L35.48,20.5519"/>
        </g>
        <g id="product-01-X02-C">
            <path style="stroke:none; fill:none;"  pointer-events="visible" d="M17.834,59.1591 L21.1113,73.9574 L22.3339,70.1134 L24.7021,71.4174 L21.5952,76.1424 L22.3939,79.7492 L22.4112,79.7453 L26.2237,90.085 L25.7427,90.2631 L28.4908,97.7948 L30.4407,97.3629 L33.6633,91.4307 L30.7597,78.3195 L29.2561,78.6524 L24.6069,57.6591 L17.834,59.1591"/>
        </g>
        <g id="product-01-X13-J">
            <path style="stroke:none; fill:none;"  pointer-events="visible" d="M25.6463,37.0867 L22.6235,37.7561 L23.2881,40.7574 L28.3124,39.6447 L28.3072,39.6213 L27.6477,36.6434 L25.6463,37.0867"/>
        </g>
        <g id="product-01-X11-I">
            <path style="stroke:none; fill:none;"  pointer-events="visible" d="M25.8964,51.1657 L28.679,50.5494 L27.5763,45.5701 L24.7937,46.1863 L25.8964,51.1657"/>
        </g>
        <g id="product-01-Y09-G">
            <path style="stroke:none; fill:none;"  pointer-events="visible" d="M43.3323,62.8281 L45.8367,64.1885 L47.6554,60.8406 L48.2046,61.139 L47.7048,62.059 L48.957,62.7393 L50.0726,60.6857 L45.7669,58.3466 L43.3323,62.8281"/>
        </g>
        <g id="product-01-X04-I">
            <path style="stroke:none; fill:none;"  pointer-events="visible" d="M31.8479,80.1669 L32.8827,84.8394 L34.051,82.6889 L34.4882,79.5821 L31.8479,80.1669"/>
        </g>
        <g id="product-01-X12-Q">
            <path style="stroke:none; fill:none;"  pointer-events="visible" d="M30.624,38.2888 L30.1375,36.0921 L27.8918,36.5894 L28.3783,38.7861 L30.624,38.2888"/>
        </g>
        <g id="product-01-X12-R">
            <path style="stroke:none; fill:none;"  pointer-events="visible" d="M32.5333,43.8444 L34.4735,43.4147 L33.6142,39.5347 L31.674,39.9643 L32.5333,43.8444"/>
        </g>
        <g id="product-01-X12-G">
            <path style="stroke:none; fill:none;"  pointer-events="visible" d="M22.3477,44.4746 L29.0532,42.9896 L28.3453,39.7931 L21.4152,41.3279 L21.8408,43.2496 L22.0653,43.1999 L22.3477,44.4746"/>
        </g>
        <g id="product-01-Y04-F">
            <path style="stroke:none; fill:none;"  pointer-events="visible" d="M37.3417,87.4851 L33.0239,85.1395 L33.8444,88.8442 L35.9747,90.0015 L36.7455,88.5845 L36.7042,88.562 L37.1768,87.6921 L37.217,87.714 L37.3417,87.4851"/>
        </g>
    </g>
    <g id="storey-02">
        <g id="product-02-X06-K">
        </g>
        <g id="product-02-X11-G">
        </g>
        <g id="product-02-X07-G">
        </g>
        <g id="product-02-X10-L">
        </g>
        <g id="product-02-X07-J">
        </g>
        <g id="product-02-X07-H">
        </g>
        <g id="product-02-X10-H">
        </g>
        <g id="product-02-X10-J">
        </g>
        <g id="product-02-Y08-C">
        </g>
        <g id="product-02-X05-D">
        </g>
        <g id="product-02-X10-A">
        </g>
        <g id="product-02-X12-K">
        </g>
        <g id="product-02-X11-I">
        </g>
        <g id="product-XX-XX">
        </g>
        <g id="product-02-Y06-K">
        </g>
        <g id="product-02-Y09-G">
        </g>
        <g id="product-02-X12-C">
        </g>
        <g id="product-02-X12-D">
        </g>
        <g id="product-02-X09-E">
        </g>
        <g id="product-02-X08-K">
        </g>
        <g id="product-02-X09-K">
        </g>
        <g id="product-02-X05-C">
        </g>
        <g id="product-02-X08-E">
        </g>
        <g id="product-02-X10-B">
        </g>
        <g id="product-02-X09-E">
        </g>
        <g id="product-02-Y08-L">
        </g>
        <g id="product-02-Y10-G">
        </g>
        <g id="product-02-X13-S">
        </g>
        <g id="product-02-X11-A">
        </g>
        <g id="product-02-X11-E">
        </g>
        <g id="product-02-Y09-I">
        </g>
        <g id="product-02-Y08-G">
        </g>
        <g id="product-02-Y04-G">
        </g>
        <g id="product-02-Y03-G">
        </g>
        <g id="product-02-X06-E">
        </g>
        <g id="product-02-X07-I">
        </g>
        <g id="product-02-X09-Ga">
        </g>
        <g id="product-02-X07-E">
        </g>
        <g id="product-02-Y07-M">
        </g>
        <g id="product-02-X03-C">
        </g>
        <g id="product-02-Y05-G">
        </g>
        <g id="product-02-X08-H">
        </g>
        <g id="product-02-X08-I">
        </g>
        <g id="product-02-X13-A">
        </g>
        <g id="product-02-X09-Gb">
        </g>
        <g id="product-02-X09-Gc">
        </g>
        <g id="product-02-X12-H">
        </g>
        <g id="product-02-X09-Ha">
        </g>
        <g id="product-02-Y09-M">
        </g>
        <g id="product-02-Y06-G">
        </g>
        <g id="product-02-X12-F">
        </g>
        <g id="product-02-Y08-K">
        </g>
        <g id="product-02-X08-G">
        </g>
        <g id="product-02-X12-E">
        </g>
        <g id="product-02-X11-F">
        </g>
        <g id="product-02-X10-F">
        </g>
        <g id="product-02-Y09-H">
        </g>
        <g id="product-02-X04-A">
        </g>
        <g id="product-02-Y02-C">
        </g>
    </g>
    <g id="storey-U1">
        <g id="product-U1-X08-M">
        </g>
        <g id="product-U1-X07-H">
        </g>
        <g id="product-U1-X13-R">
        </g>
        <g id="product-U1-X12-O">
        </g>
        <g id="product-U1-X07-G">
        </g>
        <g id="product-U1-X08-G">
        </g>
        <g id="product-U1-X08-I">
        </g>
        <g id="product-U1-Y07-J">
        </g>
        <g id="product-U1-Y03-A">
        </g>
        <g id="product-U1-X07-K">
        </g>
        <g id="product-U1-Y06-I">
        </g>
        <g id="product-U1-Y09-I">
        </g>
        <g id="product-U1-X12-N">
            <path style="stroke:none; fill:none;"  pointer-events="visible" d="M32.1706,44.3478 L31.8679,42.9808 L29.427,43.5213 L29.7298,44.8883 L32.1706,44.3478"/>
        </g>
        <g id="product-U1-X11-I">
        </g>
        <g id="product-U1-X12-J">
        </g>
        <g id="product-U1-X06-G">
        </g>
        <g id="product-U1-X15-S">
        </g>
        <g id="product-U1-X12-L">
            <path style="stroke:none; fill:none;"  pointer-events="visible" d="M27.8803,45.3245 L29.5401,44.9569 L29.1453,43.1741 L27.2901,43.5849 L27.6513,45.2155 L27.8466,45.1722 L27.8803,45.3245"/>
        </g>
        <g id="product-U1-X08-Lb">
        </g>
        <g id="product-U1-X16-T">
        </g>
        <g id="product-U1-X09-O">
            <path style="stroke:none; fill:none;"  pointer-events="visible" d="M43.4927,58.336 L42.8981,55.651 L41.2646,56.5422 L41.7465,58.718 L41.7227,58.7309 L43.4927,58.336"/>
            <path style="stroke:none; fill:none;"  pointer-events="visible" d="M42.7631,55.0412 L42.0645,51.8868 L30.0933,54.538 L31.4235,60.5443 L32.786,59.8009 L33.9921,60.4559 L37.5028,59.6725 L37.4854,59.6407 L39.0655,58.7786 L39.241,58.6829 L39.4761,58.9051 L40.9905,58.0789 L40.5814,56.2315 L42.7631,55.0412"/>
        </g>
        <g id="product-U1-X08-Ka">
        </g>
        <g id="product-U1-X08-La">
        </g>
        <g id="product-U1-Y07-O">
        </g>
        <g id="product-U1-X08-Kb">
        </g>
        <g id="product-U1-X08-Kc">
        </g>
        <g id="product-U1-X08-N">
        </g>
        <g id="product-U1-X11-O">
            <path style="stroke:none; fill:none;"  pointer-events="visible" d="M42.0645,51.8868 L41.4699,49.2019 L39.8364,50.093 L40.3182,52.2688 L40.2945,52.2817 L42.0645,51.8868"/>
            <path style="stroke:none; fill:none;"  pointer-events="visible" d="M41.3348,48.592 L40.2941,43.8928 L40.1463,43.9256 L39.8273,42.4851 L35.9627,43.341 L36.0542,43.754 L28.0954,45.5166 L29.9952,54.0951 L31.3578,53.3517 L32.5638,54.0067 L36.0745,53.2233 L36.0572,53.1915 L37.6373,52.3294 L37.8128,52.2337 L38.0479,52.4559 L39.5623,51.6297 L39.1532,49.7823 L41.3348,48.592"/>
        </g>
        <g id="product-U1-X12-R">
        </g>
        <g id="product-U1-X12-Q">
        </g>
        <g id="product-U1-Y10-I">
        </g>
        <g id="product-U1-Y08-L">
        </g>
        <g id="product-U1-X12-T">
        </g>
        <g id="product-U1-Y07-I">
        </g>
        <g id="product-U1-Y11-O">
        </g>
        <g id="product-U1-X09-I">
        </g>
        <g id="product-U1-X12-M">
            <path style="stroke:none; fill:none;"  pointer-events="visible" d="M29.0378,41.7639 L29.2405,42.6788 L29.3406,43.1308 L29.4184,43.4823 L31.8592,42.9417 L31.4787,41.2234 L29.0378,41.7639"/>
        </g>
        <g id="product-U1-Y06-M">
        </g>
        <g id="product-U1-Y08-I">
        </g>
        <g id="product-U1-Y07-P">
        </g>
        <g id="product-U1-Y08-N">
        </g>
        <g id="product-U1-X11-N">
        </g>
        <g id="product-U1-X05-A">
        </g>
    </g>
    <g id="storey-04">
        <g id="product-04-X11-H">
        </g>
        <g id="product-04-Y03-D">
        </g>
        <g id="product-04-Y09-H">
        </g>
        <g id="product-04-Y09-G">
        </g>
        <g id="product-04-Y06-G">
        </g>
        <g id="product-04-Y06-H">
        </g>
        <g id="product-04-X06-C">
        </g>
        <g id="product-04-X06-D">
        </g>
        <g id="product-04-Y08-C">
        </g>
        <g id="product-04-Y08-D">
        </g>
        <g id="product-04-Y11-G">
        </g>
        <g id="product-04-X13-J">
        </g>
        <g id="product-04-X09-C">
        </g>
        <g id="product-04-X09-D">
        </g>
        <g id="product-04-X03-D">
        </g>
        <g id="product-04-X13-I">
        </g>
        <g id="product-04-Y12-G">
        </g>
        <g id="product-04-X11-D">
        </g>
        <g id="product-04-X11-C">
        </g>
        <g id="product-04-X08-G">
        </g>
        <g id="product-04-X03-C">
        </g>
        <g id="product-04-Y03-C">
        </g>
        <g id="product-04-Y06-C">
        </g>
        <g id="product-04-Y06-D">
        </g>
        <g id="product-04-X13-G">
        </g>
        <g id="product-04-X13-H">
        </g>
        <g id="product-04-X07-H">
        </g>
        <g id="product-04-X07-J">
        </g>
        <g id="product-04-X07-G">
        </g>
        <g id="product-04-X11-G">
        </g>
        <g id="product-04-Y10-I">
        </g>
        <g id="product-04-X11-I">
        </g>
        <g id="product-04-Y10-G">
        </g>
        <g id="product-04-Y10-L">
        </g>
        <g id="product-04-Y09-I">
        </g>
        <g id="product-04-Y06-I">
        </g>
        <g id="product-04-Y10-K">
        </g>
        <g id="product-04-X13-T">
        </g>
        <g id="product-04-Y-10-H">
        </g>
        <g id="product-04-Y10-A">
        </g>
        <g id="product-04-X02-A">
        </g>
        <g id="product-04-X13-A">
        </g>
        <g id="product-04-Y05-G">
        </g>
        <g id="product-04-X12-G">
        </g>
        <g id="product-04-Y12-A">
        </g>
        <g id="product-04-X10-I">
        </g>
        <g id="product-04-X10-H">
        </g>
        <g id="product-04-X10-G">
        </g>
        <g id="product-04-10-K">
        </g>
        <g id="product-04-Y11-H">
        </g>
        <g id="product-04-X10-L">
        </g>
        <g id="product-04-Y13-G">
        </g>
        <g id="product-04-Y07-G">
        </g>
        <g id="product-04-Y13-A">
        </g>
        <g id="product-04-X09-H">
        </g>
        <g id="product-04-Y10-D">
        </g>
        <g id="product-04-Y10-C">
        </g>
        <g id="product-04-X09-G">
        </g>
        <g id="product-XX-XX">
        </g>
        <g id="product-04-X10-A">
        </g>
        <g id="product-04-X13-D">
        </g>
        <g id="product-04-Y13-C">
        </g>
        <g id="product-04-Y02-A">
        </g>
        <g id="product-04-Y00-A">
        </g>
        <g id="product-04-Y05-H">
        </g>
        <g id="product-04-Y05-I">
        </g>
        <g id="product-04-Y05-J">
        </g>
        <g id="product-04-X03-A">
        </g>
        <g id="product-04-Y13-D">
        </g>
        <g id="product-04-Y04-H">
        </g>
        <g id="product-04-X13-C">
        </g>
    </g>
    <g id="storey-06">
        <g id="product-06-Y10-G">
        </g>
        <g id="product-06-Y10-L">
        </g>
        <g id="product-06-X06-A">
        </g>
        <g id="product-06-Y10-K">
        </g>
        <g id="product-06-Y07-M">
        </g>
        <g id="product-06-X07-G">
        </g>
        <g id="product-06-X11-H">
        </g>
        <g id="product-06-X11-G">
        </g>
        <g id="product-06-Y03-C">
        </g>
        <g id="product-06-Y03-D">
        </g>
        <g id="product-06-Y08-C">
        </g>
        <g id="product-06-Y06-H">
        </g>
        <g id="product-06-Y06-G">
        </g>
        <g id="product-06-Y09-G">
        </g>
        <g id="product-06-Y09-H">
        </g>
        <g id="product-06-X09-G">
        </g>
        <g id="product-06-X06-G">
        </g>
        <g id="product-06-Y09-A">
        </g>
        <g id="product-06-X08-D">
        </g>
        <g id="product-06-X10-I">
        </g>
        <g id="product-06-X10-H">
        </g>
        <g id="product-06-X10-G">
        </g>
        <g id="product-06-X03-A">
        </g>
        <g id="product-06-X07-H">
        </g>
        <g id="product-06-X07-J">
        </g>
        <g id="product-06-Y10-I">
        </g>
        <g id="product-06-X11-I">
        </g>
        <g id="product-06-Y06-I">
        </g>
        <g id="product-06-Y00-A">
        </g>
        <g id="product-06-Y02-A">
        </g>
        <g id="product-06-Y09-I">
        </g>
        <g id="product-06-X06-H">
        </g>
        <g id="product-06-X07-G">
        </g>
        <g id="product-06-X03-C">
        </g>
        <g id="product-06-X08-G">
        </g>
        <g id="product-06-X03-D">
        </g>
        <g id="product-06-Y05-D">
        </g>
        <g id="product-06-Y05-D">
        </g>
        <g id="product-06-X08-C">
        </g>
        <g id="product-06-Y08-D">
        </g>
        <g id="product-06-Y05-H">
        </g>
        <g id="product-06-Y05-J">
        </g>
        <g id="product-06-Y05-G">
        </g>
        <g id="product-06-Y05-J">
        </g>
        <g id="product-06-X05-C">
        </g>
        <g id="product-06-X05-D">
        </g>
        <g id="product-06-Y04-G">
        </g>
        <g id="product-06-X10-K">
        </g>
        <g id="product-06-X10-L">
        </g>
        <g id="product-06-X02-A">
        </g>
        <g id="product-06-Y10-H">
        </g>
        <g id="product-06-Y08-H">
        </g>
    </g>
    <g id="storey-07L">
        <g id="product-07-Y06-I">
        </g>
        <g id="product-07-Y06-G">
        </g>
        <g id="product-07-Y06-H">
        </g>
        <g id="product-07-X07-G">
        </g>
        <g id="product-07-X07-J">
        </g>
        <g id="product-07-X07-H">
        </g>
        <g id="product-07-X09-C">
        </g>
        <g id="product-07-X06-A">
        </g>
        <g id="product-07-X05-I">
        </g>
        <g id="product-07-Y04-A">
        </g>
        <g id="product-07-Y00-A">
        </g>
        <g id="product-07-X06-Ha">
        </g>
        <g id="product-07-X06-Hc">
        </g>
        <g id="product-07-Y05-J">
        </g>
        <g id="product-07-Y05-K">
        </g>
        <g id="product-07-Y07-C">
        </g>
        <g id="product-07-X08-C">
        </g>
        <g id="product-07-X05-A">
        </g>
        <g id="product-07-Y05-H">
        </g>
        <g id="product-07-Y07-H">
        </g>
        <g id="product-07-Y07-I">
        </g>
        <g id="product-07-Y07-G">
        </g>
        <g id="product-07-X06-G">
        </g>
        <g id="product-07-X04-E">
        </g>
        <g id="product-07-X04-A">
        </g>
        <g id="product-07-Y08-J">
        </g>
        <g id="product-07-Y05-A">
        </g>
        <g id="product-07-Y08-C">
        </g>
        <g id="product-07-X07-K">
        </g>
        <g id="product-07-X07-A">
        </g>
        <g id="product-XX-XX">
        </g>
    </g>
    <g id="storey-03">
        <g id="product-03-Y03-C">
        </g>
        <g id="product-03-Y12-G">
        </g>
        <g id="product-03-X14-H">
        </g>
        <g id="product-03-X09-D">
        </g>
        <g id="product-03-Y05-I">
        </g>
        <g id="product-03-Y06-G">
        </g>
        <g id="product-03-Y09-H">
        </g>
        <g id="product-03-X09-C">
        </g>
        <g id="product-03-Y06-H">
        </g>
        <g id="product-03-Y06-I">
        </g>
        <g id="product-03-X12-D">
        </g>
        <g id="product-03-X11-H">
        </g>
        <g id="product-03-Y04-H">
        </g>
        <g id="product-03-Y12-C">
        </g>
        <g id="product-03-Y09-G">
        </g>
        <g id="product-03-Y7-M">
        </g>
        <g id="product-03-Y10-K">
        </g>
        <g id="product-03-Y10-L">
        </g>
        <g id="product-03-Y05-H">
        </g>
        <g id="product-03-X12-C">
        </g>
        <g id="product-03-Y12-L">
        </g>
        <g id="product-03-Y10-G">
        </g>
        <g id="product-03-Y12-H">
        </g>
        <g id="product-03-X11-G">
        </g>
        <g id="product-03-Y07-D">
        </g>
        <g id="product-03-X13-T">
        </g>
        <g id="product-03-X10-I">
        </g>
        <g id="product-03-Y09-I">
        </g>
        <g id="product-03-X07-G">
        </g>
        <g id="product-03-X07-J">
        </g>
        <g id="product-03-X07-H">
        </g>
        <g id="product-03-X15-J">
        </g>
        <g id="product-03-X6-C">
        </g>
        <g id="product-03-Y07-C">
        </g>
        <g id="product-03-X14-G">
        </g>
        <g id="product-03-X6-D">
        </g>
        <g id="product-03-Y12-D">
        </g>
        <g id="product-03-Y07-G">
        </g>
        <g id="product-03-X04-D">
        </g>
        <g id="product-03-X13-G">
        </g>
        <g id="product-03-X15-H">
        </g>
        <g id="product-03-X04-C">
        </g>
        <g id="product-03-Y12-I">
        </g>
        <g id="product-03-Y08-H">
        </g>
        <g id="product-03-X14-G">
        </g>
        <g id="product-03-X14-I">
        </g>
        <g id="product-03-Y-10-H">
        </g>
        <g id="product-03-X11-I">
        </g>
        <g id="product-03-X10-L">
        </g>
        <g id="product-03-Y05-A">
        </g>
        <g id="product-03-Y05-C">
        </g>
        <g id="product-03-Y00-A">
        </g>
        <g id="product-03-Y10-I">
        </g>
        <g id="product-03-Y03-D">
        </g>
        <g id="product-03-X10-H">
        </g>
        <g id="product-03-10-K">
        </g>
        <g id="product-03-Y05-J">
        </g>
        <g id="product-03-X10-G">
        </g>
        <g id="product-03-Y11-G">
        </g>
        <g id="product-03-X06-A">
        </g>
        <g id="product-03-X08-G">
        </g>
    </g>
    <g id="storey-05">
        <g id="product-05-Y09-H">
        </g>
        <g id="product-05-X11-C">
        </g>
        <g id="product-05-X11-H">
        </g>
        <g id="product-05-Y04-G">
        </g>
        <g id="product-05-Y10-I">
        </g>
        <g id="product-05-X10-I">
        </g>
        <g id="product-05-X03-C">
        </g>
        <g id="product-05-Y10-G">
        </g>
        <g id="product-05-Y10-H">
        </g>
        <g id="product-05-Y10-K">
        </g>
        <g id="product-05-Y05-H">
        </g>
        <g id="product-05-Y05-I">
        </g>
        <g id="product-05-Y10-L">
        </g>
        <g id="product-05-Y05-J">
        </g>
        <g id="product-05-X09-D">
        </g>
        <g id="product-05-X10-K">
        </g>
        <g id="product-05-X10-L">
        </g>
        <g id="product-05-X05-C">
        </g>
        <g id="product-05-X10-G">
        </g>
        <g id="product-05-X10-H">
        </g>
        <g id="product-05-X06-G">
        </g>
        <g id="product-05-X06-H">
        </g>
        <g id="product-05-X05-D">
        </g>
        <g id="product-05-Y07-C">
        </g>
        <g id="product-05-Y09-C">
        </g>
        <g id="product-05-Y09-D">
        </g>
        <g id="product-05-Y03-D">
        </g>
        <g id="product-05-Y03-C">
        </g>
        <g id="product-05-X07-H">
        </g>
        <g id="product-05-Y07-D">
        </g>
        <g id="product-05-X07-J">
        </g>
        <g id="product-05-Y08-H">
        </g>
        <g id="product-05-Y07-M">
        </g>
        <g id="product-05-X03-D">
        </g>
        <g id="product-05-Y06-H">
        </g>
        <g id="product-05-Y06-G">
        </g>
        <g id="product-05-Y09-G">
        </g>
        <g id="product-05-X11-D">
        </g>
        <g id="product-05-X07-G">
        </g>
        <g id="product-05-X11-G">
        </g>
        <g id="product-05-X09-C">
        </g>
        <g id="product-05-X11-I">
        </g>
        <g id="product-05-Y06-I">
        </g>
        <g id="product-05-X13-T">
        </g>
        <g id="product-05-X02-A">
        </g>
        <g id="product-05-Y07-G">
        </g>
        <g id="product-05-X08-G">
        </g>
        <g id="product-05-Y02-A">
        </g>
        <g id="product-05-Y05-G">
        </g>
        <g id="product-05-Y05-A">
        </g>
        <g id="product-05-X04-A">
        </g>
        <g id="product-05-Y00-A">
        </g>
        <g id="product-05-Y09-I">
        </g>
    </g>
</svg>
