<svg xmlns="http://www.w3.org/2000/svg" xmlns:xlink="http://www.w3.org/1999/xlink">
    <g id="storey-U2">
        <g id="product-U2-Y06-M">
        </g>
        <g id="product-U2-Y09-I">
        </g>
        <g id="product-U2-X10-M">
        </g>
        <g id="product-U2-Y07-M">
        </g>
        <g id="product-U2-X08-M">
        </g>
        <g id="product-U2-X12-S">
        </g>
        <g id="product-U2-X08-G">
        </g>
        <g id="product-U2-Y08-O">
        </g>
        <g id="product-U2-Y06-I">
        </g>
        <g id="product-U2-X07-G">
        </g>
        <g id="product-U2-X13-R">
        </g>
        <g id="product-U2-X07-H">
        </g>
        <g id="product-U2-Y08-L">
        </g>
        <g id="product-U2-Y08-I">
        </g>
        <g id="product-U2-Y07-J">
        </g>
        <g id="product-U2-X07-K">
        </g>
        <g id="product-U2-X05-A">
        </g>
        <g id="product-U2-X11-A">
        </g>
        <g id="product-U2-Y03-A">
        </g>
        <g id="product-U2-X12-J">
        </g>
        <g id="product-U2-X12-R">
        </g>
        <g id="product-U2-X12-Q">
        </g>
        <g id="product-U2-X12-O">
        </g>
        <g id="product-U2-X06-G">
        </g>
        <g id="product-U2-Y07-I">
        </g>
        <g id="product-U2-X11-I">
        </g>
        <g id="product-U2-X12-T">
        </g>
        <g id="product-U2-X12-R">
        </g>
        <g id="product-U2-X13-Q">
        </g>
    </g>
    <g id="storey-05">
        <g id="product-05-Y09-H">
        </g>
        <g id="product-05-X11-C">
        </g>
        <g id="product-05-X11-H">
        </g>
        <g id="product-05-Y04-G">
        </g>
        <g id="product-05-Y10-I">
        </g>
        <g id="product-05-X10-I">
        </g>
        <g id="product-05-X03-C">
        </g>
        <g id="product-05-Y10-G">
        </g>
        <g id="product-05-Y10-H">
        </g>
        <g id="product-05-Y10-K">
        </g>
        <g id="product-05-Y05-H">
        </g>
        <g id="product-05-Y05-I">
        </g>
        <g id="product-05-Y10-L">
        </g>
        <g id="product-05-Y05-J">
        </g>
        <g id="product-05-X09-D">
        </g>
        <g id="product-05-X10-K">
        </g>
        <g id="product-05-X10-L">
        </g>
        <g id="product-05-X05-C">
        </g>
        <g id="product-05-X10-G">
        </g>
        <g id="product-05-X10-H">
        </g>
        <g id="product-05-X06-G">
        </g>
        <g id="product-05-X06-H">
        </g>
        <g id="product-05-X05-D">
        </g>
        <g id="product-05-Y07-C">
        </g>
        <g id="product-05-Y09-C">
        </g>
        <g id="product-05-Y09-D">
        </g>
        <g id="product-05-Y03-D">
        </g>
        <g id="product-05-Y03-C">
        </g>
        <g id="product-05-X07-H">
        </g>
        <g id="product-05-Y07-D">
        </g>
        <g id="product-05-X07-J">
        </g>
        <g id="product-05-Y08-H">
        </g>
        <g id="product-05-Y07-M">
        </g>
        <g id="product-05-X03-D">
        </g>
        <g id="product-05-Y06-H">
        </g>
        <g id="product-05-Y06-G">
        </g>
        <g id="product-05-Y09-G">
        </g>
        <g id="product-05-X11-D">
        </g>
        <g id="product-05-X07-G">
        </g>
        <g id="product-05-X11-G">
        </g>
        <g id="product-05-X09-C">
        </g>
        <g id="product-05-X11-I">
        </g>
        <g id="product-05-Y06-I">
        </g>
        <g id="product-05-X13-T">
        </g>
        <g id="product-05-X02-A">
        </g>
        <g id="product-05-Y07-G">
        </g>
        <g id="product-05-X08-G">
        </g>
        <g id="product-05-Y02-A">
        </g>
        <g id="product-05-Y05-G">
        </g>
        <g id="product-05-Y05-A">
        </g>
        <g id="product-05-X04-A">
        </g>
        <g id="product-05-Y00-A">
        </g>
        <g id="product-05-Y09-I">
        </g>
    </g>
    <g id="storey-02">
        <g id="product-02-X06-K">
            <path style="stroke:none; fill:none;"  pointer-events="visible" d="M33.4248,71.97 L34.3706,76.2405 L35.5572,76.4075 L37.3234,73.1563 L35.1765,71.9899 L35.1535,71.9774 L35.1125,71.9448 L35.0777,71.9056 L35.0503,71.861 L35.0311,71.8122 L35.0268,71.7912 L34.9269,71.3403 L34.9251,71.3318 L34.9184,71.3156 L34.909,71.3008 L34.8971,71.2879 L34.8833,71.2773 L34.8677,71.2692 L34.8511,71.2639 L34.8337,71.2616 L34.8162,71.2624 L34.8077,71.2643 L34.5229,71.3274 L34.5592,71.4914 L33.7166,71.678 L33.7646,71.8947 L33.4248,71.97"/>
        </g>
        <g id="product-02-X11-G">
            <path style="stroke:none; fill:none;"  pointer-events="visible" d="M23.3134,48.9835 L25.0221,48.6051 L24.5008,46.2512 L22.7921,46.6296 L23.3134,48.9835"/>
        </g>
        <g id="product-02-X07-G">
            <path style="stroke:none; fill:none;"  pointer-events="visible" d="M27.4625,67.7186 L28.0463,70.3547 L31.2585,69.6434 L30.6747,67.0072 L27.4625,67.7186"/>
        </g>
        <g id="product-02-X10-L">
            <path style="stroke:none; fill:none;"  pointer-events="visible" d="M29.3299,54.2656 L29.0012,52.7816 L27.1808,53.1847 L27.5094,54.6688 L29.3299,54.2656"/>
        </g>
        <g id="product-02-X07-J">
            <path style="stroke:none; fill:none;"  pointer-events="visible" d="M29.8248,72.419 L31.7775,71.9866 L31.3018,69.8386 L29.3491,70.2711 L29.8248,72.419"/>
        </g>
        <g id="product-02-X07-H">
            <path style="stroke:none; fill:none;"  pointer-events="visible" d="M29.6295,72.4623 L29.1538,70.3143 L28.0896,70.55 L28.5653,72.698 L29.6295,72.4623"/>
        </g>
        <g id="product-02-X10-H">
            <path style="stroke:none; fill:none;"  pointer-events="visible" d="M24.6111,53.7794 L25.239,56.6147 L26.7745,56.2747 L26.8041,56.4084 L27.7224,56.2051 L27.7172,56.1818 L27.4983,55.1958 L27.4079,54.7886 L27.408,54.7886 L27.0634,53.2363 L24.6111,53.7794"/>
        </g>
        <g id="product-02-X10-J">
            <path style="stroke:none; fill:none;"  pointer-events="visible" d="M27.5149,54.8273 L27.8155,56.1844 L29.8294,55.7384 L29.5299,54.3811 L27.5149,54.8273"/>
        </g>
        <g id="product-02-Y08-C">
            <path style="stroke:none; fill:none;"  pointer-events="visible" d="M49.7791,70.3904 L51.4732,67.2726 L51.4732,67.2725 L51.4762,67.267 L51.4822,67.2559 L47.9455,65.3346 L47.9365,65.3512 L47.9365,65.3512 L47.8853,65.4453 L47.7883,65.624 L47.7707,65.6145 L45.3595,70.0528 L48.9135,71.9835 L49.7791,70.3904"/>
        </g>
        <g id="product-02-X05-D">
            <path style="stroke:none; fill:none;"  pointer-events="visible" d="M28.5772,73.1081 L30.4193,81.4258 L33.0002,80.8542 L34.3508,80.5551 L34.9243,76.4719 L34.245,76.3763 L33.2875,72.0527 L32.2037,72.2927 L32.2063,72.3044 L28.5772,73.1081"/>
        </g>
        <g id="product-02-X10-A">
            <path style="stroke:none; fill:none;"  pointer-events="visible" d="M17.0873,53.475 L16.5991,53.5831 L16.9881,55.3396 L29.2843,52.6165 L28.8909,50.8405 L25.9854,51.484 L25.9678,51.4879 L23.6245,52.0068 L23.6202,51.9873 L17.0787,53.436 L17.0873,53.475"/>
        </g>
        <g id="product-02-X12-K">
            <path style="stroke:none; fill:none;"  pointer-events="visible" d="M7.9439,14.5011 L10.7232,27.051 L11.869,32.2246 L19.9654,30.4316 L21.8961,31.6622 L23.5143,38.9693 L26.8399,41.089 L27.749,45.1938 L27.8466,45.1722 L27.8855,45.348 L35.0312,43.7654 L30.291,22.3614 L15.7668,17.3764 L15.8252,17.2062 L7.9439,14.5011"/>
        </g>
        <g id="product-02-X11-I">
            <path style="stroke:none; fill:none;"  pointer-events="visible" d="M25.8964,51.1657 L28.679,50.5494 L27.5763,45.5701 L24.7937,46.1863 L25.3559,48.7248 L25.356,48.7248 L25.3776,48.8224 L25.3775,48.8224 L25.8964,51.1657"/>
        </g>
        <g id="product-XX-XX">
            <path style="stroke:none; fill:none;"  pointer-events="visible" d="M29.1793,101.392 L30.3878,106.849 L31.3038,106.977 L47.3336,77.4698 L46.3738,76.9857 L32.8715,101.871 L29.1793,101.392"/>
        </g>
        <g id="product-02-Y06-K">
            <path style="stroke:none; fill:none;"  pointer-events="visible" d="M39.9051,79.4021 L41.1165,77.1722 L39.5788,76.3368 L39.0356,77.3365 L38.772,77.1933 L40.5381,73.9423 L38.0338,72.5818 L35.5994,77.0631 L39.9051,79.4021"/>
        </g>
        <g id="product-02-Y09-G">
            <path style="stroke:none; fill:none;"  pointer-events="visible" d="M47.4192,61.9039 L48.9571,62.7393 L50.0726,60.6857 L48.5348,59.8503 L47.4192,61.9039"/>
        </g>
        <g id="product-02-X12-C">
            <path style="stroke:none; fill:none;"  pointer-events="visible" d="M20.1057,41.7924 L16.4443,42.6033 L16.8584,44.4732 L20.5198,43.6623 L20.1057,41.7924"/>
        </g>
        <g id="product-02-X12-D">
            <path style="stroke:none; fill:none;"  pointer-events="visible" d="M20.5544,43.8185 L16.893,44.6294 L17.3071,46.4993 L20.9685,45.6884 L20.5544,43.8185"/>
        </g>
        <g id="product-02-X09-E">
            <path style="stroke:none; fill:none;"  pointer-events="visible" d="M23.249,57.5891 L23.7891,60.028 L25.4759,59.6544 L24.9628,57.3375 L24.789,57.376 L24.762,57.254 L23.249,57.5891"/>
        </g>
        <g id="product-02-X08-K">
            <path style="stroke:none; fill:none;"  pointer-events="visible" d="M30.9198,60.0251 L28.9798,60.4547 L29.8655,64.4538 L31.8046,64.0244 L31.2205,61.3842 L30.9503,61.444 L30.8734,61.0965 L31.1436,61.0366 L30.9198,60.0251"/>
        </g>
        <g id="product-02-X09-K">
            <path style="stroke:none; fill:none;"  pointer-events="visible" d="M27.1785,56.4853 L28.0782,60.5479 L28.9056,60.3646 L30.8978,59.9234 L30.0563,56.1235 L29.7736,56.1861 L29.7154,55.9234 L27.1785,56.4853"/>
        </g>
        <g id="product-02-X05-C">
            <path style="stroke:none; fill:none;"  pointer-events="visible" d="M30.4522,81.5742 L30.8414,83.3316 L34.0104,82.6298 L33.9749,82.4697 L34.0853,82.4452 L34.2941,80.9587 L32.9343,81.2598 L32.8847,81.0355 L30.4522,81.5742"/>
        </g>
        <g id="product-02-X08-E">
            <path style="stroke:none; fill:none;"  pointer-events="visible" d="M23.7925,60.1695 L25.5235,67.9196 L26.8158,67.6334 L26.7438,67.3083 L27.151,67.2181 L25.5087,59.8028 L23.7925,60.1695"/>
        </g>
        <g id="product-02-X10-B">
            <path style="stroke:none; fill:none;"  pointer-events="visible" d="M17.0478,55.6091 L17.81,59.0507 L23.1549,57.867 L23.0467,57.3788 L23.0594,57.376 L22.4054,54.4226 L17.0478,55.6091"/>
        </g>
        <g id="product-02-X09-E">
            <path style="stroke:none; fill:none;"  pointer-events="visible" d="M29.3639,62.7254 L28.8692,60.4915 L26.44,61.0295 L26.9347,63.2633 L29.3639,62.7254"/>
        </g>
        <g id="product-02-Y08-L">
            <path style="stroke:none; fill:none;"  pointer-events="visible" d="M40.7549,67.5731 L42.7299,68.646 L43.8279,66.6248 L41.8529,65.5519 L40.7549,67.5731"/>
        </g>
        <g id="product-02-Y10-G">
            <path style="stroke:none; fill:none;"  pointer-events="visible" d="M40.1442,42.6372 L42.0009,51.1141 L44.784,54.1817 L45.617,57.8895 L48.8455,59.6433 L49.8674,57.1623 L54.4947,48.7051 L54.9727,47.1105 L53.8349,44.3956 L53.1955,44.0486 L45.7706,45.6929 L40.1442,42.6372"/>
        </g>
        <g id="product-02-X13-S">
        </g>
        <g id="product-02-X11-A">
            <path style="stroke:none; fill:none;"  pointer-events="visible" d="M17.1185,50.6001 L16.0406,50.8388 L16.5595,53.1822 L17.0008,53.0845 L17.0458,53.2876 L19.2916,52.7902 L18.835,50.7287 L17.2259,51.0851 L17.1185,50.6001"/>
        </g>
        <g id="product-02-X11-E">
            <path style="stroke:none; fill:none;"  pointer-events="visible" d="M20.3924,48.1054 L20.8571,50.2035 L23.0412,49.7198 L22.5765,47.6217 L21.608,47.8362 L20.3924,48.1054"/>
        </g>
        <g id="product-02-Y09-I">
            <path style="stroke:none; fill:none;"  pointer-events="visible" d="M43.3325,62.828 L45.8369,64.1884 L48.2713,59.7072 L45.767,58.3465 L43.3325,62.828"/>
        </g>
        <g id="product-02-Y08-G">
            <path style="stroke:none; fill:none;"  pointer-events="visible" d="M45.3056,69.7834 L46.3883,67.7904 L44.2326,66.6194 L43.0492,68.7978 L45.2049,69.9688 L45.1911,69.9943 L45.199,69.9986 L45.3135,69.7877 L45.3056,69.7834"/>
        </g>
        <g id="product-02-Y04-G">
            <path style="stroke:none; fill:none;"  pointer-events="visible" d="M34.0432,82.7782 L30.8742,83.48 L31.9664,88.4115 L33.6653,88.0353 L33.7542,88.4356 L36.1255,89.7238 L36.5212,88.9973 L36.4799,88.9748 L36.9525,88.1049 L36.9938,88.1273 L38.6307,85.1124 L34.4357,82.8334 L34.3575,82.9775 L34.2254,82.9058 L34.0787,82.9383 L34.0432,82.7782"/>
        </g>
        <g id="product-02-Y03-G">
            <path style="stroke:none; fill:none;"  pointer-events="visible" d="M33.71,88.5846 L26.2386,90.2392 L27.8383,94.9332 L32.2136,93.9638 L32.2046,93.9232 L32.6874,93.8148 L33.1596,94.0713 L33.1262,94.1328 L33.5933,94.3865 L35.1894,91.4489 L35.1481,91.4264 L35.6207,90.5565 L35.6619,90.5789 L36.0535,89.8577 L33.71,88.5846"/>
        </g>
        <g id="product-02-X06-E">
            <path style="stroke:none; fill:none;"  pointer-events="visible" d="M26.0738,70.4044 L27.4673,76.6966 L28.7596,76.4104 L27.3661,70.1182 L26.0738,70.4044"/>
        </g>
        <g id="product-02-X07-I">
            <path style="stroke:none; fill:none;"  pointer-events="visible" d="M30.7994,67.5839 L31.1194,69.0289 L31.464,68.9526 L31.6846,69.9485 L31.3428,70.0241 L31.6629,71.4691 L32.0046,71.3934 L32.1737,72.1569 L33.2574,71.9169 L33.1943,71.6318 L33.6824,71.5237 L33.7058,71.6291 L34.5484,71.4425 L34.3475,70.5356 L33.4039,66.2748 L32.5613,66.4614 L32.597,66.6225 L32.1088,66.7306 L32.0316,66.382 L30.9479,66.6221 L31.144,67.5076 L30.7994,67.5839"/>
        </g>
        <g id="product-02-X09-Ga">
            <path style="stroke:none; fill:none;"  pointer-events="visible" d="M25.7059,57.7701 L27.2793,57.4216 L27.0713,56.4824 L25.4979,56.8309 L25.7059,57.7701"/>
        </g>
        <g id="product-02-X07-E">
            <path style="stroke:none; fill:none;"  pointer-events="visible" d="M25.6276,68.0523 L25.5818,68.0624 L26.0663,70.2504 L26.1253,70.2373 L27.3332,69.9698 L26.8487,67.7818 L25.6276,68.0523"/>
        </g>
        <g id="product-02-Y07-M">
            <path style="stroke:none; fill:none;"  pointer-events="visible" d="M27.8855,45.3479 L29.0921,50.7959 L29.0115,50.8137 L29.0489,50.9826 L29.3391,52.293 L31.8706,52.4032 L32.7407,56.3215 L30.6181,58.0684 L31.3488,61.3681 L31.3909,61.5529 L31.3931,61.5627 L31.6069,62.5293 L31.6091,62.5391 L32.4343,66.2675 L32.5148,66.2515 L32.5505,66.4126 L33.4419,66.2152 L34.5717,71.3166 L34.8077,71.2643 L34.8162,71.2624 L34.8337,71.2616 L34.8511,71.2639 L34.8677,71.2692 L34.8833,71.2773 L34.8971,71.2879 L34.909,71.3008 L34.9184,71.3156 L34.9251,71.3318 L34.9269,71.3403 L35.0268,71.7912 L35.0309,71.8118 L35.0502,71.8607 L35.0776,71.9054 L35.1124,71.9448 L35.1534,71.9775 L35.1765,71.99 L35.7813,72.3412 L37.3194,73.1769 L41.7123,65.0772 L41.8001,65.1249 L42.9552,62.9985 L42.8675,62.9509 L43.0739,62.5706 L45.5216,58.0648 L45.5905,57.9382 L45.617,57.8895 L44.784,54.1817 L44.1625,53.5259 L42.0009,51.1141 L40.3224,43.4419 L40.0613,42.2631 L35.1233,43.3567 L35.2053,43.7269 L27.8855,45.3479"/>
        </g>
        <g id="product-02-X03-C">
            <path style="stroke:none; fill:none;"  pointer-events="visible" d="M32.7542,101.731 L32.7708,101.74 L35.8711,96.0325 L34.6635,95.3765 L34.6324,95.4336 L33.7625,94.961 L33.7935,94.9039 L32.9548,94.4482 L32.931,94.492 L32.6196,94.3229 L32.3084,94.3918 L32.2993,94.3508 L28.289,95.2389 L29.5526,100.948 L29.8836,100.992 L30.2072,101.039 L30.2947,101.434 L32.7292,101.777 L32.7542,101.731"/>
        </g>
        <g id="product-02-Y05-G">
            <path style="stroke:none; fill:none;"  pointer-events="visible" d="M40.0551,79.8592 L35.1509,77.195 L34.4106,82.4602 L34.5866,82.5558 L34.5083,82.6999 L38.7032,84.9788 L39.0989,84.2522 L39.0576,84.2298 L39.5302,83.3599 L39.5715,83.3823 L41.1586,80.459 L40.055,79.8594 L40.0551,79.8592"/>
        </g>
        <g id="product-02-X08-H">
            <path style="stroke:none; fill:none;"  pointer-events="visible" d="M26.9882,65.1975 L27.446,67.2645 L30.9198,66.4951 L30.9172,66.4834 L32.2699,66.1838 L31.8148,64.1286 L29.9016,64.5523 L26.9882,65.1975"/>
        </g>
        <g id="product-02-X08-I">
            <path style="stroke:none; fill:none;"  pointer-events="visible" d="M28.4854,64.7594 L29.7639,64.4763 L29.4502,63.0596 L28.1717,63.3428 L28.4854,64.7594"/>
        </g>
        <g id="product-02-X13-A">
            <path style="stroke:none; fill:none;"  pointer-events="visible" d="M12.4147,32.3762 L11.9842,32.4716 L13.0696,37.3728 L13.5002,37.2775 L13.5823,37.6485 L13.1518,37.7439 L14.2372,42.6451 L14.6678,42.5497 L14.7499,42.9208 L14.3194,43.0161 L15.2349,47.1502 L15.9584,46.9899 L16.7419,50.5278 L18.0579,50.2363 L18.8431,50.0624 L19.44,52.7574 L21.2441,52.3578 L20.7874,50.2958 L20.8001,50.293 L20.3008,48.0386 L17.6988,48.6148 L16.3173,42.377 L20.1252,41.5337 L19.5306,38.8487 L23.1542,38.0462 L21.7611,31.7559 L19.9491,30.6009 L19.4219,30.7177 L19.4444,30.8194 L18.9562,30.9275 L18.9315,30.816 L12.39,32.2647 L12.4147,32.3762"/>
        </g>
        <g id="product-02-X09-Gb">
            <path style="stroke:none; fill:none;"  pointer-events="visible" d="M25.9383,58.8197 L27.5118,58.4712 L27.3018,57.5232 L25.7284,57.8716 L25.9383,58.8197"/>
        </g>
        <g id="product-02-X09-Gc">
            <path style="stroke:none; fill:none;"  pointer-events="visible" d="M26.1708,59.8692 L27.7442,59.5208 L27.5343,58.5727 L25.9608,58.9212 L26.1708,59.8692"/>
        </g>
        <g id="product-02-X12-H">
            <path style="stroke:none; fill:none;"  pointer-events="visible" d="M26.6089,41.0912 L23.5528,39.1433 L25.0264,45.7968 L27.5283,45.2427 L26.6089,41.0912"/>
        </g>
        <g id="product-02-X09-Ha">
            <path style="stroke:none; fill:none;"  pointer-events="visible" d="M26.4032,60.9188 L27.9766,60.5703 L27.7667,59.6223 L26.1933,59.9708 L26.4032,60.9188"/>
        </g>
        <g id="product-02-Y09-M">
            <path style="stroke:none; fill:none;"  pointer-events="visible" d="M29.3448,52.2932 L30.6181,58.0684 L32.7407,56.3215 L31.8706,52.4032 L29.3448,52.2932"/>
        </g>
        <g id="product-02-Y06-G">
            <path style="stroke:none; fill:none;"  pointer-events="visible" d="M42.3396,74.9207 L40.8018,74.0853 L39.6513,76.2032 L41.1887,77.0393 L42.3396,74.9207"/>
        </g>
        <g id="product-02-X12-F">
            <path style="stroke:none; fill:none;"  pointer-events="visible" d="M19.7238,38.9719 L21.406,46.5678 L24.8617,45.8025 L23.9939,41.8841 L24.0037,41.8819 L23.7853,40.8958 L23.7755,40.898 L23.1795,38.2066 L22.2982,38.4017 L22.296,38.392 L21.3333,38.6052 L21.3354,38.615 L19.7238,38.9719"/>
        </g>
        <g id="product-02-Y08-K">
            <path style="stroke:none; fill:none;"  pointer-events="visible" d="M42.9798,63.0119 L42.9635,63.0419 L42.9556,63.0376 L42.3372,64.1762 L42.3943,64.2072 L41.9218,65.0772 L41.8646,65.0461 L41.8331,65.1041 L41.841,65.1084 L41.8248,65.1383 L46.4609,67.6569 L47.6159,65.5306 L42.9798,63.0119"/>
        </g>
        <g id="product-02-X08-G">
            <path style="stroke:none; fill:none;"  pointer-events="visible" d="M26.9569,65.0979 L28.3839,64.7819 L28.0701,63.3653 L26.6432,63.6813 L26.9569,65.0979"/>
        </g>
        <g id="product-02-X12-E">
            <path style="stroke:none; fill:none;"  pointer-events="visible" d="M21.0031,45.8446 L17.3417,46.6555 L17.7558,48.5254 L21.4172,47.7145 L21.0031,45.8446"/>
        </g>
        <g id="product-02-X11-F">
            <path style="stroke:none; fill:none;"  pointer-events="visible" d="M20.9687,50.4113 L21.3925,52.3249 L23.5873,51.8389 L23.5531,51.6846 L25.6035,51.2305 L25.055,48.7535 L23.3463,49.1319 L23.6786,50.6326 L23.3369,50.7083 L23.1635,49.9252 L20.9687,50.4113"/>
        </g>
        <g id="product-02-X10-F">
            <path style="stroke:none; fill:none;"  pointer-events="visible" d="M22.5286,54.3963 L23.2034,57.4435 L24.7291,57.1056 L24.6705,56.841 L24.9907,56.7701 L24.3745,53.9875 L22.5286,54.3963"/>
        </g>
        <g id="product-02-Y09-H">
            <path style="stroke:none; fill:none;"  pointer-events="visible" d="M48.8847,62.8729 L47.3467,62.0374 L46.1003,64.3317 L47.6383,65.1672 L48.8847,62.8729"/>
        </g>
        <g id="product-02-X04-A">
            <path style="stroke:none; fill:none;"  pointer-events="visible" d="M23.1675,57.8642 L17.81,59.0507 L20.1178,69.4716 L22.3723,79.6776 L22.0584,79.8095 L25.728,89.7074 L31.4236,88.4397 L28.7925,76.5588 L27.3771,76.8723 L25.8963,70.1856 L25.4333,68.0953 L23.1675,57.8642"/>
        </g>
        <g id="product-02-Y02-C">
            <path style="stroke:none; fill:none;"  pointer-events="visible" d="M40.2877,67.6949 L37.8839,72.1246 L42.8047,74.7978 L40.0742,79.824 L41.2032,80.4373 L33.6047,94.4246 L33.1126,94.1573 L32.9737,94.413 L35.9041,96.0049 L48.9089,72.0313 L43.0398,68.8151 L42.8826,69.1045 L40.2877,67.6949"/>
        </g>
    </g>
    <g id="storey-U1">
        <g id="product-U1-X08-M">
        </g>
        <g id="product-U1-X07-H">
        </g>
        <g id="product-U1-X13-R">
        </g>
        <g id="product-U1-X12-O">
        </g>
        <g id="product-U1-X07-G">
        </g>
        <g id="product-U1-X08-G">
        </g>
        <g id="product-U1-X08-I">
        </g>
        <g id="product-U1-Y07-J">
        </g>
        <g id="product-U1-Y03-A">
        </g>
        <g id="product-U1-X07-K">
        </g>
        <g id="product-U1-Y06-I">
        </g>
        <g id="product-U1-Y09-I">
        </g>
        <g id="product-U1-X12-N">
        </g>
        <g id="product-U1-X11-I">
        </g>
        <g id="product-U1-X12-J">
        </g>
        <g id="product-U1-X06-G">
        </g>
        <g id="product-U1-X15-S">
        </g>
        <g id="product-U1-X12-L">
        </g>
        <g id="product-U1-X08-Lb">
        </g>
        <g id="product-U1-X16-T">
        </g>
        <g id="product-U1-X09-O">
        </g>
        <g id="product-U1-X08-Ka">
        </g>
        <g id="product-U1-X08-La">
        </g>
        <g id="product-U1-Y07-O">
        </g>
        <g id="product-U1-X08-Kb">
        </g>
        <g id="product-U1-X08-Kc">
        </g>
        <g id="product-U1-X08-N">
        </g>
        <g id="product-U1-X11-O">
        </g>
        <g id="product-U1-X12-R">
        </g>
        <g id="product-U1-X12-Q">
        </g>
        <g id="product-U1-Y10-I">
        </g>
        <g id="product-U1-Y08-L">
        </g>
        <g id="product-U1-X12-T">
        </g>
        <g id="product-U1-Y07-I">
        </g>
        <g id="product-U1-Y11-O">
        </g>
        <g id="product-U1-X09-I">
        </g>
        <g id="product-U1-X12-M">
        </g>
        <g id="product-U1-Y06-M">
        </g>
        <g id="product-U1-Y08-I">
        </g>
        <g id="product-U1-Y07-P">
        </g>
        <g id="product-U1-Y08-N">
        </g>
        <g id="product-U1-X11-N">
        </g>
        <g id="product-U1-X05-A">
        </g>
    </g>
    <g id="storey-03">
        <g id="product-03-Y03-C">
        </g>
        <g id="product-03-Y12-G">
        </g>
        <g id="product-03-X14-H">
        </g>
        <g id="product-03-X09-D">
        </g>
        <g id="product-03-Y05-I">
        </g>
        <g id="product-03-Y06-G">
        </g>
        <g id="product-03-Y09-H">
        </g>
        <g id="product-03-X09-C">
        </g>
        <g id="product-03-Y06-H">
        </g>
        <g id="product-03-Y06-I">
        </g>
        <g id="product-03-X12-D">
        </g>
        <g id="product-03-X11-H">
        </g>
        <g id="product-03-Y04-H">
        </g>
        <g id="product-03-Y12-C">
        </g>
        <g id="product-03-Y09-G">
        </g>
        <g id="product-03-Y7-M">
        </g>
        <g id="product-03-Y10-K">
        </g>
        <g id="product-03-Y10-L">
        </g>
        <g id="product-03-Y05-H">
        </g>
        <g id="product-03-X12-C">
        </g>
        <g id="product-03-Y12-L">
        </g>
        <g id="product-03-Y10-G">
        </g>
        <g id="product-03-Y12-H">
        </g>
        <g id="product-03-X11-G">
        </g>
        <g id="product-03-Y07-D">
        </g>
        <g id="product-03-X13-T">
        </g>
        <g id="product-03-X10-I">
        </g>
        <g id="product-03-Y09-I">
        </g>
        <g id="product-03-X07-G">
        </g>
        <g id="product-03-X07-J">
        </g>
        <g id="product-03-X07-H">
        </g>
        <g id="product-03-X15-J">
        </g>
        <g id="product-03-X6-C">
        </g>
        <g id="product-03-Y07-C">
        </g>
        <g id="product-03-X14-G">
        </g>
        <g id="product-03-X6-D">
        </g>
        <g id="product-03-Y12-D">
        </g>
        <g id="product-03-Y07-G">
        </g>
        <g id="product-03-X04-D">
        </g>
        <g id="product-03-X13-G">
        </g>
        <g id="product-03-X15-H">
        </g>
        <g id="product-03-X04-C">
        </g>
        <g id="product-03-Y12-I">
        </g>
        <g id="product-03-Y08-H">
        </g>
        <g id="product-03-X14-G">
        </g>
        <g id="product-03-X14-I">
        </g>
        <g id="product-03-Y-10-H">
        </g>
        <g id="product-03-X11-I">
        </g>
        <g id="product-03-X10-L">
        </g>
        <g id="product-03-Y05-A">
        </g>
        <g id="product-03-Y05-C">
        </g>
        <g id="product-03-Y00-A">
        </g>
        <g id="product-03-Y10-I">
        </g>
        <g id="product-03-Y03-D">
        </g>
        <g id="product-03-X10-H">
        </g>
        <g id="product-03-10-K">
        </g>
        <g id="product-03-Y05-J">
        </g>
        <g id="product-03-X10-G">
        </g>
        <g id="product-03-Y11-G">
        </g>
        <g id="product-03-X06-A">
        </g>
        <g id="product-03-X08-G">
        </g>
    </g>
    <g id="storey-04">
        <g id="product-04-X11-H">
        </g>
        <g id="product-04-Y03-D">
        </g>
        <g id="product-04-Y09-H">
        </g>
        <g id="product-04-Y09-G">
        </g>
        <g id="product-04-Y06-G">
        </g>
        <g id="product-04-Y06-H">
        </g>
        <g id="product-04-X06-C">
        </g>
        <g id="product-04-X06-D">
        </g>
        <g id="product-04-Y08-C">
        </g>
        <g id="product-04-Y08-D">
        </g>
        <g id="product-04-Y11-G">
        </g>
        <g id="product-04-X13-J">
        </g>
        <g id="product-04-X09-C">
        </g>
        <g id="product-04-X09-D">
        </g>
        <g id="product-04-X03-D">
        </g>
        <g id="product-04-X13-I">
        </g>
        <g id="product-04-Y12-G">
        </g>
        <g id="product-04-X11-D">
        </g>
        <g id="product-04-X11-C">
        </g>
        <g id="product-04-X08-G">
        </g>
        <g id="product-04-X03-C">
        </g>
        <g id="product-04-Y03-C">
        </g>
        <g id="product-04-Y06-C">
        </g>
        <g id="product-04-Y06-D">
        </g>
        <g id="product-04-X13-G">
        </g>
        <g id="product-04-X13-H">
        </g>
        <g id="product-04-X07-H">
        </g>
        <g id="product-04-X07-J">
        </g>
        <g id="product-04-X07-G">
        </g>
        <g id="product-04-X11-G">
        </g>
        <g id="product-04-Y10-I">
        </g>
        <g id="product-04-X11-I">
        </g>
        <g id="product-04-Y10-G">
        </g>
        <g id="product-04-Y10-L">
        </g>
        <g id="product-04-Y09-I">
        </g>
        <g id="product-04-Y06-I">
        </g>
        <g id="product-04-Y10-K">
        </g>
        <g id="product-04-X13-T">
        </g>
        <g id="product-04-Y-10-H">
        </g>
        <g id="product-04-Y10-A">
        </g>
        <g id="product-04-X02-A">
        </g>
        <g id="product-04-X13-A">
        </g>
        <g id="product-04-Y05-G">
        </g>
        <g id="product-04-X12-G">
        </g>
        <g id="product-04-Y12-A">
        </g>
        <g id="product-04-X10-I">
        </g>
        <g id="product-04-X10-H">
        </g>
        <g id="product-04-X10-G">
        </g>
        <g id="product-04-10-K">
        </g>
        <g id="product-04-Y11-H">
        </g>
        <g id="product-04-X10-L">
        </g>
        <g id="product-04-Y13-G">
        </g>
        <g id="product-04-Y07-G">
        </g>
        <g id="product-04-Y13-A">
        </g>
        <g id="product-04-X09-H">
        </g>
        <g id="product-04-Y10-D">
        </g>
        <g id="product-04-Y10-C">
        </g>
        <g id="product-04-X09-G">
        </g>
        <g id="product-XX-XX">
        </g>
        <g id="product-04-X10-A">
        </g>
        <g id="product-04-X13-D">
        </g>
        <g id="product-04-Y13-C">
        </g>
        <g id="product-04-Y02-A">
        </g>
        <g id="product-04-Y00-A">
        </g>
        <g id="product-04-Y05-H">
        </g>
        <g id="product-04-Y05-I">
        </g>
        <g id="product-04-Y05-J">
        </g>
        <g id="product-04-X03-A">
        </g>
        <g id="product-04-Y13-D">
        </g>
        <g id="product-04-Y04-H">
        </g>
        <g id="product-04-X13-C">
        </g>
    </g>
    <g id="storey-06">
        <g id="product-06-Y10-G">
        </g>
        <g id="product-06-Y10-L">
        </g>
        <g id="product-06-X06-A">
        </g>
        <g id="product-06-Y10-K">
        </g>
        <g id="product-06-Y07-M">
        </g>
        <g id="product-06-X07-G">
        </g>
        <g id="product-06-X11-H">
        </g>
        <g id="product-06-X11-G">
        </g>
        <g id="product-06-Y03-C">
        </g>
        <g id="product-06-Y03-D">
        </g>
        <g id="product-06-Y08-C">
        </g>
        <g id="product-06-Y06-H">
        </g>
        <g id="product-06-Y06-G">
        </g>
        <g id="product-06-Y09-G">
        </g>
        <g id="product-06-Y09-H">
        </g>
        <g id="product-06-X09-G">
        </g>
        <g id="product-06-X06-G">
        </g>
        <g id="product-06-Y09-A">
        </g>
        <g id="product-06-X08-D">
        </g>
        <g id="product-06-X10-I">
        </g>
        <g id="product-06-X10-H">
        </g>
        <g id="product-06-X10-G">
        </g>
        <g id="product-06-X03-A">
        </g>
        <g id="product-06-X07-H">
        </g>
        <g id="product-06-X07-J">
        </g>
        <g id="product-06-Y10-I">
        </g>
        <g id="product-06-X11-I">
        </g>
        <g id="product-06-Y06-I">
        </g>
        <g id="product-06-Y00-A">
        </g>
        <g id="product-06-Y02-A">
        </g>
        <g id="product-06-Y09-I">
        </g>
        <g id="product-06-X06-H">
        </g>
        <g id="product-06-X07-G">
        </g>
        <g id="product-06-X03-C">
        </g>
        <g id="product-06-X08-G">
        </g>
        <g id="product-06-X03-D">
        </g>
        <g id="product-06-Y05-D">
        </g>
        <g id="product-06-Y05-D">
        </g>
        <g id="product-06-X08-C">
        </g>
        <g id="product-06-Y08-D">
        </g>
        <g id="product-06-Y05-H">
        </g>
        <g id="product-06-Y05-J">
        </g>
        <g id="product-06-Y05-G">
        </g>
        <g id="product-06-Y05-J">
        </g>
        <g id="product-06-X05-C">
        </g>
        <g id="product-06-X05-D">
        </g>
        <g id="product-06-Y04-G">
        </g>
        <g id="product-06-X10-K">
        </g>
        <g id="product-06-X10-L">
        </g>
        <g id="product-06-X02-A">
        </g>
        <g id="product-06-Y10-H">
        </g>
        <g id="product-06-Y08-H">
        </g>
    </g>
    <g id="storey-07L">
        <g id="product-07-Y06-I">
        </g>
        <g id="product-07-Y06-G">
        </g>
        <g id="product-07-Y06-H">
        </g>
        <g id="product-07-X07-G">
        </g>
        <g id="product-07-X07-J">
        </g>
        <g id="product-07-X07-H">
        </g>
        <g id="product-07-X09-C">
        </g>
        <g id="product-07-X06-A">
        </g>
        <g id="product-07-X05-I">
        </g>
        <g id="product-07-Y04-A">
        </g>
        <g id="product-07-Y00-A">
        </g>
        <g id="product-07-X06-Ha">
        </g>
        <g id="product-07-X06-Hc">
        </g>
        <g id="product-07-Y05-J">
        </g>
        <g id="product-07-Y05-K">
        </g>
        <g id="product-07-Y07-C">
        </g>
        <g id="product-07-X08-C">
        </g>
        <g id="product-07-X05-A">
        </g>
        <g id="product-07-Y05-H">
        </g>
        <g id="product-07-Y07-H">
        </g>
        <g id="product-07-Y07-I">
        </g>
        <g id="product-07-Y07-G">
        </g>
        <g id="product-07-X06-G">
        </g>
        <g id="product-07-X04-E">
        </g>
        <g id="product-07-X04-A">
        </g>
        <g id="product-07-Y08-J">
        </g>
        <g id="product-07-Y05-A">
        </g>
        <g id="product-07-Y08-C">
        </g>
        <g id="product-07-X07-K">
        </g>
        <g id="product-07-X07-A">
        </g>
        <g id="product-XX-XX">
        </g>
    </g>
    <g id="storey-01">
        <g id="product-01-X14-J">
        </g>
        <g id="product-01-X08-O">
        </g>
        <g id="product-01-Y08-L">
        </g>
        <g id="product-01-Y08-M">
        </g>
        <g id="product-01-Y06-G">
        </g>
        <g id="product-01-X11-H">
        </g>
        <g id="product-01-Y09-C">
            <path style="stroke:none; fill:none;"  pointer-events="visible" d="M41.7473,71.3226 L41.368,72.0209 L43.6421,73.2563 L42.7187,74.9559 L47.4599,77.5335 L50.3549,72.1904 L49.0687,71.4935 L50.9996,67.9296 L52.2858,68.6265 L68.5417,38.6239 L61.8472,35.0738 L53.8317,39.1695 L48.5664,40.3719 L49.555,44.8358 L53.1707,44.0351 L53.8349,44.3956 L54.9727,47.1105 L54.4947,48.7051 L49.8674,57.1623 L48.8455,59.6433 L50.5378,60.5626 L50.3563,60.8967 L49.731,62.0479 L46.5376,67.9261 L44.2627,66.6903 L43.938,67.288 L43.6428,67.1276 L42.9363,68.4281 L43.2315,68.5885 L42.9356,69.1333 L42.5159,69.9079 L41.7473,71.3226"/>
        </g>
        <g id="product-01-Y05-C">
        </g>
        <g id="product-01-X12-C">
        </g>
        <g id="product-01-X06-I">
        </g>
        <g id="product-01-Y08-N">
        </g>
        <g id="product-01-X11-F">
        </g>
        <g id="product-01-X06-G">
        </g>
        <g id="product-01-Y05-E">
        </g>
        <g id="product-01-X15-S">
        </g>
        <g id="product-01-X11-G">
        </g>
        <g id="product-01-X-15-T">
        </g>
        <g id="product-01-X05-I">
        </g>
        <g id="product-01-X15-G">
        </g>
        <g id="product-01-X12-A">
        </g>
        <g id="product-01-X7-K">
        </g>
        <g id="product-01-Y04-E">
        </g>
        <g id="product-01-X12-B">
        </g>
        <g id="product-01-X12-D">
        </g>
        <g id="product-01-Y6-M">
        </g>
        <g id="product-01-Y07-P">
        </g>
        <g id="product-01-X13-B">
        </g>
        <g id="product-01-X09-G">
        </g>
        <g id="product-01-X08-G">
        </g>
        <g id="product-01-Y06-I">
        </g>
        <g id="product-01-X08-P">
        </g>
        <g id="product-01-X13-A">
        </g>
        <g id="product-01-X10-A">
        </g>
        <g id="product-01-X12-P">
        </g>
        <g id="product-01-X08-Oc">
        </g>
        <g id="product-01-X14-H">
        </g>
        <g id="product-01-X14-F">
        </g>
        <g id="product-01-X13-Q">
        </g>
        <g id="product-01-X11-A">
        </g>
        <g id="product-01-X10-H">
        </g>
        <g id="product-01-X13-H">
        </g>
        <g id="product-01-X09-H">
        </g>
        <g id="product-01-X14-G">
        </g>
        <g id="product-01-X17-M">
        </g>
        <g id="product-01-Y08-G">
        </g>
        <g id="product-01-X07-H">
        </g>
        <g id="product-01-X07-G">
        </g>
        <g id="product-01-Y01-B">
        </g>
        <g id="product-01-X07-K">
        </g>
        <g id="product-01-X08-Oa">
        </g>
        <g id="product-01-X08-Pb">
        </g>
        <g id="product-01-X08-Pa">
        </g>
        <g id="product-01-X08-Ob">
        </g>
        <g id="product-??01-Y02-C">
        </g>
        <g id="product-??01-Y03-C">
        </g>
        <g id="product-01-Y06-H">
        </g>
        <g id="product-01-Y04-G">
        </g>
        <g id="product-01-Y07-O">
        </g>
        <g id="product-01-Y05-F">
        </g>
        <g id="product-01-X16-T">
        </g>
        <g id="product-01-X02-C">
        </g>
        <g id="product-01-X13-J">
        </g>
        <g id="product-01-X11-I">
        </g>
        <g id="product-01-Y09-G">
        </g>
        <g id="product-01-X04-I">
        </g>
        <g id="product-01-X12-Q">
        </g>
        <g id="product-01-X12-R">
        </g>
        <g id="product-01-X12-G">
        </g>
        <g id="product-01-Y04-F">
        </g>
    </g>
    <g id="storey-U3">
        <g id="product-U3-X10-M">
        </g>
        <g id="product-U3-Y03-A">
        </g>
        <g id="product-U3-X11-I">
        </g>
        <g id="product-U3-X12-J">
        </g>
        <g id="product-U3-X04-A">
        </g>
        <g id="product-U3-Y07-M">
        </g>
        <g id="product-U3-X07-A">
        </g>
        <g id="product-U3-Y09-I">
        </g>
        <g id="product-U3-Y6-I">
        </g>
        <g id="product-U3-Y08-I">
        </g>
        <g id="product-U3-Y08-L">
        </g>
        <g id="product-U3-Y07-J">
        </g>
        <g id="product-U3-X10-N">
        </g>
        <g id="product-U3-X07-H">
        </g>
        <g id="product-U3-X12-O">
        </g>
        <g id="product-U3-X12-R">
        </g>
        <g id="product-U3-X12Q">
        </g>
        <g id="product-U3-X13-P">
        </g>
        <g id="product-U3-X07-G">
        </g>
        <g id="product-U3-Y06-M">
        </g>
        <g id="product-U3-Y07-I">
        </g>
        <g id="product-U3-X07-K">
        </g>
        <g id="product-U3-X06-G">
        </g>
        <g id="product-U3-X08-G">
        </g>
    </g>
</svg>
