<svg xmlns="http://www.w3.org/2000/svg" xmlns:xlink="http://www.w3.org/1999/xlink">
    <g id="storey-U2">
        <g id="product-U2-Y06-M">
        </g>
        <g id="product-U2-Y09-I">
        </g>
        <g id="product-U2-X10-M">
        </g>
        <g id="product-U2-Y07-M">
        </g>
        <g id="product-U2-X08-M">
        </g>
        <g id="product-U2-X12-S">
        </g>
        <g id="product-U2-X08-G">
        </g>
        <g id="product-U2-Y08-O">
        </g>
        <g id="product-U2-Y06-I">
        </g>
        <g id="product-U2-X07-G">
        </g>
        <g id="product-U2-X13-R">
        </g>
        <g id="product-U2-X07-H">
        </g>
        <g id="product-U2-Y08-L">
        </g>
        <g id="product-U2-Y08-I">
        </g>
        <g id="product-U2-Y07-J">
        </g>
        <g id="product-U2-X07-K">
        </g>
        <g id="product-U2-X05-A">
        </g>
        <g id="product-U2-X11-A">
        </g>
        <g id="product-U2-Y03-A">
        </g>
        <g id="product-U2-X12-J">
        </g>
        <g id="product-U2-X12-R">
        </g>
        <g id="product-U2-X12-Q">
        </g>
        <g id="product-U2-X12-O">
        </g>
        <g id="product-U2-X06-G">
        </g>
        <g id="product-U2-Y07-I">
        </g>
        <g id="product-U2-X11-I">
        </g>
        <g id="product-U2-X12-T">
        </g>
        <g id="product-U2-X12-R">
        </g>
        <g id="product-U2-X13-Q">
        </g>
    </g>
    <g id="storey-U3">
        <g id="product-U3-X10-M">
        </g>
        <g id="product-U3-Y03-A">
        </g>
        <g id="product-U3-X11-I">
        </g>
        <g id="product-U3-X12-J">
        </g>
        <g id="product-U3-X04-A">
        </g>
        <g id="product-U3-Y07-M">
        </g>
        <g id="product-U3-X07-A">
        </g>
        <g id="product-U3-Y09-I">
        </g>
        <g id="product-U3-Y6-I">
        </g>
        <g id="product-U3-Y08-I">
        </g>
        <g id="product-U3-Y08-L">
        </g>
        <g id="product-U3-Y07-J">
        </g>
        <g id="product-U3-X10-N">
        </g>
        <g id="product-U3-X07-H">
        </g>
        <g id="product-U3-X12-O">
        </g>
        <g id="product-U3-X12-R">
        </g>
        <g id="product-U3-X12Q">
        </g>
        <g id="product-U3-X13-P">
        </g>
        <g id="product-U3-X07-G">
        </g>
        <g id="product-U3-Y06-M">
        </g>
        <g id="product-U3-Y07-I">
        </g>
        <g id="product-U3-X07-K">
        </g>
        <g id="product-U3-X06-G">
        </g>
        <g id="product-U3-X08-G">
        </g>
    </g>
    <g id="storey-01">
        <g id="product-01-X14-J">
        </g>
        <g id="product-01-X08-O">
        </g>
        <g id="product-01-Y08-L">
        </g>
        <g id="product-01-Y08-M">
        </g>
        <g id="product-01-Y06-G">
        </g>
        <g id="product-01-X11-H">
        </g>
        <g id="product-01-Y09-C">
        </g>
        <g id="product-01-Y05-C">
        </g>
        <g id="product-01-X12-C">
        </g>
        <g id="product-01-X06-I">
        </g>
        <g id="product-01-Y08-N">
        </g>
        <g id="product-01-X11-F">
        </g>
        <g id="product-01-X06-G">
        </g>
        <g id="product-01-Y05-E">
        </g>
        <g id="product-01-X15-S">
        </g>
        <g id="product-01-X11-G">
        </g>
        <g id="product-01-X-15-T">
        </g>
        <g id="product-01-X05-I">
        </g>
        <g id="product-01-X15-G">
        </g>
        <g id="product-01-X12-A">
        </g>
        <g id="product-01-X7-K">
        </g>
        <g id="product-01-Y04-E">
        </g>
        <g id="product-01-X12-B">
        </g>
        <g id="product-01-X12-D">
        </g>
        <g id="product-01-Y6-M">
        </g>
        <g id="product-01-Y07-P">
        </g>
        <g id="product-01-X13-B">
        </g>
        <g id="product-01-X09-G">
        </g>
        <g id="product-01-X08-G">
        </g>
        <g id="product-01-Y06-I">
        </g>
        <g id="product-01-X08-P">
        </g>
        <g id="product-01-X13-A">
        </g>
        <g id="product-01-X10-A">
        </g>
        <g id="product-01-X12-P">
        </g>
        <g id="product-01-X08-Oc">
        </g>
        <g id="product-01-X14-H">
        </g>
        <g id="product-01-X14-F">
        </g>
        <g id="product-01-X13-Q">
        </g>
        <g id="product-01-X11-A">
        </g>
        <g id="product-01-X10-H">
        </g>
        <g id="product-01-X13-H">
        </g>
        <g id="product-01-X09-H">
        </g>
        <g id="product-01-X14-G">
        </g>
        <g id="product-01-X17-M">
        </g>
        <g id="product-01-Y08-G">
        </g>
        <g id="product-01-X07-H">
        </g>
        <g id="product-01-X07-G">
        </g>
        <g id="product-01-Y01-B">
        </g>
        <g id="product-01-X07-K">
        </g>
        <g id="product-01-X08-Oa">
        </g>
        <g id="product-01-X08-Pb">
        </g>
        <g id="product-01-X08-Pa">
        </g>
        <g id="product-01-X08-Ob">
        </g>
        <g id="product-??01-Y02-C">
        </g>
        <g id="product-??01-Y03-C">
        </g>
        <g id="product-01-Y06-H">
        </g>
        <g id="product-01-Y04-G">
        </g>
        <g id="product-01-Y07-O">
        </g>
        <g id="product-01-Y05-F">
        </g>
        <g id="product-01-X16-T">
        </g>
        <g id="product-01-X02-C">
        </g>
        <g id="product-01-X13-J">
        </g>
        <g id="product-01-X11-I">
        </g>
        <g id="product-01-Y09-G">
        </g>
        <g id="product-01-X04-I">
        </g>
        <g id="product-01-X12-Q">
        </g>
        <g id="product-01-X12-R">
        </g>
        <g id="product-01-X12-G">
        </g>
        <g id="product-01-Y04-F">
        </g>
    </g>
    <g id="storey-03">
        <g id="product-03-Y03-C">
        </g>
        <g id="product-03-Y12-G">
        </g>
        <g id="product-03-X14-H">
        </g>
        <g id="product-03-X09-D">
        </g>
        <g id="product-03-Y05-I">
        </g>
        <g id="product-03-Y06-G">
        </g>
        <g id="product-03-Y09-H">
        </g>
        <g id="product-03-X09-C">
        </g>
        <g id="product-03-Y06-H">
        </g>
        <g id="product-03-Y06-I">
        </g>
        <g id="product-03-X12-D">
        </g>
        <g id="product-03-X11-H">
        </g>
        <g id="product-03-Y04-H">
        </g>
        <g id="product-03-Y12-C">
        </g>
        <g id="product-03-Y09-G">
        </g>
        <g id="product-03-Y7-M">
        </g>
        <g id="product-03-Y10-K">
        </g>
        <g id="product-03-Y10-L">
        </g>
        <g id="product-03-Y05-H">
        </g>
        <g id="product-03-X12-C">
        </g>
        <g id="product-03-Y12-L">
        </g>
        <g id="product-03-Y10-G">
        </g>
        <g id="product-03-Y12-H">
        </g>
        <g id="product-03-X11-G">
        </g>
        <g id="product-03-Y07-D">
        </g>
        <g id="product-03-X13-T">
        </g>
        <g id="product-03-X10-I">
        </g>
        <g id="product-03-Y09-I">
        </g>
        <g id="product-03-X07-G">
        </g>
        <g id="product-03-X07-J">
        </g>
        <g id="product-03-X07-H">
        </g>
        <g id="product-03-X15-J">
        </g>
        <g id="product-03-X6-C">
        </g>
        <g id="product-03-Y07-C">
        </g>
        <g id="product-03-X14-G">
        </g>
        <g id="product-03-X6-D">
        </g>
        <g id="product-03-Y12-D">
        </g>
        <g id="product-03-Y07-G">
        </g>
        <g id="product-03-X04-D">
        </g>
        <g id="product-03-X13-G">
        </g>
        <g id="product-03-X15-H">
        </g>
        <g id="product-03-X04-C">
        </g>
        <g id="product-03-Y12-I">
        </g>
        <g id="product-03-Y08-H">
        </g>
        <g id="product-03-X14-G">
        </g>
        <g id="product-03-X14-I">
        </g>
        <g id="product-03-Y-10-H">
        </g>
        <g id="product-03-X11-I">
        </g>
        <g id="product-03-X10-L">
        </g>
        <g id="product-03-Y05-A">
        </g>
        <g id="product-03-Y05-C">
        </g>
        <g id="product-03-Y00-A">
        </g>
        <g id="product-03-Y10-I">
        </g>
        <g id="product-03-Y03-D">
        </g>
        <g id="product-03-X10-H">
        </g>
        <g id="product-03-10-K">
        </g>
        <g id="product-03-Y05-J">
        </g>
        <g id="product-03-X10-G">
        </g>
        <g id="product-03-Y11-G">
        </g>
        <g id="product-03-X06-A">
        </g>
        <g id="product-03-X08-G">
        </g>
    </g>
    <g id="storey-07L">
        <g id="product-07-Y06-I">
        </g>
        <g id="product-07-Y06-G">
        </g>
        <g id="product-07-Y06-H">
        </g>
        <g id="product-07-X07-G">
        </g>
        <g id="product-07-X07-J">
        </g>
        <g id="product-07-X07-H">
        </g>
        <g id="product-07-X09-C">
        </g>
        <g id="product-07-X06-A">
        </g>
        <g id="product-07-X05-I">
        </g>
        <g id="product-07-Y04-A">
        </g>
        <g id="product-07-Y00-A">
        </g>
        <g id="product-07-X06-Ha">
        </g>
        <g id="product-07-X06-Hc">
        </g>
        <g id="product-07-Y05-J">
        </g>
        <g id="product-07-Y05-K">
        </g>
        <g id="product-07-Y07-C">
        </g>
        <g id="product-07-X08-C">
        </g>
        <g id="product-07-X05-A">
        </g>
        <g id="product-07-Y05-H">
        </g>
        <g id="product-07-Y07-H">
        </g>
        <g id="product-07-Y07-I">
        </g>
        <g id="product-07-Y07-G">
        </g>
        <g id="product-07-X06-G">
        </g>
        <g id="product-07-X04-E">
        </g>
        <g id="product-07-X04-A">
        </g>
        <g id="product-07-Y08-J">
        </g>
        <g id="product-07-Y05-A">
        </g>
        <g id="product-07-Y08-C">
        </g>
        <g id="product-07-X07-K">
        </g>
        <g id="product-07-X07-A">
        </g>
        <g id="product-XX-XX">
        </g>
    </g>
    <g id="storey-02">
        <g id="product-02-X06-K">
        </g>
        <g id="product-02-X11-G">
        </g>
        <g id="product-02-X07-G">
        </g>
        <g id="product-02-X10-L">
        </g>
        <g id="product-02-X07-J">
        </g>
        <g id="product-02-X07-H">
        </g>
        <g id="product-02-X10-H">
        </g>
        <g id="product-02-X10-J">
        </g>
        <g id="product-02-Y08-C">
        </g>
        <g id="product-02-X05-D">
        </g>
        <g id="product-02-X10-A">
        </g>
        <g id="product-02-X12-K">
        </g>
        <g id="product-02-X11-I">
        </g>
        <g id="product-XX-XX">
        </g>
        <g id="product-02-Y06-K">
        </g>
        <g id="product-02-Y09-G">
        </g>
        <g id="product-02-X12-C">
        </g>
        <g id="product-02-X12-D">
        </g>
        <g id="product-02-X09-E">
        </g>
        <g id="product-02-X08-K">
        </g>
        <g id="product-02-X09-K">
        </g>
        <g id="product-02-X05-C">
        </g>
        <g id="product-02-X08-E">
        </g>
        <g id="product-02-X10-B">
        </g>
        <g id="product-02-X09-E">
        </g>
        <g id="product-02-Y08-L">
        </g>
        <g id="product-02-Y10-G">
        </g>
        <g id="product-02-X13-S">
        </g>
        <g id="product-02-X11-A">
        </g>
        <g id="product-02-X11-E">
        </g>
        <g id="product-02-Y09-I">
        </g>
        <g id="product-02-Y08-G">
        </g>
        <g id="product-02-Y04-G">
        </g>
        <g id="product-02-Y03-G">
        </g>
        <g id="product-02-X06-E">
        </g>
        <g id="product-02-X07-I">
        </g>
        <g id="product-02-X09-Ga">
        </g>
        <g id="product-02-X07-E">
        </g>
        <g id="product-02-Y07-M">
        </g>
        <g id="product-02-X03-C">
        </g>
        <g id="product-02-Y05-G">
        </g>
        <g id="product-02-X08-H">
        </g>
        <g id="product-02-X08-I">
        </g>
        <g id="product-02-X13-A">
        </g>
        <g id="product-02-X09-Gb">
        </g>
        <g id="product-02-X09-Gc">
        </g>
        <g id="product-02-X12-H">
        </g>
        <g id="product-02-X09-Ha">
        </g>
        <g id="product-02-Y09-M">
        </g>
        <g id="product-02-Y06-G">
        </g>
        <g id="product-02-X12-F">
        </g>
        <g id="product-02-Y08-K">
        </g>
        <g id="product-02-X08-G">
        </g>
        <g id="product-02-X12-E">
        </g>
        <g id="product-02-X11-F">
        </g>
        <g id="product-02-X10-F">
        </g>
        <g id="product-02-Y09-H">
        </g>
        <g id="product-02-X04-A">
        </g>
        <g id="product-02-Y02-C">
        </g>
    </g>
    <g id="storey-06">
        <g id="product-06-Y10-G">
        </g>
        <g id="product-06-Y10-L">
        </g>
        <g id="product-06-X06-A">
        </g>
        <g id="product-06-Y10-K">
        </g>
        <g id="product-06-Y07-M">
        </g>
        <g id="product-06-X07-G">
        </g>
        <g id="product-06-X11-H">
        </g>
        <g id="product-06-X11-G">
        </g>
        <g id="product-06-Y03-C">
        </g>
        <g id="product-06-Y03-D">
        </g>
        <g id="product-06-Y08-C">
        </g>
        <g id="product-06-Y06-H">
        </g>
        <g id="product-06-Y06-G">
        </g>
        <g id="product-06-Y09-G">
        </g>
        <g id="product-06-Y09-H">
        </g>
        <g id="product-06-X09-G">
        </g>
        <g id="product-06-X06-G">
        </g>
        <g id="product-06-Y09-A">
        </g>
        <g id="product-06-X08-D">
        </g>
        <g id="product-06-X10-I">
        </g>
        <g id="product-06-X10-H">
        </g>
        <g id="product-06-X10-G">
        </g>
        <g id="product-06-X03-A">
        </g>
        <g id="product-06-X07-H">
        </g>
        <g id="product-06-X07-J">
        </g>
        <g id="product-06-Y10-I">
        </g>
        <g id="product-06-X11-I">
        </g>
        <g id="product-06-Y06-I">
        </g>
        <g id="product-06-Y00-A">
        </g>
        <g id="product-06-Y02-A">
        </g>
        <g id="product-06-Y09-I">
        </g>
        <g id="product-06-X06-H">
        </g>
        <g id="product-06-X07-G">
        </g>
        <g id="product-06-X03-C">
        </g>
        <g id="product-06-X08-G">
        </g>
        <g id="product-06-X03-D">
        </g>
        <g id="product-06-Y05-D">
        </g>
        <g id="product-06-Y05-D">
        </g>
        <g id="product-06-X08-C">
        </g>
        <g id="product-06-Y08-D">
        </g>
        <g id="product-06-Y05-H">
        </g>
        <g id="product-06-Y05-J">
        </g>
        <g id="product-06-Y05-G">
        </g>
        <g id="product-06-Y05-J">
        </g>
        <g id="product-06-X05-C">
        </g>
        <g id="product-06-X05-D">
        </g>
        <g id="product-06-Y04-G">
        </g>
        <g id="product-06-X10-K">
        </g>
        <g id="product-06-X10-L">
        </g>
        <g id="product-06-X02-A">
        </g>
        <g id="product-06-Y10-H">
        </g>
        <g id="product-06-Y08-H">
        </g>
    </g>
    <g id="storey-U1">
        <g id="product-U1-X08-M">
        </g>
        <g id="product-U1-X07-H">
        </g>
        <g id="product-U1-X13-R">
        </g>
        <g id="product-U1-X12-O">
        </g>
        <g id="product-U1-X07-G">
        </g>
        <g id="product-U1-X08-G">
        </g>
        <g id="product-U1-X08-I">
        </g>
        <g id="product-U1-Y07-J">
        </g>
        <g id="product-U1-Y03-A">
        </g>
        <g id="product-U1-X07-K">
        </g>
        <g id="product-U1-Y06-I">
        </g>
        <g id="product-U1-Y09-I">
        </g>
        <g id="product-U1-X12-N">
        </g>
        <g id="product-U1-X11-I">
        </g>
        <g id="product-U1-X12-J">
        </g>
        <g id="product-U1-X06-G">
        </g>
        <g id="product-U1-X15-S">
        </g>
        <g id="product-U1-X12-L">
        </g>
        <g id="product-U1-X08-Lb">
        </g>
        <g id="product-U1-X16-T">
        </g>
        <g id="product-U1-X09-O">
        </g>
        <g id="product-U1-X08-Ka">
        </g>
        <g id="product-U1-X08-La">
        </g>
        <g id="product-U1-Y07-O">
        </g>
        <g id="product-U1-X08-Kb">
        </g>
        <g id="product-U1-X08-Kc">
        </g>
        <g id="product-U1-X08-N">
        </g>
        <g id="product-U1-X11-O">
        </g>
        <g id="product-U1-X12-R">
        </g>
        <g id="product-U1-X12-Q">
        </g>
        <g id="product-U1-Y10-I">
        </g>
        <g id="product-U1-Y08-L">
        </g>
        <g id="product-U1-X12-T">
        </g>
        <g id="product-U1-Y07-I">
        </g>
        <g id="product-U1-Y11-O">
        </g>
        <g id="product-U1-X09-I">
        </g>
        <g id="product-U1-X12-M">
        </g>
        <g id="product-U1-Y06-M">
        </g>
        <g id="product-U1-Y08-I">
        </g>
        <g id="product-U1-Y07-P">
        </g>
        <g id="product-U1-Y08-N">
        </g>
        <g id="product-U1-X11-N">
        </g>
        <g id="product-U1-X05-A">
        </g>
    </g>
    <g id="storey-04">
        <g id="product-04-X11-H">
            <path style="stroke:none; fill:none;"  pointer-events="visible" d="M25.6035,51.2305 L25.055,48.7535 L23.3463,49.1319 L23.8949,51.6089 L25.6035,51.2305"/>
        </g>
        <g id="product-04-Y03-D">
            <path style="stroke:none; fill:none;"  pointer-events="visible" d="M36.3495,95.9436 L37.5643,93.7072 L35.4074,92.5355 L34.1925,94.7718 L36.3495,95.9436"/>
        </g>
        <g id="product-04-Y09-H">
            <path style="stroke:none; fill:none;"  pointer-events="visible" d="M46.1003,64.3317 L47.6381,65.1672 L48.789,63.0486 L47.2512,62.2132 L46.1003,64.3317"/>
        </g>
        <g id="product-04-Y09-G">
            <path style="stroke:none; fill:none;"  pointer-events="visible" d="M48.8617,62.9149 L50.0727,60.6856 L48.535,59.8502 L47.3239,62.0795 L48.8617,62.9149"/>
        </g>
        <g id="product-04-Y06-G">
            <path style="stroke:none; fill:none;"  pointer-events="visible" d="M42.3396,74.9207 L40.8019,74.0853 L39.6513,76.2033 L41.1887,77.0394 L42.3396,74.9207"/>
        </g>
        <g id="product-04-Y06-H">
            <path style="stroke:none; fill:none;"  pointer-events="visible" d="M38.3674,78.5668 L39.9051,79.4021 L41.1161,77.1728 L39.5788,76.3368 L38.3674,78.5668"/>
        </g>
        <g id="product-04-X06-C">
            <path style="stroke:none; fill:none;"  pointer-events="visible" d="M26.361,73.4603 L23.9644,73.9911 L24.5147,76.4759 L26.9113,75.9451 L26.361,73.4603"/>
        </g>
        <g id="product-04-X06-D">
            <path style="stroke:none; fill:none;"  pointer-events="visible" d="M26.9275,76.0184 L24.5309,76.5491 L25.0812,79.0339 L27.4778,78.5032 L26.9275,76.0184"/>
        </g>
        <g id="product-04-Y08-C">
            <path style="stroke:none; fill:none;"  pointer-events="visible" d="M50.4887,69.9161 L51.7035,67.6798 L49.5466,66.5081 L48.3317,68.7444 L50.4887,69.9161"/>
        </g>
        <g id="product-04-Y08-D">
            <path style="stroke:none; fill:none;"  pointer-events="visible" d="M48.3019,68.7994 L47.0811,71.0466 L49.238,72.2184 L50.4588,69.9711 L48.3019,68.7994"/>
        </g>
        <g id="product-04-Y11-G">
            <path style="stroke:none; fill:none;"  pointer-events="visible" d="M55.313,51.5035 L55.4037,51.3366 L55.0772,51.1592 L55.1317,51.0587 L51.0897,48.8629 L51.0351,48.9634 L50.7872,48.8287 L49.4641,51.2643 L54.0805,53.7722 L54.8404,52.3734 L54.7991,52.351 L55.2717,51.4811 L55.313,51.5035"/>
        </g>
        <g id="product-04-X13-J">
            <path style="stroke:none; fill:none;"  pointer-events="visible" d="M25.6305,37.629 L23.4909,38.1028 L24.0393,40.5788 L26.2096,40.0982 L26.1875,39.9985 L26.5473,39.9189 L26.5057,39.7307 L26.5061,39.7325 L26.4647,39.7417 L26.4597,39.7192 L26.2556,38.7976 L26.2506,38.7751 L26.292,38.7659 L26.0211,37.5425 L25.6305,37.629"/>
        </g>
        <g id="product-04-X09-C">
            <path style="stroke:none; fill:none;"  pointer-events="visible" d="M22.8582,57.6436 L20.4616,58.1743 L21.0119,60.6591 L23.4085,60.1284 L22.8582,57.6436"/>
        </g>
        <g id="product-04-X09-D">
            <path style="stroke:none; fill:none;"  pointer-events="visible" d="M23.4247,60.2016 L21.0281,60.7323 L21.5784,63.2171 L23.975,62.6864 L23.4247,60.2016"/>
        </g>
        <g id="product-04-X03-D">
            <path style="stroke:none; fill:none;"  pointer-events="visible" d="M30.4303,91.8349 L28.0337,92.3657 L28.584,94.8505 L30.9805,94.3197 L30.4303,91.8349"/>
        </g>
        <g id="product-04-X13-I">
            <path style="stroke:none; fill:none;"  pointer-events="visible" d="M25.0811,34.9975 L22.9097,35.4784 L23.4581,37.9544 L25.6295,37.4735 L25.9926,37.3931 L25.7174,36.1689 L25.6716,36.1791 L25.4575,35.2125 L25.5073,35.2015 L25.4663,35.0166 L25.1032,35.0971 L25.0811,34.9975"/>
        </g>
        <g id="product-04-Y12-G">
            <path style="stroke:none; fill:none;"  pointer-events="visible" d="M53.6128,44.2183 L53.2833,44.0396 L51.4529,47.415 L51.4942,47.4374 L51.0216,48.3074 L50.9803,48.2849 L50.8895,48.4521 L51.2163,48.6293 L51.1607,48.7319 L55.2042,50.9253 L55.2585,50.8252 L55.5064,50.9599 L57.9027,46.5488 L57.6549,46.4141 L57.7035,46.3246 L53.6615,44.1285 L53.6128,44.2183"/>
        </g>
        <g id="product-04-X11-D">
            <path style="stroke:none; fill:none;"  pointer-events="visible" d="M21.0895,49.6571 L18.6929,50.1878 L19.2432,52.6726 L21.6397,52.1419 L21.0895,49.6571"/>
        </g>
        <g id="product-04-X11-C">
            <path style="stroke:none; fill:none;"  pointer-events="visible" d="M20.5229,47.0991 L18.1264,47.6298 L18.6767,50.1146 L21.0732,49.5839 L20.5229,47.0991"/>
        </g>
        <g id="product-04-X08-G">
            <path style="stroke:none; fill:none;"  pointer-events="visible" d="M26.45,62.453 L26.1747,62.5139 L27.2623,67.425 L30.9451,66.6094 L30.9676,66.7109 L32.4145,66.3905 L32.3488,66.0936 L32.3029,66.1039 L32.0888,65.1369 L32.1338,65.1273 L31.3036,61.3781 L30.9412,61.4583 L30.9192,61.3588 L26.428,62.3534 L26.45,62.453"/>
        </g>
        <g id="product-04-X03-C">
            <path style="stroke:none; fill:none;"  pointer-events="visible" d="M29.8638,89.2769 L27.4672,89.8076 L28.0175,92.2924 L30.414,91.7617 L29.8638,89.2769"/>
        </g>
        <g id="product-04-Y03-C">
            <path style="stroke:none; fill:none;"  pointer-events="visible" d="M37.6001,93.6413 L38.815,91.405 L36.6581,90.2333 L35.4432,92.4696 L37.6001,93.6413"/>
        </g>
        <g id="product-04-Y06-C">
            <path style="stroke:none; fill:none;"  pointer-events="visible" d="M45.3332,79.4062 L46.5481,77.1699 L44.3912,75.9982 L43.1763,78.2345 L45.3332,79.4062"/>
        </g>
        <g id="product-04-Y06-D">
            <path style="stroke:none; fill:none;"  pointer-events="visible" d="M44.0826,81.7084 L45.2974,79.4721 L43.1405,78.3004 L41.9257,80.5367 L44.0826,81.7084"/>
        </g>
        <g id="product-04-X13-G">
            <path style="stroke:none; fill:none;"  pointer-events="visible" d="M20.5047,37.3274 L20.7751,38.5486 L23.3097,37.9873 L22.7613,35.5112 L20.5899,35.9921 L20.612,36.0917 L20.2488,36.1721 L20.2906,36.3608 L20.3365,36.3507 L20.5505,37.3172 L20.5047,37.3274"/>
        </g>
        <g id="product-04-X13-H">
            <path style="stroke:none; fill:none;"  pointer-events="visible" d="M21.2932,40.8881 L21.3342,41.0734 L21.6974,40.9929 L21.7195,41.0926 L23.8909,40.6117 L23.3425,38.1356 L20.808,38.6969 L21.0791,39.9215 L21.125,39.9113 L21.3391,40.8779 L21.2932,40.8881"/>
        </g>
        <g id="product-04-X07-H">
            <path style="stroke:none; fill:none;"  pointer-events="visible" d="M29.6295,72.4623 L29.1538,70.3143 L28.0896,70.55 L28.5653,72.698 L29.6295,72.4623"/>
        </g>
        <g id="product-04-X07-J">
            <path style="stroke:none; fill:none;"  pointer-events="visible" d="M29.8248,72.419 L31.7775,71.9866 L31.3018,69.8386 L29.3491,70.2711 L29.8248,72.419"/>
        </g>
        <g id="product-04-X07-G">
            <path style="stroke:none; fill:none;"  pointer-events="visible" d="M27.4625,67.7186 L28.0463,70.3547 L31.2585,69.6434 L30.6747,67.0072 L27.4625,67.7186"/>
        </g>
        <g id="product-04-X11-G">
            <path style="stroke:none; fill:none;"  pointer-events="visible" d="M24.5008,46.2512 L22.7921,46.6296 L23.3134,48.9835 L25.0221,48.6051 L24.5008,46.2512"/>
        </g>
        <g id="product-04-Y10-I">
            <path style="stroke:none; fill:none;"  pointer-events="visible" d="M49.5025,54.753 L48.1874,57.1738 L49.5722,57.9261 L50.8874,55.5053 L49.5025,54.753"/>
        </g>
        <g id="product-04-X11-I">
            <path style="stroke:none; fill:none;"  pointer-events="visible" d="M25.8964,51.1657 L28.679,50.5494 L27.5763,45.5701 L24.7937,46.1863 L25.8964,51.1657"/>
        </g>
        <g id="product-04-Y10-G">
            <path style="stroke:none; fill:none;"  pointer-events="visible" d="M52.2283,56.2337 L50.9787,55.5549 L50.3591,56.6955 L51.6087,57.3743 L52.2283,56.2337"/>
        </g>
        <g id="product-04-Y10-L">
            <path style="stroke:none; fill:none;"  pointer-events="visible" d="M48.7276,55.9617 L47.4798,55.2838 L46.903,56.3455 L48.1508,57.0233 L48.7276,55.9617"/>
        </g>
        <g id="product-04-Y09-I">
            <path style="stroke:none; fill:none;"  pointer-events="visible" d="M43.3325,62.828 L45.8369,64.1884 L46.9825,62.0795 L46.9824,62.0795 L47.0602,61.9362 L47.0603,61.9363 L48.2714,59.707 L45.767,58.3465 L43.3325,62.828"/>
        </g>
        <g id="product-04-Y06-I">
            <path style="stroke:none; fill:none;"  pointer-events="visible" d="M35.5994,77.0631 L38.1037,78.4235 L40.5382,73.9421 L38.0339,72.5817 L35.5994,77.0631"/>
        </g>
        <g id="product-04-Y10-K">
            <path style="stroke:none; fill:none;"  pointer-events="visible" d="M49.4111,54.7033 L48.1634,54.0255 L47.5437,55.1661 L48.7915,55.8439 L49.4111,54.7033"/>
        </g>
        <g id="product-04-X13-T">
        </g>
        <g id="product-04-Y-10-H">
            <path style="stroke:none; fill:none;"  pointer-events="visible" d="M51.5447,57.4921 L50.2952,56.8133 L49.6636,57.9758 L50.9132,58.6546 L51.5447,57.4921"/>
        </g>
        <g id="product-04-Y10-A">
            <path style="stroke:none; fill:none;"  pointer-events="visible" d="M56.9606,58.1596 L54.4235,62.83 L52.1348,61.5867 L54.6719,56.9163 L56.9606,58.1596"/>
            <path style="stroke:none; fill:none;"  pointer-events="visible" d="M61.9162,54.7006 L55.5019,51.2163 L52.7182,56.3417 L52.8051,56.3889 L52.5863,56.7918 L52.559,56.777 L51.5614,58.6135 L51.5886,58.6283 L51.2633,59.2272 L50.5473,60.5453 L50.4519,60.7209 L56.7786,64.1578 L60.6214,57.0839 L60.6214,57.0839 L61.9162,54.7006"/>
        </g>
        <g id="product-04-X02-A">
            <path style="stroke:none; fill:none;"  pointer-events="visible" d="M28.5242,94.9272 L27.3777,89.7506 L27.3768,89.7509 L24.7411,90.3479 L27.0645,100.839 L31.6106,101.479 L32.6599,94.0246 L28.5242,94.9272"/>
        </g>
        <g id="product-04-X13-A">
            <path style="stroke:none; fill:none;"  pointer-events="visible" d="M20.1804,35.9927 L25.4526,34.8251 L26.6202,40.0973 L26.6203,40.0973 L27.749,45.1938 L34.7154,43.651 L29.9381,22.0791 L7.9439,14.5302 L14.219,42.8437 L21.348,41.2649 L20.1804,35.9927"/>
            <path style="stroke:none; fill:none;"  pointer-events="visible" d="M16.8632,42.2149 L15.7017,37.0283 L18.2448,36.4651 L19.394,41.6544 L16.8632,42.2149"/>
        </g>
        <g id="product-04-Y05-G">
            <path style="stroke:none; fill:none;"  pointer-events="visible" d="M23.6245,52.0068 L23.9879,53.6494 L26.0875,53.1851 L26.1005,53.2437 L26.1103,53.2415 L26.1131,53.2542 L27.0797,53.0402 L27.0768,53.0275 L27.0866,53.0253 L27.0736,52.9667 L29.3721,52.4582 L30.0295,55.4268 L30.0158,55.4298 L32.4747,66.5328 L31.0004,66.8593 L31.144,67.5076 L30.8023,67.5833 L31.1223,69.0283 L31.464,68.9526 L31.6846,69.9485 L31.3428,70.0241 L31.6629,71.4691 L32.0046,71.3934 L33.5176,78.2253 L36.1612,79.6615 L36.1617,79.6605 L37.0316,80.1331 L37.2337,80.2429 L38.1037,80.7155 L39.2513,81.3389 L40.0552,79.8593 L35.1343,77.186 L37.8839,72.1246 L42.8675,62.9509 L45.617,57.8895 L50.5378,60.5627 L51.3411,59.0839 L49.4528,58.0581 L49.4814,58.0054 L49.4726,58.0006 L49.4788,57.9892 L48.6089,57.5166 L48.6027,57.528 L48.5939,57.5233 L48.5653,57.576 L46.4202,56.4107 L47.8844,53.7155 L47.9722,53.7635 L53.2613,44.0274 L53.1734,43.9796 L55.9327,38.9003 L54.6141,38.1726 L36.924,70.683 L34.7801,69.5424 L30.422,49.8664 L30.4111,49.8169 L30.3993,49.7161 L30.3977,49.6147 L30.4064,49.5137 L30.4253,49.414 L30.4542,49.3168 L30.4928,49.223 L30.5406,49.1335 L30.5973,49.0494 L30.6622,48.9715 L30.7346,48.9005 L30.7622,48.8786 L35.4745,44.993 L35.5033,44.9696 L35.5689,44.903 L35.6267,44.8297 L35.6761,44.7504 L35.7164,44.6661 L35.7473,44.578 L35.7683,44.487 L35.7791,44.3942 L35.7797,44.3008 L35.7699,44.2079 L35.76,44.1622 L35.6032,43.4544 L27.8466,45.1722 L29.0921,50.7959 L23.6245,52.0068"/>
        </g>
        <g id="product-04-X12-G">
            <path style="stroke:none; fill:none;"  pointer-events="visible" d="M21.5043,41.4249 L22.5919,46.3359 L27.7216,45.1999 L27.6781,45.0034 L27.6322,45.0135 L27.4181,44.047 L27.464,44.0368 L26.634,40.2889 L26.2708,40.3693 L26.2487,40.2698 L21.7576,41.2644 L21.7796,41.3639 L21.5043,41.4249"/>
        </g>
        <g id="product-04-Y12-A">
            <path style="stroke:none; fill:none;"  pointer-events="visible" d="M64.4939,49.9555 L58.1671,46.5187 L58.0942,46.6528 L58.0064,46.6051 L55.5379,51.1501 L61.934,54.6677 L64.4939,49.9555"/>
        </g>
        <g id="product-04-X10-I">
            <path style="stroke:none; fill:none;"  pointer-events="visible" d="M26.083,53.3633 L26.6722,56.0239 L28.2109,55.6831 L27.6217,53.0225 L26.083,53.3633"/>
        </g>
        <g id="product-04-X10-H">
            <path style="stroke:none; fill:none;"  pointer-events="visible" d="M25.1823,56.3538 L26.5706,56.0463 L26.2965,54.8083 L24.9081,55.1158 L25.1823,56.3538"/>
        </g>
        <g id="product-04-X10-G">
            <path style="stroke:none; fill:none;"  pointer-events="visible" d="M24.8791,54.985 L26.2675,54.6775 L25.9814,53.3858 L24.5931,53.6933 L24.8791,54.985"/>
        </g>
        <g id="product-04-10-K">
            <path style="stroke:none; fill:none;"  pointer-events="visible" d="M28.0093,54.2918 L29.3957,53.9847 L29.1344,52.8051 L27.748,53.1122 L28.0093,54.2918"/>
        </g>
        <g id="product-04-Y11-H">
            <path style="stroke:none; fill:none;"  pointer-events="visible" d="M47.9972,53.7771 L52.6137,56.2849 L52.7473,56.0389 L52.4995,55.9042 L52.6809,55.5703 L52.9287,55.705 L53.9179,53.8841 L49.3014,51.3763 L48.8755,52.1602 L48.9168,52.1827 L48.4443,53.0526 L48.403,53.0302 L48.3123,53.1971 L48.6388,53.3745 L48.4574,53.7084 L48.1309,53.531 L47.9972,53.7771"/>
        </g>
        <g id="product-04-X10-L">
            <path style="stroke:none; fill:none;"  pointer-events="visible" d="M28.3124,55.6606 L29.6988,55.3536 L29.4247,54.1156 L28.0383,54.4226 L28.3124,55.6606"/>
        </g>
        <g id="product-04-Y13-G">
            <path style="stroke:none; fill:none;"  pointer-events="visible" d="M53.3548,43.6457 L53.7941,43.8844 L53.7455,43.974 L57.7876,46.1698 L57.8363,46.0802 L58.1628,46.2576 L60.5591,41.8464 L60.2327,41.6688 L60.3168,41.5142 L56.2746,39.3183 L56.1905,39.473 L55.7513,39.2344 L53.3548,43.6457"/>
        </g>
        <g id="product-04-Y07-G">
            <path style="stroke:none; fill:none;"  pointer-events="visible" d="M37.8839,72.1246 L42.8142,74.7802 L47.7882,65.624 L42.877,62.9333 L37.8839,72.1246"/>
        </g>
        <g id="product-04-Y13-A">
            <path style="stroke:none; fill:none;"  pointer-events="visible" d="M59.8656,47.3557 L62.1544,48.599 L62.1519,48.6036 L62.1527,48.6041 L62.1553,48.5994 L64.5298,49.8893 L71.6319,36.816 L57.908,32.1056 L54.6141,38.1726 L55.9327,38.9003 L55.8487,39.055 L60.6812,41.6803 L58.1147,46.4046 L59.8648,47.3552 L59.8623,47.3598 L59.8631,47.3603 L59.8656,47.3557"/>
            <path style="stroke:none; fill:none;"  pointer-events="visible" d="M62.405,42.6812 L64.6938,43.9245 L62.1566,48.5949 L59.8679,47.3515 L62.405,42.6812"/>
        </g>
        <g id="product-04-X09-H">
            <path style="stroke:none; fill:none;"  pointer-events="visible" d="M25.4959,59.4489 L26.0925,62.1427 L26.3678,62.0817 L26.3899,62.1815 L30.8811,61.1869 L30.8591,61.0873 L31.2214,61.0071 L31.1803,60.8216 L31.135,60.8316 L30.921,59.865 L30.9671,59.8548 L30.6247,58.313 L25.4959,59.4489"/>
        </g>
        <g id="product-04-Y10-D">
            <path style="stroke:none; fill:none;"  pointer-events="visible" d="M54.3934,62.7283 L55.6083,60.492 L53.4514,59.3202 L52.2365,61.5565 L54.3934,62.7283"/>
        </g>
        <g id="product-04-Y10-C">
            <path style="stroke:none; fill:none;"  pointer-events="visible" d="M54.702,57.018 L53.4872,59.2543 L55.6441,60.4261 L56.8589,58.1897 L54.702,57.018"/>
        </g>
        <g id="product-04-X09-G">
            <path style="stroke:none; fill:none;"  pointer-events="visible" d="M25.0071,57.2417 L25.4579,59.277 L30.5867,58.1412 L30.392,57.2577 L30.3461,57.2679 L30.132,56.3013 L30.1779,56.2912 L30.1368,56.1057 L29.7738,56.187 L29.6907,55.8162 L30.0537,55.7348 L29.9931,55.4611 L24.8643,56.597 L24.9249,56.8707 L25.2003,56.8097 L25.2824,57.1807 L25.0071,57.2417"/>
        </g>
        <g id="product-XX-XX">
            <path style="stroke:none; fill:none;"  pointer-events="visible" d="M30.4111,49.8169 L30.422,49.8664 L34.7801,69.5424 L36.8892,70.6644 L53.8917,39.2 L35.5604,43.2607 L35.76,44.1622 L35.77,44.2076 L35.78,44.2999 L35.7798,44.3928 L35.7694,44.485 L35.7488,44.5756 L35.7185,44.6634 L35.6786,44.7473 L35.6298,44.8262 L35.5726,44.8994 L35.5077,44.9658 L35.4745,44.993 L30.7622,48.8786 L30.7346,48.9005 L30.6622,48.9715 L30.5973,49.0494 L30.5406,49.1335 L30.4928,49.223 L30.4542,49.3168 L30.4253,49.414 L30.4064,49.5137 L30.3977,49.6147 L30.3993,49.7161 L30.4111,49.8169"/>
        </g>
        <g id="product-04-X10-A">
            <path style="stroke:none; fill:none;"  pointer-events="visible" d="M24.7492,56.6228 L24.6516,56.6444 L22.379,46.3831 L22.4767,46.3614 L21.3891,41.4504 L21.2914,41.4721 L21.2504,41.2865 L14.2207,42.8434 L17.7235,58.6601 L24.8508,57.0817 L24.7492,56.6228"/>
            <path style="stroke:none; fill:none;"  pointer-events="visible" d="M18.0369,47.5728 L20.58,47.0096 L21.7292,52.1989 L19.1862,52.7621 L18.0369,47.5728"/>
        </g>
        <g id="product-04-X13-D">
            <path style="stroke:none; fill:none;"  pointer-events="visible" d="M18.7543,39.1126 L16.3577,39.6434 L16.908,42.1282 L19.3045,41.5974 L18.7543,39.1126"/>
        </g>
        <g id="product-04-Y13-C">
            <path style="stroke:none; fill:none;"  pointer-events="visible" d="M62.4351,42.7829 L61.2203,45.0192 L63.3772,46.1909 L64.5921,43.9546 L62.4351,42.7829"/>
        </g>
        <g id="product-04-Y02-A">
            <path style="stroke:none; fill:none;"  pointer-events="visible" d="M38.9167,91.3749 L36.3796,96.0453 L32.6599,94.0246 L31.6106,101.479 L36.1566,102.119 L41.2921,92.6654 L38.9167,91.3749"/>
        </g>
        <g id="product-04-Y00-A">
            <path style="stroke:none; fill:none;"  pointer-events="visible" d="M32.3682,109.092 L36.157,102.118 L27.0645,100.839 L28.7805,108.587 L32.3682,109.092"/>
        </g>
        <g id="product-04-Y05-H">
            <path style="stroke:none; fill:none;"  pointer-events="visible" d="M37.1555,80.2801 L35.9125,82.5682 L37.887,83.6409 L39.13,81.3527 L37.1555,80.2801"/>
        </g>
        <g id="product-04-Y05-I">
            <path style="stroke:none; fill:none;"  pointer-events="visible" d="M36.0726,79.6918 L35.5398,80.6724 L36.5314,81.2111 L37.0641,80.2304 L36.0726,79.6918"/>
        </g>
        <g id="product-04-Y05-J">
            <path style="stroke:none; fill:none;"  pointer-events="visible" d="M36.4818,81.3025 L35.3412,80.6829 L34.6805,81.899 L35.8211,82.5186 L36.4818,81.3025"/>
        </g>
        <g id="product-04-X03-A">
            <path style="stroke:none; fill:none;"  pointer-events="visible" d="M24.7383,90.3352 L27.0874,89.815 L27.1211,89.8075 L28.5212,89.4974 L29.9208,89.1875 L31.0672,94.364 L31.9181,94.1755 L32.6422,94.0151 L34.082,94.7972 L34.0816,94.798 L34.0895,94.8023 L34.0852,94.8103 L34.0861,94.8107 L34.0904,94.8028 L36.3791,96.0462 L36.3796,96.0453 L34.0908,94.8019 L36.628,90.1316 L37.8876,90.8159 L39.1477,91.5004 L40.2,92.072 L41.2921,92.6653 L56.7786,64.1578 L50.4519,60.7209 L45.3644,70.086 L44.4718,71.7289 L42.6276,75.1238 L40.97,78.1751 L40.4931,79.053 L39.3296,81.1948 L34.9567,89.2443 L32.7648,93.2791 L27.0495,67.4721 L27.1471,67.4505 L24.8508,57.0817 L17.7235,58.6601 L24.7383,90.3352"/>
            <path style="stroke:none; fill:none;"  pointer-events="visible" d="M49.5165,66.4064 L51.8052,67.6497 L49.2681,72.3201 L46.9794,71.0767 L49.5165,66.4064"/>
            <path style="stroke:none; fill:none;"  pointer-events="visible" d="M46.6498,77.1398 L44.1127,81.8102 L41.824,80.5668 L44.3611,75.8965 L46.6498,77.1398"/>
            <path style="stroke:none; fill:none;"  pointer-events="visible" d="M27.5672,78.5602 L25.0242,79.1234 L23.875,73.9341 L26.418,73.3709 L27.5672,78.5602"/>
            <path style="stroke:none; fill:none;"  pointer-events="visible" d="M24.0644,62.7434 L21.5214,63.3066 L20.3721,58.1173 L22.9152,57.5541 L24.0644,62.7434"/>
        </g>
        <g id="product-04-Y13-D">
            <path style="stroke:none; fill:none;"  pointer-events="visible" d="M62.1265,48.4932 L63.3414,46.2568 L61.1845,45.0851 L59.9696,47.3214 L62.1265,48.4932"/>
        </g>
        <g id="product-04-Y04-H">
            <path style="stroke:none; fill:none;"  pointer-events="visible" d="M28.2949,73.0958 L32.7648,93.2791 L37.7876,84.033 L34.382,82.183 L35.8451,79.4897 L33.5176,78.2253 L32.1905,72.2331 L28.2949,73.0958"/>
        </g>
        <g id="product-04-X13-C">
            <path style="stroke:none; fill:none;"  pointer-events="visible" d="M18.1877,36.5546 L15.7912,37.0853 L16.3415,39.5701 L18.738,39.0394 L18.1877,36.5546"/>
        </g>
    </g>
    <g id="storey-05">
        <g id="product-05-Y09-H">
        </g>
        <g id="product-05-X11-C">
        </g>
        <g id="product-05-X11-H">
        </g>
        <g id="product-05-Y04-G">
        </g>
        <g id="product-05-Y10-I">
        </g>
        <g id="product-05-X10-I">
        </g>
        <g id="product-05-X03-C">
        </g>
        <g id="product-05-Y10-G">
        </g>
        <g id="product-05-Y10-H">
        </g>
        <g id="product-05-Y10-K">
        </g>
        <g id="product-05-Y05-H">
        </g>
        <g id="product-05-Y05-I">
        </g>
        <g id="product-05-Y10-L">
        </g>
        <g id="product-05-Y05-J">
        </g>
        <g id="product-05-X09-D">
        </g>
        <g id="product-05-X10-K">
        </g>
        <g id="product-05-X10-L">
        </g>
        <g id="product-05-X05-C">
        </g>
        <g id="product-05-X10-G">
        </g>
        <g id="product-05-X10-H">
        </g>
        <g id="product-05-X06-G">
        </g>
        <g id="product-05-X06-H">
        </g>
        <g id="product-05-X05-D">
        </g>
        <g id="product-05-Y07-C">
        </g>
        <g id="product-05-Y09-C">
        </g>
        <g id="product-05-Y09-D">
        </g>
        <g id="product-05-Y03-D">
        </g>
        <g id="product-05-Y03-C">
        </g>
        <g id="product-05-X07-H">
        </g>
        <g id="product-05-Y07-D">
        </g>
        <g id="product-05-X07-J">
        </g>
        <g id="product-05-Y08-H">
        </g>
        <g id="product-05-Y07-M">
        </g>
        <g id="product-05-X03-D">
        </g>
        <g id="product-05-Y06-H">
        </g>
        <g id="product-05-Y06-G">
        </g>
        <g id="product-05-Y09-G">
        </g>
        <g id="product-05-X11-D">
        </g>
        <g id="product-05-X07-G">
        </g>
        <g id="product-05-X11-G">
        </g>
        <g id="product-05-X09-C">
        </g>
        <g id="product-05-X11-I">
        </g>
        <g id="product-05-Y06-I">
        </g>
        <g id="product-05-X13-T">
        </g>
        <g id="product-05-X02-A">
        </g>
        <g id="product-05-Y07-G">
        </g>
        <g id="product-05-X08-G">
        </g>
        <g id="product-05-Y02-A">
        </g>
        <g id="product-05-Y05-G">
        </g>
        <g id="product-05-Y05-A">
        </g>
        <g id="product-05-X04-A">
        </g>
        <g id="product-05-Y00-A">
        </g>
        <g id="product-05-Y09-I">
        </g>
    </g>
</svg>
