<svg xmlns="http://www.w3.org/2000/svg" xmlns:xlink="http://www.w3.org/1999/xlink" width="72.514" height="99.032">
  <defs>
    <clipPath id="clip-path">
      <rect x="43.559" y="59.754" width="3.91" height="3.635" transform="translate(-30.38 71.708) rotate(-61.135)" style="fill: none"/>
    </clipPath>
    <clipPath id="clip-path-2">
      <rect x="24.476" y="46.099" width="3.635" height="3.91" transform="matrix(0.974, -0.227, 0.227, 0.974, -10.229, 7.229)" style="fill: none"/>
    </clipPath>
    <clipPath id="clip-path-3">
      <polygon points="38.887 77.524 35.727 75.787 37.614 72.364 40.774 74.1 38.887 77.524" style="fill: none"/>
    </clipPath>
  </defs>
  <title>U1</title>
  <g id="NEW_Inner" data-name="NEW Inner">
    <polyline points="33.562 77.699 29.513 78.596 28.295 73.095 32.19 72.233 32.005 71.393" style="fill: none;stroke: #b4897d;stroke-width: 0.079999998211861px"/>
    <line x1="34.431" y1="77.506" x2="35.033" y2="77.373" style="fill: none;stroke: #b4897d;stroke-width: 0.079999998211861px"/>
    <polyline points="33.058 77.797 32.67 75.797 34.322 75.417 36.606 71.241 34.78 70.248 34.29 68.039 37.348 67.388 37.328 67.297" style="fill: none;stroke: #b4897d;stroke-width: 0.079999998211861px"/>
    <line x1="37.397" y1="67.608" x2="37.348" y2="67.388" style="fill: none;stroke: #b4897d;stroke-width: 0.079999998211861px"/>
    <polyline points="37.586 68.469 37.735 69.136 36.606 71.241" style="fill: none;stroke: #b4897d;stroke-width: 0.079999998211861px"/>
    <line x1="37.852" y1="69.24" x2="37.717" y2="69.169" style="fill: none;stroke: #b4897d;stroke-width: 0.079999998211861px"/>
    <polyline points="38.731 69.878 39.017 70.027 35.914 75.741" style="fill: none;stroke: #b4897d;stroke-width: 0.079999998211861px"/>
    <line x1="41.236" y1="73.942" x2="37.884" y2="72.122" style="fill: none;stroke: #b4897d;stroke-width: 0.079999998211861px"/>
    <line x1="42.056" y1="72.432" x2="38.705" y2="70.61" style="fill: none;stroke: #b4897d;stroke-width: 0.079999998211861px"/>
    <polyline points="39.651 68.87 40.375 67.538 43.728 69.358" style="fill: none;stroke: #b4897d;stroke-width: 0.079999998211861px"/>
    <line x1="40.586" y1="67.151" x2="40.375" y2="67.538" style="fill: none;stroke: #b4897d;stroke-width: 0.079999998211861px"/>
    <path d="M41.292,65.851c.014-.027.372-.687.372-.687l3.35,1.821" style="fill: none;stroke: #b4897d;stroke-width: 0.079999998211861px"/>
    <line x1="29.825" y1="72.762" x2="29.224" y2="70.195" style="fill: none;stroke: #b4897d;stroke-width: 0.079999998211861px"/>
    <path d="M31.685,69.949c-.006-.024-.064-.283-.064-.283l-3.895.862L28.3,73.1" style="fill: none;stroke: #b4897d;stroke-width: 0.079999998211861px"/>
    <line x1="31.621" y1="69.666" x2="31.458" y2="68.927" style="fill: none;stroke: #b4897d;stroke-width: 0.079999998211861px"/>
    <line x1="32.788" y1="68.761" x2="31.484" y2="69.049" style="fill: none;stroke: #b4897d;stroke-width: 0.079999998211861px"/>
    <line x1="34.114" y1="68.46" x2="34.37" y2="68.404" style="fill: none;stroke: #b4897d;stroke-width: 0.079999998211861px"/>
    <polyline points="31.144 67.508 30.945 66.609 27.049 67.471 27.726 70.528" style="fill: none;stroke: #b4897d;stroke-width: 0.079999998211861px"/>
    <line x1="31.202" y1="67.034" x2="31.034" y2="67.068" style="fill: none;stroke: #b4897d;stroke-width: 0.079999998211861px"/>
    <path d="M37.111,66.315c-.009-.043-.125-.562-.125-.562l-5.015,1.1" style="fill: none;stroke: #b4897d;stroke-width: 0.079999998211861px"/>
    <polyline points="38.94 65.638 37.643 59.78 43.157 58.557 43.714 58.862" style="fill: none;stroke: #b4897d;stroke-width: 0.079999998211861px"/>
    <polyline points="24.165 46.171 27.886 45.348 27.376 43.076" style="fill: none;stroke: #b4897d;stroke-width: 0.079999998211861px"/>
    <polyline points="25.324 51.445 29.053 50.619 28.994 50.352" style="fill: none;stroke: #b4897d;stroke-width: 0.079999998211861px"/>
    <line x1="30.281" y1="56.126" x2="29.053" y2="50.619" style="fill: none;stroke: #b4897d;stroke-width: 0.079999998211861px"/>
    <line x1="32.625" y1="66.688" x2="30.546" y2="57.325" style="fill: none;stroke: #b4897d;stroke-width: 0.079999998211861px"/>
    <line x1="37.034" y1="59.914" x2="37.643" y2="59.78" style="fill: none;stroke: #b4897d;stroke-width: 0.079999998211861px"/>
    <line x1="36.986" y1="65.753" x2="36.744" y2="64.659" style="fill: none;stroke: #b4897d;stroke-width: 0.079999998211861px"/>
    <path d="M36.538,63.732l-.084-.381" style="fill: none;stroke: #b4897d;stroke-width: 0.079999998211861px"/>
    <polyline points="36.262 62.482 35.756 60.197 31.387 61.159" style="fill: none;stroke: #b4897d;stroke-width: 0.079999998211861px"/>
    <line x1="35.939" y1="60.157" x2="35.756" y2="60.197" style="fill: none;stroke: #b4897d;stroke-width: 0.079999998211861px"/>
    <polyline points="46.303 64.615 42.953 62.793 44.775 59.437 44.652 59.37" style="fill: none;stroke: #b4897d;stroke-width: 0.079999998211861px"/>
    <line x1="41.664" y1="65.164" x2="42.953" y2="62.793" style="fill: none;stroke: #b4897d;stroke-width: 0.079999998211861px"/>
    <polyline points="45.407 58.276 45.537 58.034 45.992 58.297" style="fill: none;stroke: #b4897d;stroke-width: 0.079999998211861px"/>
    <polyline points="45.537 58.034 45.617 57.889 45.404 56.978" style="fill: none;stroke: #b4897d;stroke-width: 0.079999998211861px"/>
    <polyline points="45.233 56.207 44.998 55.153 46.292 52.77 48.379 53.905 45.992 58.297 48.881 59.868 38.359 79.236 34.956 77.389" style="fill: none;stroke: #b4897d;stroke-width: 0.079999998211861px"/>
    <polyline points="46.782 53.026 50.757 45.714 49.711 40.998 36.942 34.061 35.152 34.456" style="fill: none;stroke: #b4897d;stroke-width: 0.079999998211861px"/>
    <polyline points="34.225 34.661 27.296 36.209 28.536 41.874 34.374 40.582" style="fill: none;stroke: #b4897d;stroke-width: 0.079999998211861px"/>
    <line x1="32.8" y1="35.859" x2="32.603" y2="35.021" style="fill: none;stroke: #b4897d;stroke-width: 0.079999998211861px"/>
    <polyline points="32.998 36.751 33.354 38.362 33.856 38.252" style="fill: none;stroke: #b4897d;stroke-width: 0.079999998211861px"/>
    <polyline points="27.919 39.086 30.863 38.441 30.767 38.011" style="fill: none;stroke: #b4897d;stroke-width: 0.079999998211861px"/>
    <line x1="30.447" y1="36.566" x2="30.223" y2="35.555" style="fill: none;stroke: #b4897d;stroke-width: 0.079999998211861px"/>
    <polyline points="28.792 45.147 29.74 44.936 29.242 42.689 23.663 43.914 25.394 51.738 24.464 55.802 27.049 67.471" style="fill: none;stroke: #b4897d;stroke-width: 0.079999998211861px"/>
    <line x1="31.292" y1="44.593" x2="29.74" y2="44.936" style="fill: none;stroke: #b4897d;stroke-width: 0.079999998211861px"/>
    <line x1="31.01" y1="43.126" x2="29.458" y2="43.474" style="fill: none;stroke: #b4897d;stroke-width: 0.079999998211861px"/>
    <polyline points="32.161 44.4 32.633 44.295 31.931 41.122" style="fill: none;stroke: #b4897d;stroke-width: 0.079999998211861px"/>
    <line x1="31.859" y1="42.94" x2="32.31" y2="42.842" style="fill: none;stroke: #b4897d;stroke-width: 0.079999998211861px"/>
    <polyline points="32.633 44.295 35.076 43.754 33.856 38.252 35.177 37.959 36.76 35.044 35.523 34.375" style="fill: none;stroke: #b4897d;stroke-width: 0.079999998211861px"/>
    <polyline points="28.743 49.184 27.886 45.348 28.028 45.325" style="fill: none;stroke: #b4897d;stroke-width: 0.079999998211861px"/>
    <path d="M34.995,77.432c.009-.012.4-.722.4-.722" style="fill: none;stroke: #b4897d;stroke-width: 0.079999998211861px"/>
    <line x1="44.775" y1="59.437" x2="44.996" y2="59.029" style="fill: none;stroke: #b4897d;stroke-width: 0.079999998211861px"/>
    <polyline points="31.608 18.449 29.219 22.847 31.278 23.967" style="fill: none;stroke: #b4897d;stroke-width: 0.079999998211861px"/>
    <line x1="32.119" y1="24.424" x2="34.739" y2="25.846" style="fill: none;stroke: #b4897d;stroke-width: 0.079999998211861px"/>
    <polyline points="38.162 22.009 35.772 26.408 35.521 26.271" style="fill: none;stroke: #b4897d;stroke-width: 0.079999998211861px"/>
    <line x1="33.174" y1="24.997" x2="35.565" y2="20.598" style="fill: none;stroke: #b4897d;stroke-width: 0.079999998211861px"/>
    <polygon points="22.623 13.226 72.405 40.271 40.543 98.924 25.923 90.981 22.128 79.808 16.025 52.378 14.023 52.821 6.067 16.893 22.623 13.226" style="fill: none;stroke: #b4897d;stroke-width: 0.16px"/>
    <line x1="39.086" y1="69.91" x2="39.182" y2="69.733" style="fill: none;stroke: #b4897d;stroke-width: 0.079999998211861px"/>
    <g style="clip-path: url(#clip-path)">
      <path d="M46.118,64l-2.972-1.646.032-.058,2.972,1.646Zm-2.729-2.1,2.957,1.638.032-.058-2.957-1.638Zm3.323-1.765h0l-.1-.053L45.39,62.291l-.42-.233.193-.346,0,0,.032-.058,0,0,.991-1.786-.046-.026v0l-1.2-.663-.033.058,1.147.635-.216.388-1.128-.625-.033.058,1.129.625-.216.389-1.169-.647-.033.058,1.17.647-.217.39-1.139-.631-.032.058,1.139.631-.216.39-1.132-.626-.032.058,1.132.626-.218.392L43.68,61.4l-.033.058L46.593,63.1l.032-.058-1.163-.646L45.676,62l1.149.636.032-.058-1.149-.636.217-.39,1.148.637.032-.058L45.957,61.5l.216-.389,1.132.627.032-.058-1.132-.627.216-.389,1.148.635.032-.058L46.454,60.6l.226-.408,1.162.644.032-.058Z" style="fill: #b4897d"/>
    </g>
    <line x1="47.874" y1="60.782" x2="45.899" y2="64.396" style="fill: none;stroke: #b4897d;stroke-width: 0.079999998211861px"/>
  </g>
  <g id="Stairs">
    <g style="clip-path: url(#clip-path-2)">
      <path d="M24.265,46.642l3.265-.754.015.065-3.265.753Zm3.386-.256-3.294.761.015.064,3.294-.761Zm-1.288,3.535h0l.107-.025L25.9,47.436l.468-.107.089.385h0l.015.065h0l.458,1.991.052-.012v0l1.333-.308-.015-.064-1.277.3-.1-.433,1.257-.29L28.17,48.9l-1.257.291-.1-.434,1.3-.3-.015-.065-1.3.3-.1-.434,1.269-.293-.015-.065-1.269.293-.1-.434,1.278-.293-.015-.065-1.277.293-.1-.436,1.3-.3-.014-.065-3.272.751.015.065,1.286-.294.1.431-1.28.3.015.065,1.28-.3.1.434-1.279.3.014.064,1.28-.3.1.434-1.261.291.015.065,1.261-.292.1.434-1.278.3.015.064,1.278-.3.105.454-1.295.3.015.065Z" style="fill: #b4897d"/>
    </g>
    <line x1="28.319" y1="49.452" x2="27.432" y2="45.458" style="fill: none;stroke: #b4897d;stroke-width: 0.079999998211861px"/>
  </g>
  <g id="NEW_Outer" data-name="NEW Outer">
    <polygon points="22.579 13.543 6.424 17.121 14.252 52.464 16.253 52.021 22.335 79.485 26.169 90.775 40.423 98.518 72 40.391 22.579 13.543" style="fill: none;stroke: #b4897d;stroke-width: 0.079999998211861px"/>
  </g>
  <g id="Anchor">
    <line x2="7.5" style="fill: none"/>
    <g style="clip-path: url(#clip-path-3)">
      <path d="M37.659,72.525l2.972,1.646-.033.058-2.971-1.646Zm2.729,2.1-2.957-1.639-.033.058,2.957,1.639Zm-1.533,2.742.032-.058-1.169-.651.215-.388,1.129.625.032-.058-1.128-.625.216-.39,1.146.63.032-.058-1.146-.63.216-.389L39.569,76l.032-.058-1.139-.631.217-.39,1.124.624.032-.058-1.124-.624.217-.392,1.135.634.032-.058-2.906-1.624-.032.058,1.158.65-.215.387-1.148-.636-.033.058,1.149.636-.216.389L36.7,74.332l-.033.058,1.149.636-.216.39-1.133-.627-.032.058,1.132.627-.216.389-1.147-.635-.033.058,1.148.635-.226.408-1.163-.644-.032.058,1.163.644h0l.1.054,1.226-2.207.419.233-1.216,2.19Z" style="fill: #b4897d"/>
    </g>
    <line x1="38.829" y1="77.343" x2="40.839" y2="73.734" style="fill: none;stroke: #b4897d;stroke-width: 0.08px"/>
  </g>
</svg>
