<svg xmlns="http://www.w3.org/2000/svg" xmlns:xlink="http://www.w3.org/1999/xlink" width="72.515" height="99.037">
  <defs>
    <clipPath id="clip-path">
      <rect x="43.559" y="59.754" width="3.91" height="3.635" transform="translate(-30.38 71.708) rotate(-61.135)" style="fill: none"/>
    </clipPath>
    <clipPath id="clip-path-2">
      <rect x="24.476" y="46.099" width="3.635" height="3.91" transform="matrix(0.974, -0.227, 0.227, 0.974, -10.229, 7.229)" style="fill: none"/>
    </clipPath>
    <clipPath id="clip-path-3">
      <polygon points="38.887 77.524 35.727 75.787 37.614 72.364 40.774 74.1 38.887 77.524" style="fill: none"/>
    </clipPath>
  </defs>
  <title>U2</title>
  <g id="NEW_Inner" data-name="NEW Inner">
    <polyline points="31.998 71.367 32.19 72.237 28.296 73.101 29.514 78.601 34.999 77.417 38.359 79.237 41.234 73.945 37.885 72.13 35.822 75.921" style="fill: none;stroke: #b4897d;stroke-width: 0.079999998211861px"/>
    <polyline points="28.296 73.101 27.706 70.435 31.6 69.572 31.464 68.953" style="fill: none;stroke: #b4897d;stroke-width: 0.079999998211861px"/>
    <line x1="31.6" y1="69.572" x2="31.685" y2="69.949" style="fill: none;stroke: #b4897d;stroke-width: 0.079999998211861px"/>
    <polyline points="31.144 67.508 30.945 66.615 27.05 67.476 27.706 70.435" style="fill: none;stroke: #b4897d;stroke-width: 0.079999998211861px"/>
    <polyline points="36.891 66.947 36.582 65.551 30.985 66.789" style="fill: none;stroke: #b4897d;stroke-width: 0.079999998211861px"/>
    <polyline points="37.071 67.759 37.219 68.431 34.519 69.033" style="fill: none;stroke: #b4897d;stroke-width: 0.079999998211861px"/>
    <line x1="33.675" y1="69.22" x2="31.622" y2="69.665" style="fill: none;stroke: #b4897d;stroke-width: 0.079999998211861px"/>
    <polyline points="34.485 77.528 34.078 75.706 37.841 68.775 37.219 68.431" style="fill: none;stroke: #b4897d;stroke-width: 0.079999998211861px"/>
    <line x1="34.999" y1="77.417" x2="35.368" y2="76.755" style="fill: none;stroke: #b4897d;stroke-width: 0.079999998211861px"/>
    <line x1="41.234" y1="73.945" x2="43.11" y2="70.492" style="fill: none;stroke: #b4897d;stroke-width: 0.079999998211861px"/>
    <polyline points="42.629 71.367 39.279 69.556 37.885 72.13" style="fill: none;stroke: #b4897d;stroke-width: 0.079999998211861px"/>
    <line x1="39.783" y1="68.629" x2="39.279" y2="69.556" style="fill: none;stroke: #b4897d;stroke-width: 0.079999998211861px"/>
    <line x1="39.087" y1="69.917" x2="38.6" y2="69.651" style="fill: none;stroke: #b4897d;stroke-width: 0.079999998211861px"/>
    <line x1="37.651" y1="69.134" x2="37.808" y2="69.219" style="fill: none;stroke: #b4897d;stroke-width: 0.079999998211861px"/>
    <line x1="40.242" y1="67.784" x2="40.586" y2="67.151" style="fill: none;stroke: #b4897d;stroke-width: 0.079999998211861px"/>
    <polyline points="43.592 69.604 43.726 69.362 40.377 67.535" style="fill: none;stroke: #b4897d;stroke-width: 0.079999998211861px"/>
    <polyline points="41.292 65.851 41.665 65.169 45.016 66.991 43.726 69.362" style="fill: none;stroke: #b4897d;stroke-width: 0.079999998211861px"/>
    <polyline points="45.016 66.991 46.305 64.618 42.953 62.798 41.665 65.169" style="fill: none;stroke: #b4897d;stroke-width: 0.079999998211861px"/>
    <line x1="37.984" y1="65.239" x2="36.582" y2="65.551" style="fill: none;stroke: #b4897d;stroke-width: 0.079999998211861px"/>
    <polyline points="38.834 65.051 40.001 64.792 43.521 58.307" style="fill: none;stroke: #b4897d;stroke-width: 0.079999998211861px"/>
    <line x1="44.958" y1="59.102" x2="42.953" y2="62.798" style="fill: none;stroke: #b4897d;stroke-width: 0.079999998211861px"/>
    <polyline points="46.305 64.618 48.882 59.873 45.532 58.052 45.383 58.32" style="fill: none;stroke: #b4897d;stroke-width: 0.079999998211861px"/>
    <polyline points="43.981 57.462 44.088 57.269 44.396 57.435 45.532 58.052 44.396 57.435 46.973 52.691 35.418 46.451 35.305 46.475 35.193 45.978" style="fill: none;stroke: #b4897d;stroke-width: 0.079999998211861px"/>
    <line x1="39.396" y1="64.927" x2="35.305" y2="46.475" style="fill: none;stroke: #b4897d;stroke-width: 0.079999998211861px"/>
    <polyline points="37.828 65.283 35.451 54.534 29.837 55.777 28.712 50.701 25.33 51.449 25.396 51.743 24.465 55.807 27.05 67.476" style="fill: none;stroke: #b4897d;stroke-width: 0.079999998211861px"/>
    <line x1="36.699" y1="54.257" x2="37.012" y2="54.183" style="fill: none;stroke: #b4897d;stroke-width: 0.079999998211861px"/>
    <line x1="35.88" y1="54.439" x2="35.451" y2="54.534" style="fill: none;stroke: #b4897d;stroke-width: 0.079999998211861px"/>
    <polyline points="25.33 51.449 24.162 46.177 27.886 45.352 29.053 50.625 28.712 50.701" style="fill: none;stroke: #b4897d;stroke-width: 0.079999998211861px"/>
    <polyline points="24.162 46.177 23.663 43.914 27.384 43.09 27.886 45.352 28.18 45.289" style="fill: none;stroke: #b4897d;stroke-width: 0.079999998211861px"/>
    <polyline points="27.384 43.09 28.74 42.79 27.333 36.462 32.672 35.28 32.8 35.859" style="fill: none;stroke: #b4897d;stroke-width: 0.079999998211861px"/>
    <polyline points="30.767 38.011 30.862 38.441 27.925 39.101" style="fill: none;stroke: #b4897d;stroke-width: 0.079999998211861px"/>
    <line x1="30.447" y1="36.566" x2="30.265" y2="35.812" style="fill: none;stroke: #b4897d;stroke-width: 0.079999998211861px"/>
    <line x1="32.672" y1="35.28" x2="34.34" y2="34.905" style="fill: none;stroke: #b4897d;stroke-width: 0.079999998211861px"/>
    <polyline points="35.209 34.713 35.486 34.651 36.406 35.155 35.55 36.723" style="fill: none;stroke: #b4897d;stroke-width: 0.079999998211861px"/>
    <polyline points="35.125 37.506 35.004 37.734 33.299 38.11 32.998 36.751" style="fill: none;stroke: #b4897d;stroke-width: 0.079999998211861px"/>
    <polyline points="33.299 38.11 33.872 40.698 28.542 41.879" style="fill: none;stroke: #b4897d;stroke-width: 0.079999998211861px"/>
    <polyline points="29.049 45.096 32.633 44.301 31.926 41.129" style="fill: none;stroke: #b4897d;stroke-width: 0.079999998211861px"/>
    <polyline points="32.633 44.301 34.721 43.839 34.931 44.794" style="fill: none;stroke: #b4897d;stroke-width: 0.079999998211861px"/>
    <polyline points="33.872 40.698 34.018 40.665 34.721 43.839" style="fill: none;stroke: #b4897d;stroke-width: 0.079999998211861px"/>
    <polyline points="39.306 43.661 39.962 44.002 41.053 42.016 36.028 39.304 35.757 39.771 35.845 40.164" style="fill: none;stroke: #b4897d;stroke-width: 0.079999998211861px"/>
    <polyline points="36.065 41.153 36.253 41.998 36.825 42.313" style="fill: none;stroke: #b4897d;stroke-width: 0.079999998211861px"/>
    <line x1="37.722" y1="42.785" x2="38.443" y2="43.177" style="fill: none;stroke: #b4897d;stroke-width: 0.079999998211861px"/>
    <line x1="39.15" y1="40.989" x2="38.073" y2="42.976" style="fill: none;stroke: #b4897d;stroke-width: 0.079999998211861px"/>
    <line x1="36.316" y1="42.033" x2="37.393" y2="40.027" style="fill: none;stroke: #b4897d;stroke-width: 0.079999998211861px"/>
    <polygon points="22.624 13.231 6.068 16.898 14.024 52.826 16.026 52.383 22.047 79.57 25.924 90.986 40.544 98.929 72.406 40.276 22.624 13.231" style="fill: none;stroke: #b4897d;stroke-width: 0.16px"/>
    <polygon points="22.579 13.543 6.424 17.121 14.252 52.464 16.253 52.021 22.335 79.485 26.169 90.775 40.423 98.518 72 40.391 22.579 13.543" style="fill: none;stroke: #b4897d;stroke-width: 0.079999998211861px"/>
  </g>
  <g id="Anchor">
    <line x2="7.5" style="fill: none"/>
  </g>
  <g id="Stairs">
    <g style="clip-path: url(#clip-path)">
      <path d="M46.118,64l-2.972-1.646.032-.058,2.972,1.646Zm-2.729-2.1,2.957,1.638.032-.058-2.957-1.638Zm3.323-1.765h0l-.1-.053L45.39,62.291l-.42-.233.193-.346,0,0,.032-.058,0,0,.991-1.786-.046-.026v0l-1.2-.663-.033.058,1.147.635-.216.388-1.128-.625-.033.058,1.129.625-.216.389-1.169-.647-.033.058,1.17.647-.217.39-1.139-.631-.032.058,1.139.631-.216.39-1.132-.626-.032.058,1.132.626-.218.392L43.68,61.4l-.033.058L46.593,63.1l.032-.058-1.163-.646L45.676,62l1.149.636.032-.058-1.149-.636.217-.39,1.148.637.032-.058L45.957,61.5l.216-.389,1.132.627.032-.058-1.132-.627.216-.389,1.148.635.032-.058L46.454,60.6l.226-.408,1.162.644.032-.058Z" style="fill: #b4897d"/>
    </g>
    <line x1="47.874" y1="60.782" x2="45.899" y2="64.396" style="fill: none;stroke: #b4897d;stroke-width: 0.079999998211861px"/>
    <g style="clip-path: url(#clip-path-2)">
      <path d="M24.265,46.642l3.265-.754.015.065-3.265.753Zm3.386-.256-3.294.761.015.064,3.294-.761Zm-1.288,3.535h0l.107-.025L25.9,47.436l.468-.107.089.385h0l.015.065h0l.458,1.991.052-.012v0l1.333-.308-.015-.064-1.277.3-.1-.433,1.257-.29L28.17,48.9l-1.257.291-.1-.434,1.3-.3-.015-.065-1.3.3-.1-.434,1.269-.293-.015-.065-1.269.293-.1-.434,1.278-.293-.015-.065-1.277.293-.1-.436,1.3-.3-.014-.065-3.272.751.015.065,1.286-.294.1.431-1.28.3.015.065,1.28-.3.1.434-1.279.3.014.064,1.28-.3.1.434-1.261.291.015.065,1.261-.292.1.434-1.278.3.015.064,1.278-.3.105.454-1.295.3.015.065Z" style="fill: #b4897d"/>
    </g>
    <line x1="28.319" y1="49.452" x2="27.432" y2="45.458" style="fill: none;stroke: #b4897d;stroke-width: 0.079999998211861px"/>
    <g style="clip-path: url(#clip-path-3)">
      <path d="M37.659,72.525l2.972,1.646-.033.058-2.971-1.646Zm2.729,2.1-2.957-1.639-.033.058,2.957,1.639Zm-1.533,2.742.032-.058-1.169-.651.215-.388,1.129.625.032-.058-1.128-.625.216-.39,1.146.63.032-.058-1.146-.63.216-.389L39.569,76l.032-.058-1.139-.631.217-.39,1.124.624.032-.058-1.124-.624.217-.392,1.135.634.032-.058-2.906-1.624-.032.058,1.158.65-.215.387-1.148-.636-.033.058,1.149.636-.216.389L36.7,74.332l-.033.058,1.149.636-.216.39-1.133-.627-.032.058,1.132.627-.216.389-1.147-.635-.033.058,1.148.635-.226.408-1.163-.644-.032.058,1.163.644h0l.1.054,1.226-2.207.419.233-1.216,2.19Z" style="fill: #b4897d"/>
    </g>
    <line x1="38.829" y1="77.343" x2="40.839" y2="73.734" style="fill: none;stroke: #b4897d;stroke-width: 0.08px"/>
  </g>
</svg>
