<svg xmlns="http://www.w3.org/2000/svg" xmlns:xlink="http://www.w3.org/1999/xlink" width="72.514" height="99.033">
  <defs>
    <clipPath id="clip-path">
      <rect x="43.559" y="59.754" width="3.91" height="3.635" transform="translate(-30.38 71.708) rotate(-61.135)" style="fill: none"/>
    </clipPath>
    <clipPath id="clip-path-2">
      <rect x="24.476" y="46.099" width="3.635" height="3.91" transform="matrix(0.974, -0.227, 0.227, 0.974, -10.229, 7.229)" style="fill: none"/>
    </clipPath>
    <clipPath id="clip-path-3">
      <polygon points="38.887 77.524 35.727 75.787 37.614 72.364 40.774 74.1 38.887 77.524" style="fill: none"/>
    </clipPath>
  </defs>
  <title>U3</title>
  <g id="NEW_Inner" data-name="NEW Inner">
    <polyline points="32.998 36.751 33.298 38.107 35.003 37.73 36.404 35.15 35.486 34.651 35.209 34.713" style="fill: none;stroke: #b4897d;stroke-width: 0.079999998211861px"/>
    <polyline points="34.34 34.905 32.67 35.276 32.8 35.859 32.67 35.276 27.332 36.457 27.916 39.098 30.862 38.441 30.767 38.011" style="fill: none;stroke: #b4897d;stroke-width: 0.079999998211861px"/>
    <path d="M30.447,36.566l-.155-.764" style="fill: none;stroke: #b4897d;stroke-width: 0.079999998211861px"/>
    <polyline points="27.916 39.098 28.742 42.801 23.664 43.927 25.329 51.445 29.053 50.62 27.887 45.345" style="fill: none;stroke: #b4897d;stroke-width: 0.079999998211861px"/>
    <polyline points="27.387 43.097 27.887 45.345 24.157 46.174" style="fill: none;stroke: #b4897d;stroke-width: 0.079999998211861px"/>
    <polyline points="28.541 41.892 34.016 40.662 34.72 43.834 32.633 44.296 31.931 41.131" style="fill: none;stroke: #b4897d;stroke-width: 0.079999998211861px"/>
    <path d="M33.871,40.7s-.6-2.581-.573-2.588" style="fill: none;stroke: #b4897d;stroke-width: 0.079999998211861px"/>
    <line x1="36.132" y1="50.214" x2="34.72" y2="43.834" style="fill: none;stroke: #b4897d;stroke-width: 0.079999998211861px"/>
    <polyline points="35.351 46.686 35.705 46.607 46.971 52.686 44.396 57.431 48.881 59.869 46.304 64.614 42.952 62.794 44.958 59.102" style="fill: none;stroke: #b4897d;stroke-width: 0.079999998211861px"/>
    <line x1="45.383" y1="58.32" x2="45.533" y2="58.049" style="fill: none;stroke: #b4897d;stroke-width: 0.079999998211861px"/>
    <line x1="46.304" y1="64.614" x2="43.725" y2="69.359" style="fill: none;stroke: #b4897d;stroke-width: 0.079999998211861px"/>
    <line x1="41.292" y1="65.851" x2="42.952" y2="62.794" style="fill: none;stroke: #b4897d;stroke-width: 0.079999998211861px"/>
    <polyline points="45.015 66.984 41.664 65.137 40.222 64.382 40.001 64.789 38.869 65.021" style="fill: none;stroke: #b4897d;stroke-width: 0.079999998211861px"/>
    <line x1="38.562" y1="61.425" x2="39.372" y2="64.918" style="fill: none;stroke: #b4897d;stroke-width: 0.079999998211861px"/>
    <line x1="38.403" y1="60.567" x2="36.655" y2="52.575" style="fill: none;stroke: #b4897d;stroke-width: 0.079999998211861px"/>
    <line x1="36.573" y1="54.281" x2="37.008" y2="54.191" style="fill: none;stroke: #b4897d;stroke-width: 0.079999998211861px"/>
    <polyline points="35.633 54.489 29.836 55.773 28.712 50.702" style="fill: none;stroke: #b4897d;stroke-width: 0.079999998211861px"/>
    <polyline points="37.93 65.229 30.984 66.785 30.945 66.609 27.049 67.472 24.464 55.803 25.395 51.738 25.329 51.445" style="fill: none;stroke: #b4897d;stroke-width: 0.079999998211861px"/>
    <line x1="31.144" y1="67.509" x2="30.984" y2="66.785" style="fill: none;stroke: #b4897d;stroke-width: 0.079999998211861px"/>
    <line x1="31.464" y1="68.954" x2="31.685" y2="69.949" style="fill: none;stroke: #b4897d;stroke-width: 0.079999998211861px"/>
    <polyline points="32.005 71.393 32.19 72.233 28.295 73.097 27.049 67.472" style="fill: none;stroke: #b4897d;stroke-width: 0.079999998211861px"/>
    <line x1="31.6" y1="69.568" x2="27.705" y2="70.431" style="fill: none;stroke: #b4897d;stroke-width: 0.079999998211861px"/>
    <polyline points="22.423 79.744 29.423 78.193 28.295 73.097" style="fill: none;stroke: #b4897d;stroke-width: 0.079999998211861px"/>
    <line x1="33.673" y1="69.211" x2="31.621" y2="69.666" style="fill: none;stroke: #b4897d;stroke-width: 0.079999998211861px"/>
    <polyline points="34.51 69.038 37.218 68.427 37.839 68.777 37.648 69.13 37.764 69.192" style="fill: none;stroke: #b4897d;stroke-width: 0.079999998211861px"/>
    <polyline points="29.423 78.193 29.512 78.597 34.475 77.497 34.077 75.702 37.648 69.13" style="fill: none;stroke: #b4897d;stroke-width: 0.079999998211861px"/>
    <line x1="29.806" y1="78.536" x2="30.253" y2="80.549" style="fill: none;stroke: #b4897d;stroke-width: 0.079999998211861px"/>
    <polyline points="30.43 81.353 30.752 82.803 26.949 89.802 25.917 90.032" style="fill: none;stroke: #b4897d;stroke-width: 0.079999998211861px"/>
    <polyline points="34.475 77.497 34.958 77.39 38.359 79.237 43.11 70.492" style="fill: none;stroke: #b4897d;stroke-width: 0.079999998211861px"/>
    <polyline points="43.592 69.604 43.725 69.359 40.376 67.539 40.202 67.856" style="fill: none;stroke: #b4897d;stroke-width: 0.079999998211861px"/>
    <line x1="35.01" y1="77.419" x2="35.368" y2="76.755" style="fill: none;stroke: #b4897d;stroke-width: 0.079999998211861px"/>
    <polyline points="35.822 75.921 39.087 69.91 38.598 69.645" style="fill: none;stroke: #b4897d;stroke-width: 0.079999998211861px"/>
    <line x1="37.894" y1="72.13" x2="41.227" y2="73.942" style="fill: none;stroke: #b4897d;stroke-width: 0.079999998211861px"/>
    <polyline points="42.625 71.384 39.279 69.558 39.087 69.91" style="fill: none;stroke: #b4897d;stroke-width: 0.079999998211861px"/>
    <line x1="39.279" y1="69.558" x2="39.783" y2="68.629" style="fill: none;stroke: #b4897d;stroke-width: 0.079999998211861px"/>
    <line x1="40.586" y1="67.151" x2="40.376" y2="67.539" style="fill: none;stroke: #b4897d;stroke-width: 0.079999998211861px"/>
    <line x1="37.218" y1="68.427" x2="37.104" y2="67.854" style="fill: none;stroke: #b4897d;stroke-width: 0.079999998211861px"/>
    <line x1="36.891" y1="66.945" x2="36.581" y2="65.527" style="fill: none;stroke: #b4897d;stroke-width: 0.079999998211861px"/>
    <polygon points="72.406 40.272 22.623 13.227 6.067 16.894 14.024 52.822 16.025 52.379 22.129 79.809 25.923 90.982 40.543 98.925 72.406 40.272" style="fill: none;stroke: #b4897d;stroke-width: 0.16px"/>
  </g>
  <g id="NEW_Outer" data-name="NEW Outer">
    <polygon points="22.579 13.543 6.424 17.121 14.252 52.464 16.253 52.021 22.374 79.6 26.169 90.775 40.423 98.518 72 40.391 22.579 13.543" style="fill: none;stroke: #b4897d;stroke-width: 0.079999998211861px"/>
  </g>
  <g id="Anchor">
    <line x2="7.5" style="fill: none"/>
  </g>
  <g id="Stairs">
    <g style="clip-path: url(#clip-path)">
      <path d="M46.118,64l-2.972-1.646.032-.058,2.972,1.646Zm-2.729-2.1,2.957,1.638.032-.058-2.957-1.638Zm3.323-1.765h0l-.1-.053L45.39,62.291l-.42-.233.193-.346,0,0,.032-.058,0,0,.991-1.786-.046-.026v0l-1.2-.663-.033.058,1.147.635-.216.388-1.128-.625-.033.058,1.129.625-.216.389-1.169-.647-.033.058,1.17.647-.217.39-1.139-.631-.032.058,1.139.631-.216.39-1.132-.626-.032.058,1.132.626-.218.392L43.68,61.4l-.033.058L46.593,63.1l.032-.058-1.163-.646L45.676,62l1.149.636.032-.058-1.149-.636.217-.39,1.148.637.032-.058L45.957,61.5l.216-.389,1.132.627.032-.058-1.132-.627.216-.389,1.148.635.032-.058L46.454,60.6l.226-.408,1.162.644.032-.058Z" style="fill: #b4897d"/>
    </g>
    <line x1="47.874" y1="60.782" x2="45.899" y2="64.396" style="fill: none;stroke: #b4897d;stroke-width: 0.079999998211861px"/>
    <g style="clip-path: url(#clip-path-2)">
      <path d="M24.265,46.642l3.265-.754.015.065-3.265.753Zm3.386-.256-3.294.761.015.064,3.294-.761Zm-1.288,3.535h0l.107-.025L25.9,47.436l.468-.107.089.385h0l.015.065h0l.458,1.991.052-.012v0l1.333-.308-.015-.064-1.277.3-.1-.433,1.257-.29L28.17,48.9l-1.257.291-.1-.434,1.3-.3-.015-.065-1.3.3-.1-.434,1.269-.293-.015-.065-1.269.293-.1-.434,1.278-.293-.015-.065-1.277.293-.1-.436,1.3-.3-.014-.065-3.272.751.015.065,1.286-.294.1.431-1.28.3.015.065,1.28-.3.1.434-1.279.3.014.064,1.28-.3.1.434-1.261.291.015.065,1.261-.292.1.434-1.278.3.015.064,1.278-.3.105.454-1.295.3.015.065Z" style="fill: #b4897d"/>
    </g>
    <line x1="28.319" y1="49.452" x2="27.432" y2="45.458" style="fill: none;stroke: #b4897d;stroke-width: 0.079999998211861px"/>
    <g style="clip-path: url(#clip-path-3)">
      <path d="M37.659,72.525l2.972,1.646-.033.058-2.971-1.646Zm2.729,2.1-2.957-1.639-.033.058,2.957,1.639Zm-1.533,2.742.032-.058-1.169-.651.215-.388,1.129.625.032-.058-1.128-.625.216-.39,1.146.63.032-.058-1.146-.63.216-.389L39.569,76l.032-.058-1.139-.631.217-.39,1.124.624.032-.058-1.124-.624.217-.392,1.135.634.032-.058-2.906-1.624-.032.058,1.158.65-.215.387-1.148-.636-.033.058,1.149.636-.216.389L36.7,74.332l-.033.058,1.149.636-.216.39-1.133-.627-.032.058,1.132.627-.216.389-1.147-.635-.033.058,1.148.635-.226.408-1.163-.644-.032.058,1.163.644h0l.1.054,1.226-2.207.419.233-1.216,2.19Z" style="fill: #b4897d"/>
    </g>
    <line x1="38.829" y1="77.343" x2="40.839" y2="73.734" style="fill: none;stroke: #b4897d;stroke-width: 0.08px"/>
  </g>
</svg>
